<svg width="900" height="600" viewBox="0 0 900 600" fill="none" xmlns="http://www.w3.org/2000/svg"><path fill="transparent" d="M0 0h900v600H0z"/><path d="M190.98 354.417c-3.697 68.122 129.486 206.639 293.644 155.37 76.348-23.848 69.881-63.429 127.936-115.594 34.604-31.09 84.324-54.601 98.152-99.793 11.946-39.008 4.62-80.936-16.09-108.208-46.578-61.332-140.61-103.33-233.262-6.696-92.651 96.634-260.826-.77-270.38 174.921z" fill="url(#a)"/><path d="M227.489 204.256c12.954 23.12 41.326 26.297 86.779 21.903 34.184-3.31 65.357-5.872 99.543-24.511 23.928-13.037 42.869-30.675 56.694-47.806 14.98-18.558 35.89-39.739 25.64-60.781-14.087-28.906-95.549-53.25-174.652-13.439-86.894 43.746-106.677 102.038-94.004 124.634z" fill="url(#b)"/><path d="M557.215 487.012c30.18-42.22 61.088-87.094 101.552-109.197 41.738-22.808 49.436-8.751 52.325 13.598 2.889 22.349-9.988 75.301-66.949 105.429-56.975 30.137-115.167 29.685-86.928-9.83z" fill="url(#c)"/><path d="M626.873 304.595c0-97.989-79.436-177.424-177.424-177.424s-177.424 79.436-177.424 177.424 79.436 177.424 177.424 177.424 177.424-79.436 177.424-177.424z" fill="#206bc4"/><path d="M449.449 457.476c84.434 0 152.881-68.447 152.881-152.881s-68.447-152.881-152.881-152.881-152.881 68.447-152.881 152.881 68.447 152.881 152.881 152.881z" fill="#182433"/><path d="M445 189.076c0 .598.39.981.646 1.167.276.202.612.342.937.442.662.204 1.516.315 2.417.315.897 0 1.751-.112 2.413-.316.325-.1.661-.24.937-.44.253-.184.65-.566.65-1.168v-24.152c0-.598-.39-.981-.646-1.167-.276-.202-.612-.342-.937-.442-.662-.204-1.516-.315-2.417-.315-.901 0-1.755.111-2.417.315-.325.1-.661.24-.937.442-.256.186-.646.569-.646 1.167v24.152zm0 252.046c0 .617.419.994.666 1.164.275.191.609.323.931.417.657.192 1.506.297 2.403.297.893 0 1.741-.105 2.399-.297a3.28 3.28 0 0 0 .932-.415c.245-.169.669-.546.669-1.166v-24.244c0-.617-.419-.994-.666-1.164a3.24 3.24 0 0 0-.931-.417c-.657-.192-1.506-.297-2.403-.297s-1.746.105-2.403.297a3.24 3.24 0 0 0-.931.417c-.247.17-.666.547-.666 1.164v24.244zM310.789 304.061h26.78c1.155 0 1.926-.999 1.926-2.023 0-1.023-.771-2.022-1.926-2.022h-26.78c-1.156 0-1.927.999-1.927 2.022 0 1.024.771 2.023 1.927 2.023z" fill="#2d4059" stroke="#2d4059" stroke-width="2"/><path d="M310.939 306h27.122c.594 0 .978-.382 1.17-.64.205-.277.347-.613.449-.939.207-.663.32-1.519.32-2.421 0-.902-.113-1.758-.32-2.421-.102-.326-.244-.662-.449-.939-.192-.258-.576-.64-1.17-.64h-27.122c-.594 0-.978.382-1.17.64-.205.277-.347.613-.449.939-.207.663-.32 1.519-.32 2.421 0 .902.113 1.758.32 2.421.102.326.244.662.449.939.192.258.576.64 1.17.64zm252.994 0h23.134c.596 0 .979-.385 1.169-.642.204-.277.345-.613.446-.939.206-.663.318-1.517.318-2.419 0-.902-.112-1.756-.318-2.419-.101-.326-.242-.662-.446-.939-.19-.257-.573-.642-1.169-.642h-23.134c-.596 0-.979.385-1.169.642-.204.277-.345.613-.446.939-.206.663-.318 1.517-.318 2.419 0 .902.112 1.756.318 2.419.101.326.242.662.446.939.19.257.573.642 1.169.642zm-46.944 117.733-.002-.004-11.547-21.631v-.001c-.474-.885-.221-2.053.672-2.609.943-.588 2.108-.204 2.603.723l8.274 23.522zm0 0c.329.609.948.997 1.636.997.333 0 .664-.094.956-.272l.009-.006c.893-.556 1.147-1.724.673-2.609l-.001-.001-11.546-21.63 8.273 23.521zM378.656 184.271h.001l12.482 21.678a1.915 1.915 0 0 0 2.617.708l.002-.001a1.92 1.92 0 0 0 .701-2.622v-.001l-12.48-21.678v-.001a1.915 1.915 0 0 0-2.62-.704 1.92 1.92 0 0 0-.703 2.621zm172.349 172.227a1.92 1.92 0 0 0-2.619.777 1.943 1.943 0 0 0 .77 2.622l20.637 11.412.004.002c.292.164.611.243.928.243.689 0 1.346-.375 1.693-1.014l.001-.004a1.942 1.942 0 0 0-.767-2.62l-.002-.002-20.645-11.416zM329.078 234.803a1.913 1.913 0 0 0-2.6.769 1.926 1.926 0 0 0 .764 2.601l22.713 12.474a1.91 1.91 0 0 0 2.603-.768 1.924 1.924 0 0 0-.764-2.6l-22.716-12.476zm241.273-2.334a1.912 1.912 0 0 0-2.627-.707h-.001l-19.635 11.439a1.93 1.93 0 0 0-.702 2.625 1.912 1.912 0 0 0 2.625.71l.001-.001 19.637-11.44-.503-.864.504.864a1.93 1.93 0 0 0 .701-2.626zm0 0-.868.496.868-.496zM350.97 357.524h-.001l-22.73 12.581h-.001c-.91.504-1.258 1.658-.704 2.576a1.911 1.911 0 0 0 1.641.918c.32 0 .637-.079.927-.236l.01-.005 22.73-12.581h.001c.911-.504 1.258-1.659.703-2.577-.538-.893-1.689-1.167-2.576-.676zm29.702 66.384-.001.001c-.485.92-.168 2.094.756 2.618.291.167.612.248.931.248.695 0 1.347-.386 1.687-1.026l.002-.003 12.488-23.672.001-.001c.485-.921.168-2.097-.76-2.62a1.9 1.9 0 0 0-2.616.783v.001l-12.488 23.671zm121.704-222.926v.001a1.924 1.924 0 0 0 .777 2.626 1.952 1.952 0 0 0 2.63-.765l.002-.003 11.405-20.633.001-.001a1.925 1.925 0 0 0-.781-2.628 1.953 1.953 0 0 0-2.628.77l-11.406 20.633z" fill="#2d4059" stroke="#2d4059" stroke-width="2"/><rect x="446" y="297" width="105" height="11" rx="5.5" fill="#206bc4"/><rect x="458.183" y="306.619" width="65.073" height="15.296" rx="7.648" transform="rotate(120 458.183 306.619)" fill="#206bc4"/><path d="M464.269 317.402c7.911-7.911 7.911-20.738 0-28.649-7.911-7.912-20.738-7.912-28.649 0-7.912 7.911-7.912 20.738 0 28.649 7.911 7.911 20.738 7.911 28.649 0z" fill="#2d4059"/><path d="M459.972 313.106c5.539-5.539 5.539-14.518 0-20.057-5.538-5.538-14.518-5.538-20.056 0-5.538 5.539-5.538 14.518 0 20.057 5.538 5.538 14.518 5.538 20.056 0z" fill="#d3d3d3"/><path d="M197.054 248.584c13.558 3.211 27.898-8.287 27.898-8.287s-7.652-16.7-21.215-19.902c-13.558-3.211-27.894 8.277-27.894 8.277s7.653 16.7 21.211 19.912z" fill="url(#d)"/><path d="M564.302 107.172c-14.274 9.831-36.081 2.959-36.081 2.959s1.351-22.81 15.634-32.633c14.274-9.832 36.071-2.969 36.071-2.969s-1.35 22.81-15.624 32.643z" fill="url(#e)"/><path d="M321.08 163.577c-15.474 15.75-44.411 12.429-44.411 12.429s-3.829-28.856 11.66-44.596c15.474-15.75 44.396-12.439 44.396-12.439s3.83 28.857-11.645 44.606z" fill="url(#f)"/><ellipse rx="11.5" ry="11" transform="matrix(1 0 0 -1 254.5 378)" fill="#206bc4"/><ellipse rx="13" ry="13.5" transform="matrix(1 0 0 -1 371 506.5)" fill="#206bc4"/><ellipse rx="15.5" ry="15" transform="matrix(1 0 0 -1 646.5 433)" fill="#206bc4"/><circle cx="667.5" cy="249.5" r="5.5" fill="#206bc4"/><circle cx="269.5" cy="183.5" r="10.5" fill="#206bc4"/><ellipse cx="267.5" cy="474" rx="10.5" ry="10" fill="#313435"/><ellipse cx="710" cy="343" rx="11" ry="10" fill="#313435"/><circle cx="598.5" cy="483.5" r="3.5" fill="#313435"/><circle cx="331" cy="130" r="5" fill="#313435"/><circle cx="650.241" cy="305.977" r="4.886" transform="rotate(105 650.241 305.977)" fill="#313435"/><circle cx="644.5" cy="195.5" r="6.5" fill="#313435"/><ellipse cx="247" cy="311" rx="5" ry="4" fill="#313435"/><circle cx="457.301" cy="94.63" r="10.169" transform="rotate(105 457.301 94.63)" fill="#313435"/><path d="M175.067 309h-.131c-.774 10.975-8.936 11.143-8.936 11.143s9 .176 9 12.857c0-12.681 9-12.857 9-12.857s-8.158-.168-8.933-11.143zm429.549-173h-.226c-1.334 19.205-15.39 19.501-15.39 19.501s15.5.308 15.5 22.499c0-22.191 15.5-22.499 15.5-22.499s-14.05-.296-15.384-19.501z" fill="#313435"/><defs><linearGradient id="a" x1="350.162" y1="762.75" x2="599.289" y2="-361.225" gradientUnits="userSpaceOnUse"><stop stop-color="#2d4059"/><stop offset="1" stop-color="#273f5d"/></linearGradient><linearGradient id="b" x1="314.758" y1="354.093" x2="430.224" y2="-164.76" gradientUnits="userSpaceOnUse"><stop stop-color="#2d4059"/><stop offset="1" stop-color="#273f5d"/></linearGradient><linearGradient id="c" x1="590.914" y1="625.613" x2="689.931" y2="167.712" gradientUnits="userSpaceOnUse"><stop stop-color="#2d4059"/><stop offset="1" stop-color="#273f5d"/></linearGradient><linearGradient id="d" x1="248.111" y1="256.57" x2="129.422" y2="200.497" gradientUnits="userSpaceOnUse"><stop stop-color="#2d4059"/><stop offset="1" stop-color="#273f5d"/></linearGradient><linearGradient id="e" x1="508.699" y1="139.431" x2="621.059" y2="20.95" gradientUnits="userSpaceOnUse"><stop stop-color="#2d4059"/><stop offset="1" stop-color="#273f5d"/></linearGradient><linearGradient id="f" x1="259.34" y1="217.375" x2="371.211" y2="42.008" gradientUnits="userSpaceOnUse"><stop stop-color="#2d4059"/><stop offset="1" stop-color="#273f5d"/></linearGradient></defs></svg>