<svg width="900" height="600" viewBox="0 0 900 600" fill="none" xmlns="http://www.w3.org/2000/svg"><path fill="transparent" d="M0 0h900v600H0z"/><path d="m711.823 237.683-22.111-21.974c-8.392-8.34-19.849-7.905-25.468 1.015l-12.333 19.363 39.406 39.162 19.484-12.256c8.392-5.294 8.903-17.478 1.022-25.31z" stroke="#206bc4" stroke-width="24" stroke-linecap="round" stroke-linejoin="round"/><path d="m652.719 236.64-28.791-1.744c-16.044-.945-21.685 3.924-23.443 19.112l-7.179 60.463c-1.539 12.717 7.765 21.874 20.512 20.348l60.951-7.122c15.311-1.817 20.879-7.34 19.267-23.255l-1.685-28.56m-91.504 50.431 22.16-22.16" stroke="#206bc4" stroke-width="24" stroke-linecap="round" stroke-linejoin="round"/><path d="M610.229 190.489c0-30.188-24.667-54.67-55.224-54.67H334.111c-30.557 0-55.224 24.482-55.224 54.67V391.32c0 30.189 24.667 54.671 55.224 54.671h13.99c14.726 0 28.716 5.706 39.025 16.015l31.478 31.109c14.358 14.174 37.735 14.174 52.093 0l31.478-31.109c10.308-10.309 24.482-16.015 39.025-16.015h13.805c30.557 0 55.224-24.482 55.224-54.671v-10.973" stroke="#206bc4" stroke-width="24" stroke-linecap="round" stroke-linejoin="round"/><path d="M444.559 283.083c-23.687 0-42.89-19.203-42.89-42.891s19.203-42.89 42.89-42.89c23.688 0 42.891 19.202 42.891 42.89s-19.203 42.891-42.891 42.891zm-73.632 104.189c0-33.135 32.95-60.009 73.631-60.009 40.682 0 73.632 26.874 73.632 60.009" stroke="#206bc4" stroke-width="24" stroke-linecap="round" stroke-linejoin="round"/><path fill-rule="evenodd" clip-rule="evenodd" d="M158.848 480.196h4.234a1.85 1.85 0 0 1 1.848 1.848v4.233a1.85 1.85 0 0 1-1.848 1.848h-4.234a1.855 1.855 0 0 1-1.848-1.848v-4.233a1.844 1.844 0 0 1 1.848-1.848zm14.678 0h4.234c1.015 0 1.848.833 1.848 1.848v4.233a1.85 1.85 0 0 1-1.848 1.848h-4.234a1.854 1.854 0 0 1-1.847-1.848v-4.233c0-1.015.832-1.848 1.847-1.848zm14.689 0h4.234c1.015 0 1.848.833 1.848 1.848v4.233a1.85 1.85 0 0 1-1.848 1.848h-4.234a1.855 1.855 0 0 1-1.848-1.848v-4.233a1.844 1.844 0 0 1 1.848-1.848zm14.678 0h4.234c1.015 0 1.848.833 1.848 1.848v4.233a1.85 1.85 0 0 1-1.848 1.848h-4.234a1.857 1.857 0 0 1-1.856-1.848v-4.233a1.868 1.868 0 0 1 1.856-1.848zm14.68 0h4.234c1.024 0 1.857.833 1.857 1.848v4.233a1.851 1.851 0 0 1-1.857 1.848h-4.234a1.854 1.854 0 0 1-1.847-1.848v-4.233c0-1.015.832-1.848 1.847-1.848zm-43.508 16.006h4.234c1.015 0 1.848.833 1.848 1.848v4.242a1.855 1.855 0 0 1-1.848 1.848h-4.234a1.849 1.849 0 0 1-1.848-1.848v-4.233a1.846 1.846 0 0 1 1.848-1.857zm14.679 0h4.233c1.015 0 1.848.833 1.848 1.848v4.242a1.855 1.855 0 0 1-1.848 1.848h-4.233a1.855 1.855 0 0 1-1.848-1.848v-4.233a1.846 1.846 0 0 1 1.848-1.857zm14.679 0h4.234c1.024 0 1.857.833 1.857 1.848v4.242a1.857 1.857 0 0 1-1.857 1.848h-4.234a1.855 1.855 0 0 1-1.848-1.848v-4.233c0-1.024.833-1.857 1.848-1.857zM188.215 463h4.234c1.015 0 1.848.833 1.848 1.848v4.234a1.85 1.85 0 0 1-1.848 1.848h-4.234a1.855 1.855 0 0 1-1.848-1.848v-4.234a1.844 1.844 0 0 1 1.848-1.848zm-14.674 0h4.234c1.015 0 1.848.833 1.848 1.848v4.234a1.85 1.85 0 0 1-1.848 1.848h-4.234a1.855 1.855 0 0 1-1.848-1.848v-4.234a1.845 1.845 0 0 1 1.848-1.848zm29.352 0h4.234c1.015 0 1.848.833 1.848 1.848v4.234a1.85 1.85 0 0 1-1.848 1.848h-4.234a1.857 1.857 0 0 1-1.856-1.848v-4.234a1.868 1.868 0 0 1 1.856-1.848z" fill="#2d4059"/><path d="M257.808 104.048c14.833 7.358 34.521-2.103 34.521-2.103s-4.376-21.386-19.217-28.734c-14.833-7.358-34.513 2.092-34.513 2.092s4.376 21.387 19.209 28.745z" fill="url(#a)"/><circle r="10.073" transform="matrix(1 0 0 -1 187.014 145.785)" fill="#206bc4"/><circle r="18.945" transform="matrix(1 0 0 -1 590.662 92.793)" fill="#206bc4"/><circle cx="732.744" cy="197.205" r="10.069" fill="#206bc4"/><circle cx="176.479" cy="242.298" r="14.231" fill="#2d4059"/><circle cx="563.2" cy="518.823" r="17.889" fill="#2d4059"/><circle cx="669.761" cy="413.386" r="14.208" transform="rotate(105 669.761 413.386)" fill="#2d4059"/><ellipse cx="186.232" cy="376.132" rx="14.54" ry="11.632" fill="#2d4059"/><circle cx="326.085" cy="518.893" r="23.206" transform="rotate(90 326.085 518.893)" fill="#2d4059"/><defs><linearGradient id="a" x1="314.769" y1="127" x2="192.424" y2="30.225" gradientUnits="userSpaceOnUse"><stop stop-color="#182433"/><stop offset="1" stop-color="#273f5d"/></linearGradient></defs></svg>