<svg width="900" height="600" viewBox="0 0 900 600" fill="none" xmlns="http://www.w3.org/2000/svg"><path fill="transparent" d="M0 0h900v600H0z"/><path d="M203.541 156.802c60.2-75.931 188.125-107.7 273.645 6.127 72.54 96.547 104.143 102.07 159.278 120.438 36.407 12.135 95.979 28.575 61.265 122.484-45.434 122.91-270.201 156.11-393.098 110.231-117.524-43.867-210.344-221.491-101.09-359.28z" fill="url(#a)"/><path d="M502.326 139.017c27.59 47.844 79.844 109.461 166.841 134.459 86.997 24.983 102.49-26.183 76.267-85.664-26.223-59.48-90.574-111.847-170.417-123.745-79.844-11.9-95.338 35.682-72.691 74.95z" fill="url(#b)"/><path fill-rule="evenodd" clip-rule="evenodd" d="M589.817 206.722h20.824c23.009 0 41.647 18.658 41.647 41.647V437.03c0 23.01-18.638 41.647-41.647 41.647h-291.53c-23.01 0-41.647-18.637-41.647-41.647V187.148c0-23.01 18.637-41.647 41.647-41.647h93.102a20.814 20.814 0 0 1 17.2 9.1l29.258 43a20.818 20.818 0 0 0 17.221 9.121h30.631" fill="#206bc4"/><path fill-rule="evenodd" clip-rule="evenodd" d="M569.291 191.908h-42.242c-11.659 0-21.121 9.329-21.121 20.823v104.118l42.242-20.824 42.242 20.824V212.731c0-11.494-9.463-20.823-21.121-20.823z" fill="#182433"/><rect x="199.256" y="133.506" width="44.996" height="44.996" rx="11.899" transform="rotate(45 199.256 133.506)" fill="#206bc4"/><rect x="718.069" y="259.968" width="25.79" height="25.79" rx="11.899" transform="rotate(45 718.069 259.968)" fill="#206bc4"/><path d="M196.71 254.973h-.311c-1.844 25.574-21.267 25.967-21.267 25.967s21.418.41 21.418 29.959c0-29.549 21.419-29.959 21.419-29.959s-19.416-.393-21.259-25.967z" fill="#2d4059"/><rect x="310.782" y="247.834" width="134.46" height="11.899" rx="5.95" fill="#182433"/><rect x="310.782" y="272.822" width="94.003" height="13.089" rx="6.545" fill="#182433"/><rect x="310.782" y="299" width="94.003" height="13.089" rx="6.545" fill="#182433"/><rect x="306.913" y="440.988" width="40.723" height="4.744" rx="2.372" transform="rotate(-45 306.913 440.988)" fill="#d3d3d3"/><rect x="327.729" y="440.988" width="40.723" height="4.744" rx="2.372" transform="rotate(-45 327.729 440.988)" fill="#d3d3d3"/><rect x="349.848" y="440.988" width="40.723" height="4.744" rx="2.372" transform="rotate(-45 349.848 440.988)" fill="#d3d3d3"/><rect x="142.979" y="369.429" width="40.723" height="4.744" rx="2.372" transform="rotate(-45 142.979 369.429)" fill="#2d4059"/><rect x="483.856" y="136.539" width="40.723" height="4.744" rx="2.372" transform="rotate(-45 483.856 136.539)" fill="#2d4059"/><rect x="692.026" y="355.118" width="40.723" height="4.744" rx="2.372" transform="rotate(-45 692.026 355.118)" fill="#2d4059"/><rect x="659.5" y="136.539" width="40.723" height="4.744" rx="2.372" transform="rotate(-45 659.5 136.539)" fill="#2d4059"/><rect x="158.591" y="369.541" width="15.12" height="4.744" rx="2.372" transform="rotate(-45 158.591 369.541)" fill="#2d4059"/><rect x="499.47" y="136.651" width="15.12" height="4.744" rx="2.372" transform="rotate(-45 499.47 136.651)" fill="#2d4059"/><rect x="707.64" y="355.229" width="15.12" height="4.744" rx="2.372" transform="rotate(-45 707.64 355.229)" fill="#2d4059"/><rect x="675.113" y="136.651" width="15.12" height="4.744" rx="2.372" transform="rotate(-45 675.113 136.651)" fill="#2d4059"/><path d="M585.217 455.064c9.985.012 24.355-2.588 36.125-13.933 11.769-11.346 5.153-18.396-6.531-19.674-11.684-1.278-25.697 4.05-34.77 15.461-9.073 11.411-3.019 18.137 5.176 18.146z" fill="url(#c)"/><path d="M576.469 149.204c16.369 10.17 40.227 1.392 40.227 1.392s-2.697-25.263-19.076-35.422c-16.369-10.17-40.217-1.404-40.217-1.404s2.697 25.263 19.066 35.434z" fill="#2d4059"/><ellipse cx="431.558" cy="511.995" rx="8.924" ry="8.329" fill="#2d4059"/><ellipse cx="192.98" cy="425.726" rx="8.329" ry="7.734" fill="#2d4059"/><defs><linearGradient id="a" x1="443.356" y1="786.636" x2="432.2" y2="-398.374" gradientUnits="userSpaceOnUse"><stop stop-color="#2d4059"/><stop offset="1" stop-color="#2d4059"/></linearGradient><linearGradient id="b" x1="630.552" y1="402.047" x2="625.017" y2="-174.698" gradientUnits="userSpaceOnUse"><stop stop-color="#2d4059"/><stop offset="1" stop-color="#273f5d"/></linearGradient><linearGradient id="c" x1="637.994" y1="458.797" x2="547.156" y2="407.509" gradientUnits="userSpaceOnUse"><stop stop-color="#182433"/><stop offset="1" stop-color="#273f5d"/></linearGradient></defs></svg>