<svg width="900" height="600" viewBox="0 0 900 600" fill="none" xmlns="http://www.w3.org/2000/svg"><path fill="transparent" d="M0 0h900v600H0z"/><path d="M306.604 177.482c16.137 8.004 37.554-2.288 37.554-2.288s-4.76-23.266-20.905-31.259c-16.136-8.005-37.545 2.276-37.545 2.276s4.76 23.266 20.896 31.271z" fill="url(#a)"/><path d="M570.3 436.003c-15.518 9.3-37.78.703-37.78.703s2.911-23.673 18.438-32.963c15.517-9.3 37.771-.713 37.771-.713s-2.911 23.673-18.429 32.973z" fill="url(#b)"/><circle cx="202.263" cy="360.967" r="8.772" fill="#2d4059"/><circle cx="119.671" cy="211.971" r="12.671" fill="#2d4059"/><circle cx="157.591" cy="274.238" r="9.644" fill="#2d4059"/><circle cx="277.722" cy="407.021" r="10.722" fill="#2d4059"/><circle cx="689.331" cy="212.445" r="9.628" transform="rotate(90 689.331 212.445)" fill="#2d4059"/><circle cx="449.808" cy="297.108" r="12.808" fill="#2d4059"/><path d="M581.729 155.3h-.14c-.831 11.776-9.589 11.957-9.589 11.957s9.657.188 9.657 13.795c0-13.607 9.657-13.795 9.657-13.795s-8.754-.181-9.585-11.957zm-88.388 186.249h-.135c-.798 11.741-9.206 11.922-9.206 11.922s9.272.188 9.272 13.754c0-13.566 9.272-13.754 9.272-13.754s-8.405-.181-9.203-11.922zM402.752 226.32l-35.692 36.867c10.996 5.03 19.769 13.693 25.035 24.253l35.694-36.869c-10.997-5.03-19.77-13.692-25.037-24.251zm-87.78 41.813c-9.508 6.765-16.754 16.687-20.047 28.515l-46.871-32.941c9.508-6.766 16.755-16.688 20.048-28.515l46.87 32.941zm-144.038-23.731-35.692 36.868c10.996 5.03 19.769 13.692 25.036 24.252l35.693-36.869c-10.997-5.029-19.77-13.691-25.037-24.251z" fill="#2d4059"/><path fill-rule="evenodd" clip-rule="evenodd" d="M501.27 210.779c-4.285 28.557-30.909 48.232-59.465 43.947-28.556-4.285-48.232-30.909-43.947-59.465 4.286-28.556 30.909-48.232 59.465-43.947 28.557 4.286 48.232 30.909 43.947 59.465zm-34.47-5.172c-1.429 9.518-10.303 16.077-19.822 14.649-9.519-1.429-16.078-10.303-14.649-19.822 1.428-9.519 10.303-16.077 19.822-14.649 9.518 1.428 16.077 10.303 14.649 19.822zm-197.348 23.255c-4.285 28.556-30.909 48.232-59.465 43.947-28.556-4.285-48.232-30.909-43.947-59.465 4.286-28.557 30.909-48.232 59.465-43.947 28.557 4.285 48.232 30.909 43.947 59.465zm-34.47-5.173c-1.429 9.519-10.303 16.078-19.822 14.649-9.519-1.428-16.077-10.303-14.649-19.821 1.428-9.519 10.303-16.078 19.822-14.649 9.518 1.428 16.077 10.303 14.649 19.821zm-69.811 112.888c-4.285 28.557-30.909 48.232-59.465 43.947-28.557-4.285-48.232-30.909-43.947-59.465 4.285-28.557 30.909-48.232 59.465-43.947 28.557 4.285 48.232 30.909 43.947 59.465zm-34.471-5.173c-1.428 9.519-10.303 16.078-19.821 14.649-9.519-1.428-16.078-10.303-14.65-19.821 1.43-9.519 10.304-16.078 19.822-14.649 9.519 1.428 16.078 10.303 14.649 19.821zm206.824 31.037c28.556 4.285 55.18-15.39 59.465-43.947 4.285-28.556-15.39-55.179-43.947-59.465-28.556-4.285-55.18 15.391-59.465 43.947-4.285 28.556 15.39 55.18 43.947 59.465zm5.173-34.47c9.518 1.428 18.393-5.131 19.821-14.649 1.429-9.519-5.13-18.394-14.649-19.822-9.518-1.428-18.393 5.13-19.821 14.649-1.429 9.519 5.13 18.393 14.649 19.822z" fill="#066fd1"/><path d="m738.752 294.61-35.692 36.868c10.996 5.03 19.769 13.692 25.035 24.252l35.694-36.869c-10.997-5.029-19.77-13.691-25.037-24.251zm-87.78 41.813c-9.508 6.766-16.754 16.688-20.047 28.515l-46.871-32.941c9.508-6.765 16.754-16.687 20.048-28.514l46.87 32.94zm-144.038-23.73-35.692 36.867c10.996 5.03 19.769 13.693 25.035 24.253l35.694-36.869c-10.997-5.03-19.77-13.691-25.037-24.251z" fill="#2d4059"/><path fill-rule="evenodd" clip-rule="evenodd" d="M837.27 279.07c-4.285 28.556-30.909 48.232-59.465 43.946-28.556-4.285-48.232-30.908-43.947-59.465 4.286-28.556 30.909-48.232 59.465-43.946 28.557 4.285 48.232 30.908 43.947 59.465zm-34.47-5.173c-1.429 9.519-10.303 16.077-19.822 14.649-9.519-1.429-16.078-10.303-14.649-19.822 1.428-9.519 10.303-16.077 19.822-14.649 9.518 1.429 16.077 10.303 14.649 19.822zm-197.348 23.255c-4.285 28.557-30.909 48.232-59.465 43.947-28.556-4.285-48.232-30.909-43.947-59.465 4.286-28.556 30.909-48.232 59.465-43.947 28.557 4.286 48.232 30.909 43.947 59.465zm-34.47-5.172c-1.429 9.518-10.303 16.077-19.822 14.649-9.519-1.429-16.077-10.303-14.649-19.822 1.428-9.519 10.303-16.078 19.822-14.649 9.518 1.428 16.077 10.303 14.649 19.822zm-69.811 112.887c-4.285 28.557-30.909 48.232-59.465 43.947-28.557-4.285-48.232-30.909-43.947-59.465 4.285-28.556 30.909-48.232 59.465-43.947 28.557 4.286 48.232 30.909 43.947 59.465zm-34.471-5.172c-1.428 9.518-10.303 16.077-19.821 14.649-9.519-1.429-16.078-10.303-14.649-19.822 1.428-9.519 10.303-16.077 19.821-14.649 9.519 1.428 16.078 10.303 14.649 19.822zm206.824 31.036c28.556 4.286 55.18-15.39 59.465-43.946 4.285-28.557-15.39-55.18-43.947-59.465-28.556-4.286-55.18 15.39-59.465 43.946-4.285 28.557 15.39 55.18 43.947 59.465zm5.173-34.47c9.518 1.428 18.393-5.13 19.821-14.649 1.429-9.519-5.13-18.393-14.649-19.822-9.518-1.428-18.393 5.13-19.821 14.649-1.429 9.519 5.13 18.393 14.649 19.822z" fill="#066fd1"/><defs><linearGradient id="a" x1="368.57" y1="202.45" x2="235.476" y2="97.172" gradientUnits="userSpaceOnUse"><stop stop-color="#2d4059"/><stop offset="1" stop-color="#273f5d"/></linearGradient><linearGradient id="b" x1="510.251" y1="465.94" x2="635.112" y2="349.928" gradientUnits="userSpaceOnUse"><stop stop-color="#2d4059"/><stop offset="1" stop-color="#273f5d"/></linearGradient></defs></svg>