<svg width="900" height="600" viewBox="0 0 900 600" fill="none" xmlns="http://www.w3.org/2000/svg"><path fill="transparent" d="M0 0h900v600H0z"/><path d="M670.638 156.8c.006-30.37-19.037-57.48-47.609-67.775l-112.887-40.64.678-1.881-.678 1.882a175.659 175.659 0 0 0-119.009 0L278.098 89.099c-28.546 10.286-47.584 37.36-47.608 67.703v181.357c0 46.168 32.33 86.643 72.751 119.157 40.343 32.451 88.28 56.594 118.531 70.15l.005.002a69.95 69.95 0 0 0 57.574 0l.005-.002c30.25-13.556 78.188-37.735 118.531-70.205 40.422-32.533 72.751-73.008 72.751-119.102V156.8z" fill="#182433" stroke="#2d4059" stroke-width="4"/><path fill-rule="evenodd" clip-rule="evenodd" d="M633.978 329.05V179.263c.006-25.779-16.16-48.792-40.412-57.531L500.33 88.167a146.73 146.73 0 0 0-99.41 0l-93.358 33.626c-24.232 8.732-40.392 31.713-40.412 57.47V329.05c0 77.829 108.887 135.421 158.959 157.859a59.427 59.427 0 0 0 48.91 0c50.072-22.438 158.959-80.152 158.959-157.859z" fill="#206bc4"/><path d="m535 239-95.625 95L382 277" stroke="#182433" stroke-width="31" stroke-linecap="round" stroke-linejoin="round"/><circle r="76.296" transform="matrix(-1 0 0 1 178.43 231.343)" fill="#206bc4"/><path fill-rule="evenodd" clip-rule="evenodd" d="M204.739 258.036v3.755a3.757 3.757 0 0 1-3.758 3.754H155.88a3.757 3.757 0 0 1-3.758-3.754v-3.815c0-11.36 12.996-18.74 26.308-18.74 13.313 0 26.309 7.384 26.309 18.74m-17.007-51.72c5.137 5.137 5.137 13.466 0 18.603-5.137 5.137-13.466 5.137-18.603 0-5.137-5.137-5.137-13.466 0-18.603 5.137-5.137 13.466-5.137 18.603 0z" fill="#182433"/><path d="M186.3 118.817c12.316 6.11 28.664-1.746 28.664-1.746s-3.633-17.759-15.957-23.86c-12.317-6.11-28.658 1.737-28.658 1.737s3.634 17.759 15.951 23.869z" fill="url(#a)"/><path d="M587.271 544.587c-15.251 9.14-37.13.691-37.13.691s2.861-23.265 18.12-32.395c15.251-9.14 37.121-.701 37.121-.701s-2.861 23.265-18.111 32.405z" fill="url(#b)"/><circle r="8.364" transform="matrix(1 0 0 -1 108.364 127.742)" fill="#206bc4"/><circle r="15.731" transform="matrix(1 0 0 -1 701.555 67.273)" fill="#206bc4"/><circle cx="735.174" cy="216.159" r="8.361" fill="#206bc4"/><circle cx="266.984" cy="503.457" r="11.817" fill="#2d4059"/><circle cx="114.854" cy="356.639" r="14.854" fill="#2d4059"/><circle cx="712.01" cy="274.07" r="11.798" transform="rotate(105 712.01 274.07)" fill="#2d4059"/><ellipse cx="171.204" cy="381.786" rx="12.073" ry="9.658" fill="#2d4059"/><circle cx="164.528" cy="459.69" r="19.269" transform="rotate(90 164.528 459.69)" fill="#2d4059"/><path d="M734.974 121.842h-.172c-1.018 14.43-11.75 14.652-11.75 14.652s11.834.231 11.834 16.904c0-16.673 11.834-16.904 11.834-16.904s-10.727-.222-11.746-14.652zM238.87 36h-.166c-.977 14.387-11.281 14.608-11.281 14.608s11.362.23 11.362 16.855c0-16.624 11.361-16.854 11.361-16.854S239.847 50.386 238.87 36z" fill="#2d4059"/><path fill="#206bc4" d="M668.175 448.938h115.806v87.589H668.175z"/><path fill-rule="evenodd" clip-rule="evenodd" d="M726.372 451.338c-14.501 0-27.419.528-37.973 1.199-10.01.636-17.708 8.274-18.426 18.214-.511 7.071-.867 14.522-.867 21.492 0 6.969.356 14.42.867 21.491.718 9.94 8.416 17.578 18.426 18.214a601.539 601.539 0 0 0 75.946 0c10.01-.636 17.708-8.274 18.426-18.214.511-7.071.867-14.522.867-21.491 0-6.97-.356-14.421-.867-21.492-.718-9.94-8.416-17.578-18.426-18.214a601.539 601.539 0 0 0-37.973-1.199zm-39.011-15.13c-18.143 1.154-32.397 15.231-33.708 33.364-.529 7.318-.909 15.185-.909 22.671 0 7.485.38 15.352.909 22.67 1.311 18.133 15.565 32.211 33.708 33.364a617.773 617.773 0 0 0 78.022 0c18.143-1.153 32.397-15.231 33.707-33.364.529-7.318.91-15.185.91-22.67 0-7.486-.381-15.353-.91-22.671-1.31-18.133-15.564-32.21-33.708-33.364a618.47 618.47 0 0 0-78.021 0z" fill="#206bc4"/><path fill-rule="evenodd" clip-rule="evenodd" d="M734.553 498.235c4.89-2.829 8.181-8.117 8.181-14.173 0-9.037-7.326-16.362-16.362-16.362-9.036 0-16.362 7.325-16.362 16.362 0 6.056 3.291 11.344 8.181 14.173v10.369a8.18 8.18 0 0 0 8.181 8.181 8.18 8.18 0 0 0 8.181-8.181v-10.369z" fill="#182433"/><path fill-rule="evenodd" clip-rule="evenodd" d="M685.467 410.434c0-22.591 18.314-40.905 40.905-40.905s40.904 18.314 40.904 40.905v32.723a8.181 8.181 0 0 1-16.362 0v-32.723c0-13.555-10.988-24.543-24.542-24.543-13.555 0-24.543 10.988-24.543 24.543v32.723a8.181 8.181 0 0 1-16.362 0v-32.723z" fill="#206bc4"/><defs><linearGradient id="a" x1="233.598" y1="137.875" x2="132.008" y2="57.517" gradientUnits="userSpaceOnUse"><stop stop-color="#2d4059"/><stop offset="1" stop-color="#273f5d"/></linearGradient><linearGradient id="b" x1="528.256" y1="574.009" x2="650.966" y2="459.995" gradientUnits="userSpaceOnUse"><stop stop-color="#2d4059"/><stop offset="1" stop-color="#273f5d"/></linearGradient></defs></svg>