<svg width="900" height="600" viewBox="0 0 900 600" fill="none" xmlns="http://www.w3.org/2000/svg"><path fill="transparent" d="M0 0h900v600H0z"/><path d="m642.83 214.457-92.055-36.647a11.53 11.53 0 0 0-8.831.12l-91.01 39.181m-.012-.214-92.055-36.648a11.526 11.526 0 0 0-8.831.121l-91.01 39.181" stroke="#2d4059" stroke-width="4" stroke-linecap="round" stroke-linejoin="round"/><circle r="10.873" transform="scale(1 -1) rotate(-21.708 -291.538 -1013.89)" fill="#2d4059"/><circle r="10.873" transform="scale(1 -1) rotate(-21.708 -445.357 -783.266)" fill="#2d4059"/><circle r="10.873" transform="scale(1 -1) rotate(-21.708 -343.042 -1282.506)" fill="#2d4059"/><circle r="10.873" transform="scale(1 -1) rotate(-21.708 -192.207 -1512.559)" fill="#2d4059"/><circle r="10.873" transform="scale(1 -1) rotate(-21.708 -244.144 -1784.385)" fill="#2d4059"/><path d="m642.83 420.457-92.055-36.647a11.53 11.53 0 0 0-8.831.12l-91.01 39.181m-.012-.214-92.055-36.648a11.526 11.526 0 0 0-8.831.121l-91.01 39.181" stroke="#2d4059" stroke-width="4" stroke-linecap="round" stroke-linejoin="round"/><circle r="10.873" transform="scale(1 -1) rotate(-21.708 -828.743 -1116.89)" fill="#2d4059"/><circle r="10.873" transform="scale(1 -1) rotate(-21.708 -982.563 -886.266)" fill="#2d4059"/><circle r="10.873" transform="scale(1 -1) rotate(-21.708 -880.248 -1385.506)" fill="#2d4059"/><circle r="10.873" transform="scale(1 -1) rotate(-21.708 -729.412 -1615.559)" fill="#2d4059"/><circle r="10.873" transform="scale(1 -1) rotate(-21.708 -781.35 -1887.385)" fill="#2d4059"/><path d="M704.552 307.094 582.97 258.692a15.229 15.229 0 0 0-11.664.159l-120.201 51.748m-.015-.283-121.582-48.402a15.229 15.229 0 0 0-11.664.159l-120.201 51.748" stroke="#2d4059" stroke-width="4" stroke-linecap="round" stroke-linejoin="round"/><circle r="14.36" transform="scale(1 -1) rotate(-21.708 -519.477 -974.286)" fill="#2d4059"/><circle r="14.36" transform="scale(1 -1) rotate(-21.708 -722.632 -669.69)" fill="#2d4059"/><circle r="14.36" transform="scale(1 -1) rotate(-21.708 -587.498 -1329.057)" fill="#2d4059"/><circle r="14.36" transform="scale(1 -1) rotate(-21.708 -388.284 -1632.899)" fill="#2d4059"/><circle r="14.36" transform="scale(1 -1) rotate(-21.708 -456.881 -1991.914)" fill="#2d4059"/><rect x="371.039" y="207.039" width="158.961" height="158.961" rx="79.481" fill="#206bc4"/><path fill-rule="evenodd" clip-rule="evenodd" d="M486.643 319.861v5.315c0 2.933-2.349 5.314-5.244 5.314h-62.937c-2.895 0-5.244-2.381-5.244-5.314v-5.4c0-16.082 18.136-26.531 36.713-26.531 18.576 0 36.712 10.454 36.712 26.531m-23.549-73.22c7.272 7.273 7.272 19.064 0 26.336-7.273 7.273-19.064 7.273-26.336 0-7.273-7.272-7.273-19.063 0-26.336 7.272-7.272 19.063-7.272 26.336 0z" fill="#182433"/><rect x="155" y="353" width="158.961" height="158.961" rx="79.481" fill="#206bc4"/><path fill-rule="evenodd" clip-rule="evenodd" d="M270.605 465.823v5.314c0 2.934-2.35 5.315-5.245 5.315h-62.936c-2.895 0-5.245-2.381-5.245-5.315v-5.4c0-16.082 18.136-26.53 36.713-26.53s36.713 10.454 36.713 26.53m-23.55-73.219c7.273 7.272 7.273 19.063 0 26.336-7.272 7.272-19.064 7.272-26.336 0-7.273-7.273-7.273-19.064 0-26.336 7.272-7.273 19.064-7.273 26.336 0z" fill="#182433"/><rect x="587" y="353" width="158.961" height="158.961" rx="79.481" fill="#206bc4"/><path fill-rule="evenodd" clip-rule="evenodd" d="M702.605 465.823v5.314c0 2.934-2.35 5.315-5.245 5.315h-62.936c-2.895 0-5.245-2.381-5.245-5.315v-5.4c0-16.082 18.136-26.53 36.713-26.53s36.713 10.454 36.713 26.53m-23.55-73.219c7.273 7.272 7.273 19.063 0 26.336-7.272 7.272-19.064 7.272-26.336 0-7.273-7.273-7.273-19.064 0-26.336 7.272-7.273 19.064-7.273 26.336 0z" fill="#182433"/><rect x="587" y="88" width="158.961" height="158.961" rx="79.481" fill="#206bc4"/><path fill-rule="evenodd" clip-rule="evenodd" d="M702.605 200.823v5.314c0 2.934-2.35 5.315-5.245 5.315h-62.936c-2.895 0-5.245-2.381-5.245-5.315v-5.4c0-16.082 18.136-26.53 36.713-26.53s36.713 10.454 36.713 26.53m-23.55-73.219c7.273 7.272 7.273 19.063 0 26.336-7.272 7.272-19.064 7.272-26.336 0-7.273-7.273-7.273-19.064 0-26.336 7.272-7.273 19.064-7.273 26.336 0z" fill="#182433"/><rect x="155" y="88" width="158.961" height="158.961" rx="79.481" fill="#206bc4"/><path fill-rule="evenodd" clip-rule="evenodd" d="M270.605 200.823v5.314c0 2.934-2.35 5.315-5.245 5.315h-62.936c-2.895 0-5.245-2.381-5.245-5.315v-5.4c0-16.082 18.136-26.53 36.713-26.53s36.713 10.454 36.713 26.53m-23.55-73.219c7.273 7.272 7.273 19.063 0 26.336-7.272 7.272-19.064 7.272-26.336 0-7.273-7.273-7.273-19.064 0-26.336 7.272-7.273 19.064-7.273 26.336 0z" fill="#182433"/></svg>