<svg id="e0400ba7-382b-4bc5-b827-8464c64d67fc" data-name="Layer 1" xmlns="http://www.w3.org/2000/svg" width="122.64mm" height="17.76mm" viewBox="0 0 347.64 50.35">
  <path d="M55.45,32.87a26,26,0,0,0-43-25.64L0,5.56,5.75,17.89A26,26,0,0,0,21.5,50.35l1.46-4A21.75,21.75,0,0,1,10,18.5l.3-.83L7.13,10.8l6.86.92.74-.78A21.71,21.71,0,0,1,51.44,31.4L20.07,19.91l-.74,2A18.89,18.89,0,0,0,54,36.85l7.39,2.71,1.46-4ZM32,42.15a14.65,14.65,0,0,1-9.3-16.74L50,35.38A14.67,14.67,0,0,1,32,42.15Z" fill="#1d1d1b"/>
  <circle cx="26.82" cy="12.97" r="3.96" transform="translate(-2.43 18.65) rotate(-36.8)" fill="#1d1d1b"/>
  <path d="M122.1,6.1a16.73,16.73,0,0,0-12.75,6.2A13.54,13.54,0,0,0,97.88,6.1,17,17,0,0,0,87,10.27V6.5H82.8V40.8H87v-22c0-4.69,5.93-8.46,10.84-8.46s9.14,3.8,9.14,8.46v22h4.24v-22c0-4.69,5.93-8.46,10.84-8.46s9.14,3.8,9.14,8.46v22h4.24v-22C135.48,11.8,129.48,6.1,122.1,6.1Z" fill="#1d1d1b"/>
  <path d="M158.74,6a17.63,17.63,0,1,0,17.63,17.62A17.64,17.64,0,0,0,158.74,6Zm0,31a13.38,13.38,0,1,1,13.38-13.38A13.39,13.39,0,0,1,158.74,37Z" fill="#1d1d1b"/>
  <path d="M330,6a17.63,17.63,0,1,0,17.63,17.62A17.64,17.64,0,0,0,330,6Zm0,31a13.38,13.38,0,1,1,13.38-13.38A13.39,13.39,0,0,1,330,37Z" fill="#1d1d1b"/>
  <path d="M228.29,6a17.58,17.58,0,0,0-13.38,6.18V6.5h-4.24V50.35h4.24V35.09A17.62,17.62,0,1,0,228.29,6Zm0,31a13.38,13.38,0,1,1,13.38-13.38A13.39,13.39,0,0,1,228.29,37Z" fill="#1d1d1b"/>
  <path d="M281.93,12.21a17.63,17.63,0,1,0,0,22.88V40.8h4.25V6.5h-4.25ZM268.55,37a13.38,13.38,0,1,1,13.38-13.38A13.4,13.4,0,0,1,268.55,37Z" fill="#1d1d1b"/>
  <path d="M298.65,10.33V6.5H294.4V40.8h4.25V20.25a9.52,9.52,0,0,1,9.51-9.52H312V6.49h-3.83A13.7,13.7,0,0,0,298.65,10.33Z" fill="#1d1d1b"/>
  <path d="M193.67,20.94c-6.07-2.41-8.08-3.61-8.08-6,0-1.83,1.8-4.72,6.63-4.72s6.95,1.76,7,1.77l2.94-3c-.3-.31-3.19-3-9.91-3-7.07,0-10.88,4.61-10.88,9,0,5.61,5.23,7.69,10.76,9.9,5.33,2.12,6.42,4.38,6.42,7.13,0,1.83-1.8,4.72-6.63,4.72a16.43,16.43,0,0,1-8.6-2.27L180.86,38a20.27,20.27,0,0,0,11,3c7.06,0,10.88-4.61,10.88-9C202.77,26.93,199.88,23.41,193.67,20.94Z" fill="#1d1d1b"/>
</svg>
