<svg xmlns="http://www.w3.org/2000/svg" viewBox="0 0 82.63 13.92"><defs><style>.cls-1{opacity:0.8;}.cls-2{fill:var(--mosparo-text-color, #000);}</style></defs><g><g><g class="cls-1"><g><g><g><path class="cls-2" d="M12.26,0a5.26,5.26,0,0,0-4,2A4.21,4.21,0,0,0,4.71,0a5.32,5.32,0,0,0-3.4,1.31V.16H0V10.92H1.31V4c0-1.47,1.85-2.66,3.38-2.66A2.79,2.79,0,0,1,7.54,4v6.9H8.87V4c0-1.47,1.85-2.66,3.38-2.66A2.79,2.79,0,0,1,15.1,4v6.9h1.33V4A4.07,4.07,0,0,0,12.26,0Z"/><path class="cls-2" d="M23.7,0a5.54,5.54,0,0,0-3.89,9.45A5.5,5.5,0,0,0,29.2,5.53,5.53,5.53,0,0,0,23.7,0Zm0,9.73a4.2,4.2,0,1,1,4.17-4.2A4.19,4.19,0,0,1,23.7,9.73Z"/><path class="cls-2" d="M77.13,0a5.54,5.54,0,0,0-3.88,9.45,5.49,5.49,0,0,0,9.38-3.92A5.52,5.52,0,0,0,77.13,0Zm0,9.73a4.2,4.2,0,1,1,4.18-4.2A4.19,4.19,0,0,1,77.13,9.73Z"/><path class="cls-2" d="M45.4,0a5.48,5.48,0,0,0-4.18,1.94V.16H39.9V13.92h1.32V9.13a5.5,5.5,0,0,0,9.52-4.89A5.49,5.49,0,0,0,45.4,0Zm0,9.73a4.2,4.2,0,1,1,4.17-4.2A4.19,4.19,0,0,1,45.4,9.73Z"/><path class="cls-2" d="M62.13,2a5.49,5.49,0,0,0-9.68,3.59,5.49,5.49,0,0,0,9.68,3.59v1.79h1.33V.16H62.13ZM58,9.73a4.2,4.2,0,1,1,4.17-4.2A4.19,4.19,0,0,1,58,9.73Z"/><path class="cls-2" d="M67.35,1.36V.16H66V10.92h1.32V4.47a3,3,0,0,1,3-3h1.2V.16h-1.2a4.28,4.28,0,0,0-3,1.2Z"/><path class="cls-2" d="M34.59,4.69c-1.89-.76-2.52-1.13-2.52-1.88,0-.58.57-1.48,2.07-1.48a3.71,3.71,0,0,1,2.19.55l.91-.94A4.31,4.31,0,0,0,34.15,0C32,0,30.76,1.45,30.76,2.82c0,1.76,1.63,2.42,3.35,3.11s2,1.37,2,2.24c0,.57-.56,1.48-2.07,1.48a5.07,5.07,0,0,1-2.68-.72L30.6,10A6.21,6.21,0,0,0,34,11c2.2,0,3.39-1.44,3.39-2.82C37.43,6.57,36.53,5.47,34.59,4.69Z"/></g></g></g></g></g></g></svg>