<svg xmlns="http://www.w3.org/2000/svg" viewBox="0 0 186.33 34.46"><defs><style>.cls-1{fill:#1d1d1b;}</style></defs><g id="Ebene_2" data-name="Ebene 2"><g id="Ebene_1-2" data-name="Ebene 1"><path class="cls-1" d="M0,24.86V0H28.18q7,0,7,7.06v17.8h-3V6.58c0-2.6-1.3-3.89-3.89-3.89H19.1V24.86h-3V2.69H3V24.86Z"/><path class="cls-1" d="M42.53,17.81V7.06q0-7.06,7-7.06H56.3q7,0,7,7.06V17.81q0,7.05-7,7.05H49.58Q42.53,24.86,42.53,17.81Zm3,.48q0,3.93,3.94,3.93H56.4q3.89,0,3.89-3.93V6.58c0-2.6-1.3-3.89-3.89-3.89H49.49c-2.63,0-3.94,1.29-3.94,3.89Z"/><path class="cls-1" d="M69.84,23.62v-1.4H81q3.83,0,3.83-3.84t-3.07-4.32l-5.85-1c-4-.68-6-2.8-6-6.39Q69.84,0,76.94,0h8.12l1.63,1.25V2.69H76.75q-3.89,0-3.89,3.79a3.51,3.51,0,0,0,3.22,3.89l5.9,1q5.86,1,5.86,6.81,0,6.68-7.1,6.67H71.47Z"/><path class="cls-1" d="M94.75,34.46V0h13.3q7,0,7,7.06V17.81q0,7.05-7,7.05H97.77v9.6Zm3-12.24h10.37q3.89,0,3.89-3.93V6.58c0-2.6-1.3-3.89-3.89-3.89H97.77Z"/><path class="cls-1" d="M128.35,24.86q-7.11,0-7.1-7.12t7.1-7.13h9.41v-4c0-2.6-1.3-3.89-3.89-3.89H123.55V1.25L125.23,0h8.54q7,0,7,7.06v17.8Zm-4.08-6.57q0,3.93,3.94,3.93h9.55V13.15h-9.55q-3.95,0-3.94,3.89Z"/><path class="cls-1" d="M148.32,24.86V2.78Q150,0,154.41,0h4.71l1.63,1.25V2.69h-6.19a4,4,0,0,0-3.22,1.2v21Z"/><path class="cls-1" d="M165.55,17.81V7.06q0-7.06,7.06-7.06h6.72q7,0,7,7.06V17.81q0,7.05-7,7.05h-6.72Q165.55,24.86,165.55,17.81Zm3,.48c0,2.62,1.32,3.93,3.94,3.93h6.91q3.89,0,3.89-3.93V6.58c0-2.6-1.3-3.89-3.89-3.89h-6.91c-2.62,0-3.94,1.29-3.94,3.89Z"/></g></g></svg>