<svg id="a890b47e-b452-4967-aafe-94db31b62754" data-name="Layer 1" xmlns="http://www.w3.org/2000/svg" width="22.16mm" height="17.76mm" viewBox="0 0 62.82 50.35">
  <path d="M55.45,32.87a26,26,0,0,0-43-25.64L0,5.56,5.75,17.89A26,26,0,0,0,21.5,50.35l1.46-4A21.75,21.75,0,0,1,10,18.5l.3-.83L7.13,10.8l6.86.92.74-.78A21.71,21.71,0,0,1,51.44,31.4L20.07,19.91l-.74,2A18.89,18.89,0,0,0,54,36.85l7.39,2.71,1.46-4ZM32,42.15a14.65,14.65,0,0,1-9.3-16.74L50,35.38A14.67,14.67,0,0,1,32,42.15Z" fill="#1d1d1b"/>
  <circle cx="26.82" cy="12.97" r="3.96" transform="translate(-2.43 18.65) rotate(-36.8)" fill="#1d1d1b"/>
</svg>
