<svg id="Layer_1" xmlns="http://www.w3.org/2000/svg" version="1.1" viewBox="0 0 400 300"><defs><style>.st0{fill:#dbc2ad}.st2{opacity:.5}.st2,.st5{isolation:isolate}.st7{fill:#066fd1}.st8{fill:#d9e021}.st2,.st9{fill:#56403d}.st11{fill:#fbb5ad}.st12{fill:#f2f2f2}.st13{fill:#f9ab2f}.st5{fill:none;opacity:.3}</style></defs><path id="field_cleaning-computer-96" d="m232.9 91.3 133 76.7c2.6 1.5 3.5 4.8 2 7.4-.4.8-1.2 1.5-2 2L178.3 285c-4.6 2.6-10.2 2.7-14.8.1L34.2 214.7c-2.6-1.4-3.6-4.7-2.2-7.3.4-.9 1.2-1.6 2-2.1L234.7 89.2" fill="#cb9bea"/><g id="monitor_cleaning-computer-96"><path class="st5" d="M168.8 138.9 53.6 210.6l23.8 27.5 125.2-77.3c-13-8.8-22.6-11.2-33.8-22Z"/><path class="st9" d="m181.8 146.6 18.5 8.9c2.1 1 3 3.6 2 5.7-.4.7-1 1.4-1.7 1.8l-43.8 25.5c-1.9 1.1-4.5.5-5.7-1.3l-10.6-16.6"/><path class="st7" d="m89.8 98.7 147.4-84.8c3.2-1.9 7.2-.7 9.1 2.5.6 1 .9 2.2.9 3.3V108c0 1.9-1 3.8-2.8 4.8L87.3 203.5c-1.7 1-3.9.4-4.9-1.3-.3-.5-.4-1.1-.4-1.8v-87.8c0-5.7 2.9-10.8 7.8-13.7Z"/><path d="M237.2 20.5 94.3 102.8c-3.1 1.8-5 5.1-5 8.7v66.2c0 2 1.6 3.6 3.6 3.7.6 0 1.3-.1 1.8-.4l145.7-83.6c1.1-.7 1.8-1.8 1.8-3.1V23.4c0-1.9-1.5-3.4-3.4-3.4-.5 0-1.1.2-1.6.4Z" fill="#fff"/><ellipse class="st9" cx="177.7" cy="141.9" rx="3.6" ry="3.1" transform="rotate(-79.1 177.684 141.844)"/><ellipse cx="100.1" cy="104.8" rx="1.6" ry="1.7" style="isolation:isolate" opacity=".3" fill="#066fd1"/><ellipse cx="105.1" cy="102.3" rx="1.6" ry="1.7" style="isolation:isolate" fill="#066fd1" opacity=".5"/></g><g id="brush_cleaning-computer-96"><path class="st5" d="M299.5 187.9c-6.6-5.3-14-9.3-20.5-14.6l-53.7 33.4 18.9 21.8 59.6-36.8c-1.4-1.3-2.8-2.6-4.3-3.8Z"/><path class="st13" d="M272.7 123.4c2.1 1.9 4.9 2.8 7.6 2.6 4.5-.4 0-4.1 0-4.1"/><path class="st9" d="M266.5 146.4v-.6.6ZM314.8 145.7v.7-.7Z"/><path class="st7" d="M290.6 137.8c-13.4 0-24.1 3.5-24.1 7.9h48.2c0-4.4-10.7-7.9-24.1-7.9ZM290.6 153.6c12.6 0 23-3.1 24-7.2v-.7h-48.1v.6c1 4 11.3 7.2 24 7.2Z"/><path class="st9" d="M290.6 137.8c-13.4 0-24.1 3.5-24.1 7.9v.6c1 4 11.3 7.3 24 7.3s23-3.1 24-7.2v-.7c.1-4.5-10.7-8-24-8ZM302.7 113.7s13.4 5.7 14.1 5.1c.7-.5 1.6-1 2.4-1.5v-2.8l-14.9-5.6-1.6 1v3.7Z"/><path class="st8" d="m302.7 110.2-.5-9.3 3.8-1.3 17.6 7-4.4 8-2.8 1.2-13.7-5.6z"/><path class="st9" d="m307.9 115.2-4.1 44.2h2.8s5.8-43.8 5.2-43.6"/><path style="isolation:isolate" opacity=".3" fill="#56403d" d="m302.2 100.9 15.5 6.9-1.3 8-13.7-5.6-.5-9.3z"/><path class="st9" d="M304.6 101.9v6.5l.9-6-.9-.5zM309.3 104.1l-.4 5.2 1.1-4.9-.7-.3zM313.5 106v4.7l.9-4.4-.9-.3z"/><path class="st13" d="m281.3 156.4-3.8-33.6 3.8-.6 4.5 35.3"/><path class="st13" d="m283.9 109.6-11.1 1.9V112.1c.3 0 .4.3.4.5.2.3.1.6 0 .8 0 0-.1.1-.3.1H271l-2.7-1.3s0 12.7 8.5 12.7c9.3 0 6.9-15.4 6.9-15.4Z"/><path class="st2" d="m283.9 109.6-11.1 1.9V112.1c.3 0 .4.3.4.5.2.3.1.6 0 .8 0 0-.1.1-.3.1H271l-2.7-1.3s0 12.7 8.5 12.7c9.3 0 6.9-15.4 6.9-15.4Z"/><path class="st7" d="M290.6 153.6c-12.7 0-23.1-3.2-24-7.3.7 4.9 4.9 38.4 5.2 38.5 0 0 2.2 9.4 18.9 9.4S309 187 309 187l5.7-40.8c-1 4.2-11.4 7.3-24 7.3Z"/><path class="st0" d="m282.9 98.7 2.5-.8-2.8-1.2-15.6 2.2 1.3 13.2s2.8 2.5 3.4 2.2.9-2.9.9-2.9l11.1-1.9-.9-10.9Z"/><path class="st2" d="m282.9 98.7 2.5-.8-2.8-1.2-15.6 2.2 1.3 13.2s2.8 2.5 3.4 2.2.9-2.9.9-2.9l11.1-1.9-.9-10.9Z"/><path class="st13" d="M271.2 113.4s0 12.7 8.5 12.7 6.8-15.3 6.8-15.3l-15.3 2.6Z"/><path class="st0" d="m271.2 113.4-1.3-13.3 15.5-2.2 1.1 12.8-15.3 2.7z"/><path class="st2" d="m282.4 98.4 1.3 8.8-.5-9-.8.2zM279 98.8l.6 11.1-2.7-10.8 2.1-.3zM273.6 99.6l.5 8.8-1.7-8.6 1.2-.2z"/></g><g id="person_cleaning-computer-96"><path class="st5" d="m208 246.4-53.9 33.7-9.1-5 58.6-34.1 4.4 5.4z"/><path class="st12" d="m182.1 131 26.8 113.2c.7 2.7-3.6 3.9-4.2 1.1l-26.8-113.2c-.7-2.7 3.5-3.8 4.2-1.1ZM156.9 144.4l26.8 113.2c.7 2.7-3.6 3.9-4.2 1.1l-26.8-113.2c-.7-2.7 3.5-3.9 4.2-1.1Z"/><path class="st12" d="m184.8 148.9-25.2 14c-2.5 1.3-4.6-2.4-2.2-3.7l25.2-14c2.5-1.4 4.7 2.4 2.2 3.7ZM187.4 164.6 163.3 178c-2.5 1.3-4.6-2.4-2.2-3.7l24.1-13.4c2.5-1.3 4.6 2.4 2.2 3.7ZM190.3 177.3l-24 13.4c-2.5 1.3-4.6-2.4-2.2-3.7l24-13.4c2.5-1.3 4.6 2.4 2.2 3.7ZM194.1 191.1l-23.9 13.4c-2.5 1.3-4.6-2.4-2.2-3.7l23.9-13.4c2.5-1.3 4.6 2.4 2.2 3.7ZM197.4 203.6 173.5 217c-2.5 1.3-4.6-2.4-2.2-3.7l23.9-13.4c2.4-1.4 4.6 2.4 2.2 3.7ZM201.1 218.2l-25.2 14c-2.5 1.3-4.6-2.4-2.2-3.7l25.2-14c2.4-1.3 4.6 2.4 2.2 3.7Z"/><path class="st9" d="M157.3 111.2s-4.3 1.6-7.8.8-2.4-7.9-.5-9.2 1.9-5.4 1.9-5.4-.9-2.5.1-2.7 2.8-.4 3.1.4 1.6 12.9 1.6 12.9"/><path d="M160.3 75.5v33.7s.9 3 2.1 1.9.4-7.4 1.9-6 .7 6.3 2 4.6 1-6.6 2-6.1-1.3 11.9 1.3 9.9 1.5-9.5 2.1-10.7 1.3 5.5 2.8 4.1 1.3-10.4 2.1-6.3 1.7 8.8 2.3 5.7c.6-3-1.3-41.1-1.3-41.1l-17.3 10.3Z" style="isolation:isolate" opacity=".6" fill="#066fd1"/><path class="st11" d="M175.5 82.5c2.6.3 5.9 4.9 6 6l-2.1-.4-.4-.3c-.9-1.9-2.1-3.7-3.4-5.3Z"/><path class="st9" d="m160 76.4 2.4 1h.7l17.1-9.8c.4-.2.5-.7.3-1.1 0-.1-.2-.3-.4-.4l-2.4-1h-.7l-17 9.7c-.4.2-.5.7-.4 1 0 .2.2.4.4.4Z"/><path class="st9" d="m170 72.3 11.5 24.5 1.5-.7-11.7-25"/><path class="st11" d="M148.5 101.3s0-.1.1-.2c-.4-.4-.6-.9-.5-1.4 0-.3.2-.7.4-.8-.4-.4-.3-.9 0-1.3.2-.2.5-.3.8-.2 1.3.3 2.2 1.9 2.8 3 .5.7 1 1.5 1.5 2.3 0-1.1.2-2.2.3-3.3s1.7-1.1 1.7 0c0 1.7 0 3.4.5 5 .1 0 .3.2.4.3 4.9 5.1 10.9 8.8 17.6 10.9.6 1.6 0 3.4-1.3 4.6 0 .5-.4 1-.8 1.2l1.1.5c1.9.7 1 3.8-.8 3.1-7-2.9-13.2-7.6-17.9-13.5l-1.6-1.6c-.8-.8-4.9-4.9-3.8-6.6-.4-.7-.9-1.1-.6-1.9ZM176 86s.2-.1.3-.1h.1c.7-.7 1.9 0 2.5.4.8.4 1.6 1 2.4 1.6.4.4.6 1 .7 1.6.3.7.6 1.3.9 2 .7 1.3 1.4 2.7 2.2 4 1.6 2.5 3.5 4.8 5.6 6.9s-.5 2.5-1.5 1.5l-.7-.7c-.3.2-.7.2-1 0-.1-.1-.4-.2-.5-.4l-.2-.2c-.2.5-.8.8-1.3.6-.1 0-.3-.1-.4-.2-.2-.2-.4-.5-.7-.7-.2 0-.4-.3-.5-.4 0 0 0 1.5-.1 1.4-1.2-1.2-2.5-4.6-3.7-6.6v-.3c-.9-1.5-.8-2.3-.9-4 0-1 0-1.9-.2-2.8l-1.9-1.5c-.4-.4-1-.9-.8-1.4l-.2-.4Z"/><path d="M169 112.7c6.7 2 7.9 1.2 11.1 1.1 3.2 0 6.6-4.6 6.6-4.6s.8-10 6.8-2.2c4.4 5.8 6.1 22.8 6.7 31-2.2 1.8-5.2 2.4-7.9 2.8-1.9.3-3.7.4-5.5.4s-2.2-.3-3.3-.7l-3.1-14.7c-8.1.7-14.3-4.1-14.3-4.1l2.9-9.1Z" fill="#fe9881"/><path class="st11" d="M183.5 100.7s-4.3 8.3 0 10.7 7.6-1.6 8-2.5.3-8.7-7.9-8.1Z"/><path class="st9" d="M183.1 99.4c2.2-1.6 4.9-1.6 7.5-1 2.2.4 4.2 1.4 5.7 3.1.5-.4 1.2-.6 1.9-.7 1.6-.1 3.2.8 3.8 2.4.5 1.4 0 3.1-1.3 3.9-1 .5-2.1.6-3.2.3v.2c-.1 1.6 1.3 2.4 1.9 3.7.3.6.4 1.3.2 1.9-.1.7-.8 1.3-.8 2 0 .5.4 1 .7 1.4.3.4.5 1 .7 1.5-3.1 1.6-7 1.6-10.4 1-3.6-.7-7.3-2.4-9.7-5.2.1-.4.4-.7.7-.9.6-.4 1.2-.7 1.9-1 .9-.5 0-2.2 0-3.1 0-1.5 1.1-2.1 2.4-2.6.9-.4.9-.9 1-1.9 0-.7 0-1.4-.4-2.1-.2 0-.5 0-.7-.1-.4-.3-1-.5-1.5-.7-.5-.2-.8-.7-.7-1.3 0-.2.2-.6.4-.8Z"/><path class="st9" d="M186.4 102.8c-1.4-.3-2.8-.7-4-1.4 0-.1-.4-5.3 8.8-3.5s4.9 12.8 4.9 12.8"/><path class="st11" d="M196.5 217.3c.8-.3 2.1-.5 2.7-1.3s.5-1.9.5-2.9v-2.8s.1-.2.1-.4v-2.2l3.8-.4s1.7 6.6 1.6 7.3-3.7 5.7-5.6 6-7-1.3-7.4-2c1.4-.5 2.8-1 4.3-1.4ZM170 203.7c1.3-.2 6.5.6 6.5.6s.7-4.3.7-4.5l5.4.4s.7 7.9.7 9c0 1.9-2.4 2.5-2.9 2.5-.4-.1-.7-.3-1.1-.4.2-1 .3-2 .3-3s-.1-.7-.6-1c-.8-.3-2.3.1-3.1.3-1 .1-1.9.4-2.9.6-2.2-1.1-4-2.2-4.1-2.6-.3-1.2-.7-1.4 1.2-1.8Z"/><path class="st9" d="m168.2 204 .1-.1c.4-.4 1.5-.4 2-.4 2.1 0 4.1.3 6.1.7 0 0-4.9-.7-5.2.2-.1.7 0 1.5.5 2 2.1 1.9 5.2-.1 7.2-1l3.7-1.6.2 3.1s.2 3.7 0 4.2-2.5 1.6-2.9 1.3-1.9-1.1-1.9-1.1l.3-3.7s-3.1 1.3-4.6 1c-1-.3-7-2.9-5.7-4.6ZM201.7 214.6s-2 6.3-2.7 6.6-8.4-2-7.2-3.5c.7-.9 5.4-.9 5.7-1 0 0-2.5.8-2.5 1.2s3.1 1.8 3.2 1.5 3.5-5.7 3.5-5.7l3.1-1.1 2.6 5.7-2.2 1s-.7 1.7-.9 1.7-2-3.2-2-3.2-.4 2.1-.7 2.3-2.8 2.3-4 .7l2.2-2.4"/><path class="st8" d="M185.8 202.3c-4.9.9-9.9 0-13.6-3.2 0-8.1-.8-15.3-.6-23.4.4-13.1 2.3-26 11.5-36.3l16.8-2.5c6.8 12.9 8.2 72.2 8.2 72.2s-8.5 5.4-15 2.8l-2.5-49.3s-4.4 5.2-5.2 8.2c-.7 2.1.5 21.6.4 31.5Z"/></g><g id="sparks_cleaning-computer-96"><path class="st13" d="M136.7 87.5s1.9 8.2-6.7 10c0 0 7.8.8 7.6 8.4 0 0-1-7.2 6.5-8.4 0 0-7.5-.7-7.4-10ZM118.5 111.6s2.5 10.9-8.9 13.4c0 0 10.3 1.1 10.1 11.3 0 0-1.3-9.7 8.6-11.3 0 0-9.9-1-9.8-13.4ZM209.2 55.3s1.9 8.1-6.6 9.9c0 0 7.6.8 7.5 8.4 0 0-1-7.2 6.4-8.4 0 0-7.3-.7-7.2-9.9Z"/></g></svg>