<svg id="Layer_1" data-name="Layer 1" xmlns="http://www.w3.org/2000/svg" xmlns:xlink="http://www.w3.org/1999/xlink" viewBox="0 0 400 300" data-imageid="time-isometric" imageName="Time" class="illustrations_image" style="width: 188px;"><defs><linearGradient id="linear-gradient" x1="274.7" y1="178.91" x2="298.01" y2="155.6" gradientUnits="userSpaceOnUse"><stop offset="0" stop-opacity="0"/><stop offset="1" stop-color="#4d4d4d"/></linearGradient><linearGradient id="linear-gradient-2" x1="166.54" y1="242.01" x2="249.59" y2="101.18" xlink:href="#linear-gradient"/><linearGradient id="linear-gradient-3" x1="182.59" y1="231.09" x2="228.4" y2="185.27" xlink:href="#linear-gradient"/><linearGradient id="linear-gradient-4" x1="218.71" y1="218.31" x2="259.99" y2="177.04" xlink:href="#linear-gradient"/></defs><title>#41-50</title><ellipse cx="208.64" cy="213.03" rx="138.8" ry="64.41" fill="#e5e5e5"/><polyline points="279.53 167.55 265.57 175.49 275.06 182.89 295.6 170.56" fill="url(#linear-gradient)"/><path d="M265.45,240.84,152.24,176.48s-76,49.9-75.69,51.63S109.18,271.66,202.78,277Z" fill="url(#linear-gradient-2)"/><path d="M156.18,120.09c-.31-.71-1.35-.09-1,.61,1.23,2.77,3.66,4.91,4.67,7.77.84,2.38.6,4.91-2,6.07-1.56.69-3.67.06-5.19-.41-.74-.23-1.06.94-.32,1.16,3.25,1,7.84,1.21,9-2.8C162.69,127.71,157.92,124,156.18,120.09Z" fill="#ff413b"/><path d="M185.66,118.8c-.18-.91-1.57-.53-1.39.38.52,2.69,0,6.61-2.69,8.08a2.73,2.73,0,0,1-.61.25,2.35,2.35,0,0,0,.26-1,4.87,4.87,0,0,0-.63-2.1,11,11,0,0,1-.65-1.34,15.64,15.64,0,0,1,1.67-1.42c.73-.56,0-1.82-.73-1.25l-.95.76a.73.73,0,0,0-1.17.08,2.21,2.21,0,0,0-.35,1.39,5.33,5.33,0,0,0-1,1.77c-1.87,1.2-1.4,4.78,1.36,4.56a2.77,2.77,0,0,0,.36-.06,2.94,2.94,0,0,0,.72.21c1.9.28,3.65-1.21,4.59-2.72A10.53,10.53,0,0,0,185.66,118.8Zm-6.95,6.62.08,0a.55.55,0,0,0,.49-.44c.07.14.13.28.19.42a1.77,1.77,0,0,1-.1,1.85A2,2,0,0,1,178.71,125.42Z" fill="#ff413b"/><path d="M184.22,83c.73-.58-.3-1.6-1-1a5.19,5.19,0,0,0-.53,7.43c.62.69,1.64-.33,1-1A3.75,3.75,0,0,1,184.22,83Z" fill="#ff413b"/><path d="M215.94,99.26l-.75,0c-.24-.36-.5-.7-.74-1-.56-.73-1.81,0-1.25.73l.16.21a28.5,28.5,0,0,0-6.13.63c-.91.19-.52,1.59.38,1.39a26.11,26.11,0,0,1,4.68-.55,4.71,4.71,0,0,0-1.29,3.11,2.43,2.43,0,0,0,.71,1.6.72.72,0,0,0,1.2.64,2.26,2.26,0,0,0,.59,0,3.42,3.42,0,0,0,2.88-2.61,4.07,4.07,0,0,0-.25-2.41l.41-.64A.73.73,0,0,0,215.94,99.26Zm-3.35,4.62a2.06,2.06,0,0,1,.15-1.31,6.31,6.31,0,0,1,1.56-1.95h.05l.15.27Z" fill="#ff413b"/><path d="M187.26,168.77c-.42-.83-1.66-.1-1.25.73.56,1.12,1.39,2.69.5,3.85s-1.73.43-1.95-.6c-.3-1.44-.13-2.9-.86-4.24-.45-.82-1.7-.09-1.25.73,1,1.82-.12,5.32,2.49,6.05a2.76,2.76,0,0,0,3.11-1.71C188.79,172,188,170.23,187.26,168.77Z" fill="#ff413b"/><path d="M141.32,163.13c-.83-.43-1.56.82-.73,1.25,1.78.92,4.58,2.35,3.93,4.81-.33,1.25-1.44,1.85-2.53,1a5.77,5.77,0,0,1-1.44-2.82.72.72,0,0,0-1.39.38c.44,1.46,1.1,3.23,2.54,4a2.8,2.8,0,0,0,3.6-.83C147.82,167.5,144,164.54,141.32,163.13Z" fill="#ff413b"/><path d="M148.73,101.85c-.54-.75-1.79,0-1.25.73a4.4,4.4,0,1,1-7.51,4.37c-.39-.84-1.64-.11-1.25.73a5.84,5.84,0,1,0,10-5.83Z" fill="#ff413b"/><ellipse cx="208.09" cy="213.03" rx="76.78" ry="44.04" fill="#206bc4" class="target-color"/><ellipse cx="208.09" cy="213.03" rx="76.78" ry="44.04" opacity="0.21"/><ellipse cx="208.09" cy="207.7" rx="76.78" ry="44.04" fill="#206bc4" class="target-color"/><ellipse cx="208.09" cy="206.61" rx="68.35" ry="39.2" fill="#206bc4" class="target-color"/><ellipse cx="208.09" cy="207.4" rx="66.96" ry="38.41" fill="#cee831"/><path d="M202.15,51.7C226,67.44,227.24,107.44,205,141s-61,50.09-83.34,32.34c-26.47-21-24.44-54.18-2.21-87.79S178.35,36,202.15,51.7Z" fill="#206bc4" class="target-color"/><ellipse cx="168.2" cy="116" rx="71.31" ry="44.79" transform="matrix(0.55, -0.83, 0.83, 0.55, -21.34, 192.3)" fill="#cee831"/><ellipse cx="169.35" cy="116.76" rx="55" ry="35.92" transform="translate(-21.46 193.6) rotate(-56.52)" fill="#fff"/><path d="M168.59,57.19A13.41,13.41,0,0,1,161.13,55c-7-4.64-8.27-15.15-2.8-23.42S174,20.34,181,25h0c7,4.64,8.27,15.15,2.8,23.42C180.06,54,174.18,57.19,168.59,57.19Zm4.88-29.63c-4,0-8.34,2.42-11.14,6.66-4,6.07-3.37,13.59,1.44,16.77s12,.83,16-5.24,3.37-13.59-1.44-16.77h0A8.72,8.72,0,0,0,173.47,27.57Z" fill="#cee831"/><path d="M190.62,78.16l-21.75,42.38,1.69-.69-20-7.93c-1.79-.71-2.57,2.19-.8,2.89l20,7.93a1.5,1.5,0,0,0,1.69-.69l21.75-42.38c.88-1.71-1.71-3.23-2.59-1.51Z" fill="#42210b"/><path d="M174.18,75.33c-3.42,0-3.42,5.31,0,5.31S177.6,75.33,174.18,75.33Z" fill="#606060"/><path d="M167.4,154.94c-3.42,0-3.42,5.31,0,5.31S170.82,154.94,167.4,154.94Z" fill="#606060"/><path d="M203.81,110.67c-3.42,0-3.42,5.31,0,5.31S207.23,110.67,203.81,110.67Z" fill="#606060"/><path d="M136,118.52c-3.42,0-3.42,5.31,0,5.31S139.4,118.52,136,118.52Z" fill="#606060"/><path d="M276.8,155s0,17.7,10.3,17.7c6.56,0,12.63-.47,12.21-17.7" fill="#d67527"/><ellipse cx="288.06" cy="155.04" rx="11.25" ry="3.06" fill="#843703"/><path d="M284.85,158.12l.07,0a39.76,39.76,0,0,0,6.89,0,3.57,3.57,0,0,0,.6-2V132.6a3.59,3.59,0,0,0-3.59-3.59h-1.47a3.59,3.59,0,0,0-3.59,3.59v23.61a3.55,3.55,0,0,0,.45,1.7A2.63,2.63,0,0,1,284.85,158.12Z" fill="#419f00"/><path d="M288.08,140.09H295a4.79,4.79,0,0,0,1.53-3.52c0-2.26,1.4-4.08,3-3.28s1.8,7.63,0,9.41-8.3,1.7-8.3,1.7" fill="#419f00"/><polyline points="208.64 203.93 162.78 222.52 194.23 240.73 225.52 216.52" fill="url(#linear-gradient-3)"/><polyline points="225.11 192.54 198.16 207.89 227.96 228.1 260.1 207.89" opacity="0.64" fill="url(#linear-gradient-4)"/><polyline points="242.44 182.84 242.44 218.5 245.08 218.5 245.65 181.91" fill="#474747"/><polyline points="257.45 169.12 262.74 207.89 260.1 207.89 254.57 170.56" fill="#474747"/><path d="M201.94,198.76s-2.21,7.27-3.78,9.13-12.35,5-12.2,6.74,2,3.87,6.42,3.87,13.84-5,13.84-5,4.5-.66,5.27-2.19,0-11.89,0-11.89" fill="#843703"/><path d="M215.21,206.61s-.83,7.63-2.4,9.48-10.18,7.48-10,9.18,3.51,2.83,7.92,2.83,10.18-7.42,10.18-7.42,3.87-2.64,4.64-4.16.64-11.58.64-11.58" fill="#843703"/><path d="M258.89,132.26c-.7,2-4.65,31.7-4.65,31.7l-4-1.33,5.18-30.53" fill="#474747"/><polyline points="257.45 169.12 257.53 164.33 253.28 165.78 254.57 170.56" fill="#a9cbf8"/><path d="M247.87,161.7s10.65,4.09,9.58,8.11-9.57,13.87-15,13-12.09-5.59-12.09-5.59" fill="#206bc4" class="target-color"/><path d="M247.87,161.7s10.65,4.09,9.58,8.11-9.57,13.87-15,13-12.09-5.59-12.09-5.59" opacity="0.21"/><path d="M247.87,156.8s10.65,4.09,9.58,8.11-9.57,13.87-15,13-12.09-5.59-12.09-5.59" fill="#206bc4" class="target-color"/><path d="M252.09,119.46s10.29,2.57,11.33,8.49,1.34,16.84-13.26,12.6-7.71-15.21-7.71-15.21" fill="#206bc4" class="target-color"/><path d="M227.18,143s-21.06,14.45-23.77,21.81-4.5,36.35-4.5,36.35,7.37,4.58,15.94,1.88l6.45-32.85s15.31-6.54,18-14.72-.94-23.43-.94-23.43" fill="#d67527"/><path d="M239,151.5S217.91,166,215.2,173.32s-4.5,36.35-4.5,36.35,7.37,4.58,15.94,1.88l6.45-32.85s15.31-6.54,18-14.72-.94-23.43-.94-23.43" fill="#d67527"/><path d="M250.52,131.86a2,2,0,0,1,1.25-2.13q0-4.82,0-9.64-.19-2.92-.48-5.84C247.59,111,235,106.32,235,106.32a10.75,10.75,0,0,0-9.87,2.25c-4.72,4-4.68,39.6-1.7,42.87s22.66,2.24,26.84.11a2.17,2.17,0,0,0,.85-1.06C251.68,144.29,251,138.07,250.52,131.86Z" fill="#8cc63f"/><path d="M225.12,108.58s-4.24,4.54-5.53,15.26c-1,8.4-1.36,14.92-1.36,14.92L212.61,145c.2,4,1.89,8.61,5.15,10.81,3.86-2.77,8.32-7,8.42-7.77Z" fill="#8cc63f"/><path d="M237.87,133.45l-15,1.92s-10.25.28-10.93,1.91c-.88,2.1.8,7.69,2.89,8s7.88-4.08,8.66-4.38,13.76,1.7,17.1,0S237.87,133.45,237.87,133.45Z" fill="#ffe0ce"/><path d="M224.63,139.2c0,.69,0,1.27,0,1.76h2.08a2.79,2.79,0,0,1,.43,0c.23-1.63.29-4.16-1-6l-2.71.41S224.52,136.28,224.63,139.2Z" fill="#d67527"/><path d="M222.39,133.59l.12,1.91s1.77,1.27,5.45-.16v-1.75" fill="#350011"/><ellipse cx="225.18" cy="133.59" rx="2.78" ry="1.08" fill="#d67527"/><path d="M243.94,127.84s-12.18,5-13.59,5.26,0,9.65,0,9.65,19.8-2.2,21.66-4,2.45-18.53,0-23.82-11.58-8.58-11.58-8.58-12.66,6.88-7.38,11.92" fill="#8cc63f"/><path d="M213.85,149.63l-.41-.12c.07.2-5.8,8.55-5.8,8.55s-2.6,4.63-1.74,5.9,4.94-5,5.78-4.81-1.72,2.28-1,3.36,5.08-5.69,5.08-5.69l1.09-1.6a14.75,14.75,0,0,1-1.87-3.17A10.11,10.11,0,0,1,213.85,149.63Z" fill="#ffe0ce"/><path d="M225,116.72l-.19,15.38a.5.5,0,0,0,1,0l.19-15.38A.5.5,0,0,0,225,116.72Z" fill="#5a8417"/><path d="M250.36,139a77,77,0,0,1-13.64,4.3q-1.58.34-3.18.61c-1.91.32-2.57.25-3.11-1.73-.63-2.3-.39-5.24-.47-7.65h0c3.89-.89,8.59-1.94,12.12-3.83,2.63-1.41,2-5.59,1.89-8.08,0-.64-1-.64-1,0a18.58,18.58,0,0,1,0,4.16c-.56,3.18-2.38,3.44-4.79,4.28a80.36,80.36,0,0,1-8.46,2.51.43.43,0,0,0-.32.25.45.45,0,0,0-.47.48c.13,3.1-.17,6.92.65,9.92.36,1.33,1.14,1.11,2.38.94A76.43,76.43,0,0,0,250.63,140C251.22,139.76,251,138.79,250.36,139Z" fill="#5a8417"/><polygon points="251.13 139.23 251.23 148.88 241.33 142.37 251.13 139.23" fill="#5a8417"/><path d="M223.87,141.11l-.1,10.54a.5.5,0,0,0,1,0l.1-10.54A.5.5,0,0,0,223.87,141.11Z" fill="#5a8417"/><path d="M226.17,156.27A70.79,70.79,0,0,0,215.93,165c-3.06,3.19-3.06,7.16-3.57,11.37a315.77,315.77,0,0,0-2.22,32.41.5.5,0,0,0,1,0q.25-14.28,1.77-28.5.37-3.43.82-6.85c.39-2.95.56-5.16,2.61-7.42a63,63,0,0,1,10.34-8.9C227.2,156.77,226.7,155.9,226.17,156.27Z" fill="#350011"/><path d="M226.71,101s-6.47-1.8-5.19-5.49,3.24-2.58,3.24-2.58a5.26,5.26,0,0,1,4.52-4.37,6.86,6.86,0,0,1,6.54,2.22,4.29,4.29,0,0,1,4.74-.2c2.84,1.45,2.84,7.17,2.84,7.17s-2.63,8.33-3.44,8.91,0-2.8-1.15-4.38S231.87,98.38,226.71,101Z" fill="#d67527"/><path d="M226.3,98.86c.41,1.34,3.49,14.14,9.27,12.7s4.79-10.28,4.79-10.28-4.56-.91-5.11-2.87-.39-2.84-3-3.21S225.62,96.63,226.3,98.86Z" fill="#ffe0ce"/><path d="M229.19,106.43s.88-1,1.45-.89,2.23.84,3.07.44,1.16-1.32,2.1-1.47,2.7-3.8,2.7-3.8l1.86.57c.1,0,.06,6.17-1.08,7.53s-1.4,3.9-3.68,4.41S229.19,110.08,229.19,106.43Z" fill="#d67527"/><path d="M239.33,102.17s-.28-3,1.21-2.46-.19,3.94-.19,3.94Z" fill="#ffe0ce"/></svg>