<?xml version="1.0" encoding="UTF-8"?><svg id="Ebene_2" xmlns="http://www.w3.org/2000/svg" viewBox="0 0 416.91 303.22"><defs><style>.cls-1{fill:#403e56;}.cls-2{fill:#fff;}.cls-3{fill:#cdcccc;}.cls-4{fill:#010101;isolation:isolate;opacity:.1;}.cls-5{fill:#3069b2;}.cls-6{fill:#e7e6e6;}.cls-7{fill:#f2f2f2;}</style></defs><g id="Ebene_1-2"><path class="cls-3" d="m392.47,2.01H74.33c-.02-1.11-.93-2.01-2.04-2.01h-12.53c-1.11,0-2.02.89-2.04,2.01h-3.07c-.02-1.11-.93-2.01-2.04-2.01h-12.53c-1.11,0-2.02.89-2.04,2.01h-11.16c-13.49.02-24.42,10.95-24.44,24.44v.24s-.08-.01-.11-.01h-.29C.91,26.67,0,27.59,0,28.72H0v23.9c0,1.13.91,2.04,2.04,2.04h.29s.08,0,.11-.01v224.13c.02,13.49,10.95,24.42,24.44,24.44h365.59c13.49-.02,24.42-10.95,24.44-24.44V26.45c-.02-13.49-10.95-24.42-24.44-24.44Zm17.08,276.77c-.01,9.43-7.65,17.07-17.08,17.08H26.88c-9.43-.01-17.07-7.65-17.08-17.08V26.45c.01-9.43,7.65-17.07,17.08-17.08h365.59c9.43.01,17.07,7.65,17.08,17.08v252.33Z"/><path class="cls-6" d="m392.47,299.95H26.88c-11.69-.01-21.16-9.48-21.17-21.17V26.45c.01-11.69,9.48-21.16,21.17-21.17h365.59c11.69.01,21.16,9.48,21.17,21.17v252.33c-.01,11.69-9.48,21.16-21.17,21.17Z"/><path class="cls-2" d="m392.58,282.89H26.77c-2.57,0-4.66-2.09-4.66-4.66V26.99c0-2.57,2.09-4.66,4.66-4.66h365.81c2.57,0,4.66,2.09,4.66,4.66v251.24c0,2.57-2.09,4.66-4.66,4.66Z"/><circle class="cls-2" cx="13.99" cy="152.17" r="1.75"/><path class="cls-3" d="m159.64,55.58h-77.71c-12.69.01-22.98,10.3-22.99,22.99v7.02c-.57-.16-1.16.18-1.31.75-.03.1-.04.2-.04.3v5.4c0,.59.46,1.07,1.05,1.08.1,0,.2-.01.3-.04v8.18c-.57-.16-1.16.18-1.31.75-.03.1-.04.2-.04.3v13.5c0,.59.46,1.07,1.05,1.08.1,0,.2-.01.3-.04v4.94c-.57-.16-1.16.18-1.31.75-.03.1-.04.2-.04.3v13.5c0,.59.46,1.07,1.05,1.08.1,0,.2-.01.3-.04v142.61c.01,12.69,10.3,22.98,22.99,22.99h77.71c12.69-.01,22.98-10.3,22.99-22.99V78.57c-.01-12.69-10.3-22.98-22.99-22.99Zm18.13,224.4c-.01,10.01-8.12,18.12-18.13,18.13h-77.71c-10.01-.01-18.12-8.12-18.13-18.13V78.57c.01-10.01,8.12-18.12,18.13-18.13h77.71c10.01.01,18.12,8.12,18.13,18.13v201.41Z"/><path class="cls-6" d="m159.64,300.81h-77.71c-11.5-.01-20.82-9.33-20.83-20.83V78.57c.01-11.5,9.33-20.82,20.83-20.83h77.71c11.5.01,20.82,9.33,20.83,20.83v201.41c-.01,11.5-9.33,20.82-20.83,20.83Z"/><path class="cls-2" d="m161.56,297.57h-81.55c-7.76,0-14.04-6.29-14.05-14.05V75.03c0-7.76,6.29-14.04,14.05-14.05h10.64c1.28,0,2.32,1.04,2.32,2.32,0,3.79,3.07,6.86,6.86,6.86h40.84c3.79,0,6.86-3.07,6.86-6.86,0-1.28,1.04-2.32,2.32-2.32h11.72c7.76,0,14.04,6.29,14.05,14.05v208.49c0,7.76-6.29,14.04-14.05,14.05Z"/><path class="cls-2" d="m124.29,65.7h-9.72c-.6,0-1.08-.48-1.08-1.08s.48-1.08,1.08-1.08h9.72c.6,0,1.08.48,1.08,1.08s-.48,1.08-1.08,1.08Z"/><circle class="cls-2" cx="131.05" cy="64.89" r=".54"/><path class="cls-3" d="m131.59,116.47l.11,2.51c12.85-.58,27.72.54,43.56,3.19v-2.55c-15.86-2.62-30.77-3.73-43.67-3.15Z"/><path class="cls-5" d="m115.62,165.7c-.1.96-.18,1.93-.24,2.9-.13,1.91-.2,3.84-.2,5.79.02,37.18,24.46,69.93,60.09,80.54V93.83c-32.59,9.69-56.13,38.05-59.65,71.87Z"/><circle class="cls-3" cx="73.69" cy="115.34" r="1.66"/><circle class="cls-3" cx="70.16" cy="180.16" r="3.27"/><circle class="cls-3" cx="131.78" cy="94.47" r="2.37"/><circle class="cls-3" cx="77.86" cy="226.38" r="1.89"/><circle class="cls-3" cx="116.05" cy="252.69" r="2.05"/><polygon class="cls-3" points="175.58 46.53 171.53 46.53 171.53 42.49 169.37 42.49 169.37 46.53 165.32 46.53 165.32 48.7 169.37 48.7 169.37 52.74 171.53 52.74 171.53 48.7 175.58 48.7 175.58 46.53"/><circle class="cls-4" cx="146.22" cy="160.27" r="7.06"/><circle class="cls-4" cx="149.75" cy="210.01" r="7.06"/><path class="cls-3" d="m118.6,165.75c-8.66-5.82-15.12-11.56-19.18-17.06-4.05-5.49-5.5-10.45-4.3-14.74,1.2-4.29,5.01-7.78,11.33-10.36,6.33-2.59,14.83-4.14,25.25-4.61l-.11-2.51c-22.32,1-36.14,6.97-38.89,16.8-2.76,9.83,5.94,22.11,24.5,34.56,15.13,10.16,35.39,19.54,58.07,26.97v-2.65c-22.14-7.32-41.89-16.49-56.66-26.41Z"/><path class="cls-4" d="m118.6,167.76c-1.02-.69-2.02-1.38-2.98-2.06-.1.96-.18,1.93-.24,2.9.6.42,1.2.83,1.82,1.25,15.13,10.16,35.39,19.54,58.07,26.97v-2.65c-22.14-7.32-41.89-16.49-56.67-26.41Z"/><path class="cls-3" d="m212.29,127.24c-9.89-2.77-19.7-5.03-29.22-6.77v2.56c9.3,1.71,18.87,3.93,28.54,6.64,30.77,8.63,58.62,21.2,76.4,34.49l1.51-2.01c-18.02-13.47-46.17-26.19-77.23-34.89Z"/><path class="cls-5" d="m286.17,174.39c-.03-46.43-37.69-84.05-84.13-84.03-6.38,0-12.75.73-18.96,2.18v163.69c38.16,8.88,77.4-9.78,94.6-44.99.43-.88.85-1.78,1.25-2.68,4.79-10.76,7.26-22.4,7.24-34.18h0Z"/><circle class="cls-7" cx="204.37" cy="74.25" r=".96"/><circle class="cls-3" cx="269.52" cy="80.03" r="2.18"/><circle class="cls-3" cx="346.86" cy="170.54" r="3.54"/><circle class="cls-3" cx="319.18" cy="113.99" r="1.52"/><circle class="cls-3" cx="313.86" cy="163.36" r="1.52"/><polygon class="cls-3" points="272.26 265.16 269.72 265.16 269.72 262.63 268.36 262.63 268.36 265.16 265.82 265.16 265.82 266.53 268.36 266.53 268.36 269.06 269.72 269.06 269.72 266.53 272.26 266.53 272.26 265.16"/><polygon class="cls-3" points="330.82 252.18 328.92 252.18 328.92 250.28 327.9 250.28 327.9 252.18 326 252.18 326 253.2 327.9 253.2 327.9 255.09 328.92 255.09 328.92 253.2 330.82 253.2 330.82 252.18"/><circle class="cls-4" cx="203.41" cy="108.6" r="7.06"/><circle class="cls-4" cx="203.41" cy="171.18" r="7.06"/><circle class="cls-4" cx="241.28" cy="133.31" r="7.06"/><circle class="cls-4" cx="264.71" cy="181.13" r="7.06"/><path class="cls-3" d="m305.38,177.92c-3.32-5.09-8.65-10.4-15.86-15.79l-1.51,2.01c14.01,10.47,20.53,20.48,18.37,28.19-1.2,4.29-5.01,7.78-11.33,10.36-6.33,2.59-14.83,4.14-25.25,4.61-2.22.1-4.49.15-6.82.15-20.4,0-44.99-3.78-70.14-10.83-3.3-.92-6.55-1.89-9.77-2.9v2.63c3,.93,6.03,1.83,9.09,2.69,25.37,7.11,50.2,10.92,70.83,10.92,2.36,0,4.67-.05,6.92-.15,22.32-1,36.14-6.97,38.89-16.8,1.28-4.56.12-9.64-3.43-15.09Z"/><path class="cls-4" d="m269.81,209.31c-2.21.1-4.49.15-6.82.15-20.4,0-44.99-3.78-70.14-10.82-3.3-.92-6.55-1.89-9.77-2.9v2.63c3,.93,6.03,1.83,9.09,2.69,25.37,7.11,50.2,10.92,70.83,10.92,2.36,0,4.67-.05,6.92-.15,2.71-.12,5.3-.31,7.75-.58.43-.88.85-1.78,1.25-2.68-2.85.35-5.89.6-9.12.74Z"/><circle class="cls-2" cx="241.25" cy="103.85" r="9.21"/><path class="cls-1" d="m241.28,90.3c-7.27,0-13.16,5.89-13.16,13.16s13.16,31.13,13.16,31.13c0,0,13.16-23.86,13.16-31.13s-5.89-13.16-13.16-13.16Zm0,19.58c-3.37,0-6.1-2.73-6.1-6.1s2.73-6.1,6.1-6.1c3.37,0,6.1,2.73,6.1,6.1s-2.73,6.1-6.1,6.1h0Z"/><circle class="cls-2" cx="203.28" cy="137.22" r="9.21"/><path class="cls-1" d="m203.3,123.67c-7.27,0-13.16,5.89-13.16,13.16s13.16,31.13,13.16,31.13c0,0,13.16-23.86,13.16-31.13s-5.89-13.16-13.16-13.16Zm0,19.58c-3.37,0-6.1-2.73-6.1-6.1s2.73-6.1,6.1-6.1c3.37,0,6.1,2.73,6.1,6.1s-2.73,6.1-6.1,6.1h0Z"/><circle class="cls-2" cx="203.28" cy="77.96" r="9.21"/><path class="cls-3" d="m203.3,64.41c-7.27,0-13.16,5.89-13.16,13.16s13.16,31.13,13.16,31.13c0,0,13.16-23.86,13.16-31.13s-5.89-13.16-13.16-13.16Zm0,19.58c-3.37,0-6.1-2.73-6.1-6.1s2.73-6.1,6.1-6.1c3.37,0,6.1,2.73,6.1,6.1s-2.73,6.1-6.1,6.1h0Z"/><circle class="cls-2" cx="264.84" cy="149.31" r="9.21"/><path class="cls-3" d="m264.87,135.76c-7.27,0-13.16,5.89-13.16,13.16s13.16,31.13,13.16,31.13c0,0,13.16-23.86,13.16-31.13s-5.89-13.16-13.16-13.16Zm0,19.58c-3.37,0-6.1-2.73-6.1-6.1s2.73-6.1,6.1-6.1c3.37,0,6.1,2.73,6.1,6.1s-2.73,6.1-6.1,6.1h0Z"/><circle class="cls-2" cx="146.32" cy="128.59" r="9.21"/><path class="cls-3" d="m146.34,115.04c-7.27,0-13.16,5.89-13.16,13.16s13.16,31.13,13.16,31.13c0,0,13.16-23.86,13.16-31.13s-5.89-13.16-13.16-13.16Zm0,19.58c-3.37,0-6.1-2.73-6.1-6.1,0-3.37,2.73-6.1,6.1-6.1,3.37,0,6.1,2.73,6.1,6.1h0c0,3.37-2.73,6.1-6.1,6.1h0Z"/><circle class="cls-2" cx="149.77" cy="178.65" r="9.21"/><path class="cls-1" d="m149.8,165.1c-7.27,0-13.16,5.89-13.16,13.16s13.16,31.13,13.16,31.13c0,0,13.16-23.86,13.16-31.13s-5.89-13.16-13.16-13.16Zm0,19.58c-3.37,0-6.1-2.73-6.1-6.1,0-3.37,2.73-6.1,6.1-6.1,3.37,0,6.1,2.73,6.1,6.1h0c0,3.37-2.73,6.1-6.1,6.1h0Z"/></g></svg>