<?xml version="1.0" encoding="UTF-8"?><svg id="Ebene_2" xmlns="http://www.w3.org/2000/svg" xmlns:xlink="http://www.w3.org/1999/xlink" viewBox="0 0 426.56 305.08"><defs><style>.cls-1{fill:#535168;}.cls-2{fill:#403e56;}.cls-3,.cls-4{fill:#fff;}.cls-5,.cls-4,.cls-6,.cls-7,.cls-8,.cls-9,.cls-10,.cls-11{isolation:isolate;}.cls-5,.cls-9,.cls-10{opacity:.3;}.cls-5,.cls-12{fill:#517cbe;}.cls-13{fill:url(#Unbenannter_Verlauf_2);}.cls-4{opacity:.04;}.cls-6{stroke:#517cbe;}.cls-6,.cls-7,.cls-8,.cls-14,.cls-11{opacity:.1;}.cls-6,.cls-8,.cls-15{fill:#010101;}.cls-6,.cls-16{stroke-miterlimit:10;}.cls-7,.cls-10{fill:#5b5874;}.cls-17{fill:#324156;}.cls-9,.cls-18{fill:#3069b2;}.cls-16{stroke:#535168;stroke-width:2px;}.cls-16,.cls-19{fill:none;}.cls-20{fill:#c47098;}.cls-21{fill:#111110;}.cls-22{fill:#b5b5b5;opacity:.5;}</style><linearGradient id="Unbenannter_Verlauf_2" x1="368.62" y1="-547.26" x2="368.62" y2="-336.9" gradientTransform="translate(-26.97 -244.16) scale(1 -1)" gradientUnits="userSpaceOnUse"><stop offset="0" stop-color="#808181" stop-opacity=".25"/><stop offset=".54" stop-color="#808181" stop-opacity=".12"/><stop offset="1" stop-color="#808181" stop-opacity=".1"/></linearGradient></defs><g id="Ebene_1-2"><path class="cls-9" d="m419.81,205.1c-9.89,20.39-29.96,34.03-50.76,43.02-28.01,12.11-58.85,16.92-89.27,14.88-5.33-.35-10.65-.92-15.94-1.7-18.4-2.68-36.34-7.91-53.31-15.52-4.9-2.21-9.69-4.61-14.39-7.22-7.85-4.35-15.37-9.27-22.5-14.71-1.79-1.37-3.56-2.77-5.31-4.21-1.21-1-2.41-2.02-3.62-3.01-2.57-2.09-5.21-4.07-8.16-5.56-.89-.45-1.8-.85-2.73-1.21-9.33-3.55-20.09-2.21-29.81.56-7.39,2.11-14.59,4.99-21.98,7.05-3.28.94-6.63,1.65-10.01,2.13-7.55.96-15.22.28-22.5-1.98l-.62-.19c-1.04-.33-2.08-.69-3.1-1.08l-.62-.24c-.99-.38-1.96-.79-2.91-1.23l-.62-.28c-.99-.46-1.96-.95-2.91-1.46-.34-.18-.68-.37-1.02-.55-5.41-3.02-10.32-6.84-14.57-11.35-.12-.12-.24-.25-.37-.37-.59-.64-1.17-1.29-1.73-1.96-.21-.25-.42-.49-.62-.74-.67-.81-1.31-1.65-1.93-2.5-.09-.12-.18-.25-.27-.37-2.54-3.51-4.65-7.32-6.27-11.34-.05-.12-.1-.25-.15-.37-.5-1.28-.95-2.58-1.36-3.9-.17-.55-.33-1.12-.47-1.67-.05-.16-.09-.33-.13-.49-2.05-8.09-2.29-16.49-2.29-24.85v-2.92c.06-13.52.27-27.27,2.26-40.6,0-.09.03-.19.04-.28.67-4.49,1.58-8.94,2.72-13.33,1.2-4.61,2.73-9.12,4.58-13.51,4.59-10.79,11.26-20.61,18.67-29.71C74.48,29.44,98.95,10.21,127.6,3.02c30.86-7.75,65.17-.32,90.06,19.5,7.59,6.04,14.41,13.2,22.94,17.83,7.44,4.03,16.15,5.7,24.12,2.53,6.59-2.62,10.87-3.93,18.27-3.53,15.31.87,30.41,4.03,44.78,9.38.58.21,1.16.43,1.74.65,37.47,14.34,69.68,42.82,86.43,79.42.44.97.87,1.94,1.29,2.92,9.98,23.32,13.59,50.65,2.58,73.38Z"/><ellipse class="cls-5" cx="45.07" cy="271.18" rx="32.85" ry="5.28"/><ellipse class="cls-5" cx="339.75" cy="299.42" rx="58.24" ry="5.66"/><rect x="43.52" y="40.09" width="353.61" height="200.31" rx="4.65" ry="4.65"/><rect class="cls-3" x="44.08" y="42.91" width="352.53" height="196.82" rx="4.65" ry="4.65"/><rect class="cls-17" x="44.08" y="42.91" width="352.53" height="196.82" rx="4.65" ry="4.65"/><rect class="cls-4" x="44.08" y="42.91" width="352.53" height="196.82" rx="4.65" ry="4.65"/><path d="m394.82,40.65H45.87c-.99,0-1.79.8-1.79,1.79v7.56h352.51v-7.56c0-.98-.79-1.78-1.77-1.79Z"/><g id="_6c975d28-8d47-4ade-9154-b3b78f637b65"><circle class="cls-17" cx="51.12" cy="45.33" r="2.42"/><circle class="cls-17" cx="57.63" cy="45.33" r="2.42"/><circle class="cls-17" cx="64.14" cy="45.33" r="2.42"/></g><rect class="cls-5" x="73.11" y="67.6" width="94.6" height="8.03"/><rect class="cls-10" x="73.11" y="99.79" width="294.46" height="123.52"/><path class="cls-8" d="m245.52,107.85h-5.04v-9.79c0-11.05-8.81-20.24-19.86-20.41-11.15-.12-20.29,8.83-20.41,19.98,0,.05,0,.1,0,.15v10.07h-5.03c-4.63.01-8.38,3.76-8.39,8.39v40.27c.01,4.63,3.76,8.38,8.39,8.39h50.34c4.63-.01,8.37-3.76,8.39-8.39v-40.27c-.01-4.63-3.76-8.38-8.39-8.39Zm-22.23,26.18v14.42c.01,1.58-1.21,2.91-2.79,3.02-1.62.08-3-1.18-3.08-2.8,0-.05,0-.09,0-.14v-14.51c-3.32-1.62-4.71-5.63-3.08-8.96,1.62-3.32,5.63-4.71,8.96-3.08s4.71,5.63,3.08,8.96c-.66,1.34-1.74,2.43-3.08,3.08h0Zm11.33-26.18h-28.54v-10.07c0-7.88,6.39-14.26,14.26-14.26s14.26,6.39,14.26,14.26v10.07Z"/><path class="cls-18" d="m245.52,107.1h-5.04v-9.79c0-11.05-8.81-20.24-19.86-20.41-11.15-.12-20.29,8.83-20.41,19.98,0,.05,0,.1,0,.15v10.07h-5.03c-4.63.01-8.38,3.76-8.39,8.39v40.27c.01,4.63,3.76,8.38,8.39,8.39h50.34c4.63-.01,8.37-3.76,8.39-8.39v-40.27c-.01-4.63-3.76-8.38-8.39-8.39Zm-22.23,26.18v14.42c.01,1.58-1.21,2.91-2.79,3.02-1.62.08-3-1.18-3.08-2.8,0-.05,0-.09,0-.14v-14.51c-3.32-1.62-4.71-5.63-3.08-8.96,1.62-3.32,5.63-4.71,8.96-3.08s4.71,5.63,3.08,8.96c-.66,1.34-1.74,2.43-3.08,3.08h0Zm11.33-26.18h-28.54v-10.07c0-7.88,6.39-14.26,14.26-14.26s14.26,6.39,14.26,14.26v10.07Z"/><rect class="cls-7" x="337.77" y="87.91" width="29.8" height="7.04"/><path class="cls-13" d="m377.71,301.13c-.2-.99-.53-1.94-1-2.83l-4.47-6.67h.03s-.7-3.35,0-4.99-2.51-5.69-2.51-5.69c0,0-.39-1.02.63-2.27,1.02-1.25-.63-4.91-.63-4.91,0,0-.78-7.65-.86-8.81s-.71-7.64-.71-7.64l-1.49-13.73-2.65-36.38-.05-.68c.33-.16.5-.26.5-.26l-.53-20.12.46-.41c4-3.62,13.21-11.99,13.12-12.17s-1.12-13.98-1.24-17.43c-.1-2.45-.64-4.87-1.59-7.14-.23-.46-.9-3.48-1.17-4.75-.07-.35-.12-.57-.12-.57,0,0-2.7-5.15-2.47-7.49s.7-4.09-5.06-4.91c0,0-4.84-.72-7.72-2.69-1.7-1.18-3.56-2.11-5.53-2.77,0,0-1.61-2.98-2.74-1.97-.48-1.06-.83-2.17-1.06-3.32l-.03-.21c2.13-1.49,3.67-3.68,4.33-6.2.04-.14.07-.29.1-.43.11.04.23.06.35.06.98,0,1.58-1.09,2.5-1.44.37-.15.83-.17,1.12-.46.19-.23.28-.53.25-.82,0-.1,0-.2,0-.31,0-.04,0-.07,0-.11v.04c-.25-1.35-1.3-2.56-1.18-3.93.11-1.29,1.25-2.43,1.16-3.69,0-.1,0-.2-.03-.3v.04c-.14-.49-.39-.94-.74-1.32-.4-.55-.93-.99-1.53-1.29-.52-.23-1.12-.28-1.6-.55-1.42-.77-1.42-2.79-2.26-4.17-.74-1.17-2.07-1.83-3.45-1.71-1.06.1-2.01.67-3.06.85-1.43.25-2.88-.21-4.24-.74s-2.73-1.12-4.18-1.12-3.03.74-3.47,2.12c-.23.74-.12,1.54-.3,2.3-.32,1.33-1.49,2.28-2.7,2.95-.74.41-1.63.89-1.86,1.67v-.06c-.02.06-.03.13-.04.19,0,.08,0,.17,0,.25,0,.54.28,1.05.47,1.56.35.97.35,2.03-.02,3-.28.71-.74,1.33-1.01,2.03-.13.33-.21.67-.25,1.02v-.06c0,.16,0,.32,0,.48,0,.54.12,1.08.37,1.56.34.67.95,1.18,1.67,1.4.74.17,1.21-.56,1.99-.37.14.03.28.08.41.13.03.17.05.33.08.5.47,2.5,1.81,4.76,3.77,6.39,0,.09.03.18.04.27h0c.24,1.48.34,2.99.31,4.49,0,0-1.17-1.72-2.78,1.6,0,0-4.19,2.42-5.64,2.69s-6.59,2.07-6.59,2.07c-.78.56-1.71.86-2.66.86-1.6,0-2.94,3.51-2.74,5.42s-.12,3.32-1.61,3.39-.68,3.1-.67,3.16l-.14.65c-.29,1.33-.92,4.19-1.15,4.64-.95,2.27-1.48,4.68-1.59,7.14-.12,3.45-1.12,17.2-1.23,17.43-.08.15,6.24,5.92,10.68,9.96l.64.58-2.04,19.08c.12,1.49.89,2.85,2.1,3.72,0,.22,0,.45-.02.68-.09,2.23-.27,4.93-.63,5.64-.63,1.25-.47,7.96-.47,7.96,0,0-.63,13.65-1.41,15.13s-.94,4.6-.71,5.21-.79,17-.79,17l-.78,7.33s.23,7.02-.47,7.17-1.1,4.99-1.1,4.99c0,0-2.5,3.43-1.41,4.68s-.16,1.8-.28,2.11-2.39,1.49-.74,5.85c.02.04.03.09.05.13-1.54,2.14-6.42,9.04-6.12,10.09.22.67.69,1.23,1.3,1.56,1.15.69,3.12,1.01,6.26,0,5.21-1.68,4.84-2.89,4.84-2.89.06-1.17,1.02-2.1,2.2-2.11,2.15-.16,3.76-2.14,3.76-2.14l-.25-.94-.35-1.3c.04-.37.31-1.02,1.49-1.38,1.8-.55,1.33-3.98,1.33-3.98,0,0-.16-3.59.63-4.06s.47-6.4.47-6.4c0,0,.86-4.29,2.11-7.18s2.75-20.04,2.75-20.04c0,0,1.02-8.42,1.96-10.84s1.8-9.2,1.8-9.2c0,0,5.8-11.23,5.88-13.73,0,0,.74-2.34,1.49.23s2.84,8.74,2.84,8.74l2.04,7.56,2.43,11.31,1.57,9.52s-.24,3.59.37,4.84,1.49,4.13,1.02,4.68.94,3.12,1.33,3.67,0,12.09,0,12.09c0,0,1.8,9.83,4.39,11.53.18.12.37.22.57.3-.04,1.06-.07,2.49-.03,3.23,0,.17.02.33.08.49.23.31,2.9,2.42,3.45,2.42s2.5,1.37,2.59,2.03,5.73,3.47,6.53,3.55,4.68.78,5.21-.31c.13-.32.17-.67.11-1.01Zm-13.87-140.55l.4.35s.41,3.22.71,4.18-.06,2.84-.06,2.84c.03.7.17,1.39.41,2.05.35.7-.71,2.23-.71,2.23h-.94l-.29-12.05.48.4Zm-27.99-35.97v-.07s-.01.05-.01.07h.01Zm-14.46,46.38c-.14-.31-.17-.67-.06-.99.08-.18.15-.36.2-.55.12-.49.19-.99.22-1.49,0,0,0-.01,0-.02-.03-.18-.33-1.91-.06-2.82s.7-4.18.7-4.18l.27-.23.62-.54s0-.2.04-.53c.13,2.83.23,5.95.07,6.11-.31.31-1.45,3.35-1.18,3.47.09.04-.03,1.26-.24,2.89-.23-.35-.43-.73-.58-1.12Z"/><path class="cls-20" d="m351.39,127.58v4.63l-9.5,4.77s-9.43-5.7-7.1-7.97c1.49-1.44,1.2-5.38.8-8.09h0c-.23-1.58-.51-2.73-.51-2.73,0,0,16.94-4.84,14.38-1.16-.86,1.23-.92,2.82-.64,4.39.58,3.12,2.56,6.17,2.56,6.17Z"/><path class="cls-21" d="m325.38,172.85l-1.22,15.08s-1.83-1.66-4.21-3.83c-4.4-4.01-10.65-9.76-10.58-9.91.12-.23,1.12-13.91,1.22-17.35.1-2.44.63-4.84,1.57-7.1.22-.45.85-3.29,1.12-4.62.09-.41.15-.68.15-.68l2.05-.83s8.56,9.55,8.56,9.72-.58,7.51-.58,7.51l-.61.53-.26.23s-.41,3.2-.7,4.16.02,2.63.06,2.81h0c-.03.5-.1,1-.21,1.49-.05.19-.11.37-.2.55-.1.33-.08.68.06.99.17.43.38.84.64,1.22l3.15.03Z"/><path class="cls-21" d="m377.24,174.19c.09.18-9.04,8.51-12.99,12.11l-1.79,1.63-1.21-15.08h3.14s1.05-1.51.7-2.21c-.24-.65-.38-1.34-.41-2.04,0,0,.35-1.86.06-2.82s-.7-4.16-.7-4.16l-.4-.34-.47-.41s-.58-7.33-.58-7.51,8.56-9.72,8.56-9.72l2.04.81s.04.22.12.57c.28,1.27.93,4.27,1.16,4.73.94,2.26,1.47,4.66,1.57,7.1.1,3.44,1.09,17.12,1.21,17.35Z"/><path d="m377.28,302.16c-.55,1.09-4.39.37-5.18.31s-6.39-2.88-6.47-3.53-2.02-2.02-2.56-2.02-3.18-2.1-3.42-2.41c-.06-.15-.09-.32-.08-.48-.08-1.28.08-4.56.08-4.56l11.26.62,5.47,8.23c.46.89.79,1.84.99,2.82.07.34.03.7-.09,1.03Z"/><path class="cls-11" d="m377.28,302.16c-.55,1.09-4.39.37-5.18.31s-6.39-2.88-6.47-3.53-2.02-2.02-2.56-2.02-3.18-2.1-3.42-2.41c-.06-.15-.09-.32-.08-.48-.08-1.28.08-4.56.08-4.56l11.26.62,5.47,8.23c.46.89.79,1.84.99,2.82.07.34.03.7-.09,1.03Z"/><path class="cls-8" d="m377.28,302.16c-.55,1.09-4.39.37-5.18.31s-6.39-2.88-6.47-3.53-2.02-2.02-2.56-2.02-3.18-2.1-3.42-2.41c-.06-.15-.09-.32-.08-.48l3.65,2.31s2.33,1.49,2.95,2.37,5.52,2.72,5.92,2.75c.3.03,3.52-.59,5.27-.33.07.34.03.7-.09,1.03Z"/><path d="m324.07,295.37s-1.59,1.98-3.72,2.13c-1.17,0-2.12.93-2.17,2.09,0,0,.37,1.21-4.77,2.88-3.11,1-5.06.68-6.2,0-.61-.34-1.07-.89-1.29-1.56-.35-1.24,6.52-10.67,6.52-10.67l6.25-.37,4.47,2.02.68,2.56.24.92Z"/><path class="cls-11" d="m324.07,295.37s-1.59,1.98-3.72,2.13c-1.17,0-2.12.93-2.17,2.09,0,0,.37,1.21-4.77,2.88-3.11,1-5.06.68-6.2,0-.61-.34-1.07-.89-1.29-1.56-.35-1.24,6.52-10.67,6.52-10.67l6.25-.37,4.47,2.02.68,2.56.24.92Z"/><path class="cls-19" d="m324.07,295.37s-1.59,1.98-3.72,2.13c-1.17,0-2.12.93-2.17,2.09,0,0,.37,1.21-4.77,2.88-3.11,1-5.06.68-6.2,0,2.93-.31,9.4-2.15,10.05-2.79.78-.78,1.75-2.91,2.41-2.95.46-.03,2.78-1.43,4.18-2.3l.23.94Z"/><path class="cls-8" d="m324.07,295.37s-1.59,1.98-3.72,2.13c-1.17,0-2.12.93-2.17,2.09,0,0,.37,1.21-4.77,2.88-3.11,1-5.06.68-6.2,0,2.93-.31,9.4-2.15,10.05-2.79.78-.78,1.75-2.91,2.41-2.95.46-.03,2.78-1.43,4.18-2.3l.23.94Z"/><path class="cls-21" d="m372,286.72c-.7,1.63,0,4.97,0,4.97,0,0-10.42.54-12.96-1.16s-4.35-11.49-4.35-11.49c0,0,.37-11.49,0-12.03s-1.79-3.1-1.32-3.65-.37-3.42-1.01-4.66-.37-4.81-.37-4.81l-1.56-9.47-2.4-11.25-2.04-7.53s-2.09-6.13-2.81-8.69-1.46-.23-1.46-.23c-.07,2.49-5.82,13.66-5.82,13.66,0,0-.86,6.75-1.79,9.16s-1.94,10.79-1.94,10.79c0,0-1.49,17.08-2.72,19.95s-2.07,7.14-2.07,7.14c0,0,.31,5.9-.47,6.37s-.65,4.04-.65,4.04c0,0,.47,3.41-1.32,3.96s-1.49,1.71-1.49,1.71c0,0-9.93,1.63-11.56-2.72s.62-5.51.74-5.82,1.36-.85.28-2.1,1.4-4.65,1.4-4.65c0,0,.39-4.81,1.09-4.97s.47-7.14.47-7.14l.77-7.3s1.01-16.3.78-16.92-.08-3.72.7-5.21,1.4-15.06,1.4-15.06c0,0-.16-6.67.47-7.91.37-.7.53-3.41.62-5.61.07-1.69.08-3.08.08-3.08l8.69-3.26,11.16-3.57,9.39,4.5,13.74,2.64.17,2.37,2.62,36.21,1.49,13.66s.62,6.44.7,7.61.85,8.77.85,8.77c0,0,1.63,3.65.62,4.89s-.62,2.23-.62,2.23c0,0,3.2,4.07,2.5,5.7Z"/><path class="cls-8" d="m349.47,117.02c-.86,1.23-.92,2.82-.64,4.39-4.02,2.84-9.44,2.63-13.24-.49h0c-.23-1.58-.51-2.73-.51-2.73,0,0,16.94-4.83,14.38-1.16Z"/><path class="cls-20" d="m353.43,112.27c0,6.02-4.88,10.9-10.9,10.9s-10.9-4.88-10.9-10.9,4.88-10.9,10.9-10.9h0c5.99-.03,10.87,4.81,10.9,10.8,0,.03,0,.07,0,.1Z"/><polygon class="cls-8" points="355.7 130.39 352.13 194 332.72 189.92 328.88 164.42 332.68 130.19 335.55 130.56 340.6 131.2 345.61 131.51 351.03 130.91 355.7 130.39"/><polygon class="cls-18" points="355.7 130.85 352.13 194.46 332.72 190.39 328.88 164.89 332.68 130.66 335.55 131.02 340.6 131.67 345.61 131.98 351.03 131.37 355.7 130.85"/><path class="cls-2" d="m339.75,132.56l6.99.23-1.96,2.75s.14,5.56,1.07,7.15.66,26.2.66,26.2l-1.86,3.53-3.18-3.96.04-32.48-1.75-3.42Z"/><path class="cls-8" d="m339.75,132.56l6.99.23-1.96,2.75s.14,5.56,1.07,7.15.66,26.2.66,26.2l-1.86,3.53-3.18-3.96.04-32.48-1.75-3.42Z"/><polygon class="cls-8" points="350.69 125.34 344.17 132.56 347.89 136.44 354.07 130.42 350.69 125.34"/><polygon class="cls-18" points="350.69 124.88 344.17 132.09 347.89 135.98 354.07 129.96 350.69 124.88"/><polygon class="cls-8" points="341.42 132.21 334.82 125.61 334.19 129.07 337.22 136.63 341.42 132.21"/><polygon class="cls-18" points="341.65 131.74 335.05 125.15 334.43 128.6 337.46 136.17 341.65 131.74"/><path class="cls-8" d="m363.87,207.66c-3.17,1.51-6.56,2.49-10.05,2.91-6.4.81-10.59-7.33-10.59-7.33l-2.44,3.18c-.78,3.38-12.61,4.23-17.42,2.95-1-.25-1.94-.69-2.76-1.31.07-1.69.08-3.08.08-3.08l8.69-3.26,11.16-3.57,9.39,4.5,13.74,2.64.2,2.37Z"/><path class="cls-8" d="m355.7,130.86l-3.57,63.61-19.41-4.07-3.85-25.5,3.8-34.23,2.87.37c-.07,1.25-.21,2.49-.42,3.72-.47,2.18,2.41,17.62,2.41,17.62,0,0,5.46,17.32,7.91,14.82s5.95-15.68,5.95-15.68c2.37-4.89.04-18.6-.13-18.88-.12-.41-.2-.82-.22-1.25l4.66-.54Z"/><path class="cls-8" d="m364.08,180.08l.16,6.23-1.79,1.63-1.21-15.09h2.68l.16,7.23Z"/><path class="cls-8" d="m321.94,168.58h0c-.03.5-.1,1-.21,1.49,0-.14,0-.22-.03-.23-.11-.03.02-.6.24-1.26Z"/><path class="cls-8" d="m325.38,172.85l-1.22,15.08s-1.83-1.66-4.21-3.83l.28-2.67s1-6.56,1.37-9.8c.17.43.38.84.64,1.22h3.14Z"/><path class="cls-21" d="m335.9,125.38s-1.16-1.71-2.75,1.59c0,0-4.15,2.41-5.58,2.68s-6.51,2.06-6.51,2.06c-.77.55-1.69.85-2.64.85-1.59,0-2.91,3.49-2.72,5.4s-.12,3.3-1.59,3.38-.66,3.14-.66,3.14l9.82,11.26s.62,10.36.31,10.68-1.44,3.35-1.16,3.45-1.49,11.56-1.49,11.56l-2.37,22.24s0,3.72,4.81,5,16.66.44,17.42-2.94l2.44-3.19s4.19,8.15,10.59,7.34c6.4-.81,10.48-3.14,10.48-3.14l-.7-26.65-.47-19.21,10-16.43s-2.68-5.12-2.44-7.44.7-4.07-5.01-4.89c0,0-4.81-.72-7.65-2.68-1.68-1.17-3.53-2.1-5.47-2.75,0,0-1.6-2.98-2.71-1.96,0,0,1.12,4.21,1.02,4.84s.17,3.47.35,3.77,2.5,13.99.13,18.88c0,0-3.48,13.18-5.95,15.68s-7.91-14.82-7.91-14.82c0,0-2.87-15.45-2.41-17.62s.8-10.05.8-10.05Z"/><circle class="cls-2" cx="344.21" cy="174.55" r="1.71"/><circle class="cls-2" cx="344.21" cy="182.61" r="1.71"/><circle class="cls-8" cx="344.21" cy="174.55" r="1.71"/><circle class="cls-8" cx="344.21" cy="182.61" r="1.71"/><path class="cls-6" d="m359.56,284.39s7.01.54,7.71,1.09-7.71-1.09-7.71-1.09Z"/><path class="cls-6" d="m317.82,278.88s1.49,1.86.86,2.72-.86-2.72-.86-2.72Z"/><path class="cls-6" d="m319.6,285.59s2.72-1.79,3.8-.6-3.8.6-3.8.6Z"/><path class="cls-8" d="m353.43,112.27c0,.93-.12,1.86-.35,2.76-.47-.21-.76-.7-.72-1.21.05-.44.34-.85.28-1.29-.09-.68-.91-.95-1.34-1.49-.53-.65-.42-1.59-.37-2.43s-.17-1.86-.95-2.15c-.23-.09-.49-.09-.72-.19-.62-.26-.81-1.03-1.22-1.56-.83-1.06-2.47-1.04-3.72-.54-.55.26-1.1.5-1.67.7-.58.2-1.21.16-1.75-.13-.25-.16-.44-.37-.7-.53-.84-.51-1.94,0-2.67.65s-1.31,1.53-2.23,1.92c-.41.19-.92.3-1.12.7-.1.22-.14.46-.12.7,0,1.45.17,2.92-.13,4.33-.19.91-.83,1.95-1.76,1.83-.12-.02-.23-.05-.34-.09-1.11-5.92,2.79-11.61,8.71-12.72,5.92-1.11,11.61,2.79,12.72,8.71.12.66.19,1.33.19,1.99h0Z"/><path d="m331.33,113.66c.28.06.54.21.83.25.93.11,1.57-.92,1.76-1.83.3-1.42.15-2.89.13-4.33-.02-.24.02-.48.12-.7.21-.4.72-.51,1.12-.7.9-.4,1.49-1.26,2.23-1.92s1.83-1.16,2.67-.65c.25.15.45.37.7.53.54.28,1.18.33,1.76.13.58-.17,1.12-.47,1.67-.7,1.24-.51,2.89-.52,3.72.53.41.53.6,1.29,1.22,1.56.23.1.48.11.72.19.79.29.99,1.31.95,2.15s-.15,1.78.37,2.43c.43.53,1.25.8,1.34,1.49.06.44-.23.85-.28,1.29-.05.68.47,1.27,1.15,1.32,0,0,.01,0,.02,0,.97,0,1.57-1.08,2.47-1.43.37-.15.82-.17,1.12-.46.22-.29.31-.65.23-1.01-.18-1.43-1.32-2.66-1.2-4.09.12-1.37,1.38-2.56,1.12-3.91-.14-.5-.39-.95-.74-1.33-.4-.54-.92-.98-1.52-1.28-.52-.22-1.12-.28-1.59-.55-1.41-.77-1.4-2.78-2.23-4.15-.73-1.15-2.04-1.81-3.39-1.69-1.05.1-1.99.66-3.03.84-1.42.25-2.85-.21-4.2-.74s-2.7-1.12-4.14-1.12-3,.74-3.44,2.11c-.23.74-.12,1.54-.29,2.29-.31,1.33-1.49,2.27-2.67,2.93-.81.45-1.79.97-1.89,1.9-.06.59.26,1.12.47,1.69.35.96.34,2.02-.02,2.98-.27.7-.73,1.32-1,2.02-.4.96-.36,2.04.1,2.98.35.68.97,1.18,1.7,1.4.73.17,1.19-.55,1.98-.38Z"/><g class="cls-14"><path class="cls-15" d="m333.92,111.26c-.19.91-.84,1.95-1.76,1.83-.29-.04-.55-.18-.83-.25-.78-.17-1.24.56-1.97.37-.74-.21-1.35-.72-1.7-1.4-.19-.38-.31-.79-.35-1.22-.07.66.05,1.32.35,1.92.35.68.97,1.18,1.7,1.4.74.17,1.19-.56,1.97-.37.27.09.55.18.83.24.93.12,1.57-.92,1.76-1.83.15-.81.21-1.63.18-2.44,0,.59-.06,1.17-.18,1.75Z"/><path class="cls-15" d="m328.82,105.66c.05-.61-.04-1.22-.25-1.8-.17-.38-.31-.77-.43-1.18-.02.06-.03.13-.04.19-.06.58.26,1.12.47,1.69.13.35.21.72.25,1.1Z"/><path class="cls-15" d="m357.25,103.7c-.17,1.06-1.03,2.05-1.12,3.16-.02.19-.02.38,0,.57.19-1.3,1.34-2.45,1.12-3.74Z"/><path class="cls-15" d="m357.31,111.55c-.03.16-.1.3-.21.42-.28.29-.74.32-1.12.46-.9.35-1.49,1.44-2.47,1.43-.51-.03-.96-.37-1.12-.86-.02.08-.04.16-.05.25-.04.68.47,1.27,1.15,1.31,0,0,0,0,.01,0,.97,0,1.57-1.08,2.47-1.43.37-.15.83-.17,1.12-.46.22-.29.31-.65.23-1.01,0-.04-.01-.07-.01-.11Z"/><path class="cls-15" d="m352.65,111.24c-.09-.68-.91-.95-1.34-1.49-.26-.35-.41-.78-.41-1.22-.03.69-.02,1.4.41,1.92s1.08.74,1.29,1.28c.05-.16.07-.33.06-.49Z"/><path class="cls-15" d="m350.92,107.34c.03-.84-.17-1.86-.96-2.15-.23-.09-.49-.1-.71-.19-.62-.26-.81-1.03-1.22-1.56-.83-1.06-2.47-1.04-3.72-.54-.56.23-1.09.53-1.67.7-.58.2-1.21.16-1.75-.13-.25-.16-.45-.37-.7-.53-.84-.51-1.95,0-2.67.65s-1.31,1.52-2.23,1.92c-.42.19-.92.3-1.14.7-.09.22-.13.46-.12.7v.44c0-.15.04-.3.11-.43.22-.4.72-.51,1.14-.7.9-.4,1.49-1.26,2.23-1.92s1.83-1.16,2.67-.65c.25.15.45.37.7.52.54.29,1.18.34,1.75.13.57-.2,1.13-.43,1.67-.7,1.25-.51,2.89-.53,3.72.53.41.53.6,1.29,1.22,1.56.23.1.48.11.71.19.64.24.89.95.95,1.66l.02-.21Z"/></g><g class="cls-14"><path class="cls-15" d="m332.59,111.24c.04-1.27.92-2.36,2.15-2.67,1.66-.41,3.4-.33,5.02.23,3.53,1.17-.45,5.37-.45,5.37,0,0-2.65,2.6-5.11.79-.73-.55-1.24-1.34-1.44-2.23-.12-.49-.18-.98-.17-1.48Z"/><path class="cls-15" d="m352,111.24c-.04-1.27-.92-2.36-2.15-2.67-1.66-.4-3.4-.33-5.01.23-3.53,1.17.45,5.37.45,5.37,0,0,2.64,2.6,5.11.79.73-.55,1.24-1.34,1.44-2.23.12-.49.18-.98.17-1.48Z"/><polygon class="cls-15" points="339.09 108.46 339.09 108.63 345.54 108.63 345.54 108.42 339.09 108.46"/><path class="cls-15" d="m341.15,110.32h.2v-.59s.65-.51,1.74,0v.53h.37v-.35h-.18s.07-.72-1.14-.6c0,0-.97-.09-.95.52h-.22l.18.49Z"/></g><path class="cls-18" d="m332.59,111c.04-1.27.92-2.36,2.15-2.67,1.66-.4,3.4-.32,5.02.23,3.53,1.17-.45,5.37-.45,5.37,0,0-2.65,2.6-5.11.79-.73-.55-1.24-1.34-1.44-2.23-.12-.49-.18-.98-.17-1.48Z"/><path class="cls-18" d="m352,111c-.04-1.27-.92-2.36-2.15-2.67-1.66-.4-3.4-.32-5.01.23-3.53,1.17.45,5.37.45,5.37,0,0,2.64,2.6,5.11.79.73-.55,1.24-1.34,1.44-2.23.12-.49.18-.98.17-1.48Z"/><polygon class="cls-12" points="339.09 108.22 339.09 108.4 345.54 108.4 345.54 108.19 339.09 108.22"/><path class="cls-12" d="m341.15,110.09h.2v-.59s.65-.51,1.74,0v.53h.37v-.35h-.18s.07-.71-1.14-.6c0,0-.97-.09-.95.52h-.22l.18.49Z"/><rect class="cls-1" x="44.01" y="170.11" width="2.11" height="47.59"/><path d="m59.41,217.56l-.13,2.14-.19,3.03-.08,1.26-.19,3.03-.08,1.26-.19,3.03-2.13,34.41c-.19,3.07-2.74,5.47-5.82,5.47h-11.08c-3.08,0-5.63-2.4-5.81-5.47l-2.14-34.41-.19-3.03-.08-1.26-.18-3.04-.08-1.26-.19-3.03-.13-2.14c-.1-1.66,1.16-3.1,2.83-3.2.06,0,.13,0,.19,0h22.66c1.66,0,3.02,1.35,3.02,3.01,0,.07,0,.13,0,.2Z"/><polygon class="cls-22" points="59.27 219.7 59.09 222.73 31.04 222.73 30.86 219.7 59.27 219.7"/><polygon class="cls-22" points="59.01 223.99 58.82 227.02 31.31 227.02 31.12 223.99 59.01 223.99"/><polygon class="cls-22" points="58.74 228.28 58.55 231.3 31.58 231.3 31.39 228.28 58.74 228.28"/><path class="cls-18" d="m27.63,187.95c12.31,8.9,17.44,22.84,17.44,22.84,0,0-14.84-.51-27.16-9.41C5.58,192.47.47,178.54.47,178.54c0,0,14.85.51,27.16,9.41Z"/><path class="cls-16" d="m.49,178.54s15.4,8.56,20.33,15.63c4.94,7.07,24.25,16.62,24.25,16.62"/><path class="cls-18" d="m35.57,170.03c6.7,4.84,9.49,12.43,9.49,12.43,0,0-8.07-.28-14.78-5.12-6.7-4.85-9.49-12.43-9.49-12.43,0,0,8.07.26,14.77,5.12Z"/><path class="cls-16" d="m20.8,164.89s8.38,4.65,11.07,8.5,13.2,9.05,13.2,9.05"/><path class="cls-18" d="m54.8,182.05c-7.7,8.46-9.32,19.51-9.32,19.51,0,0,10.85-2.66,18.54-11.12,7.69-8.46,9.32-19.51,9.32-19.51,0,0-10.85,2.66-18.54,11.12Z"/><path class="cls-16" d="m73.35,170.93s-10.02,8.67-12.57,14.65-15.3,16-15.3,16"/></g></svg>