<svg id="Layer_2" data-name="Layer 2" xmlns="http://www.w3.org/2000/svg" xmlns:xlink="http://www.w3.org/1999/xlink" viewBox="0 0 400 300" width="406" height="306" class="illustration styles_illustrationTablet__1DWOa"><defs><linearGradient id="linear-gradient" x1="99.92" y1="210.22" x2="218.03" y2="141.93" gradientUnits="userSpaceOnUse"><stop offset="0" stop-color="#17619e"></stop><stop offset="1" stop-color="#1a1a1a"></stop></linearGradient><linearGradient id="linear-gradient-2" x1="173.98" y1="264.68" x2="272.5" y2="207.71" xlink:href="#linear-gradient"></linearGradient><linearGradient id="linear-gradient-3" x1="303.19" y1="207.89" x2="326.03" y2="188.79" xlink:href="#linear-gradient"></linearGradient></defs><title>PP</title><path d="M193.6,288.79,13.87,182.57c-5.72-3.21-10.63-8.49-5.05-11.94l180.37-104c2.71-1.68,6.82-2.78,9.57-1.18L387.42,175c5.72,3.32,6.75,12.6,1,15.93L217.29,288.62A23.9,23.9,0,0,1,193.6,288.79Z" fill="#17619e"></path><polygon points="182.72 167.28 105.61 227.57 71.33 206.12 153.35 163.94 175.5 158.92 182.72 167.28" fill="url(#linear-gradient)"></polygon><polygon points="243.82 230.18 181.46 278.94 149.54 260.23 214.44 226.84 236.59 221.82 243.82 230.18" fill="url(#linear-gradient-2)"></polygon><path d="M180.33,12.76l-57,32.35a13.89,13.89,0,0,0-7,12.08V191.37a4.39,4.39,0,0,0,2,3.69h0l0,0a4.52,4.52,0,0,0,.8.42l8,2.46c0-.53-.73-.73,4.45-1.52l-4-1.29c-5,.28.05-.85.07-.85.14-.49-4.71.17-4.41-.26a4.59,4.59,0,0,1,2.46-1.86,4.14,4.14,0,0,1,2.48.09l59.88-33.81a15.88,15.88,0,0,0,8.07-14l.38-129.21S188.79,9.17,180.33,12.76Z" fill="#2c2cb5"></path><path d="M194.69,162.41l-61.81,34.9a7.43,7.43,0,0,1-11.08-6.47V60.45a11.63,11.63,0,0,1,5.89-10.11l61.6-35a7.43,7.43,0,0,1,11.1,6.39l1.22,128.68A13.61,13.61,0,0,1,194.69,162.41Z" fill="#5f5cea"></path><path d="M194.43,157.47l-64.28,36.29a4.21,4.21,0,0,1-6.29-3.67V60A8.19,8.19,0,0,1,128,52.85L192,16.5a4.21,4.21,0,0,1,6.3,3.63l1.22,128.48A10.08,10.08,0,0,1,194.43,157.47Z" fill="#206bc4"></path><ellipse cx="164.49" cy="143.97" rx="15.43" ry="11.88" transform="translate(-30.57 242.64) rotate(-68.03)" fill="#fff"></ellipse><path d="M157.72,147.8l5.09,4.84a1.44,1.44,0,0,0,2.49-.63l5.91-14.28c.8-1.93-2-2.89-2.8-1L162.5,151l2.49-.63-5.09-4.84c-1.42-1.35-3.61.89-2.17,2.25Z" fill="#2e3192"></path><path d="M167.52,86.53c-1.85,2.86-6.61,4.24-8.81,1.22-1.89-2.6-1.53-8.53-1.26-11.8.31-3.81,1.81-8.59,5.43-8.46,4,.14,4,7.48,3.92,11.23a14.66,14.66,0,0,1-.75,5.13c-.79,1.83-3.33,3.62-5,2.26-.89-.75-1.36-3-1.46-4.33-.07-.88,0-1.82,0-2.7a16.87,16.87,0,0,1,.23-4.87c.4-1.26,2-2.91,3.27-2.55.85.24.82.57,1,1.65a26.34,26.34,0,0,1,.22,5.34,9.64,9.64,0,0,1-.18,2.22q0,1.79-1.82,1.4l0-1.16a34.8,34.8,0,0,1,.14-5.81c0-.76-.91-.8-.93,0,0,1.54-1.42,10.81,1.86,9.05,1.14-.61,1.57-2.36,1.73-3.76A28.08,28.08,0,0,0,165,72c-.62-2.61-3.77-1.76-5.06-.18a7.81,7.81,0,0,0-1.23,4.71c-.07,2.48-.39,5.85.21,8.24.82,3.28,4.66,3.52,6.65,1.73,2.79-2.51,2.41-8.71,2.08-12.35-.35-3.85-1.38-8.22-5.1-8-3.33.24-5.25,4.28-5.8,8a39.49,39.49,0,0,0,0,9.59c.23,2.23.64,4.4,2.24,5.64,2.93,2.27,7.23,1,9.37-2.31C168.68,86.56,167.9,85.94,167.52,86.53Z" fill="#2e3192"></path><path d="M169.77,73.26c-.18-2.62-.21-6.77-2-8.64-1.52-1.62-4.27-1.37-6.13-1.15a8.13,8.13,0,0,0-5.48,2.75c-3.54,4.27-2.74,12.88-2.29,18.29.43,5.15,2.62,9.91,7.32,8.67.59-.16.39-1.3-.2-1.14-5.74,1.52-6.29-6.68-6.41-11.77-.11-4.57-.44-11.29,3.14-14.11A8.55,8.55,0,0,1,163,64.56c2.67-.05,4.71.74,5.34,4.25a56.07,56.07,0,0,1,.22,15.71c-.08.75.85.79.93,0A63.74,63.74,0,0,0,169.77,73.26Z" fill="#2e3192"></path><path d="M175.47,77.13c0-7.28-2.17-15.07-7-19.39-5-4.48-11.87-2.52-16,3-5.37,7.19-4.88,19.5-4.34,28.47.24,4,.83,8.27,3.09,11.29s5.87,3.49,9.12,3.63c.6,0,.65-1.15,0-1.18-2.6-.11-5.41-.28-7.58-2.26-2.36-2.16-3.24-6-3.59-9.45-.71-7-.78-14.88.7-21.78,1.54-7.21,6.36-13.3,12.61-13.13,5.46.15,9.36,6.29,10.94,12.33a34.17,34.17,0,0,1-.55,18.71c-1.1,3.42-2.77,6.85-5.45,8.59s-5.62,1.55-8.34.95a8.35,8.35,0,0,1-3.58-1.43c-1.5-1.22-2-3.45-2.48-5.51a52.76,52.76,0,0,1-1.3-11.17c-.06-6.82,1-14.29,6.45-17.46a8.65,8.65,0,0,1,8.87-.22c3.37,2,4,6.47,4.24,10.79.39,7.39.19,20-7.76,20.38-.6,0-.65,1.2,0,1.18,7-.31,8.5-8.84,8.78-16.1.27-7,0-15.91-6.38-18.07-5.25-1.78-11.38,1.56-13.63,8-2.63,7.5-1.8,18.22.55,25.55,2,6.28,10,6.88,14.41,4.54C173.12,94.3,175.45,84.4,175.47,77.13Z" fill="#2e3192"></path><path d="M176.52,99c-4.87-1.25-9.42.83-13.94,3.13-.56.28-.13,1.32.43,1,4.26-2.16,8.61-4.22,13.22-3C176.8,100.27,177.1,99.15,176.52,99Z" fill="#2e3192"></path><path d="M159.42,105.95a6.11,6.11,0,0,0-1.83,1.72,11.61,11.61,0,0,0-.14-1.22c-.13-.73-1-.46-.91.28a10.22,10.22,0,0,1,.1,2.78c-.05.56.64.85.86.33a5.69,5.69,0,0,1,2.36-2.85C160.4,106.66,160,105.63,159.42,105.95Z" fill="#2e3192"></path><path d="M175.33,104.16c.6,0,.65-1.21,0-1.18-7.21.43-13.86,4.89-18.23,12.17.33.1.67.16,1,.24C162.33,108.7,168.6,104.56,175.33,104.16Z" fill="#2e3192"></path><path d="M160.61,115.7a13.16,13.16,0,0,0,1.34,0,36.05,36.05,0,0,1,5.82-4.88,18.74,18.74,0,0,1,6.27-3.18c.27-.43.52-.88.77-1.34a18.49,18.49,0,0,0-7.47,3.48A32.32,32.32,0,0,0,160.61,115.7Z" fill="#2e3192"></path><path d="M153.13,105.1c-1.84-2-4.82-3.34-7.35-2.81.11.39.24.76.36,1.14A7.77,7.77,0,0,1,152,105.5c2.21,1.87,2.45,5.19,2,8.26.28.17.57.31.87.46C155.35,111,155.22,107.4,153.13,105.1Z" fill="#2e3192"></path><path d="M147.55,106.7c.21.4.42.79.65,1.17,1.9.16,3.42,1.93,3.7,4.36.32.27.64.54,1,.78C152.91,109.26,150.44,106.43,147.55,106.7Z" fill="#2e3192"></path><path d="M172,96.77a12.54,12.54,0,0,1,5.67-1.38l0-1.19a13.58,13.58,0,0,0-6.15,1.54C171,96,171.4,97.05,172,96.77Z" fill="#2e3192"></path><path d="M174.65,91.44c-.55.31-.12,1.34.43,1a15.12,15.12,0,0,1,2.71-1.18l0-1.2A16,16,0,0,0,174.65,91.44Z" fill="#2e3192"></path><path d="M177.23,69.18c-1.82-8.8-4.93-17.29-12.85-18.82a11.94,11.94,0,0,0-9.29,2.26c-3.19,2.32-5.22,6.11-7.14,10-.32.65.46,1.27.78.63,1.76-3.52,3.6-7.07,6.48-9.31a11.17,11.17,0,0,1,9.57-2.26c7.18,1.81,9.87,9.74,11.53,17.82C176.47,70.18,177.38,69.91,177.23,69.18Z" fill="#2e3192"></path><path d="M147.7,98.7c-2-10.44-1.24-21.19-.44-31.83.06-.76-.87-.79-.93,0-.81,10.74-1.53,21.6.46,32.14C146.92,99.7,147.84,99.43,147.7,98.7Z" fill="#2e3192"></path><path d="M177.75,73.56c-.05-.75-1-.47-.91.28a66.63,66.63,0,0,1-.5,13.8c-.1.75.83.78.93,0A68,68,0,0,0,177.75,73.56Z" fill="#2e3192"></path><path d="M308.6,216.74c9-5.87,31.57-20.27,40.64-26.08l-18.47-14-45.83,25.23C290.93,208.69,300.81,211.88,308.6,216.74Z" fill="url(#linear-gradient-3)"></path><path d="M354.52,145.69a3.05,3.05,0,0,0-.53-1.14,6.8,6.8,0,0,0-1.67-1.45c-8.47-5.73-20.18-7.31-29.13-1.71-2,1.28-5.08,4.18-3.87,6.91.7,1.59,2.83,2.51,4.3,3.16,4.8,2.11,10.16,3.12,15.31,4,1.9.32,3.81.64,5.73.82a7.91,7.91,0,0,0,7-3C353,151.6,355.12,148.18,354.52,145.69Z" fill="#754c24"></path><path d="M319.08,147.06s7.72,7,21.06,6,14.38-7.34,14.38-7.34-3.45,44.21-5.28,45-8.64,4-11.92,4.29-13.69-3.92-13.95-5.07S319.08,147.06,319.08,147.06Z" fill="#206bc4"></path><path d="M321.52,81.62c-.41-.83-1.67-.1-1.26.73,9.13,18.4,10.91,39.12,12.55,59.24.07.92,1.53.93,1.46,0C332.6,121.2,330.77,100.27,321.52,81.62Z" fill="#007f68"></path><path d="M320.35,81.8s2.55,9.55-.08,14.32-4.81,5.73-1.66,11.69,11.55,6.73,12.12,11.28S326.69,89.91,320.35,81.8Z" fill="#007f68"></path><path d="M349.54,99A120.05,120.05,0,0,0,338,146c0,1.13,1.73,1.13,1.78,0a117.87,117.87,0,0,1,11.34-46.09C351.56,98.91,350,98,349.54,99Z" fill="#007f68"></path><path d="M350.79,103.69c0-1-.21-2.84-.11-4.53q-.5.33-1,.64c-3.47,8.43-8.64,28.23-10.2,34.3,2.11-4.54,10.75-5.16,13.28-11.69a11.92,11.92,0,0,0,.15-8.61A31.77,31.77,0,0,1,350.79,103.69Z" fill="#007f68"></path><path d="M187.37,89.71V99c0,3.79,5.9,3.8,5.9,0V89.71C193.26,85.92,187.37,85.91,187.37,89.71Z" fill="#fff"></path><path d="M208.81,103.73l-4.5-3.14a.88.88,0,0,0-.43-.69q-6.44-4.17-12.85-8.36a1,1,0,0,0-1.56.6c-.42.77.17,1.54.9,2.11s1.64,1.25,2.46,1.87a1,1,0,0,0-.25.29c-.6,1-1.62,2.48-1.59,3.72s1,1.84,1.87,2.49c0,.06,0,.12,0,.18-.1,1.54.58,1.94,1.83,2.67a1,1,0,0,0,.81.11,17.12,17.12,0,0,0,2.72,1.32l3.76,1.75c1,.44,1.59-.7,1.19-1.45.74,0,1-.78.81-1.41a.85.85,0,0,0,.2-.34v-.06l1.31,1a1,1,0,0,0,1.18-1.65l-.94-.68,1.92,1.34A1,1,0,0,0,208.81,103.73Z" fill="#f04900"></path><path d="M242.28,231.25l1.54-1.07-.65-17.78h-7.81s.11,7.59-1.64,9.38-6.39.71-6.83.88-3.55-.62-4.87.85,4.87,5.35,8.11,6a20.8,20.8,0,0,0,6.7,0s.54-4.57,1.68-4.16,1.38,5.22,1.38,5.22Z" fill="#ff6753"></path><path d="M244.93,136.92a126.26,126.26,0,0,1,2.57,18.42c.37,7-.19,63-.19,63s-4.45,5.59-15.85,2.7c-1.65-.42-4-54.49-4-54.49l3-25" fill="#206bc4"></path><path d="M238.76,108.87c-.62.06-21.41.19-35.89-11.91,0,0-6.5,6.83-3.62,11.78,0,0,20.57,18.5,35.61,14" fill="#58ad05"></path><path d="M222.1,103.5a.31.31,0,0,0-.52,0,13.72,13.72,0,0,0-1.66,10.35c.09.38.67.2.58-.18a13.09,13.09,0,0,1,1.35-9.42,21.64,21.64,0,0,1,2.91,10.31.3.3,0,0,0,.61,0A22.29,22.29,0,0,0,222.1,103.5Z" fill="#42a200"></path><path d="M221.36,245.7l1.54-1.07-.65-17.78h-7.81s.11,7.59-1.64,9.38-6.39.71-6.83.88-3.55-.62-4.87.85,4.87,5.35,8.11,6a20.8,20.8,0,0,0,6.7,0s.54-4.57,1.68-4.16S219,245,219,245Z" fill="#ff6753"></path><path d="M220.56,140.35s-6.29,26.81-8.4,50.69c-.51,5.73-5.25,40-5.25,40s9.85,3.22,18.42.14c0,0,8.81-43.79,9.22-44.65s6.39-29.23,6.5-49.45" fill="#206bc4"></path><path d="M241.4,105.8l-4.16-1.41c-1,.11-10.29,3.48-14.32,9.82a40.52,40.52,0,0,0-1.15,6c-.45,2.68-.83,5.38-1.07,8.09a59.2,59.2,0,0,0-.2,8.88c.08,1.27.14,1.91.31,3.16a5.61,5.61,0,0,0,1.62,1.06c12.45,4.86,22-1.88,22.4-2.89s1.57-15.53,2.2-24.18A8.34,8.34,0,0,0,241.4,105.8Z" fill="#5dc600"></path><path d="M230.83,90.38s-3.38,14.15,1.82,15.88,11.6-4,12.16-6.88S238.38,85.91,230.83,90.38Z" fill="#f04900"></path><path d="M256,85.33a6.52,6.52,0,0,0-7.88-3.17c-2.8,1-4.42,3.51-5.16,6.25-2.62-2.14-6.46-3.14-11.23-1.5,0,0-4.66,2.18-3.7,5.16s4.55,2.88,7.58,3.34.68,3.21.93,6.17,1.61,3.41,2.86,3.63,6.89-1.2,7.47-7.93a8.89,8.89,0,0,0,0-1.23,15.92,15.92,0,0,0,2.35,0,8.73,8.73,0,0,0,5-1.56A7.58,7.58,0,0,0,256,85.33Z" fill="#ce701b"></path><path d="M226.42,105.89a2.67,2.67,0,0,0,.4-1.91,1,1,0,0,0-1.84-.36l-.42.61c-.1-.77-.21-1.54-.34-2.3a1,1,0,0,0-2,.13c0,.25,0,.49-.06.74a4,4,0,0,0-.14.8c-1.09.18-2.37.62-2.52,1.87,0,0,0,.06,0,.08-.83.08-1.65.39-1.64,1.38a3.68,3.68,0,0,0,.05.57c-.84.28-1.44.73-1.28,1.83a16.34,16.34,0,0,0,1.12,3.74,1,1,0,0,0,.78.54c.14.53.29,1.06.47,1.58a1.5,1.5,0,0,0,2.52.19,1.18,1.18,0,0,0,.3-.07,1,1,0,0,0,.84.12,1,1,0,0,0,1.49-.5,1,1,0,0,0,.3-.86c0-.23,0-.45-.06-.68v0Q225.49,109.66,226.42,105.89Z" fill="#f04900"></path><path d="M224.89,111.13c-.32.1-5-3.88-8.31-2.34,0,0-12.24,22.35.08,27.73,6.12,2.67,10.46-6.34,10.46-6.34l-3.68-6.7Z" fill="#5dc600"></path><path d="M223.84,112.05a43.8,43.8,0,0,0-5.26,15.35c-.09.63.88.87,1,.23a43,43,0,0,1,5.17-15.11C225,112,224.16,111.5,223.84,112.05Z" fill="#406819"></path><path d="M226.91,131c-.95,2-2.14,4-4.11,5.17a6.56,6.56,0,0,1-7.27-.87c-4.38-3.52-4-9.86-3.28-14.83.09-.63-.88-.87-1-.23-.77,5.57-1.08,12.78,4.28,16.31a7.52,7.52,0,0,0,7.12.79c2.46-1.1,4-3.52,5.09-5.86C228.06,130.9,227.19,130.43,226.91,131Z" fill="#406819"></path><path d="M238.69,156.7c-.21,12.72-3.53,25-6.29,37.36s-5,24.62-6.94,37l1.06-.33q2.89-18.82,7.06-37.42c2.73-12.11,5.91-24.2,6.11-36.69C239.7,156,238.71,156.06,238.69,156.7Z" fill="#653200"></path></svg>