<svg xmlns="http://www.w3.org/2000/svg" xmlns:xlink="http://www.w3.org/1999/xlink" viewBox="0 0 400 300" width="406" height="306" class="illustration styles_illustrationTablet__1DWOa"><defs><linearGradient id="linear-gradient" x1="120.33" y1="221.5" x2="139.82" y2="208.86" gradientUnits="userSpaceOnUse"><stop offset="0" stop-color="#5297a4"></stop><stop offset="0.79" stop-color="#294a51"></stop><stop offset="1" stop-color="#294a51"></stop></linearGradient><linearGradient id="linear-gradient-2" x1="70.21" y1="191.03" x2="89.7" y2="178.4" xlink:href="#linear-gradient"></linearGradient><linearGradient id="linear-gradient-3" x1="307.08" y1="199.06" x2="330.04" y2="184.12" xlink:href="#linear-gradient"></linearGradient><linearGradient id="linear-gradient-4" x1="279.99" y1="210.53" x2="324.34" y2="183.35" xlink:href="#linear-gradient"></linearGradient><linearGradient id="linear-gradient-5" x1="212.24" y1="246.31" x2="273.34" y2="208.86" xlink:href="#linear-gradient"></linearGradient></defs><title>PP_</title><g style="isolation: isolate;"><g id="Layer_2" data-name="Layer 2"><path d="M198.15,288.6,25.65,186.65c-5.49-3.08-10.2-8.15-4.85-11.46L193.92,75.41c2.6-1.61,6.54-2.66,9.18-1.13L384.18,179.37c5.49,3.19,6.48,12.1,1,15.29L220.89,288.44A22.94,22.94,0,0,1,198.15,288.6Z" fill="#5297a4"></path><path d="M126.93,210.48c-8.79,5.85-14.3,7.54-23.16,13.28l11.76,7.08,29.71-17Z" fill="url(#linear-gradient)"></path><path d="M76.81,180c-8.79,5.85-14.3,7.54-23.16,13.28l11.76,7.08,29.71-17Z" fill="url(#linear-gradient-2)"></path><polygon points="314.44 175.12 279.9 198.02 307.57 213.42 353.39 188.08 335.22 172.64 314.44 175.12" fill="url(#linear-gradient-3)"></polygon><path d="M305,193.44c-17.87,9.69-38.19,17.49-56.21,26.88L260,228.81,315.7,198Z" fill="url(#linear-gradient-4)"></path><polygon points="208.48 220.33 155.43 255.51 197.93 279.16 268.3 240.24 240.4 216.52 208.48 220.33" fill="url(#linear-gradient-5)"></polygon><path d="M337.79,197.57l22.3-13.23a3.41,3.41,0,0,0,.12-5.8l-18.43-12a5.71,5.71,0,0,0-6.31,0l-21.9,14.74a3.41,3.41,0,0,0,.15,5.75l17.43,10.46A6.47,6.47,0,0,0,337.79,197.57Z" fill="#b24800"></path><path d="M337.79,195.56l22.3-13.23a3.41,3.41,0,0,0,.12-5.8l-18.43-12a5.71,5.71,0,0,0-6.31,0l-21.9,14.74a3.41,3.41,0,0,0,.15,5.75l17.43,10.46A6.47,6.47,0,0,0,337.79,195.56Z" fill="#df5d00"></path><path d="M334.08,142.56,322.24,180s-2.89,9.5,14.87,8.54,15.42-9.78,15.42-9.78l-11.84-36.21" fill="#ff8522"></path><path d="M329.7,156.43s2.35,2.43,7.76,2.43c6.76,0,7.48-3.33,7.48-3.33l2.48,7.57s-1.78,4.27-10,4.13c-7.4-.12-10.3-2.78-10.3-2.78" fill="#fff"></path><path d="M325.3,170.7a16.92,16.92,0,0,0,12,4.76c8.79-.1,12.09-6.35,12.09-6.35l2.61,8s-3.77,5.85-14.61,6.63c-10.22.73-14.61-5-14.61-5" fill="#fff"></path><path d="M336.64,142.83H334.1l-11.84,37.45s-2.69,8.86,13.11,8.6C335.71,173.53,336.48,158.19,336.64,142.83Z" fill="#ff8522" opacity="0.15" style="mix-blend-mode: multiply;"></path><ellipse cx="337.45" cy="142.83" rx="3.37" ry="1.93" fill="#ff9f57"></ellipse><polyline points="152.69 172.18 155.43 170.49 155.43 160.74 85.87 118.86 82.61 120.2" fill="#ffba93"></polyline><polyline points="108.77 171.29 108.77 175.47 84.64 189.47 77.36 185.11 76.81 180.02" fill="#ca5a00"></polyline><polygon points="100.91 166.1 76.81 180.02 84.16 185.2 108.77 171.29 100.91 166.1" fill="#ff8522"></polygon><polyline points="159.19 201.39 159.19 205.58 135.06 219.58 127.78 215.22 127.22 210.12" fill="#ca5a00"></polyline><polygon points="151.33 196.2 127.22 210.12 134.57 215.3 159.19 201.39 151.33 196.2" fill="#ff8522"></polygon><path d="M94.45,136.1v40.18s-1.16,2.12-5.3,0V133.95" fill="#ffba93"></path><path d="M146.56,165.91v40.18s-1.16,2.12-5.3,0V163.75" fill="#ffba93"></path><polygon points="152.69 161.59 152.69 172.18 82.61 131.41 82.61 120.2 152.69 161.59" fill="#ff8522"></polygon><path d="M59.09,111.72c1.32-.74,2.41.15,2.42,2a5.76,5.76,0,0,1-2.37,4.69c-1.29.73-2.35-.15-2.36-2A5.77,5.77,0,0,1,59.09,111.72Z" fill="#ff6f08"></path><path d="M57.53,108l-.89-16.31A3.46,3.46,0,0,1,58,88.71l1.78-1c.83-.47,1.49.14,1.44,1.33l-.65,17.18a3.45,3.45,0,0,1-1.42,2.69L59,109C58.22,109.45,57.59,109,57.53,108Z" fill="#ff6f08"></path><path d="M77.08,102.89c1,1.59,1.09,4.18.24,6.92a10.54,10.54,0,0,1-4.27,6L45.33,131.48c-1.81,1-3.43.59-4.31-1.15s-.84-4.39.12-7.09c4.18-11.77,9.93-27.95,13.62-38.14a10.32,10.32,0,0,1,4.08-5.44c1.68-.94,3.22-.63,4.14.82ZM76,109.55a6,6,0,0,0-.16-4.82L61.72,82.32a2,2,0,0,0-2.87-.58A7.18,7.18,0,0,0,56,85.54c-3.68,10.17-9.43,26.35-13.61,38.12a6.57,6.57,0,0,0-.08,4.94,2,2,0,0,0,3,.8L73,113.73a7.3,7.3,0,0,0,3-4.18" fill="#f15a24"></path><path d="M75.84,104.73a6,6,0,0,1,.16,4.82,7.3,7.3,0,0,1-3,4.18L45.31,129.39a2,2,0,0,1-3-.8,6.57,6.57,0,0,1,.08-4.94C46.57,111.88,52.32,95.71,56,85.54a7.18,7.18,0,0,1,2.84-3.79,2,2,0,0,1,2.88.57ZM58,88.71a3.46,3.46,0,0,0-1.41,2.94L57.53,108c.06,1,.69,1.5,1.44,1.07l.23-.13a3.45,3.45,0,0,0,1.42-2.69L61.26,89c0-1.19-.61-1.8-1.44-1.33l-1.78,1m1.09,29.7a5.76,5.76,0,0,0,2.37-4.69c0-1.86-1.11-2.76-2.42-2a5.77,5.77,0,0,0-2.32,4.69c0,1.85,1.07,2.73,2.36,2" fill="#fff"></path><path d="M123.8,114.73c-1.38.79-7.32,27.73,17.45,28.22s30.51-9.8,35.82,7.05c4.2,13.35,12.56,33.84,30.75,26.36,14.69-6,11.38-33,31-30.85,24.88,2.78,54.92,6.3,52.27-19.09L202.14,74.84a9.15,9.15,0,0,0-9.16,0Z" fill="#603d1a"></path><path d="M197,76.26V177.58s13,3.5,19.34-9.37,9.18-23,17.11-22.7,43.71,5.34,51.61-2.85S291,126.43,291,126.43L200.79,74.1A2.5,2.5,0,0,0,197,76.26Z" fill="#44270e"></path><path d="M274.68,198.6s-.51,8-1.27,8.92-8.67,3.72-9.94,5.88,1.38,8.18,7.38,6.7a64.54,64.54,0,0,0,15.46-6.7c1.13-.91,0-17.35,0-17.35Z" fill="#454859"></path><path d="M302,184.92s3.21,7.38,2.93,8.52-6.28,4.55-6.43,7c-.18,2.87,1.59,5.66,4.46,4.91a8.67,8.67,0,0,0,2.24-1.08c3.51-2.14,7.27-4.09,10.47-6.69,3.56-2.91.61-8.06-.55-11.61q-1.65-5.06-3.39-10.09v0Z" fill="#454859"></path><path d="M299.81,115.64s6.56,35.42,9.69,42.91,7.14,20.95,7.14,20.95-5.91,11.11-17.49,7.1l-14.47-47.3" fill="#206bc4"></path><path d="M299.81,115.64s6.56,35.42,9.69,42.91,7.14,20.95,7.14,20.95-5.91,11.11-17.49,7.1l-14.47-47.3" opacity="0.25"></path><path d="M279.62,108.18c-.67,8.91-5.11,45.14-5.76,50.86-1.42,12.5-3,41.24-3,41.24a20.23,20.23,0,0,0,18.47,0s4.06-34.71,6.09-40.57c1.24-3.55,4.24-29.59,5.26-39.59C297,108.18,287.34,108.66,279.62,108.18Z" fill="#206bc4"></path><path d="M300.06,125.78l.25-2.33-16.3-.93.29.74a15.31,15.31,0,0,1,4.36,8.31C291.58,130.41,297.11,126.83,300.06,125.78Z" opacity="0.25"></path><path d="M302.8,91.73c-1.63-6.62-8.81-7.27-8.81-7.27s-12.57-8.21-17.42,4.48a94.7,94.7,0,0,0-4.75,20.3l-5.26,8s5.1,3.41,6.85,5.36l6.26-11.12,13,3.55L284,122.52a9.07,9.07,0,0,1,4,1.83,7.09,7.09,0,0,1,2.21,3.58l.56.42s14.26-6,14.86-10.44S304.43,98.35,302.8,91.73Z" fill="#206bc4"></path><path d="M277.93,76s-.78,10.87,5.44,13.24,11.79-11.74,7.51-17.12" fill="#f54e5f"></path><path d="M284.19,79.83c.81-.08.73,1.77,3.16,1.92s2,1.09,2.44,2.36.78,2.36,2.6,2.21a2.71,2.71,0,0,0,2.43-3.66c-.76-1.68.91-2.44.76-3.81s-1.23-5.49-3.93-5.95" fill="#454859"></path><path d="M277.05,72.75s-3.28,1.66-3.28,5.17,7.14,5.49,13.73,2.57,7.08-5,7.08-5" fill="#ff9948"></path><path d="M275.37,75.53s-.14-8.48,6.59-10.1,11.15,1.68,12,5a15.47,15.47,0,0,1,.63,5S291.73,80,285,80.44,275.21,77.46,275.37,75.53Z" fill="#ffc759"></path><path d="M291.68,67.08c-.2-.18-1.33,0-1.61,0a11.67,11.67,0,0,0-6,1.59c-2.1,1.38-3,3.67-3.51,6.05a7.45,7.45,0,0,0-.18,1.24,1.26,1.26,0,0,1-1.63.67c-1.15-.43-.82-2.3-.82-2.31a10.43,10.43,0,0,1,11.15-8.7A16.91,16.91,0,0,1,291.68,67.08Z" fill="#ff9948"></path><ellipse cx="197.93" cy="249.02" rx="16.97" ry="15.75" transform="translate(-102.92 352.35) rotate(-70.48)" fill="#252d2f"></ellipse><ellipse cx="198.76" cy="249.98" rx="9.61" ry="8.08" transform="translate(-103.28 353.77) rotate(-70.48)" fill="#596c70"></ellipse><path d="M198.65,232.45a19.52,19.52,0,0,1,3.63.34c1.42-.89,2-1.22,2.12-1.3l-.75-1.52-.71-1.54c-.18.08-.53.25-6.45,4C197.2,232.41,197.93,232.41,198.65,232.45Z" fill="#754c24"></path><path d="M284.9,134.67a7.57,7.57,0,0,0-4.19-5.61l-12.61-6a7.46,7.46,0,0,0-7.57.63,32.2,32.2,0,0,0-12.21,17.16c-3.51,12.54-12.62,38.12-12.71,38.38l3.19,1.14c.09-.26,9.24-25.95,12.78-38.6a28.81,28.81,0,0,1,10.92-15.32,4.05,4.05,0,0,1,4.13-.32l12.61,6a4.1,4.1,0,0,1,2.31,3.1,4,4,0,0,1-1.19,3.58,44.57,44.57,0,0,0-6.89,8.48c-2.13,3.55-12.1,32.65-15.11,41.47a6.82,6.82,0,0,0-.27,1l-5.75,30.44a7.43,7.43,0,0,0,.09,3.21c2.36,9.36,2.91,19.32-1.17,20.47s-13.76-.91-25.86-5.52a7.5,7.5,0,0,0-6.71.7l-28.93,18.5a4.15,4.15,0,0,1-4.56-.07l-5.27-3.58A4.13,4.13,0,0,1,180,247l2.88-1.85a12.33,12.33,0,0,1,2.51-5.64l-7.22,4.63a7.52,7.52,0,0,0-.15,12.55l5.27,3.58a7.52,7.52,0,0,0,8.29.12l28.93-18.5a4.16,4.16,0,0,1,3.68-.39c7.6,2.9,21.35,7.47,28,5.62,8.2-2.31,5.21-17.95,3.54-24.56a4.07,4.07,0,0,1,0-1.75l5.75-30.44a4,4,0,0,1,.15-.55c6.32-18.57,13.35-38.4,14.8-40.83a40.89,40.89,0,0,1,6.33-7.78A7.46,7.46,0,0,0,284.9,134.67Z" fill="#754c24"></path><path d="M164.41,204.57S224.3,169.45,225,169.69,268.3,193,268.3,193L241.74,221.3l-33.26,10.18Z" fill="#c42733"></path><polygon points="260.11 219.84 268.3 193.03 208.48 228.81 222.13 242.93 260.11 219.84" fill="#ff5153"></polygon><polygon points="208.48 228.81 164.41 204.57 178.21 219.45 222.13 242.93 208.48 228.81" fill="#ed434b"></polygon><path d="M259.29,196.15c-.08-2.26-2.34-4.41-4.79-3a3.85,3.85,0,0,0-2-1.32,4.73,4.73,0,0,0-3.1.15,5.31,5.31,0,0,0-2.28-2.54,5.64,5.64,0,0,0-3.61-.62,7.17,7.17,0,0,0-3-4.35,6.5,6.5,0,0,0-6.32-.39,5.8,5.8,0,0,0-2.51-.54,5.92,5.92,0,0,0-4,1.83,5.12,5.12,0,0,0-6.39.52,4.88,4.88,0,0,0-4-1.66c-2.14.12-3.21,1.43-4.23,2.92a6,6,0,0,0-5.81-.16,6.59,6.59,0,0,0-3.38,5,7.07,7.07,0,0,0-6.79,5.18,7.26,7.26,0,0,0-3,.49,7.12,7.12,0,0,0-3.12,2.47,6.48,6.48,0,0,0-5.92.61,8,8,0,0,0-3.58,7.25c-2.41,2.15-4,3.91-4,3.91l30.92,17,51.37-30.72A14,14,0,0,0,259.29,196.15Z" fill="#f9d5b1"></path><path d="M225.17,190.21c-3.87-.92-8.74-1.08-10.8,3.07-1,1.95,2,3.67,2.93,1.71,1.32-2.66,4.59-2.07,7-1.51C226.39,194,227.29,190.71,225.17,190.21Z" fill="#d89e6a"></path><path d="M245.71,194.6c-2.8-3.23-7.13-1.82-10.24.07-1.86,1.13-.16,4.06,1.71,2.93s4.42-2.59,6.14-.61C244.74,198.65,247.13,196.24,245.71,194.6Z" fill="#d89e6a"></path><path d="M227.52,203.33a7.39,7.39,0,0,0-8.67-.56c-1.83,1.17-.13,4.11,1.71,2.93a3.93,3.93,0,0,1,4.56,0C226.83,207,229.25,204.66,227.52,203.33Z" fill="#d89e6a"></path><path d="M208.5,201.06a8.26,8.26,0,0,0-10.12,1.7c-1.44,1.63,1,4,2.4,2.4a4.84,4.84,0,0,1,6-1.17C208.71,205,210.42,202.1,208.5,201.06Z" fill="#d89e6a"></path><path d="M208.82,210.69a10.37,10.37,0,0,0-7.8,3c-1.58,1.51.82,3.91,2.4,2.4a7,7,0,0,1,5.4-2C211,214.19,211,210.8,208.82,210.69Z" fill="#d89e6a"></path><path d="M225.42,212.65a6.64,6.64,0,0,0-6.16-.79c-2,.75-1.15,4,.9,3.27a3.49,3.49,0,0,1,3.55.45C225.5,216.83,227.19,213.89,225.42,212.65Z" fill="#d89e6a"></path><path d="M192.56,207.08a12.33,12.33,0,0,0-4.26,1.26c-1.95,1-.23,3.91,1.71,2.93a7.5,7.5,0,0,1,2.55-.8C194.7,210.22,194.72,206.83,192.56,207.08Z" fill="#d89e6a"></path><path d="M285.3,122.85c-.83.45-3.76,3-4.74,3a9,9,0,0,1-2.36-.29,3.93,3.93,0,0,0-2.64-.15,1,1,0,0,0-.24,1.83,4.1,4.1,0,0,0,.82.4,3,3,0,0,0-.7,2.91,1.94,1.94,0,0,0,1.84,1.27,4.67,4.67,0,0,0,.1.82c.26,1.21,1.28,1.21,2.21.88a1.41,1.41,0,0,0,1.63.89,2.94,2.94,0,0,0,2-1.25,10,10,0,0,1,.82-.92,1,1,0,0,0,.17,0c.48-1.16,4.44-5.19,5.38-6C287.34,122.85,287,123.24,285.3,122.85Z" fill="#f54e5f"></path><path d="M269.91,123.78a9.89,9.89,0,0,0,2.35-2.75,25.67,25.67,0,0,0-4.37-3.19,19.92,19.92,0,0,1-5.17,2.2c-.27.3-.54.59-.78.91l-.11.07c-.07.1-.13.2-.21.3s-.11.16-.16.24l-.07.09-.06.11a2.62,2.62,0,0,0-.43,1.82c.16.93.64,1.3,1.25,1.37-.1,1,.15,2,1.38,1.93a4.67,4.67,0,0,0,.82-.1,1.94,1.94,0,0,0,1.67,1.48,3,3,0,0,0,2.66-1.37,4.1,4.1,0,0,0,.58.7,1,1,0,0,0,1.72-.67,3.93,3.93,0,0,0-.77-2.53C270.11,124.19,270,124,269.91,123.78Z" fill="#f54e5f"></path></g></g></svg>