<?xml version="1.0" encoding="UTF-8"?><svg id="Ebene_2" xmlns="http://www.w3.org/2000/svg" viewBox="0 0 389.92 270.05"><defs><style>.cls-1{fill:#403e56;}.cls-2{fill:#a1626a;}.cls-3{fill:#010101;isolation:isolate;opacity:.1;}.cls-4{fill:#3069b2;}.cls-5{fill:#ec6585;}.cls-6{fill:#f2f2f2;opacity:.3;}</style></defs><g id="Ebene_1-2"><path class="cls-4" d="m278.79,184.65c0,24.44-14.53,32.97-32.45,32.97s-32.45-8.53-32.45-32.97,32.45-55.53,32.45-55.53c0,0,32.45,31.09,32.45,55.53Z"/><polygon class="cls-1" points="245.49 193.43 259.32 168.13 245.55 190.22 245.69 181.03 255.23 162.72 245.73 178.59 246 162.05 256.21 147.48 246.05 159.45 246.21 129.12 245.2 167.55 234.87 151.73 245.08 170.8 244.11 189.27 244.08 188.78 232.12 172.06 244.05 190.51 243.93 192.82 243.9 192.86 243.91 193.05 241.46 217.7 244.74 217.7 245.13 215.71 257.03 197.3 245.16 213.89 245.49 193.43"/><path class="cls-6" d="m389.92,106.07c0,46.68-27.75,62.98-61.99,62.98s-61.99-16.3-61.99-62.98S327.93,0,327.93,0c0,0,61.99,59.39,61.99,106.07Z"/><polygon class="cls-1" points="325.68 161.92 326.31 122.85 352.73 74.51 326.41 116.72 326.7 99.15 344.91 64.18 326.77 94.5 326.77 94.5 327.29 62.9 346.78 35.06 327.37 57.94 327.69 0 325.67 76.7 325.84 73.53 306.01 43.19 325.52 79.61 323.67 114.89 323.62 113.96 300.76 82.02 323.55 117.27 323.32 121.68 323.27 121.75 323.29 122.11 318.61 211.64 324.87 211.64 325.62 165.39 348.35 130.24 325.68 161.92"/><path class="cls-1" d="m387.38,203.82c0,13.93-90.39,66.23-196.05,66.23S0,242.98,0,229.05s83.56,2.63,189.22,2.63,198.16-41.79,198.16-27.86Z"/><path class="cls-3" d="m387.38,203.82c0,13.93-90.39,66.23-196.05,66.23S0,242.98,0,229.05s83.56,2.63,189.22,2.63,198.16-41.79,198.16-27.86Z"/><path class="cls-1" d="m387.38,203.82c0,13.93-90.39,50.46-196.05,50.46S0,242.98,0,229.05s83.56-13.14,189.22-13.14,198.16-26.02,198.16-12.09Z"/><ellipse class="cls-3" cx="193.46" cy="231.7" rx="81.25" ry="6.28"/><path class="cls-2" d="m129.1,105.77s23.79.44,19.38,4.62-20.92,0-20.92,0l1.54-4.62Z"/><path class="cls-4" d="m79.54,54.94s9.6-1.71,12.94,6.04c3.34,7.75,10.2,29.86,10.2,29.86,0,0,18.35,12.15,21.69,11.75s9.04.42,8,4.06c-1.05,3.64-.58,7.77-2.99,8.28s-6.24-4.32-9.18-2c-2.93,2.33-29.07-6.17-30.75-7.93-1.68-1.76-15.62-39.89-15.62-39.89,0,0,.56-10.28,5.72-10.16Z"/><polygon class="cls-2" points="100.14 218.64 101.24 227.89 91.99 230.31 86.71 227.89 86.71 219.74 100.14 218.64"/><polygon class="cls-2" points="75.25 224.58 76.35 233.83 67.1 236.26 61.82 233.83 61.82 225.69 75.25 224.58"/><path d="m101.02,117.55l4.18,15.2,6.17,30.83s1.76,7.49-1.76,16.52c-3.52,9.03-9.91,38.54-8.59,40.3,1.32,1.76-14.98,3.08-14.76,1.32s2.42-25.99,2.42-25.99c0,0,3.08-21.36,4.62-24.01s-7.05-9.25-7.05-9.25c0,0-2.2,25.33-5.51,27.53-3.3,2.2-2.86,36.34-4.4,36.78s-12.77,2.2-14.1,0c-1.32-2.2,0-38.98,0-38.98,0,0,7.49-27.97,5.95-31.93-1.54-3.96-.66-20.92-.66-20.92,0,0-5.73-12.99-2.64-19.82l36.12,2.42Z"/><path class="cls-2" d="m100.36,32.98s-9.25,11.45-8.81,16.52c.44,5.07-14.54-9.25-14.54-9.25,0,0,10.79-14.54,10.79-17.62s12.55,10.35,12.55,10.35Z"/><circle class="cls-2" cx="100.25" cy="22.74" r="14.54"/><path class="cls-4" d="m63.62,109.31c-.66,2.45-1.48,5.23-1.36,7.58.07,1.52,4.1,2.51,9.67,3.16,5.16.61,11.65.91,17.55,1.07,6.2.17,11.73.17,14.4.17,7.93,0,1.54-5.07-1.54-7.49-3.08-2.42-2.42-36.78-2.2-41.18.22-4.4-1.98-17.18-1.98-19.6s-5.18-8.75-5.18-8.75c0,0-1.2,3.46-6.05-1.17s-11.23-5.95-11.23-5.95c-4.85,1.76-12.99,21.14-13.43,24.45-.18,1.34-.03,8.21.27,16.05.43,11.46,1.19,25.01,1.71,26.45.41,1.13-.04,3.04-.62,5.2Z"/><polygon class="cls-2" points="87.15 122.17 88.69 127.68 82.74 133.85 80.76 125.26 87.15 122.17"/><path d="m89.13,225.47s4.62,5.29,8.15,1.76,3.3-5.73,3.96-5.73,10.57,8.81,10.57,8.81c0,0,16.96,3.96,7.71,6.83-9.25,2.86-35.46.88-35.46,0s-.66-12.55,1.76-12.55l3.3.88Z"/><path d="m64.24,231.41s4.62,5.29,8.15,1.76c3.52-3.52,3.3-5.73,3.96-5.73s10.57,8.81,10.57,8.81c0,0,16.96,3.96,7.71,6.83s-35.46.88-35.46,0-.66-12.55,1.76-12.55l3.3.88Z"/><path d="m83.93,34.34c-.47.3-1.08.61-1.55.31-1.75-4.36-3.05-8.88-3.9-13.5-.3-1.62-.5-3.43.4-4.81.36-.54.87-.99,1.13-1.59.39-.9.13-1.95.27-2.92.27-2.05,2.21-3.47,4.15-4.17s4.06-.91,5.91-1.81c1.76-.86,3.17-2.29,4.8-3.38,1.63-1.09,3.72-1.83,5.54-1.09,1.61.65,2.61,2.29,4.13,3.12,1.03.57,2.23.72,3.38.97,3.2.68,6.2,2.07,8.79,4.08.63.45,1.17,1.01,1.6,1.65,1.95,3.21-1.54,7.58,0,11l-3.33-2.63c-.89-.78-1.89-1.42-2.97-1.89-1.1-.42-2.41-.47-3.41.15-1.41.87-1.79,2.7-2.28,4.28s-1.58,3.33-3.23,3.29c-2.25-.06-3.04-3.2-5.06-4.19-1.32-.65-2.97-.22-4.1.72-1.12.95-1.8,2.32-2.29,3.7-.31.86-.6,1.84-1.15,2.59-.6.83-1.38.89-2.02,1.51-1.68,1.61-2.72,3.26-4.8,4.61Z"/><path class="cls-3" d="m63.62,109.31c2.74,3.97,5.82,8.07,8.31,10.74,5.16.61,11.65.91,17.55,1.07-1.05-1.43-2.37-2.64-3.88-3.58-2.86-1.76-9.69-22.68-9.69-22.68,0,0,8.37-21.58,10.57-29.73s-6.39-12.77-6.39-12.77c-3.96-3.3-10.79,4.4-10.79,4.4,0,0-3.48,10.51-6.78,20.9.43,11.46,1.19,25.01,1.71,26.45.41,1.13-.04,3.04-.62,5.2Z"/><path class="cls-4" d="m79.44,50.6s8.59,4.62,6.39,12.77c-2.2,8.15-10.57,29.73-10.57,29.73,0,0,6.83,20.92,9.69,22.68s6.83,5.95,3.74,8.15c-3.08,2.2-5.29,5.73-7.49,4.62s-2.2-7.27-5.95-7.27-18.94-22.9-19.16-25.33,12.55-40.96,12.55-40.96c0,0,6.83-7.71,10.79-4.4Z"/><path class="cls-5" d="m258.04,110.8l-2.48-2.48c-3.01-3.01-7.89-3.01-10.9,0l-48.06,48.06-48.06-48.06c-3.01-3.01-7.89-3.01-10.9,0l-2.48,2.48c-3.01,3.01-3.01,7.89,0,10.9h0s48.06,48.06,48.06,48.06l-48.06,48.06c-3.01,3.01-3.01,7.89,0,10.9l2.48,2.48c3.01,3.01,7.89,3.01,10.9,0l48.06-48.06,48.06,48.06c3.01,3.01,7.89,3.01,10.9,0l2.48-2.48c3.01-3.01,3.01-7.89,0-10.9l-48.06-48.06,48.06-48.06c3.01-3.01,3.01-7.89,0-10.9Z"/><path class="cls-3" d="m133.46,220.42l46.63-46.63-.45-.45-44.47,44.47c-.74.74-1.33,1.63-1.72,2.61Z"/><path class="cls-3" d="m134.51,112.36c3.01-3.01,7.89-3.01,10.9,0h0l48.06,48.06,48.06-48.06c3.01-3.01,7.89-3.01,10.9,0h0l2.48,2.48c2.17,2.17,2.85,5.43,1.72,8.29l1.43-1.43c3.01-3.01,3.01-7.89,0-10.9,0,0,0,0,0,0l-2.48-2.48c-3.01-3.01-7.89-3.01-10.9,0l-48.06,48.06-48.06-48.06c-3.01-3.01-7.89-3.01-10.9,0l-2.48,2.48c-.74.74-1.33,1.63-1.72,2.61l1.05-1.05Z"/><path class="cls-3" d="m210.43,170.2l-3.59,3.59,48.06,48.06c2.17,2.17,2.85,5.43,1.72,8.29l1.43-1.43c3.01-3.01,3.01-7.89,0-10.9h0s-47.61-47.61-47.61-47.61Z"/><path class="cls-4" d="m55.96,202.24c0,20.3-12.07,27.38-26.95,27.38s-26.95-7.09-26.95-27.38,26.95-46.12,26.95-46.12c0,0,26.95,25.82,26.95,46.12Z"/><polygon class="cls-1" points="28.3 209.53 39.79 188.52 28.35 206.87 28.47 199.23 36.39 184.03 28.5 197.21 28.73 183.47 37.2 171.37 28.76 181.31 28.9 156.12 28.06 188.04 19.48 174.9 27.96 190.73 27.15 206.08 27.13 205.67 17.19 191.79 27.1 207.11 27 209.03 26.98 209.06 26.99 209.21 24.95 229.69 27.67 229.69 28 228.03 37.88 212.75 28.03 226.52 28.3 209.53"/></g></svg>