<?xml version="1.0" encoding="UTF-8"?><svg id="Ebene_2" xmlns="http://www.w3.org/2000/svg" xmlns:xlink="http://www.w3.org/1999/xlink" viewBox="0 0 412.82 284.98"><defs><style>.cls-1{fill:#f7bebe;}.cls-2{opacity:.05;}.cls-2,.cls-3,.cls-4,.cls-5,.cls-6,.cls-7,.cls-8{isolation:isolate;}.cls-2,.cls-6,.cls-8{fill:#010101;}.cls-9{fill:url(#Unbenannter_Verlauf_2);}.cls-3{fill:#eb5b5c;}.cls-3,.cls-5,.cls-7{opacity:.8;}.cls-4,.cls-6,.cls-10{opacity:.1;}.cls-4,.cls-11{fill:#3069b2;}.cls-5{fill:#8ec151;}.cls-12{fill:#314156;}.cls-13{fill:#454153;}.cls-14{fill:#212121;}.cls-7{fill:#ffd354;}.cls-8{opacity:.1;}.cls-15{fill:#111110;}.cls-16{fill:#fff;opacity:.6;}.cls-17{fill:#517cbe;}</style><linearGradient id="Unbenannter_Verlauf_2" x1="288.97" y1="-523.78" x2="343.16" y2="-523.78" gradientTransform="translate(-16.91 -306.98) scale(1 -1)" gradientUnits="userSpaceOnUse"><stop offset="0" stop-color="#808181" stop-opacity=".25"/><stop offset=".54" stop-color="#808181" stop-opacity=".12"/><stop offset="1" stop-color="#808181" stop-opacity=".1"/></linearGradient></defs><g id="Ebene_1-2"><path class="cls-4" d="m233.5,38.8c-26.46.04-51.93-7.47-76.29-15.8C132.85,14.67,108.67,5.34,82.7,1.39c-16.7-2.54-35.69-2.31-48.75,6.92-12.57,8.88-16.21,23.57-17.96,37.15-1.32,10.21-1.93,20.93,3.02,30.27,3.43,6.49,9.31,11.83,13.45,18.01,14.46,21.5,5.76,48.97-8.29,70.97-6.59,10.32-14.3,20.22-19.29,31.13-4.98,10.91-7.02,23.29-1.94,34.06,5.03,10.68,16.4,18.43,28.61,23.72,24.78,10.77,53.63,13.08,81.71,13.97,62.15,1.97,124.41-2.05,186.52-6.07,22.98-1.49,46.07-2.98,68.57-7.29,12.5-2.39,25.36-5.94,34.22-13.71,11.25-9.87,13.55-25.98,5.36-37.57-13.72-19.43-49.91-23.09-59.75-44.11-5.43-11.57-.75-24.84,6.15-36,14.78-23.93,40.23-45.37,40.66-72.14.29-18.38-12.94-36.32-32.7-44.31-20.72-8.37-48.96-6.22-63.47,9.38-14.92,16.07-41.94,23.01-65.3,23.03Z"/><path class="cls-17" d="m351.35,228.46s-4.35-2.87-8.66-.83c0,0,1.33,2.56,6.79,2.32l1.88-1.49Z"/><path class="cls-17" d="m351.9,228.61s1.32,5.04-2,8.47c0,0-2-2.08,0-7.17l2-1.3Z"/><path class="cls-17" d="m357.31,223.77s-.32-4.29-10-2.86c0,0-.05,2.76,3.35,4.07,3.4,1.31,4.96.21,6.65-1.21Z"/><path class="cls-17" d="m357.92,223.74s4.09,1.31.44,10.39c0,0-2.7-.6-3.19-4.22-.48-3.61.95-4.86,2.74-6.18Z"/><path class="cls-17" d="m363.39,217.66s.56-7.06-9.34-6.33c0,0-.71,6.37,7.59,8.03l1.75-1.7Z"/><path class="cls-17" d="m369.92,209.69s-1.36-8-11.25-5.61c0,0-.04,6.91,9.63,7.52l1.61-1.9Z"/><path class="cls-11" d="m374.7,201.46s-2.27-7.79-12.07-5.46c0,0,2.33,7.01,11.42,6.9l.65-1.44Z"/><path class="cls-11" d="m379.24,193.42s-2.22-8.08-11.68-5.66c0,0,3.16,7.68,11.06,7.03l.63-1.37Z"/><path class="cls-11" d="m382.17,185.78s-1.71-9.88-10.53-7.7c0,0,2.56,8.99,9.88,9.14l.65-1.44Z"/><path class="cls-11" d="m384.91,176.55s-2.05-9.96-10.97-7.08c0,0,3.5,9.42,10.34,8.44l.63-1.36Z"/><path class="cls-11" d="m386.59,167.96s-3.25-9.96-10.15-9.7c0,0,3.32,10.52,9.58,11.68l.58-1.99Z"/><path class="cls-11" d="m387.68,159.58s-3.54-11.99-9.15-11.07c0,0,2.45,9.17,8.96,12.94l.2-1.87Z"/><path class="cls-11" d="m388.3,149.58s-3.32-9.99-8.85-10.39c0,0,2.26,9.83,8.74,12.99l.11-2.6Z"/><path class="cls-11" d="m388.97,140.25s-4.14-10-7.79-10.23c0,0,1.8,9.85,7.43,11.87l.35-1.64Z"/><path class="cls-11" d="m389.43,131.57s-2.55-10.86-6.2-11.77c0,0,.5,8.89,5.83,12.58l.37-.81Z"/><path class="cls-11" d="m390.81,120.2s-2.68-8.66-5.64-9.98c0,0,.58,10.21,4.96,12.1l.68-2.12Z"/><path class="cls-11" d="m391.95,112.76l.54-15.27s-5.54,11.51-.94,17.95l.4-2.68Z"/><path class="cls-11" d="m396.23,97.57s3.99-11.15,4.96-11.77c0,0-7.82,7.24-7.06,16.54l2.1-4.77Z"/><path class="cls-17" d="m363.66,217.61s7.02-.92,6.81,9c0,0-6.34,1.03-8.41-7.17l1.6-1.83Z"/><path class="cls-11" d="m370.26,209.43s8.11-.02,7.43,10.12c0,0-6.81,1.22-9.05-8.21l1.62-1.92Z"/><path class="cls-11" d="m374.78,202.12s7.36-3.45,12.07,5.46c0,0-6.8,2.87-12.72-4.02l.65-1.44Z"/><path class="cls-11" d="m379.4,193.49s7.54-3.67,11.96,5.03c0,0-7.85,2.7-12.58-3.65l.62-1.38Z"/><path class="cls-11" d="m382.07,185.99s7.25-6.93,13.04.08c0,0-7.41,5.7-13.37,1.47l.33-1.54Z"/><path class="cls-11" d="m384.5,176.31s7.3-7.08,13.04.33c0,0-8.19,5.82-13.3,1.16l.26-1.49Z"/><path class="cls-11" d="m385.86,167.68s5.62-8.85,12.24-6.87c0,0-5.83,9.37-12.18,8.95l-.06-2.08Z"/><path class="cls-11" d="m387.52,159.52s5.66-11.14,11.02-9.2c0,0-4.09,8.57-11.17,11.08l.15-1.88Z"/><path class="cls-11" d="m387.91,149s5.82-8.77,11.28-7.7c0,0-4.76,8.9-11.84,10.24l.57-2.54Z"/><path class="cls-11" d="m388.36,140.05s4.51-9.84,8.18-9.91c0,0-2.17,9.77-7.88,11.58l-.3-1.67Z"/><path class="cls-11" d="m389.25,131.36s5.02-9.97,8.79-9.99c0,0-2.57,8.52-8.62,10.86l-.17-.87Z"/><path class="cls-11" d="m390,120.82s3.75-8.25,6.86-9.18c0,0-1.88,10.05-6.45,11.37l-.41-2.19Z"/><path class="cls-11" d="m392.4,112.46l8.39-12.78s-2.15,12.6-9.61,15.22l1.22-2.45Z"/><path class="cls-11" d="m398.15,98.6s9.75-6.73,10.1-7.81c0,0-4.96,9.42-14.16,11.08l4.06-3.27Z"/><path class="cls-11" d="m398.74,95.58s11.19-10.76,14.05-10.75c0,0-9.23.42-14.32,10.17l.27.57Z"/><path class="cls-13" d="m390.11,122.42l.41.05c2.1-16.46,5.17-26.2,8.63-27.39l-.13-.39c-3.67,1.27-6.76,10.86-8.9,27.72Z"/><path class="cls-13" d="m387.02,161.77l.62.05c.13-1.54.23-3.11.3-4.68.59-13.62,1.5-26.13,2.69-35.51l-.35-.44c-1.2,9.4-2.37,22.28-2.96,35.93-.07,1.56-.17,3.12-.3,4.65Z"/><path class="cls-13" d="m339.87,236.31c.11-.05,10.95-4.89,22.2-16.44,6.59-6.76,12.07-14.53,16.23-23.01,5.2-10.6,8.38-23.61,9.44-36.26l-.64.3c-2.39,28.39-15.31,47.79-25.59,58.36-11.14,11.44-21.87,16.24-21.97,16.28l.33.77Z"/><path class="cls-14" d="m367.94,30.17H27.8c-1.67,0-3.03,1.36-3.03,3.03v8.83h346.21v-8.83c0-1.67-1.36-3.03-3.03-3.03Z"/><path class="cls-12" d="m24.77,42.03v198.68c0,3.37,2.74,6.11,6.11,6.11h333.99c3.37,0,6.11-2.74,6.11-6.11h0V42.03H24.77Z"/><circle class="cls-3" cx="30.25" cy="36.01" r="1.42"/><circle class="cls-7" cx="34.14" cy="36.01" r="1.42"/><circle class="cls-5" cx="38.04" cy="36.01" r="1.42"/><rect class="cls-2" x="56.95" y="75.16" width="278.24" height="122.35"/><rect class="cls-14" x="59.07" y="76.09" width="273.99" height="119.65"/><path class="cls-11" d="m133.76,106.88c-15.05,0-27.26,12.2-27.26,27.26s12.2,27.26,27.26,27.26,27.26-12.2,27.26-27.26-12.2-27.26-27.26-27.26h0Zm4.89,27.91v12.91h-9.64v-12.91c-3.52-2.66-4.21-7.67-1.55-11.18s7.67-4.21,11.18-1.55c3.52,2.66,4.21,7.67,1.55,11.18-.44.58-.96,1.1-1.55,1.55Z"/><path class="cls-8" d="m133.76,106.88c-15.05,0-27.26,12.2-27.26,27.26s12.2,27.26,27.26,27.26,27.26-12.2,27.26-27.26-12.2-27.26-27.26-27.26h0Zm4.89,27.91v12.91h-9.64v-12.91c-3.52-2.66-4.21-7.67-1.55-11.18s7.67-4.21,11.18-1.55c3.52,2.66,4.21,7.67,1.55,11.18-.44.58-.96,1.1-1.55,1.55Z"/><path class="cls-11" d="m133.76,99.09c-19.36,0-35.05,15.69-35.05,35.05s15.69,35.05,35.05,35.05,35.05-15.69,35.05-35.05h0c0-19.36-15.69-35.05-35.05-35.05Zm6.28,35.89v16.59h-12.39v-16.59c-4.52-3.42-5.41-9.86-1.99-14.38s9.86-5.41,14.38-1.99,5.41,9.86,1.99,14.38c-.57.75-1.24,1.42-1.99,1.99Z"/><rect class="cls-16" x="183.32" y="129.54" width="113.28" height="12.04"/><rect class="cls-11" x="272.18" y="151.49" width="24.43" height="12.04"/><path class="cls-11" d="m194.47,135.38h-2.05l1.82-1.82c.07-.07.07-.18,0-.25-.07-.07-.18-.07-.25,0h0s-1.82,1.82-1.82,1.82v-2.05c0-.1-.08-.18-.18-.18-.1,0-.18.08-.18.18v2.05l-1.82-1.83c-.07-.07-.18-.07-.25,0h0c-.07.07-.07.18,0,.25l1.82,1.82h-2.05c-.1,0-.18.08-.18.18,0,.1.08.18.18.18h2.05l-1.82,1.82c-.07.07-.07.18,0,.25.07.07.18.07.25,0l1.82-1.82v2.05c0,.1.08.18.18.18s.18-.08.18-.18v-2.05l1.82,1.82c.07.07.18.07.25,0,.07-.07.07-.18,0-.25l-1.82-1.82h2.05c.1,0,.18-.08.18-.18,0-.09-.08-.17-.18-.17Z"/><path class="cls-11" d="m201.91,135.38h-2.05l1.82-1.82c.07-.07.07-.18,0-.25-.07-.07-.18-.07-.25,0h0s-1.82,1.82-1.82,1.82v-2.05c0-.1-.08-.18-.18-.18-.1,0-.18.08-.18.18v2.05l-1.82-1.83c-.07-.07-.18-.07-.25,0h0c-.07.07-.07.18,0,.25l1.82,1.82h-2.05c-.1,0-.18.08-.18.18,0,.1.08.18.18.18h2.05l-1.82,1.82c-.07.07-.07.18,0,.25.07.07.18.07.25,0l1.82-1.82v2.05c0,.1.08.18.18.18s.18-.08.18-.18v-2.05l1.82,1.82c.07.07.18.07.25,0,.07-.07.07-.18,0-.25l-1.82-1.82h2.05c.1,0,.18-.08.18-.18,0-.09-.08-.17-.18-.17Z"/><path class="cls-11" d="m209.34,135.38h-2.05l1.82-1.82c.07-.07.07-.18,0-.25-.07-.07-.18-.07-.25,0h0s-1.82,1.82-1.82,1.82v-2.05c0-.1-.08-.18-.18-.18-.1,0-.18.08-.18.18v2.05l-1.82-1.83c-.07-.07-.18-.07-.25,0h0c-.07.07-.07.18,0,.25l1.82,1.82h-2.05c-.1,0-.18.08-.18.18,0,.1.08.18.18.18h2.05l-1.82,1.82c-.07.07-.07.18,0,.25.07.07.18.07.25,0l1.82-1.82v2.05c0,.1.08.18.18.18s.18-.08.18-.18v-2.05l1.82,1.82c.07.07.18.07.25,0,.07-.07.07-.18,0-.25l-1.82-1.82h2.05c.1,0,.18-.08.18-.18,0-.09-.08-.17-.18-.17Z"/><path class="cls-11" d="m216.78,135.38h-2.05l1.82-1.82c.07-.07.07-.18,0-.25-.07-.07-.18-.07-.25,0h0s-1.82,1.82-1.82,1.82v-2.05c0-.1-.08-.18-.18-.18-.1,0-.18.08-.18.18v2.05l-1.82-1.83c-.07-.07-.18-.07-.25,0h0c-.07.07-.07.18,0,.25l1.82,1.82h-2.05c-.1,0-.18.08-.18.18,0,.1.08.18.18.18h2.05l-1.82,1.82c-.07.07-.07.18,0,.25.07.07.18.07.25,0l1.82-1.82v2.05c0,.1.08.18.18.18s.18-.08.18-.18v-2.05l1.82,1.82c.07.07.18.07.25,0,.07-.07.07-.18,0-.25l-1.82-1.82h2.05c.1,0,.18-.08.18-.18,0-.09-.08-.17-.18-.17Z"/><path class="cls-11" d="m224.21,135.38h-2.05l1.82-1.82c.07-.07.07-.18,0-.25-.07-.07-.18-.07-.25,0h0s-1.82,1.82-1.82,1.82v-2.05c0-.1-.08-.18-.18-.18-.1,0-.18.08-.18.18v2.05l-1.82-1.83c-.07-.07-.18-.07-.25,0h0c-.07.07-.07.18,0,.25l1.82,1.82h-2.05c-.1,0-.18.08-.18.18,0,.1.08.18.18.18h2.05l-1.82,1.82c-.07.07-.07.18,0,.25.07.07.18.07.25,0l1.82-1.82v2.05c0,.1.08.18.18.18s.18-.08.18-.18v-2.05l1.82,1.82c.07.07.18.07.25,0,.07-.07.07-.18,0-.25l-1.82-1.82h2.05c.1,0,.18-.08.18-.18,0-.09-.08-.17-.18-.17Z"/><path class="cls-11" d="m231.64,135.38h-2.05l1.82-1.82c.07-.07.07-.18,0-.25-.07-.07-.18-.07-.25,0h0s-1.82,1.82-1.82,1.82v-2.05c0-.1-.08-.18-.18-.18-.1,0-.18.08-.18.18v2.05l-1.82-1.83c-.07-.07-.18-.07-.25,0h0c-.07.07-.07.18,0,.25l1.82,1.82h-2.05c-.1,0-.18.08-.18.18,0,.1.08.18.18.18h2.05l-1.82,1.82c-.07.07-.07.18,0,.25.07.07.18.07.25,0l1.82-1.82v2.05c0,.1.08.18.18.18s.18-.08.18-.18v-2.05l1.82,1.82c.07.07.18.07.25,0,.07-.07.07-.18,0-.25l-1.82-1.82h2.05c.1,0,.18-.08.18-.18,0-.09-.08-.17-.18-.17Z"/><path class="cls-11" d="m239.08,135.38h-2.05l1.82-1.82c.07-.07.07-.18,0-.25-.07-.07-.18-.07-.25,0h0s-1.82,1.82-1.82,1.82v-2.05c0-.1-.08-.18-.18-.18-.1,0-.18.08-.18.18v2.05l-1.82-1.83c-.07-.07-.18-.07-.25,0h0c-.07.07-.07.18,0,.25l1.82,1.82h-2.05c-.1,0-.18.08-.18.18,0,.1.08.18.18.18h2.05l-1.82,1.82c-.07.07-.07.18,0,.25.07.07.18.07.25,0l1.82-1.82v2.05c0,.1.08.18.18.18s.18-.08.18-.18v-2.05l1.82,1.82c.07.07.18.07.25,0,.07-.07.07-.18,0-.25l-1.82-1.82h2.05c.1,0,.18-.08.18-.18,0-.09-.08-.17-.18-.17Z"/><path class="cls-11" d="m246.51,135.38h-2.05l1.82-1.82c.07-.07.07-.18,0-.25-.07-.07-.18-.07-.25,0h0s-1.82,1.82-1.82,1.82v-2.05c0-.1-.08-.18-.18-.18-.1,0-.18.08-.18.18v2.05l-1.82-1.83c-.07-.07-.18-.07-.25,0h0c-.07.07-.07.18,0,.25l1.82,1.82h-2.05c-.1,0-.18.08-.18.18,0,.1.08.18.18.18h2.05l-1.82,1.82c-.07.07-.07.18,0,.25.07.07.18.07.25,0l1.82-1.82v2.05c0,.1.08.18.18.18s.18-.08.18-.18v-2.05l1.82,1.82c.07.07.18.07.25,0,.07-.07.07-.18,0-.25l-1.82-1.82h2.05c.1,0,.18-.08.18-.18,0-.09-.08-.17-.18-.17Z"/><path class="cls-11" d="m253.95,135.38h-2.05l1.82-1.82c.07-.07.07-.18,0-.25-.07-.07-.18-.07-.25,0h0s-1.82,1.82-1.82,1.82v-2.05c0-.1-.08-.18-.18-.18-.1,0-.18.08-.18.18v2.05l-1.82-1.83c-.07-.07-.18-.07-.25,0h0c-.07.07-.07.18,0,.25l1.82,1.82h-2.05c-.1,0-.18.08-.18.18,0,.1.08.18.18.18h2.05l-1.82,1.82c-.07.07-.07.18,0,.25.07.07.18.07.25,0l1.82-1.82v2.05c0,.1.08.18.18.18s.18-.08.18-.18v-2.05l1.82,1.82c.07.07.18.07.25,0,.07-.07.07-.18,0-.25l-1.82-1.82h2.05c.1,0,.18-.08.18-.18,0-.09-.08-.17-.18-.17Z"/><path class="cls-11" d="m261.38,135.38h-2.05l1.82-1.82c.07-.07.07-.18,0-.25-.07-.07-.18-.07-.25,0h0s-1.82,1.82-1.82,1.82v-2.05c0-.1-.08-.18-.18-.18-.1,0-.18.08-.18.18v2.05l-1.82-1.83c-.07-.07-.18-.07-.25,0h0c-.07.07-.07.18,0,.25l1.82,1.82h-2.05c-.1,0-.18.08-.18.18,0,.1.08.18.18.18h2.05l-1.82,1.82c-.07.07-.07.18,0,.25.07.07.18.07.25,0l1.82-1.82v2.05c0,.1.08.18.18.18s.18-.08.18-.18v-2.05l1.82,1.82c.07.07.18.07.25,0,.07-.07.07-.18,0-.25l-1.82-1.82h2.05c.1,0,.18-.08.18-.18,0-.09-.08-.17-.18-.17Z"/><path class="cls-11" d="m268.81,135.38h-2.05l1.82-1.82c.07-.07.07-.18,0-.25-.07-.07-.18-.07-.25,0h0s-1.82,1.82-1.82,1.82v-2.05c0-.1-.08-.18-.18-.18-.1,0-.18.08-.18.18v2.05l-1.82-1.83c-.07-.07-.18-.07-.25,0h0c-.07.07-.07.18,0,.25l1.82,1.82h-2.05c-.1,0-.18.08-.18.18,0,.1.08.18.18.18h2.05l-1.82,1.82c-.07.07-.07.18,0,.25.07.07.18.07.25,0l1.82-1.82v2.05c0,.1.08.18.18.18s.18-.08.18-.18v-2.05l1.82,1.82c.07.07.18.07.25,0,.07-.07.07-.18,0-.25l-1.82-1.82h2.05c.1,0,.18-.08.18-.18,0-.09-.08-.17-.18-.17Z"/><path class="cls-9" d="m325.8,178.44c-.01-.43-.06-.85-.16-1.27-.32-1.2-1.04-2.64-2.22-3.01-1.22-.37-2.4-.87-3.52-1.49-.21-3.79.66-7.68-.29-11.36-.35-1.35-.94-2.63-1.09-4.01-.19-1.71.27-3.54-.41-5.12-.54-1.25-1.72-2.12-2.99-2.58s-2.64-.58-3.99-.71c-1.7-.14-7.2-.79-9.12.73h0c-.13.1-.25.22-.35.35h0c-.04.06-.08.12-.11.18l-.02.03c-.04.07-.07.15-.1.23h0c-.03.09-.05.18-.06.27v.64c.02.32.07.64.07.95,0,.16-.01.31-.04.47-.12.42-.32.81-.59,1.15h0l-.06.09c-.04.06-.08.11-.11.17s-.06.1-.09.15-.06.08-.08.13c-.03.06-.06.12-.09.18,0,.04-.04.07-.05.1-.04.1-.08.2-.11.3-.08.31-.09.63-.02.94.1.4.26.77.48,1.12.09.15.18.29.28.43l.25.34c-.05.33-.07.66-.07.99,0,2.25,1.03,4.37,2.8,5.76.14,1.49.12,3-.05,4.49-.03.31-.07.63-.11.94s-.07.52-.12.78c-.52.07-1.05.03-1.55-.12-.23-.1-.47-.19-.71-.27-1.03-.26-2.08.77-3.1.46,0,.05-.03.1-.05.14-.21-.13-.46-.2-.71-.21-.61-.03-1.1-.47-1.54-.88l-1.35-1.27c-.09-.08-.17-.17-.23-.26-.07-.14-.13-.28-.16-.44-.23-.73-.78-1.32-1.31-1.87-.1-.13-.23-.22-.39-.28-.06,0-.12,0-.18,0-.04-.05-.08-.1-.12-.14-.09-.11-.19-.2-.29-.3-.64-.59-.71-1.1-1.27-1.77-.49-.63-.93-1.3-1.32-2-.05-.37-.11-.75-.19-1.14-.18-.88-.44-1.75-.78-2.58l-.71-1.57-.08.08c-.51-.76-1.06-1.18-1.55-1.08-.82.17-1.23,1.77-1.1,3.86l.28,2.12c0,.05.02.11.04.16-.05.25-.08.51-.08.76,0,.3.28.52.42.78.23.36.36.78.35,1.21-.02.15-.06.3-.07.45.02.33.13.65.33.92l1.77,2.97.35.62.02.03c.11.22.27.4.47.55.07.74.27,1.47.58,2.15.06.13.13.26.2.39.48.78,1.04,1.51,1.67,2.17l.84.95c.83.93,1.66,1.86,2.57,2.72.32.34.71.62,1.15.8.43.17.92.1,1.29-.19v1.32c.41.03.72.38.69.78,0,.14-.05.27-.13.38-.74,1.91-1.49,3.83-2.62,5.54.79.47,1.53,1.03,2.19,1.67.43.48.81,1,1.14,1.55.03.26.06.52.07.78.26,4.22-1.37,8.41-2.83,12.43-.42,1.14-.88,2.33-.85,3.52-.28.17-.54.36-.79.57.29.76.18,1.43.15,2.24-.01.49-.11.97-.29,1.42-.15.31-.32.62-.51.91-.92,1.62-1.12,3.54-1.3,5.39-.11,1.12.32,2.48-.18,3.48-.87,1.71-1.65,3.54-1.77,5.44,0,.43-.06.86-.16,1.27-.11.35-.3.65-.4,1-.1.46-.13.94-.07,1.42.07,1.7-.18,3.39-.74,4.99-.44,1.26-.93,2.62-.58,3.92-.85.9-1.38,2.06-1.5,3.29,0,.32-.05.63-.11.94-.11.32-.25.62-.42.9-.71,1.3-1.05,2.77-.96,4.25-1.06,1.44-1.59,3.22-1.91,4.98-.32,1.77-.45,3.56-.86,5.31-.54,2.31-1.51,4.64-1.7,7.01-1.15.73-1.64,2.15-1.86,3.49-.22,1.34-.25,2.75-.82,3.99-.29.64-.71,1.22-.98,1.88-.19.52-.34,1.07-.42,1.62-.17.86-.32,1.83-.11,2.65-.3.32-.65.58-1.04.79.06-.22.1-.44.14-.66-.91.83-2.57.54-3.3,1.53-.46.67-.3,1.57.35,2.05.23.14.47.25.73.32,1.77.57,3.59,1.14,5.41.84.22-.02.42-.09.61-.19.24-.17.43-.4.57-.66.27-.43.55-.86.81-1.3.65.19,1.32.35,1.99.46.07.57.12,1.13.14,1.7.35.07.83.09.99-.24.05-.12.07-.26.06-.39,0-.25.04-.58.06-.92h.07c1.08.04,2.15-.17,3.13-.63-.38-3.14.87-6.2,1.95-9.17,1.14-3.12,2.12-6.3,3.11-9.48.71-2.24,1.49-4.4,2.18-6.64.87-2.83,1.75-5.66,2.63-8.5.38-1.25.77-2.48,1.21-3.72.92-2.51,2.02-4.95,3.28-7.3.35-.67.71-1.33,1-2.02.35-.85.61-1.73.89-2.61.62-1.79,1.36-3.54,2.22-5.23.02-.05.04-.09.07-.13.29,1.17.57,2.36.76,3.54.26,1.45.28,2.92.06,4.38-.17.99-.49,1.96-.45,2.97.05,1.38.79,2.64,1.16,3.98.24,1,.37,2.02.4,3.04.1,1.59.96,3.38.35,4.86-1.89,4.68-.98,9.96-2.06,14.87-.56,2.52-2.26,4.89-2.12,7.47.09,1.83.25,3.65.48,5.47.05.57.2,1.14.44,1.66.14.28.3.54.48.79-.16.06-.29.22-.4.56-.29.88,0,1.98.79,2.48.32.17.67.29,1.02.35.48.14.98.21,1.48.21.16,0,.31-.03.46-.06.55.23,1.11.43,1.67.6,0,.15.03.29.05.44,0,.15.07.3.18.4.09.04.19.06.28.05h1.92v-.48c.44.05.89-.1,1.22-.4.17-.22.29-.47.35-.74.52-1.78,1.04-3.56,1.56-5.33.62-1.97.88-4.03.76-6.09-.68-6.52.82-13.07.33-19.61-.29-3.93-.09-7.89.6-11.77.16-.88.35-1.77.42-2.64.16-1.65-.04-3.32.08-4.96.04-.57.12-1.14.19-1.71.49-3.54.74-7.1.76-10.67-.01-1.18-.08-2.36-.22-3.54.37-.09.7-.29.97-.57.32-.41.23-.99.23-1.51,0-1.25.53-2.44.95-3.62.55-1.63.99-3.29,1.34-4.98.37-1.36.57-2.75.59-4.16,0-.14,0-.28-.02-.42.13-.09.24-.21.33-.35.09-.21.15-.43.17-.65.13-.9.26-1.81.39-2.72.09-.65.19-1.3.28-1.94l1.13-7.86c.1-.68.19-1.36.29-2.04l.29-2.03c.03-.24.07-.48.09-.71.86-1.44.04-3.37-.05-5.01Zm-9.39,29.41c-.42-.99-.81-2.01-.71-3.08h-.04c.09-.33.08-.68-.05-1-.11-.26-.3-.48-.42-.74-.13-.32-.19-.65-.19-.99-.09-2.15.08-4.31.51-6.42.05-.25.1-.5.14-.75.15-.09.28-.19.4-.32.19-.21.34-.45.46-.71.4-.8.76-1.62,1.1-2.45.11-.27.27-.58.54-.65-.06,2.07.16,4.18-.69,6.05-.16.3-.28.62-.35.96-.08.53.14,1.06.06,1.59-.04.27-.16.52-.2.79-.07.27,0,.56.21.75.05.03.1.06.15.08-.02.14-.04.29-.05.42-.03.29-.04.56-.06.73-.08.87-.11,1.74-.1,2.61,0,.94.04,1.88.02,2.83.01.27-.03.55-.13.8-.07.13-.16.25-.27.35-.1-.32-.22-.6-.34-.87h0Z"/><ellipse class="cls-1" cx="287.33" cy="161.24" rx="2" ry="5.65" transform="translate(-26.52 60.96) rotate(-11.58)"/><path d="m304.96,280.56c-.29.88,0,1.98.79,2.45.32.17.66.29,1.02.35.48.14.98.2,1.48.2.61-.03,1.2-.27,1.81-.35.07-.02.15,0,.21.03.06.07.09.16.08.25,0,.35.03.7.08,1.04,0,.15.07.3.18.4.09.04.19.06.28.05h1.92c.04-1.69-.14-3.37-.55-5.01-.03-.13-.07-.24-.14-.35-.16-.18-.38-.3-.61-.35-.47-.2-.98-.28-1.48-.26-.62.08-1.14.48-1.66.81s-1.25.63-1.89.46-1.18-.7-1.5.28Z"/><path class="cls-1" d="m276.79,279c-.54.58-1.2,1.03-1.94,1.32l-.33.16s-.08.05-.11.09c-.01.06,0,.11.04.16.56.86,1.62,1.25,2.6.95.21-.05.41-.15.57-.3.27-.32.42-.72.44-1.14.11-.43.09-.88-.05-1.31-.49-1.11-.67-.61-1.22.08Z"/><path d="m284.15,283.36c.01.13,0,.27-.06.39-.17.33-.63.31-.99.24-.05-1.2-.2-2.4-.44-3.58-.69-.03-1.18.62-1.55,1.2l-.95,1.5c-.14.26-.33.48-.57.66-.19.1-.4.17-.61.19-1.81.3-3.64-.27-5.39-.84-.26-.07-.5-.17-.73-.31-.65-.48-.8-1.38-.35-2.05.73-.99,2.38-.71,3.29-1.53-.1.58-.25,1.14-.47,1.69,1.22-.18,2.04-1.3,3.03-2.05.25-.21.54-.35.86-.41.24-.02.48,0,.71.07,1.13.29,2.2.81,3.12,1.53.37.29.95.71,1.12,1.16.17.54-.01,1.53-.01,2.11Z"/><circle class="cls-1" cx="308.5" cy="159.25" r="7.31"/><path class="cls-15" d="m322.91,202.43c-.03,1.4-.23,2.79-.59,4.14-.35,1.68-.79,3.33-1.34,4.96-.42,1.18-.95,2.36-.95,3.61,0,.52.08,1.1-.23,1.51-.28.29-.64.49-1.03.59-.4.11-.72.39-.87.78-.33-.5-.58-1.04-.74-1.62-.63-1.94-1.22-3.9-1.77-5.87-.1-.23-.08-.49.05-.71.09-.08.19-.14.31-.17.36-.15.7-.36.98-.63.13-.12.24-.26.33-.42.1-.25.15-.53.14-.8,0-.94,0-1.87-.02-2.81-.01-.87.02-1.73.1-2.59,0-.17.03-.44.06-.73.05-.56.16-1.2.46-1.42.45-.3,1.79.1,2.3.17.88.12,1.77.26,2.63.43.12.52.19,1.06.19,1.59Z"/><path class="cls-15" d="m293.38,167.44c-.28.57-.96.84-1.49,1.2l-1.79,1.23c-.24.22-.56.33-.89.3-.3-.11-.53-.33-.66-.62,0,0,0-.02,0-.03l-.37-.62-1.77-2.97c-.2-.27-.31-.58-.33-.91,0-.15.05-.29.07-.45,0-.43-.12-.85-.35-1.2-.14-.27-.42-.48-.42-.78-.01-.39.05-.78.2-1.14.19-.34.45-.62.78-.83.17-.12.34-.23.51-.35.09-.06.2-.11.31-.14.29-.06.58.18.88.19,1.28.86,1.77,2.48,2.78,3.65.57.67.62,1.18,1.26,1.77.1.09.2.19.3.29.13.14.23.29.32.46.12.3.82.66.68.95Z"/><path class="cls-1" d="m305.93,166.57c.53,1.12.94,2.34.79,3.56-.03.33-.14.65-.31.94-.51.78-1.58.92-2.51.97-.4-.03-.79.09-1.09.35-.26.37-.23.87.07,1.21.3.32.67.56,1.08.71,1.47.65,3.06,1.18,4.66,1.03.74-.07,1.47-.29,2.21-.4.81-.09,1.62-.13,2.43-.13.96-.04,1.92-.13,2.88-.23l2.54-.25c.14,0,.27-.05.38-.14.19-.22-.05-.54-.29-.71-1.35-1-3.07-1.69-3.83-3.19-.35-.71-.46-1.55-.73-2.32s-.68-1.45-.84-2.23c-.09-.68-.13-1.37-.12-2.06,0-.69-.24-1.37-.71-1.88-.51-.47-1.24-.59-1.93-.62-1.69-.07-3.49.33-4.69,1.52-.32.32-.6.71-.93,1s-.79.38-.57.76.65.62.88.96c.24.36.44.74.62,1.14Z"/><path class="cls-15" d="m320.35,176.87c-.45,2.73-1.17,5.4-2.17,7.98-.5,1.16-.93,2.36-1.27,3.58-.27,1.1-.22,2.27-.47,3.37-.31,1.37-.62,2.74-.87,4.12-.42,2.11-.59,4.26-.5,6.41,0,.34.07.67.19.99.12.25.3.47.41.74.17.47.13.98-.1,1.42-.18.41-.43.78-.73,1.1-3.3.98-6.83.66-10.27.87-3.17.19-6.37.84-9.49.3-.35-1.42.24-2.9.74-4.28,1.47-4.01,3.09-8.19,2.83-12.39-.03-.49-.08-.98-.17-1.46-.51-2.98.05-6.06.94-8.95.56-1.8.53-3.71.4-5.59-.06-.61-.07-1.22-.02-1.83.05-.62.28-1.22.67-1.71,0-.02.03-.05.05-.07s.16-.02.27,0h0c.06.02.12.02.18,0l.04-.02s.07-.02.1,0c.08.05.13.22.3.25.26.04.53.06.79.07.32,0,.63.05.94.13h.04c.46.08.93.04,1.37-.12.29-.07.58-.18.84-.33.08-.08.57-.16.67-.22.32-.19.25-1.11.32-1.48.04-.38.13-.75.27-1.1.33-.53.9-.86,1.52-.88.61-.01,1.22.04,1.82.16,1.32.19,2.67.16,3.97.46.65.15,1.36.38,1.96.08.16.04.19.18.19.35-.02.16-.05.33-.1.48-.23.98.54,1.88,1.25,2.58.3.33.65.61,1.04.83.35.16.71.23,1.06.41.29.15.53.38.71.65.2.31.34.66.4,1.03.08.68.04,1.38-.12,2.05Z"/><path class="cls-6" d="m320.35,176.87c-.45,2.73-1.17,5.4-2.17,7.98-.5,1.16-.93,2.36-1.27,3.58-.27,1.1-.22,2.27-.47,3.37-.31,1.37-.62,2.74-.87,4.12-.07.04-.15.08-.23.12-.44.21-.91.36-1.39.45-.86.1-1.74.08-2.59-.08l-5.05-.68c-2.02-.27-4.17-.6-5.66-1.97-.83-.75-1.38-1.74-1.98-2.7-.03-.49-.08-.98-.17-1.46-.51-2.98.05-6.06.94-8.95.56-1.8.53-3.71.4-5.59-.06-.61-.07-1.22-.02-1.83.05-.62.28-1.22.67-1.71.1-.03.21-.05.32-.07h0c.07-.01.14-.02.22-.03h.1c.12,0,.24.01.35.04.24.08.48.17.71.27h.04c.3.1.62.15.94.13.47,0,.95-.07,1.42-.11.58-.09,1.17.02,1.68.3.33.26.64.55.93.85.35.28.75.49,1.18.64,3.05,1.16,6.43,1.09,9.42-.2.29-.16.61-.25.95-.24.24.05.48.15.68.29.21.12.42.24.64.35.2.31.34.66.4,1.03.08.69.04,1.39-.11,2.07Z"/><path class="cls-11" d="m323.43,174.53c-1.41-.43-2.76-1.02-4.04-1.77-.2-.14-.44-.24-.68-.29-.33,0-.66.08-.95.24-2.99,1.29-6.37,1.36-9.42.2-.43-.15-.82-.36-1.18-.64-.29-.3-.61-.59-.93-.85-1.16-.75-2.78.13-4.08-.35-.23-.1-.47-.19-.71-.27-1.03-.26-2.08.77-3.09.46-.38,1.02-.66,2.08-.83,3.16-.14,1.24-.22,2.48-.23,3.72,0,.75-.04,1.49,0,2.24.25.04.48.19.62.4.09.25.07.53-.06.76-.74,1.9-1.49,3.82-2.61,5.53.79.47,1.52,1.03,2.19,1.67,1.24,1.31,1.85,3.15,3.19,4.36,1.51,1.36,3.66,1.7,5.66,1.96l5.05.68c.86.16,1.73.19,2.59.09.48-.09.94-.24,1.38-.45.29-.12.55-.29.77-.51.19-.21.34-.45.46-.71.4-.8.76-1.62,1.1-2.45.12-.29.29-.64.61-.66,1.88-1.69,3.65-3.43,5.52-5.12.75-.62,1.43-1.34,2.01-2.12.93-1.38.08-3.33,0-4.99-.01-.43-.06-.85-.16-1.26-.3-1.21-1.02-2.65-2.2-3.01Z"/><path class="cls-6" d="m293.38,167.44c-.28.57-.96.84-1.49,1.2l-1.79,1.23c-.24.22-.56.33-.89.3-.3-.11-.53-.33-.66-.62v-.25c-.01-.29.02-.57.11-.85.18-.4.45-.75.79-1.02.67-.63,1.46-1.11,2.33-1.42.14-.05.28-.07.42-.04.06.01.11.04.16.07.13.14.23.29.32.46.14.29.85.65.7.94Z"/><path class="cls-11" d="m297.6,171.17c-.6-.03-1.09-.46-1.53-.88l-1.34-1.25c-.09-.08-.17-.16-.23-.26-.07-.14-.13-.28-.16-.44-.28-.72-.73-1.35-1.3-1.87-.1-.13-.23-.22-.39-.28-.14-.03-.29-.01-.43.04-.87.3-1.66.78-2.33,1.42-.34.27-.62.62-.79,1.02-.09.27-.13.56-.11.85,0,.94.22,1.86.62,2.7.06.13.13.26.2.39.47.78,1.03,1.51,1.66,2.16l.84.94c.83.93,1.66,1.85,2.56,2.71.32.34.71.62,1.15.8.44.18.95.1,1.32-.21.17-.2.3-.43.38-.67.55-1.42,1.06-2.89,1.09-4.41,0-.61-.02-1.22-.08-1.83-.05-.64-.51-.9-1.11-.93Z"/><path d="m319.06,220.73c-.02,3.56-.27,7.12-.76,10.64-.07.57-.15,1.14-.19,1.71-.12,1.65.07,3.31-.08,4.96-.08.89-.27,1.77-.42,2.64-.69,3.87-.89,7.81-.6,11.73.49,6.52-1.01,13.05-.33,19.56.08,1.27.01,2.54-.21,3.78-.13.77-.31,1.54-.55,2.29-.52,1.77-1.04,3.54-1.56,5.31-.06.27-.18.52-.35.74-.37.32-.85.46-1.33.39-2.04-.06-3.96-.95-5.82-1.81-.21-.08-.41-.2-.58-.35-.39-.4-.35-1.03-.52-1.56s-.63-1.02-.89-1.56c-.22-.51-.35-1.06-.39-1.61-.24-1.81-.4-3.63-.48-5.46-.13-2.57,1.56-4.93,2.12-7.43,1.06-4.91.16-10.18,2.05-14.84.59-1.47-.27-3.26-.35-4.84-.03-1.02-.16-2.04-.4-3.04-.35-1.33-1.1-2.58-1.15-3.96-.04-1,.28-1.97.45-2.96.22-1.45.2-2.92-.06-4.36-.19-1.19-.47-2.38-.76-3.54l-.06.13c-.86,1.69-1.6,3.43-2.22,5.22-.28.87-.53,1.75-.88,2.59-.29.71-.65,1.36-1,2.02-1.26,2.35-2.35,4.78-3.27,7.27-.44,1.22-.82,2.48-1.21,3.71l-2.62,8.5c-.71,2.23-1.48,4.39-2.18,6.62-.98,3.19-1.96,6.34-3.1,9.46-1.06,2.96-2.33,6.02-1.95,9.14-.98.46-2.05.68-3.13.63-1.82-.16-3.61-.6-5.31-1.29-.68-.25-1.38-.53-1.83-1.09-.79-.96-.59-2.36-.35-3.59.09-.55.23-1.09.42-1.61.27-.65.71-1.23.98-1.87.56-1.24.59-2.63.81-3.98.22-1.34.71-2.76,1.85-3.49.19-2.36,1.16-4.68,1.7-6.99.4-1.75.54-3.54.86-5.31s.83-3.54,1.9-4.97c-.08-1.48.25-2.95.96-4.25.17-.28.31-.59.42-.9.07-.31.1-.62.11-.93.12-1.23.64-2.39,1.49-3.28-.35-1.29.14-2.64.58-3.89.56-1.6.81-3.29.74-4.98-.05-.47-.03-.95.07-1.42.1-.35.29-.65.41-.99.1-.42.15-.84.16-1.27.14-1.92.91-3.72,1.77-5.43.51-1,.08-2.35.18-3.47.18-1.85.39-3.76,1.3-5.37.17-.3.35-.59.51-.91.18-.45.28-.93.29-1.42.03-.81.15-1.48-.15-2.24,1.89-1.58,4.48-2.02,6.94-2.12s4.96.12,7.37-.41c.71-.16,1.42-.38,2.16-.48,1.7-.25,3.42.14,5.09.52-.12,1.06.27,2.08.71,3.07,1.7,4,2.59,8.3,2.62,12.64Z"/><path class="cls-6" d="m310.72,221.54l-4.07,9.15c-.19-1.19-.47-2.38-.76-3.54l-.06.13v-.19l2.22-4.87,2.68-.67Z"/><path class="cls-6" d="m322.91,202.43c-.23.18-.51.28-.81.3-.45.02-.9-.05-1.32-.18l-3.19-.8c-.1-.02-.2-.06-.29-.1.05-.56.16-1.2.46-1.42.45-.3,1.79.1,2.3.17.88.12,1.77.26,2.63.43.13.52.21,1.06.22,1.59Z"/><path class="cls-11" d="m325.6,181.37c.07.29.16.58.22.88.1.73.07,1.47-.07,2.19l-.29,2.02-.29,2.04-1.12,7.83-.28,1.94-.39,2.71c-.02.23-.08.45-.17.65-.24.39-.65.64-1.11.65-.45.01-.9-.05-1.32-.18l-3.19-.8c-.14-.02-.27-.08-.39-.16-.2-.19-.28-.48-.21-.75.05-.27.16-.52.2-.79.08-.52-.14-1.06-.06-1.58.08-.33.2-.65.35-.95,1.06-2.35.45-5.09.81-7.64.32-2.01,1.17-3.89,2.46-5.47.79-.99,1.7-1.89,2.71-2.66.4-.31,1.03-.94,1.53-1.06.64-.13.51.67.61,1.12Z"/><path d="m301.49,150.88c-.23.74.13,1.56-.04,2.32-.18.84-.97,1.42-1.19,2.25-.35,1.28.73,2.44,1.52,3.5,2.94,3.94,2.55,9.4,1.55,14.21-.81,3.86-1.93,7.65-3.35,11.33-.44,1.14-.93,2.3-1.8,3.16,1.63-.47,3.36-.94,4.99-.48,2.07.57,3.85,2.58,5.95,2.12,1.26-.28,2.15-1.4,3.28-2.02,2.12-1.14,4.68-.42,7.05-.06.51.12,1.04.09,1.54-.08.38-.2.7-.5.93-.86,1.06-1.36,1.69-2.99,1.82-4.71.11-1.73-.52-3.42-1.74-4.65-.5-.47-1.1-.86-1.49-1.42-.38-.65-.58-1.39-.58-2.15-.28-3.89.67-7.87-.31-11.64-.35-1.34-.93-2.63-1.09-4-.19-1.71.27-3.54-.41-5.1-.53-1.24-1.71-2.12-2.98-2.58s-2.63-.58-3.98-.71c-1.94-.16-8.87-.99-9.68,1.54Z"/><g class="cls-10"><path d="m303.33,173.17c-.8,3.84-1.92,7.62-3.33,11.28.24-.48.45-.99.64-1.5,1.42-3.68,2.54-7.47,3.35-11.33,1.01-4.81,1.39-10.27-1.54-14.21-.71-.94-1.62-1.96-1.59-3.07-.26.33-.47.71-.6,1.11-.35,1.28.73,2.44,1.52,3.5,2.94,3.94,2.55,9.4,1.55,14.21Z"/><path d="m301.5,152.84c.28-.35.5-.76.62-1.19.05-.53.04-1.06-.04-1.58-.27.21-.48.49-.59.81-.21.63.03,1.31,0,1.96Z"/><path d="m322.6,184.73c-.23.36-.56.65-.93.86-.49.17-1.03.2-1.54.08-2.37-.35-4.96-1.08-7.05.06-1.14.62-2.02,1.73-3.28,2.02-2.09.47-3.88-1.54-5.94-2.12-1.47-.41-3.01-.07-4.49.35-.29.63-.69,1.2-1.17,1.69,1.63-.47,3.36-.94,4.99-.48,2.07.57,3.85,2.58,5.95,2.12,1.26-.28,2.15-1.4,3.28-2.02,2.12-1.14,4.68-.42,7.05-.06.51.12,1.04.09,1.54-.08.38-.2.7-.5.93-.86.64-.85,1.14-1.79,1.47-2.8-.24.43-.5.85-.8,1.24Z"/></g></g></svg>