<svg xmlns="http://www.w3.org/2000/svg" xmlns:xlink="http://www.w3.org/1999/xlink" viewBox="0 0 400 300" width="406" height="306" class="illustration styles_illustrationTablet__1DWOa"><defs><linearGradient id="linear-gradient" x1="152.96" y1="251.23" x2="222.49" y2="174.27" gradientUnits="userSpaceOnUse"><stop offset="0" stop-color="#fff" stop-opacity="0"></stop><stop offset="0.99" stop-color="#006837"></stop></linearGradient><linearGradient id="linear-gradient-2" x1="299.21" y1="189.21" x2="288.43" y2="207.69" gradientTransform="matrix(-1, 0, 0, 1, 405.66, 0)" gradientUnits="userSpaceOnUse"><stop offset="0" stop-color="#d46a00"></stop><stop offset="1" stop-color="#fff"></stop></linearGradient></defs><title>0</title><g style="isolation: isolate;"><g id="Layer_2" data-name="Layer 2"><path d="M350.54,174.84l-121-70.38a5.72,5.72,0,0,0-5.72,0L42.83,208a5.72,5.72,0,0,0,0,9.92l115.73,66.82a18.68,18.68,0,0,0,18.68,0l173.3-100A5.72,5.72,0,0,0,350.54,174.84Z" fill="#608a46"></path><polygon points="274.47 203.88 171.13 262.05 102 220.49 205.85 160.31 274.47 203.88" opacity="0.63" fill="url(#linear-gradient)" style="mix-blend-mode: multiply;"></polygon><path d="M213.73,21.48c13.7,8.11,47.59,28.18,57.72,34.06a5.66,5.66,0,0,1,2.82,4.94V199.64c.21,2.84-3,5.46-5.61,4l-57-32.44c-2.29-1.31-3.75-3.16-3.75-5.81V24.8A3.85,3.85,0,0,1,213.73,21.48Z" fill="#3069B2"></path><path d="M208.29,23.13,226.43,33.6v3.87a1.86,1.86,0,0,0,.93,1.61l13.87,8A1.23,1.23,0,0,0,243.07,46V43.21l26,15.27a1.65,1.65,0,0,1,.82,1.42V199a1.12,1.12,0,0,1-1.69,1l-60.33-35a6,6,0,0,0,2.66,5.55c3.13,2,58.09,33.09,58.09,33.09s4.35,2,5.61-3.22V60.49a5.72,5.72,0,0,0-2.36-4.64C269.4,54,213.73,21.48,213.73,21.48A3.94,3.94,0,0,0,208.29,23.13Z" fill="#124577"></path><path d="M114,198.62c1.42,1.32,4.33-3.35,6.1-2.72a30,30,0,0,0,8.47,1.65,12.17,12.17,0,0,0,7.69-1.69,7.91,7.91,0,0,0-.5-13.06l3.14-1.56,10.64,7.4s-.88,15.57-29.64,13.39L86.43,221.08l-8.55-6.46Z" fill="url(#linear-gradient-2)" style="mix-blend-mode: multiply;"></path><path d="M110.5,188.64c0-6,7.22-10.65,16.44-10.65s16.44,4.68,16.44,10.65-7.22,10.65-16.44,10.65S110.5,194.61,110.5,188.64Zm4.71,0c0,2.81,4.82,5.94,11.73,5.94s11.73-3.13,11.73-5.94-4.82-5.94-11.73-5.94S115.21,185.83,115.21,188.64Z" fill="#fff"></path><path d="M115.61,193.08c-.54-.49-23.12,13-23.12,13l-14.61,8.49,3.18,2.46a2.53,2.53,0,0,0,2.81.19L119,196.93Z" fill="#fff"></path><path d="M78.25,208.78l5.93,3.94-3.12,4.36-6.36-4A4.13,4.13,0,0,1,78.25,208.78Z" fill="#fff"></path><path d="M85.3,204.3a3.91,3.91,0,0,1,3-.91L94,207.14l-3.12,4.36-7-4.41A4.27,4.27,0,0,1,85.3,204.3Z" fill="#fff"></path><path d="M133.07,61l-8-4.49s-7.52,7.52-27.69-2c0,0-11.74,23-27.24,34.16,0,0-.91,41.94,22.19,49.71" fill="#3069B2"></path><path d="M133.07,61l-8-4.49s-7.52,7.52-27.69-2c0,0-11.74,23-27.24,34.16,0,0-.91,41.94,22.19,49.71" fill="#124577" opacity="0.51"></path><path d="M77.07,93A107.65,107.65,0,0,0,104.3,58.34,29.55,29.55,0,0,0,133.07,61s-2.57,35.39-10.71,52.75-9.75,20.12-17.29,28.42c0,0-9.48,2.08-17.44-8.68C76.5,118.51,77.07,93,77.07,93Z" fill="#3069B2"></path><path d="M103,110.17q-2.56-4.51-4.92-9.11a3,3,0,0,0-5.2-.31l0,.06a3,3,0,0,0-.19,3.1c1.63,3.15,3.3,6.27,5,9.36C99.66,116.71,105,113.62,103,110.17Z" fill="#fff"></path><path d="M97.93,110.25a321.08,321.08,0,0,0,17.27-30.4c1.76-3.54,7.06-.43,5.3,3.1a321.11,321.11,0,0,1-17.27,30.4C101.11,116.66,95.79,113.59,97.93,110.25Z" fill="#fff"></path><path d="M246.68,122.17s6.68-4.34,6.74-4.39-4.45-3.49-4.45-3.49l-2.64,4.95" fill="#3a270b"></path><polyline points="220.76 69.84 226.72 65.95 228.19 73.82 222.16 72.59" fill="#3a270b"></polyline><path d="M229,65.76a2.12,2.12,0,0,0-3.18,1.79l-.66,33.59a3,3,0,0,0,1.47,2.58l23.63,14.09a3,3,0,0,0,4.55-2.58V82.38a3,3,0,0,0-1.56-2.64Z" fill="#3a270b"></path><path d="M222.67,69.94a2.12,2.12,0,0,0-3.18,1.79l-.66,33.59a3,3,0,0,0,1.47,2.58L243.94,122a3,3,0,0,0,4.55-2.58V86.57a3,3,0,0,0-1.56-2.64Z" fill="#7d0000"></path><ellipse cx="232.61" cy="90.18" rx="5.09" ry="8.08" transform="translate(-6.43 18.77) rotate(-4.56)" fill="#3069B2"></ellipse><rect x="229.98" y="91.31" width="3.84" height="15.95" rx="1.42" ry="1.42" fill="#3069B2"></rect><ellipse cx="245.63" cy="79.32" rx="2.44" ry="1.47" fill="#fff"></ellipse><path d="M238.23,53.33c-11.43-2.75-11.34,10.48-11.34,10.48v4.73a4.89,4.89,0,0,0,.19,2.06,2.76,2.76,0,0,0,2.15.81c.68,0,1.66-.11,2-.73a4.16,4.16,0,0,0,.17-1.79c-.07-1.1-.09-2.21-.05-3.31.07-2.38.28-5.28,1.81-7.23a3.67,3.67,0,0,1,4.27-1.06c5.87,1.95,5.71,9,5.71,9v13h4.88V65.95S247.15,55.47,238.23,53.33Z" fill="#fff"></path><path d="M205.11,123.16a1,1,0,0,0,.15-.55,6.92,6.92,0,0,0-2.18-5.09,2.39,2.39,0,0,0-3.73.68c-1.52,3.11,1.95,6.24,4.73,6.61.77.1,1.08-.55,1-1.16A1.06,1.06,0,0,0,205.11,123.16Z" fill="#fbb5ad"></path><polygon points="202.35 177 196.76 173.89 201.41 186.62 202.35 177" fill="#382624"></polygon><path d="M253.21,102.69a1.43,1.43,0,0,0-.15-.28,2.09,2.09,0,0,0,.65-1.69,1.48,1.48,0,0,0-.58-1,1.08,1.08,0,0,0-1-1.77c-1.57.31-2.61,2.38-3.46,3.6-.62.9-1.21,1.83-1.76,2.78-.1-1.36-.28-2.72-.39-4s-2.09-1.36-2.08,0a19.38,19.38,0,0,1-.63,6.07,2,2,0,0,0-.55.41A49.55,49.55,0,0,1,222,120a2,2,0,0,0,.21,3.75,1.92,1.92,0,0,0,1.38,1.71,2.18,2.18,0,0,0,1,1.45l-1.36.6c-2.23.93-1.25,4.62,1,3.67a54.57,54.57,0,0,0,21.71-16.37c.66-.63,1.31-1.26,2-1.92,1-1,5.85-5.88,4.65-8C252.95,104.17,253.57,103.62,253.21,102.69Z" fill="#fbb5ad"></path><path d="M219.65,80c-2.28.91-4,5.81-3.84,6.84L217.6,86l.32-.35A21.56,21.56,0,0,1,219.65,80Z" fill="#fbb5ad"></path><path d="M220,84a1.32,1.32,0,0,0-.4-.19l-.15-.13c-.89-.69-2.26.2-3.06.65a17,17,0,0,0-2.9,1.94,5.09,5.09,0,0,0-.86,1.87c-.33.81-.68,1.62-1.06,2.41a44.54,44.54,0,0,1-2.66,4.81,45.7,45.7,0,0,1-6.78,8.28c-1.2,1.16.64,3,1.83,1.82l.86-.85a1.1,1.1,0,0,0,1.21,0,4.88,4.88,0,0,0,.6-.48l.28-.23a1.27,1.27,0,0,0,2.09.45l.88-.91a1.14,1.14,0,0,0,.63-.59c0-.06.13,1.76.17,1.71,1.41-1.49,3.07-5.59,4.47-8a.52.52,0,0,1,.09-.33c1.1-1.75.94-2.8,1.08-4.82a19,19,0,0,1,.31-3.46l2.3-1.77c.55-.42,1.15-1.06,1-1.69A1.33,1.33,0,0,0,220,84Z" fill="#fbb5ad"></path><path d="M228.49,116.38c-8.16,2.4-9.55,1.48-13.42,1.36s-8-5.54-8-5.54-1-12.1-8.18-2.63c-5.38,7.07-7.44,27.54-8.14,37.45,2.68,2.13,6.23,2.93,9.58,3.43a41.14,41.14,0,0,0,6.69.56,10,10,0,0,0,4-.87l3.82-17.75c9.76.79,17.27-5,17.27-5Z" fill="#ffc60b"></path><path d="M211,101.85s5.25,10.07.07,12.87-9.25-1.86-9.69-3.07S201,101.11,211,101.85Z" fill="#fbb5ad"></path><path d="M211.37,100.34c-2.67-1.92-5.91-2-9-1.27a13.2,13.2,0,0,0-7,3.66,4.47,4.47,0,0,0-2.26-.77,4.64,4.64,0,0,0-4.64,2.88,4,4,0,0,0,1.58,4.73,5.07,5.07,0,0,0,3.84.35l0,.24c.17,1.9-1.62,2.86-2.32,4.47a3.76,3.76,0,0,0-.28,2.36c.18.8,1,1.65,1,2.45a3.79,3.79,0,0,1-.85,1.69,8.4,8.4,0,0,0-.91,1.76c3.77,2,8.49,2,12.59,1.18,4.35-.9,8.82-2.93,11.76-6.35a3.14,3.14,0,0,0-.79-1.09,11.71,11.71,0,0,0-2.25-1.18c-1.12-.65,0-2.6,0-3.65-.07-1.81-1.39-2.56-2.88-3.18-1.08-.45-1.13-1.11-1.14-2.22a4.16,4.16,0,0,1,.52-2.52,1.4,1.4,0,0,0,.94-.2,7.73,7.73,0,0,1,1.79-.79,1.27,1.27,0,0,0,.77-1.6A1,1,0,0,0,211.37,100.34Z" fill="#56403d"></path><path d="M207.39,104.36a20.29,20.29,0,0,0,4.91-1.73c0-.17.5-6.43-10.62-4.26s-5.85,15.48-5.85,15.48" fill="#56403d"></path><path d="M195.25,242.84c-1-.35-2.51-.62-3.23-1.53s-.64-2.38-.67-3.49,0-2.25,0-3.37a.56.56,0,0,1-.21-.41,20.25,20.25,0,0,1,0-2.75l-4.62-.45s-2.05,7.9-1.92,8.8,4.53,6.9,6.76,7.31,8.44-1.54,9-2.4l0-.08C198.65,244,196.94,243.43,195.25,242.84Z" fill="#fbb5ad"></path><path d="M227.18,226.38c-1.52-.3-7.83.72-7.83.72s-.89-5.15-.76-5.4l-6.57.46s-.83,9.56-.83,10.82c0,2.32,2.87,3,3.5,3a11.29,11.29,0,0,0,1.32-.54,19.08,19.08,0,0,1-.37-3.62c0-.56.15-.95.68-1.15,1-.37,2.77.16,3.76.35,1.18.22,2.34.5,3.51.71,2.59-1.37,4.77-2.67,5-3.21C229,227.14,229.52,226.83,227.18,226.38Z" fill="#fbb5ad"></path><path d="M229.38,226.78l-.16-.18c-.5-.49-1.82-.44-2.44-.46a31,31,0,0,0-7.43,1s6-.81,6.19.26a2.83,2.83,0,0,1-.6,2.46c-2.49,2.21-6.37-.23-8.79-1.27l-4.5-1.94-.29,3.66s-.31,4.52,0,5,3,1.92,3.54,1.63,2.32-1.33,2.32-1.33l-.35-4.42s3.72,1.61,5.47,1.15C223.65,232,230.93,228.86,229.38,226.78Z" fill="#56403d"></path><path d="M208.19,224.74c5.84,1.11,12,.09,16.42-3.89.1-9.73,1-18.51.71-28.23-.46-15.87-2.77-31.45-13.91-43.83l-20.28-3.11c-8.23,15.65-9.91,87.27-9.91,87.27s10.25,6.62,18.19,3.43l3-59.68s5.37,6.36,6.35,9.91C209.51,189.18,208.06,212.75,208.19,224.74Z" fill="#eb6f24"></path><path d="M188.53,239.74s2.42,7.55,3.29,8,10.16-2.47,8.78-4.24c-.89-1.13-6.49-1.11-7-1.26,0,0,2.95,1,2.95,1.43s-3.71,2.19-3.9,1.84-4.23-7-4.23-7l-3.8-1.34-3.13,6.95,2.65,1.14s.81,2.11,1.08,2.11,2.43-3.9,2.43-3.9.54,2.49.92,2.76,3.46,2.81,4.87.87l-2.6-2.92" fill="#56403d"></path><polyline points="181.5 244.2 181.98 245.93 185.23 247.45 185.23 244.2 183.36 243.55" fill="#56403d"></polyline><ellipse cx="221.75" cy="150.16" rx="2.85" ry="4.18" transform="matrix(0.98, -0.19, 0.19, 0.98, -24.41, 44.69)" fill="#507282"></ellipse><ellipse cx="231.36" cy="155.29" rx="2.85" ry="4.18" transform="translate(-25.21 46.6) rotate(-10.91)" fill="#507282"></ellipse><ellipse cx="240.59" cy="160.31" rx="2.85" ry="4.18" transform="matrix(0.98, -0.19, 0.19, 0.98, -25.99, 48.44)" fill="#507282"></ellipse><ellipse cx="249.82" cy="165.31" rx="2.85" ry="4.18" transform="matrix(0.98, -0.19, 0.19, 0.98, -26.77, 50.27)" fill="#507282"></ellipse></g></g></svg>