<?xml version="1.0" encoding="UTF-8"?><svg id="Ebene_2" xmlns="http://www.w3.org/2000/svg" viewBox="0 0 377.57 322.15"><defs><style>.cls-1{fill:#413e56;}.cls-2{fill:#535168;}.cls-3{fill:#e5e5e4;}.cls-3,.cls-4{opacity:.4;}.cls-5{fill:#314156;}.cls-4{fill:#e4e4e3;}.cls-6{fill:#3069b2;}.cls-7{fill:#111110;}.cls-8{fill:#f6b5b7;}.cls-9{fill:#f2f2f2;opacity:.2;}.cls-10{fill:#949fb8;}</style></defs><g id="Ebene_1-2"><path id="a24dc8e0-63f3-4c57-9da7-8d00cfa1aebe-963" class="cls-9" d="m175.79,294.84c4.45,1.56,9.4.69,13.05-2.3,4.57-3.84,6-10.15,7.17-16l3.45-17.31-7.22,4.97c-5.19,3.57-10.5,7.26-14.09,12.44s-5.16,12.25-2.28,17.85"/><path id="bc8b2ee0-9ec2-4139-a7e3-e0b1b1382397-964" class="cls-2" d="m176.9,317c-.91-6.62-1.84-13.33-1.2-20.02.57-5.94,2.38-11.74,6.07-16.5,1.96-2.52,4.34-4.68,7.04-6.38.7-.44,1.35.67.65,1.11-4.67,2.95-8.29,7.32-10.33,12.46-2.25,5.72-2.61,11.95-2.22,18.02.23,3.67.73,7.32,1.23,10.97.08.34-.12.69-.45.79-.34.09-.7-.11-.79-.45h0Z"/><path id="a6bcb68f-fec1-4497-88cc-56de52c10faf-965" class="cls-9" d="m183.44,306.37c1.91,2.9,5.19,4.6,8.67,4.47,4.39-.21,8.05-3.27,11.34-6.18l9.74-8.6-6.44-.31c-4.63-.22-9.39-.43-13.8,1s-8.49,4.87-9.29,9.44"/><path id="a1650e23-bf32-4c95-848c-aacb59e17a01-966" class="cls-2" d="m174.34,320.8c4.37-7.74,9.45-16.34,18.51-19.09,2.52-.76,5.16-1.03,7.79-.8.83.07.62,1.35-.2,1.27-4.4-.37-8.79.8-12.43,3.29-3.5,2.39-6.23,5.7-8.54,9.22-1.41,2.15-2.68,4.4-3.95,6.64-.4.72-1.59.2-1.18-.53Z"/><path class="cls-5" d="m319.54,226.98H0V0h319.54v226.98Z"/><path class="cls-6" d="m26.03,93.23c-1.72,0-3.11,1.4-3.11,3.12,0,1.72,1.39,3.11,3.11,3.11h107.91c1.72,0,3.11-1.4,3.11-3.12,0-1.71-1.39-3.1-3.11-3.11H26.03Z"/><path class="cls-6" d="m26.03,111.91c-1.72,0-3.12,1.38-3.12,3.1,0,1.72,1.38,3.12,3.1,3.12,0,0,0,0,0,0h108c1.72,0,3.12-1.39,3.12-3.11,0-1.72-1.39-3.12-3.11-3.12H26.03Z"/><path class="cls-6" d="m26.03,130.32c-1.72,0-3.12,1.38-3.12,3.1,0,1.72,1.38,3.12,3.1,3.12,0,0,0,0,0,0h24.3c1.72,0,3.12-1.39,3.12-3.11,0-1.72-1.39-3.12-3.11-3.12h-24.3Z"/><path class="cls-3" d="m319.54,226.98H0V0h319.54v226.98ZM5.25,221.73h309.03V5.25H5.25v216.48Z"/><path class="cls-4" d="m218.99,177.11c-3.09,0-5.6,2.5-5.61,5.59,0,3.09,2.49,5.6,5.59,5.61h53.48c3.09,0,5.6-2.5,5.61-5.6,0-3.09-2.5-5.6-5.6-5.61h-53.46Z"/><path class="cls-4" d="m218.99,109.29c-3.09,0-5.6,2.5-5.61,5.59,0,3.09,2.49,5.6,5.59,5.61h53.48c3.09,0,5.6-2.5,5.61-5.6,0-3.09-2.5-5.6-5.6-5.61h-53.46Z"/><path class="cls-4" d="m26.03,179.7c-1.72,0-3.12,1.38-3.12,3.1,0,1.72,1.38,3.12,3.1,3.12,0,0,0,0,0,0h108c1.72,0,3.12-1.39,3.12-3.11,0-1.72-1.39-3.12-3.11-3.12H26.03Z"/><path class="cls-4" d="m26.03,198.12c-1.72,0-3.12,1.38-3.12,3.1,0,1.72,1.38,3.12,3.1,3.12h24.31c1.72,0,3.12-1.39,3.12-3.11,0-1.72-1.39-3.12-3.11-3.12h-24.3Z"/><path class="cls-4" d="m26.03,161.02c-1.72,0-3.11,1.4-3.11,3.12,0,1.72,1.39,3.11,3.11,3.11h107.91c1.72,0,3.11-1.4,3.11-3.12,0-1.71-1.39-3.1-3.11-3.11H26.03Z"/><path class="cls-4" d="m26.03,25.43c-1.72,0-3.11,1.39-3.11,3.11s1.39,3.11,3.11,3.11h107.91c1.72,0,3.11-1.4,3.11-3.12,0-1.72-1.39-3.1-3.11-3.11H26.03Z"/><path class="cls-4" d="m26.03,44.11c-1.72,0-3.12,1.39-3.12,3.11,0,1.72,1.39,3.12,3.11,3.12h108c1.72,0,3.11-1.39,3.11-3.11s-1.39-3.11-3.11-3.11H26.03Z"/><path class="cls-4" d="m26.03,62.52c-1.72,0-3.12,1.38-3.12,3.1,0,1.72,1.38,3.12,3.1,3.12,0,0,0,0,0,0h24.3c1.72,0,3.12-1.39,3.12-3.11,0-1.72-1.39-3.12-3.11-3.12h-24.3Z"/><path class="cls-4" d="m218.99,41.52c-3.09,0-5.6,2.5-5.61,5.59,0,3.09,2.49,5.6,5.59,5.61h53.48c3.09,0,5.6-2.5,5.61-5.6,0-3.09-2.5-5.6-5.6-5.61h-53.46Z"/><circle class="cls-10" cx="230.26" cy="47.06" r="10.04"/><path class="cls-8" d="m247.81,117.32c-.42,3.05,1.71,5.86,4.75,6.28.32.04.65.06.98.05l5.33,11.55,7.81-1.53-7.76-16.21c-.33-3.07-3.08-5.3-6.16-4.98-2.57.27-4.62,2.27-4.96,4.84h0Z"/><polygon class="cls-7" points="301.84 161.03 280.08 150.26 264.73 124.2 253.99 129.39 267.92 159.5 303.11 179.81 301.84 161.03"/><polygon class="cls-8" points="252.72 315.09 245.87 315.09 242.62 295.37 252.72 295.37 252.72 315.09"/><path d="m254.46,321.72h-22.06v-.28c0-4.74,3.84-8.59,8.59-8.59h13.47s0,8.87,0,8.87Z"/><polygon class="cls-8" points="321 302.54 316.23 307.45 299.83 296.02 306.87 288.78 321 302.54"/><path d="m326.97,305.92l-15.39,15.8-.2-.19c-3.4-3.31-3.47-8.74-.16-12.14h0s9.4-9.65,9.4-9.65l6.35,6.19Z"/><path d="m261.17,197.71h-4.73c-12.3,13.44-21.69,29.28-27.58,46.52l-5.65,16.55,20.14,42.18,12.57.22-14.37-44.78,14.47-19.19.73,38.59,46.59,24.42,9.32-13.77-37.91-20.73,6.46-32.82s12.99-10.83,5.43-27.77l-25.47-9.41Z"/><path class="cls-7" d="m323.44,154.76l-19.66-8.61-21.64,9.59s-6.13,3.49-2.22,12.41l-23.48,29.56s.04.01,29.55,9.41l26.62-23.44c8.21-7.23,12.27-18.08,10.83-28.92h0Z"/><circle class="cls-8" cx="320.14" cy="132.19" r="13.7"/><path d="m337.89,114c-3.15-2.56-8.02-3.12-11.27-.69-5.66-2.97-13.32-1.42-17.38,3.52-1.46,1.78-2.5,4.18-1.77,6.37.72,2.18,3.84,3.47,5.46,1.84l-.03.67c4.25,4.25,4.24,11.14-.01,15.38-1.81,1.81-4.2,2.92-6.75,3.14,4.49,1.81,8.98,3.63,13.47,5.44,1.89.76,3.84,1.54,5.88,1.53s4.21-1,5-2.88c.57,1.74,1.14,3.49,1.71,5.23,3.35-5.33,6.1-11,8.21-16.93,1.36-3.82,2.46-7.81,2.31-11.87-.15-4.05-1.69-8.2-4.83-10.76Z"/><circle class="cls-10" cx="230.26" cy="182.66" r="10.04"/><circle class="cls-6" cx="261.51" cy="114.89" r="10.04"/><path class="cls-8" d="m261.76,111.74c-.42,3.05,1.71,5.86,4.75,6.28.32.04.65.06.98.05l5.33,11.55,7.81-1.53-7.76-16.21c-.33-3.07-3.08-5.3-6.16-4.98-2.57.27-4.62,2.27-4.96,4.84h0Z"/><polygon class="cls-7" points="315.79 155.45 294.03 144.68 278.68 118.62 267.94 123.81 281.87 153.92 317.06 174.23 315.79 155.45"/><path class="cls-1" d="m377.01,322.15h-212.59c-.31,0-.56-.25-.56-.56s.25-.56.56-.56h212.59c.31,0,.56.25.56.56s-.25.56-.56.56Z"/></g></svg>