<svg id="Layer_2" data-name="Layer 2" xmlns="http://www.w3.org/2000/svg" xmlns:xlink="http://www.w3.org/1999/xlink" viewBox="0 0 400 300" width="406" height="306" class="illustration styles_illustrationTablet__1DWOa"><defs><linearGradient id="linear-gradient" x1="268.38" y1="249.8" x2="225.92" y2="177.01" gradientUnits="userSpaceOnUse"><stop offset="0" stop-color="#ff9f9f"></stop><stop offset="1" stop-color="#e36953"></stop></linearGradient><linearGradient id="linear-gradient-2" x1="207.38" y1="283.23" x2="179.52" y2="235.47" xlink:href="#linear-gradient"></linearGradient><linearGradient id="linear-gradient-3" x1="102.12" y1="203.14" x2="85.73" y2="175.02" xlink:href="#linear-gradient"></linearGradient></defs><title>PP</title><path d="M194.28,291.14,14.56,184.93C8.84,181.71,3.93,176.44,9.51,173L189.88,69c2.71-1.68,6.82-2.78,9.57-1.18L388.11,177.34c5.72,3.32,6.75,12.6,1,15.93L218,291A23.9,23.9,0,0,1,194.28,291.14Z" fill="#ff9f9f"></path><polyline points="199.19 197.73 277.56 244.44 297.23 232.72 217.83 181.72" fill="url(#linear-gradient)"></polyline><polyline points="159.43 252.33 207.76 283.01 229.04 269.06 178.07 236.32" fill="url(#linear-gradient-2)"></polyline><polyline points="64.61 187.34 95.25 205.06 123.24 190.81 92.34 171.59" fill="url(#linear-gradient-3)"></polyline><ellipse cx="76.41" cy="175.4" rx="20.67" ry="14.55" fill="#206bc4"></ellipse><ellipse cx="76.42" cy="166.8" rx="15.48" ry="6.34" fill="#974c26"></ellipse><path d="M77.45,167c1.22-1.71,2.44-3.5,3.72-5.51,1.64-2.57,3.17-5.2,4.57-7.9a52.16,52.16,0,0,0,3.34-7.48,62.46,62.46,0,0,0,2.45-8.58c.16-.76.29-1.53.43-2.3.06-.36.07-.31.07-.26s0-.25.05-.67c.14-1.57.24-3.13.26-4.7a39.52,39.52,0,0,0-3.07-15.83,68.24,68.24,0,0,0-11,27q-.16.87-.3,1.74s-.16,1.06-.22,1.48-.15,1.34-.17,1.46q-.11,1.11-.2,2.22c-.23,2.85-.33,5.71-.32,8.57C77,159.81,77.17,163.39,77.45,167ZM84,124.23q.56-.64,1.16-1.24h0a2.57,2.57,0,0,0-.07,1.11A3.54,3.54,0,0,0,84,124.23Z" fill="#999a1c"></path><path d="M77.84,167.21c.1-2.09.16-4.27.15-6.64,0-3-.14-6.09-.42-9.12a52.16,52.16,0,0,0-1.23-8.1,62.46,62.46,0,0,0-2.58-8.54c-.28-.73-.58-1.45-.89-2.17-.14-.33-.11-.3-.09-.26l-.31-.59c-.73-1.39-1.48-2.76-2.32-4.09A39.52,39.52,0,0,0,59,116.06a68.24,68.24,0,0,0,5.31,28.71q.33.82.68,1.63l.62,1.37.65,1.32q.5,1,1,2c1.35,2.52,2.81,5,4.36,7.39C73.6,161.45,75.68,164.36,77.84,167.21Zm-17.55-39.5q.13-.84.3-1.67h0a2.58,2.58,0,0,0,.54,1A3.54,3.54,0,0,0,60.29,127.71Z" fill="#999a1c"></path><path d="M77.94,168.3c-.62-1.16-1.29-2.35-2.06-3.63-1-1.64-2-3.24-3.17-4.79a32.8,32.8,0,0,0-3.28-4,39.28,39.28,0,0,0-4.15-3.78c-.39-.3-.78-.59-1.18-.88-.18-.13-.16-.13-.13-.11l-.36-.22c-.84-.51-1.69-1-2.57-1.46a24.85,24.85,0,0,0-9.78-2.69A42.92,42.92,0,0,0,63.4,160.55l.89.66.77.54.78.5L67,163q2.31,1.39,4.74,2.58C73.79,166.57,75.86,167.47,77.94,168.3ZM55.72,152.65q-.2-.5-.38-1h0a1.62,1.62,0,0,0,.6.35A2.23,2.23,0,0,0,55.72,152.65Z" fill="#999a1c"></path><path d="M77.45,167c1.22-1.71,2.44-3.5,3.72-5.51,1.64-2.57,3.17-5.2,4.57-7.9a52.16,52.16,0,0,0,3.34-7.48,62.46,62.46,0,0,0,2.45-8.58c.16-.76.29-1.53.43-2.3.06-.36.07-.31.07-.26s0-.25.05-.67c.14-1.57.24-3.13.26-4.7a39.52,39.52,0,0,0-3.07-15.83,68.24,68.24,0,0,0-11,27q-.16.87-.3,1.74s-.16,1.06-.22,1.48-.15,1.34-.17,1.46q-.11,1.11-.2,2.22c-.23,2.85-.33,5.71-.32,8.57C77,159.81,77.17,163.39,77.45,167ZM84,124.23q.56-.64,1.16-1.24h0a2.57,2.57,0,0,0-.07,1.11A3.54,3.54,0,0,0,84,124.23Z" fill="#999a1c"></path><path d="M77.84,167.21c.1-2.09.16-4.27.15-6.64,0-3-.14-6.09-.42-9.12a52.16,52.16,0,0,0-1.23-8.1,62.46,62.46,0,0,0-2.58-8.54c-.28-.73-.58-1.45-.89-2.17-.14-.33-.11-.3-.09-.26l-.31-.59c-.73-1.39-1.48-2.76-2.32-4.09A39.52,39.52,0,0,0,59,116.06a68.24,68.24,0,0,0,5.31,28.71q.33.82.68,1.63l.62,1.37.65,1.32q.5,1,1,2c1.35,2.52,2.81,5,4.36,7.39C73.6,161.45,75.68,164.36,77.84,167.21Zm-17.55-39.5q.13-.84.3-1.67h0a2.58,2.58,0,0,0,.54,1A3.54,3.54,0,0,0,60.29,127.71Z" fill="#999a1c"></path><path d="M77.94,168.3c-.62-1.16-1.29-2.35-2.06-3.63-1-1.64-2-3.24-3.17-4.79a32.8,32.8,0,0,0-3.28-4,39.28,39.28,0,0,0-4.15-3.78c-.39-.3-.78-.59-1.18-.88-.18-.13-.16-.13-.13-.11l-.36-.22c-.84-.51-1.69-1-2.57-1.46a24.85,24.85,0,0,0-9.78-2.69A42.92,42.92,0,0,0,63.4,160.55l.89.66.77.54.78.5L67,163q2.31,1.39,4.74,2.58C73.79,166.57,75.86,167.47,77.94,168.3ZM55.72,152.65q-.2-.5-.38-1h0a1.62,1.62,0,0,0,.6.35A2.23,2.23,0,0,0,55.72,152.65Z" fill="#999a1c"></path><polyline points="190.9 10.44 183.65 13.65 190.62 16.71 192.3 13.11" fill="#ef7f6c"></polyline><path d="M257,223.55l-60.26-35.12a16.07,16.07,0,0,1-8-13.88L186.81,15c0-4.19,6.5-6.31,10.1-4.19l62.35,36.82a10.33,10.33,0,0,1,5.08,8.89V219.33A4.88,4.88,0,0,1,257,223.55Z" fill="#ef7f6c"></path><polyline points="261.82 223.59 253.94 227.76 254.86 222.26 260.33 221.28" fill="#ef7f6c"></polyline><path d="M249.44,227.54l-60.26-35.12a16.07,16.07,0,0,1-8-13.88v-161a4.27,4.27,0,0,1,6.44-3.67L251.7,51.67a10.33,10.33,0,0,1,5.08,8.89V223.33A4.88,4.88,0,0,1,249.44,227.54Z" fill="#f4f4f4"></path><polygon points="252.96 70.4 184.3 31.03 184.3 171.9 252.96 211.59 252.96 70.4" fill="#fff"></polygon><ellipse cx="212.23" cy="197.61" rx="3.17" ry="4.27" transform="translate(-40.08 54.68) rotate(-13.43)" fill="#bababc"></ellipse><path d="M209.67,37.8h0a1.53,1.53,0,0,0,.77,1.33l13.26,7.62a1.53,1.53,0,0,0,2.3-1.33V45.1a1.53,1.53,0,0,0-.79-1.34l-13.26-7.3A1.53,1.53,0,0,0,209.67,37.8Z" fill="#ccc"></path><ellipse cx="203.57" cy="33.75" rx="1.5" ry="2.05" transform="translate(0.94 72.75) rotate(-20.31)" fill="#ccc"></ellipse><path d="M289.52,110.05c-.11.21-.64,2.23-1.06,1.81s-2.65.54-2.65.54l-6.23-7.92.83-2.59H286" fill="#206bc4"></path><path d="M259.43,75.91l-.59-2.06-6.55-3.57V59.13c0-.22,6.34,3.72,6.34,3.72l.3-.62a15,15,0,0,1,1.92-4.82l-4.61-8.52,5.86-4.45,4.38,8.78,0,0a10,10,0,0,1,4.83.09V44.89l8.38,4.65v8.81a37.08,37.08,0,0,1,4.47,5.15l5.05-3.23L295,71.14l-4.52,3.6.39,1.82a49.78,49.78,0,0,1,1.4,5.87l6.72,3.7V97.24l-6.4-3.82a14.4,14.4,0,0,1-2.07,5.7l4.8,8.14-6.08,4.6-4.27-8.38h-5.31v8.38l-8-4.87V98.75a33,33,0,0,1-4.83-6L262,96.06,256.18,85,261,81.41l-.47-1.66C260.09,78.46,259.73,77.18,259.43,75.91Z" fill="#206bc4"></path><polyline points="244.23 63.77 251.65 59.29 253.49 62.03 250.63 68.03" fill="#206bc4"></polyline><polyline points="253.93 100.71 259.41 98.43 259.41 95.11" fill="#206bc4"></polyline><polygon points="271.56 116.5 279.61 111.86 277.57 105.77 270.32 107.9 271.56 116.5" fill="#206bc4"></polygon><polygon points="262.09 44.43 254.03 49.08 258.46 57.88 263.29 57.97 264.41 49.08 262.09 44.43" fill="#206bc4"></polygon><ellipse cx="267.02" cy="82.87" rx="3.63" ry="6.25" transform="translate(-11.81 103.4) rotate(-21.45)" fill="#206bc4"></ellipse><polygon points="279.72 49.54 271.67 54.18 263.29 49.53 271.34 44.89 279.72 49.54" fill="#206bc4"></polygon><polygon points="281.19 64.92 289.25 60.28 294.95 71.14 286.9 75.78 281.19 64.92" fill="#206bc4"></polygon><polygon points="295.27 107.26 287.22 111.9 281.14 116.5 289.19 111.86 295.27 107.26" fill="#206bc4"></polygon><path d="M289.52,110.05c-.11.21-.64,2.23-1.06,1.81s-2.65.54-2.65.54l-6.23-7.92.83-2.59H286" fill="#053855" opacity="0.44"></path><path d="M259.43,75.91l-.59-2.06-6.55-3.57V59.13c0-.22,6.34,3.72,6.34,3.72l.3-.62a15,15,0,0,1,1.92-4.82l-4.61-8.52,5.86-4.45,4.38,8.78,0,0a10,10,0,0,1,4.83.09V44.89l8.38,4.65v8.81a37.08,37.08,0,0,1,4.47,5.15l5.05-3.23L295,71.14l-4.52,3.6.39,1.82a49.78,49.78,0,0,1,1.4,5.87l6.72,3.7V97.24l-6.4-3.82a14.4,14.4,0,0,1-2.07,5.7l4.8,8.14-6.08,4.6-4.27-8.38h-5.31v8.38l-8-4.87V98.75a33,33,0,0,1-4.83-6L262,96.06,256.18,85,261,81.41l-.47-1.66C260.09,78.46,259.73,77.18,259.43,75.91Z" fill="#206bc4"></path><polyline points="244.23 63.77 251.65 59.29 253.49 62.03 250.63 68.03" fill="#053855" opacity="0.44"></polyline><polyline points="253.93 100.71 259.41 98.43 259.41 95.11" fill="#206bc4"></polyline><polygon points="271.56 116.5 279.61 111.86 277.57 105.77 270.32 107.9 271.56 116.5" fill="#206bc4"></polygon><polygon points="262.09 44.43 254.03 49.08 258.46 57.88 263.29 57.97 264.41 49.08 262.09 44.43" fill="#206bc4"></polygon><ellipse cx="267.02" cy="82.87" rx="3.63" ry="6.25" transform="translate(-11.81 103.4) rotate(-21.45)" fill="#206bc4"></ellipse><polygon points="281.19 64.92 289.25 60.28 294.95 71.14 286.9 75.78 281.19 64.92" fill="#206bc4"></polygon><polygon points="295.27 107.26 287.22 111.9 281.14 116.5 289.19 111.86 295.27 107.26" fill="#206bc4"></polygon><path d="M259.43,75.91l-.59-2.06-6.55-3.57V59.13c0-.22,6.34,3.72,6.34,3.72l.3-.62a15,15,0,0,1,1.92-4.82l-4.61-8.52,5.86-4.45,4.38,8.78,0,0a10,10,0,0,1,4.83.09V44.89l8.38,4.65v8.81a37.08,37.08,0,0,1,4.47,5.15l5.05-3.23L295,71.14l-4.52,3.6.39,1.82a49.78,49.78,0,0,1,1.4,5.87l6.72,3.7V97.24l-6.4-3.82a14.4,14.4,0,0,1-2.07,5.7l4.8,8.14-6.08,4.6-4.27-8.38h-5.31v8.38l-8-4.87V98.75a33,33,0,0,1-4.83-6L262,96.06,256.18,85,261,81.41l-.47-1.66C260.09,78.46,259.73,77.18,259.43,75.91Z" fill="#053855" opacity="0.44"></path><polyline points="253.93 100.71 259.41 98.43 259.41 95.11" fill="#053855" opacity="0.1"></polyline><polygon points="271.56 116.5 279.61 111.86 277.57 105.77 270.32 107.9 271.56 116.5" fill="#053855" opacity="0.1"></polygon><ellipse cx="267.02" cy="82.87" rx="3.63" ry="6.25" transform="translate(-11.81 103.4) rotate(-21.45)" fill="#053855" opacity="0.1"></ellipse><polygon points="281.19 64.92 289.25 60.28 294.95 71.14 286.9 75.78 281.19 64.92" fill="#053855" opacity="0.1"></polygon><polygon points="295.27 107.26 287.22 111.9 281.14 116.5 289.19 111.86 295.27 107.26" fill="#053855" opacity="0.1"></polygon><polyline points="253.93 100.71 259.41 98.43 259.41 95.11" fill="#053855" opacity="0.1"></polyline><polygon points="271.56 116.5 279.61 111.86 277.57 105.77 270.32 107.9 271.56 116.5" fill="#053855" opacity="0.44"></polygon><path d="M251.37,80.56l-.59-2.06-6.55-3.57V63.77c0-.22,6.34,3.72,6.34,3.72l.3-.62a15,15,0,0,1,1.92-4.82l-4.61-8.52L254,49.08l4.38,8.78,0,0a10,10,0,0,1,4.83.09V49.54l8.38,4.65V63a37.08,37.08,0,0,1,4.47,5.15l5.05-3.23,5.71,10.86-4.52,3.6.39,1.82a49.78,49.78,0,0,1,1.4,5.87l6.72,3.7v11.12l-6.4-3.82a14.4,14.4,0,0,1-2.07,5.7l4.8,8.14-6.08,4.6-4.27-8.38h-5.31v8.38l-8-4.87V103.4a33,33,0,0,1-4.83-6l-4.81,3.29-5.8-11.09,4.82-3.56-.47-1.66C252,83.1,251.67,81.82,251.37,80.56Z" fill="#206bc4"></path><ellipse cx="267.02" cy="82.87" rx="3.63" ry="6.25" transform="translate(-11.81 103.4) rotate(-21.45)" fill="#053855" opacity="0.44"></ellipse><polygon points="295.27 107.26 287.22 111.9 281.14 116.5 289.19 111.86 295.27 107.26" fill="#053855" opacity="0.44"></polygon><polygon points="279.72 49.54 271.67 54.18 263.29 49.53 271.34 44.89 279.72 49.54" fill="#206bc4"></polygon><polygon points="279.72 49.51 271.69 54.18 263.29 49.57 271.33 44.89 279.72 49.51" fill="#053855" opacity="0.44"></polygon><polygon points="298.94 86.12 290.89 90.77 290.89 101.88 298.94 97.24 298.94 86.12" fill="#206bc4"></polygon><polygon points="298.94 86.12 290.89 90.77 290.89 101.88 298.94 97.24 298.94 86.12" fill="#053855" opacity="0.44"></polygon><polygon points="232.21 126.44 232.21 168.1 223.57 163.05 223.49 121.41 232.21 126.44" fill="#5fad00"></polygon><polygon points="217.7 111.06 217.85 160.02 208.8 154.76 208.8 106.03 217.7 111.06" fill="#f8997c"></polygon><polygon points="203.08 97.81 203.22 151.84 195.16 147.16 195.16 92.99 203.08 97.81" fill="#ffe427"></polygon><path d="M231.45,173.21v0a2,2,0,0,1-3,1.73l-37.11-21.19a2,2,0,0,1-1-1.73h0a2,2,0,0,1,3-1.73l37.11,21.14A2,2,0,0,1,231.45,173.21Z" fill="#ffe427"></path><path d="M239.53,91.89v15a2.11,2.11,0,0,1-3.16,1.83L195.53,85.15a2.11,2.11,0,0,1-1.05-1.83v-15a2.11,2.11,0,0,1,3.16-1.83l40.84,23.58A2.11,2.11,0,0,1,239.53,91.89Z" fill="#ffe427"></path><ellipse cx="230.39" cy="95.67" rx="5.33" ry="6.66" transform="translate(-18.14 74.17) rotate(-17.61)" fill="#fff"></ellipse><path d="M223.86,86.51,200,73.14c-.84-.47-1.6.82-.76,1.3L223.11,87.8c.84.47,1.6-.82.76-1.3Z" fill="#7f47dd"></path><path d="M223,92.34,208.14,84c-.84-.47-1.6.82-.76,1.3l14.84,8.31c.84.47,1.6-.82.76-1.3Z" fill="#7f47dd"></path><path d="M189.86,88.13V46.22a5.07,5.07,0,0,0-2.47-4.35L160.71,25.93a3.2,3.2,0,0,0-4.83,2.74V70.55a5.4,5.4,0,0,0,2.79,4.72l27.77,14.91A2.33,2.33,0,0,0,189.86,88.13Z" fill="#206bc4"></path><path d="M167.14,42.07c5.73-1.82,12.15,2.86,14.63,10.64A17.72,17.72,0,0,1,182,63.14c-1,3.41-3.21,5.79-6.08,6.7a8.27,8.27,0,0,1-2.51.39,10.38,10.38,0,0,1-6.32-2.36,17.72,17.72,0,0,1-5.8-8.67C158.85,51.41,161.41,43.89,167.14,42.07Z" fill="#fff"></path><path d="M171.54,41.88s0,14.43,0,14.43L160.94,49.1S163,40.38,171.54,41.88Z" fill="#f8997c"></path><path d="M171.54,56.31l-10.74.89s-1.35-4.64.14-8.11Z" fill="#5fad00"></path><path d="M311.81,173.94c-.09.17-.52,1.8-.86,1.46s-2.15.43-2.15.43l-5-6.41.67-2.09H309" fill="#206bc4"></path><path d="M287.46,146.31l-.47-1.66-5.3-2.89v-9c0-.18,5.13,3,5.13,3l.24-.5a12.12,12.12,0,0,1,1.56-3.9l-3.73-6.89,4.74-3.61,3.55,7.11,0,0a8.07,8.07,0,0,1,3.91.07v-6.83l6.78,3.76v7.13a30,30,0,0,1,3.62,4.17l4.09-2.61,4.62,8.79-3.66,2.91.31,1.47a40.29,40.29,0,0,1,1.13,4.75l5.44,3v9l-5.18-3.09a11.66,11.66,0,0,1-1.67,4.61l3.88,6.59-4.92,3.72-3.46-6.78h-4.3v6.78l-6.47-3.94V164.8a26.74,26.74,0,0,1-3.91-4.84l-3.89,2.66-4.7-9,3.9-2.88-.38-1.35C288,148.37,287.7,147.34,287.46,146.31Z" fill="#206bc4"></path><polyline points="275.16 136.49 281.16 132.86 282.65 135.08 280.33 139.93" fill="#206bc4"></polyline><polyline points="283.01 166.38 287.44 164.54 287.44 161.85" fill="#206bc4"></polyline><polygon points="297.28 179.16 303.79 175.41 302.14 170.47 296.28 172.2 297.28 179.16" fill="#206bc4"></polygon><polygon points="289.61 120.84 283.1 124.59 286.67 131.72 290.58 131.79 291.49 124.59 289.61 120.84" fill="#206bc4"></polygon><ellipse cx="293.61" cy="151.94" rx="2.94" ry="5.06" transform="translate(-35.23 117.91) rotate(-21.45)" fill="#206bc4"></ellipse><polygon points="303.88 124.97 297.37 128.73 290.58 124.97 297.1 121.21 303.88 124.97" fill="#206bc4"></polygon><polygon points="305.08 137.42 311.59 133.66 316.21 142.45 309.69 146.21 305.08 137.42" fill="#206bc4"></polygon><polygon points="316.47 171.68 309.95 175.44 305.03 179.16 311.55 175.41 316.47 171.68" fill="#206bc4"></polygon><path d="M311.81,173.94c-.09.17-.52,1.8-.86,1.46s-2.15.43-2.15.43l-5-6.41.67-2.09H309" fill="#053855" opacity="0.44"></path><path d="M287.46,146.31l-.47-1.66-5.3-2.89v-9c0-.18,5.13,3,5.13,3l.24-.5a12.12,12.12,0,0,1,1.56-3.9l-3.73-6.89,4.74-3.61,3.55,7.11,0,0a8.07,8.07,0,0,1,3.91.07v-6.83l6.78,3.76v7.13a30,30,0,0,1,3.62,4.17l4.09-2.61,4.62,8.79-3.66,2.91.31,1.47a40.29,40.29,0,0,1,1.13,4.75l5.44,3v9l-5.18-3.09a11.66,11.66,0,0,1-1.67,4.61l3.88,6.59-4.92,3.72-3.46-6.78h-4.3v6.78l-6.47-3.94V164.8a26.74,26.74,0,0,1-3.91-4.84l-3.89,2.66-4.7-9,3.9-2.88-.38-1.35C288,148.37,287.7,147.34,287.46,146.31Z" fill="#206bc4"></path><polyline points="275.16 136.49 281.16 132.86 282.65 135.08 280.33 139.93" fill="#053855" opacity="0.44"></polyline><polyline points="283.01 166.38 287.44 164.54 287.44 161.85" fill="#206bc4"></polyline><polygon points="297.28 179.16 303.79 175.41 302.14 170.47 296.28 172.2 297.28 179.16" fill="#206bc4"></polygon><polygon points="289.61 120.84 283.1 124.59 286.67 131.72 290.58 131.79 291.49 124.59 289.61 120.84" fill="#206bc4"></polygon><ellipse cx="293.61" cy="151.94" rx="2.94" ry="5.06" transform="translate(-35.23 117.91) rotate(-21.45)" fill="#206bc4"></ellipse><polygon points="305.08 137.42 311.59 133.66 316.21 142.45 309.69 146.21 305.08 137.42" fill="#206bc4"></polygon><polygon points="316.47 171.68 309.95 175.44 305.03 179.16 311.55 175.41 316.47 171.68" fill="#206bc4"></polygon><path d="M287.46,146.31l-.47-1.66-5.3-2.89v-9c0-.18,5.13,3,5.13,3l.24-.5a12.12,12.12,0,0,1,1.56-3.9l-3.73-6.89,4.74-3.61,3.55,7.11,0,0a8.07,8.07,0,0,1,3.91.07v-6.83l6.78,3.76v7.13a30,30,0,0,1,3.62,4.17l4.09-2.61,4.62,8.79-3.66,2.91.31,1.47a40.29,40.29,0,0,1,1.13,4.75l5.44,3v9l-5.18-3.09a11.66,11.66,0,0,1-1.67,4.61l3.88,6.59-4.92,3.72-3.46-6.78h-4.3v6.78l-6.47-3.94V164.8a26.74,26.74,0,0,1-3.91-4.84l-3.89,2.66-4.7-9,3.9-2.88-.38-1.35C288,148.37,287.7,147.34,287.46,146.31Z" fill="#053855" opacity="0.44"></path><polyline points="283.01 166.38 287.44 164.54 287.44 161.85" fill="#053855" opacity="0.1"></polyline><polygon points="297.28 179.16 303.79 175.41 302.14 170.47 296.28 172.2 297.28 179.16" fill="#053855" opacity="0.1"></polygon><ellipse cx="293.61" cy="151.94" rx="2.94" ry="5.06" transform="translate(-35.23 117.91) rotate(-21.45)" fill="#053855" opacity="0.1"></ellipse><polygon points="305.08 137.42 311.59 133.66 316.21 142.45 309.69 146.21 305.08 137.42" fill="#053855" opacity="0.1"></polygon><polygon points="316.47 171.68 309.95 175.44 305.03 179.16 311.55 175.41 316.47 171.68" fill="#053855" opacity="0.1"></polygon><polyline points="283.01 166.38 287.44 164.54 287.44 161.85" fill="#053855" opacity="0.1"></polyline><polygon points="297.28 179.16 303.79 175.41 302.14 170.47 296.28 172.2 297.28 179.16" fill="#053855" opacity="0.44"></polygon><path d="M280.94,150.07l-.47-1.66-5.3-2.89v-9c0-.18,5.13,3,5.13,3l.24-.5a12.12,12.12,0,0,1,1.56-3.9l-3.73-6.89,4.74-3.61,3.55,7.11,0,0a8.07,8.07,0,0,1,3.91.07V125l6.78,3.76v7.13A30,30,0,0,1,301,140l4.09-2.61,4.62,8.79L306,149.12l.31,1.47a40.29,40.29,0,0,1,1.13,4.75l5.44,3v9l-5.18-3.09a11.66,11.66,0,0,1-1.67,4.61l3.88,6.59L305,179.16l-3.46-6.78h-4.3v6.78l-6.47-3.94v-6.66a26.74,26.74,0,0,1-3.91-4.84L283,166.38l-4.7-9,3.9-2.88-.38-1.35C281.48,152.13,281.18,151.09,280.94,150.07Z" fill="#206bc4"></path><ellipse cx="293.61" cy="151.94" rx="2.94" ry="5.06" transform="translate(-35.23 117.91) rotate(-21.45)" fill="#053855" opacity="0.44"></ellipse><polygon points="316.47 171.68 309.95 175.44 305.03 179.16 311.55 175.41 316.47 171.68" fill="#053855" opacity="0.44"></polygon><polygon points="303.88 124.97 297.37 128.73 290.58 124.97 297.1 121.21 303.88 124.97" fill="#206bc4"></polygon><polygon points="303.88 124.94 297.38 128.73 290.58 124.99 297.09 121.21 303.88 124.94" fill="#053855" opacity="0.44"></polygon><polygon points="319.44 154.58 312.92 158.34 312.92 167.33 319.44 163.57 319.44 154.58" fill="#206bc4"></polygon><polygon points="319.44 154.58 312.92 158.34 312.92 167.33 319.44 163.57 319.44 154.58" fill="#053855" opacity="0.44"></polygon><path d="M214.32,121.13s1.72-3.22,2.32-4.16,3.15-4.52,4.2-4.58c1.94-.12-1.62,4.51-.82,5.05s6.73-4.47,8-4.83c2.78-.78,1.21,1.63,1.21,1.63s2.35-.6,2.81.21-1.4,2.13-1.4,2.13,1.34-.5,1.44.68S230.7,119,230.7,119s1.7.42.67,1.78c-.52.69-11.64,4.51-12.77,5.12S214.32,121.13,214.32,121.13Z" fill="#eead97"></path><line x1="229.26" y1="114.23" x2="223.27" y2="117.78" fill="none" stroke="#8c6239" stroke-miterlimit="10" stroke-width="0.25"></line><line x1="230.67" y1="116.58" x2="224.68" y2="119.22" fill="none" stroke="#8c6239" stroke-miterlimit="10" stroke-width="0.25"></line><line x1="230.7" y1="118.99" x2="225.52" y2="120.84" fill="none" stroke="#8c6239" stroke-miterlimit="10" stroke-width="0.25"></line><path d="M177.65,243.29c-1.87-1.21-4.44.88-6,.68s-2.21-9.1-2.21-9.1l-9.4-.29-.56,17.74a16.73,16.73,0,0,0,3.91,2s-.63-8.12,1.08-7.93,2.35,6.44,4.38,7.08,8.34-3.36,9.39-4.07S179.52,244.5,177.65,243.29Z" fill="#c15827"></path><path d="M197.12,254.8c-1.87-1.21-4.44.88-6,.68s-2.21-9.1-2.21-9.1l-9.39-.29-.56,17.75a16.77,16.77,0,0,0,3.9,2s-.63-8.12,1.08-7.93,2.35,6.44,4.38,7.08,8.34-3.36,9.39-4.07S199,256,197.12,254.8Z" fill="#c15827"></path><path d="M161.72,155.76s-7,13.33-5.71,87.74c0,0,7.76,5.36,20,2.56,0,0,.44-86.76-.8-89.89S161.72,155.76,161.72,155.76Z" fill="#206bc4"></path><path d="M185,154.19c2.63,17.19,5.29,34.4,6.75,51.73,1.25,14.77,1.57,29.63,2.42,44.43l.09,1.62a26.29,26.29,0,0,1-22.74.5s-3.32-72.25-3-82.13.81-21.34,6.31-22.89S185,154.19,185,154.19Z" fill="#206bc4"></path><path d="M161.1,119.27S147,137.5,150.47,143.71s18.12,1.35,18.12,1.35" fill="#a8c64e"></path><path d="M214,118.87S201.5,130,196.57,126.93C178.82,115.72,175,115.78,175,115.78s-13.23-4.27-15.19,1.44.16,37.52,2.31,40l.12.11a18.27,18.27,0,0,0,3.44,1.75,31.23,31.23,0,0,0,5.7,1.19c4.11.17,10-1.18,13.35-3.59,1.74-4.47,2.21-19.62,2.21-19.62s7.12,5.41,15.22,3.3c7.2-1.88,18.26-13.35,18.26-13.35C220.15,122.56,214,118.87,214,118.87Z" fill="#b8d766"></path><path d="M182.48,103.29s.45,12-1.93,12.16-6.95-1-6.93-3.36,0-7.73,2.17-8.49S181.39,101.14,182.48,103.29Z" fill="#eead97"></path><path d="M182.7,104.62a5.08,5.08,0,0,0-2.08-7.46c-5.09-2.95-13.59-2.33-15.66,4.27-1.95,6.22.14,7.34-2.86,9.39s-7,4.2-5.44,8.21,2.46,2.6,3.19,4.26-2.29,4.26-.52,7.2,10.41,5.32,13.64,1.76,1.44-8.65,3.81-9.62a5.58,5.58,0,0,0,3.41-5.94c-.52-2.23-5-6.2-3.25-8.56S182.7,104.62,182.7,104.62Z" fill="#744122"></path><path d="M169.07,176.85c0-.9-1.45-1-1.43,0q.77,37.83,3.79,75.56c.07.89,1.5.95,1.43,0Q169.84,214.69,169.07,176.85Z" fill="#163460"></path></svg>