<?xml version="1.0" encoding="UTF-8"?><svg id="Ebene_2" xmlns="http://www.w3.org/2000/svg" viewBox="0 0 413.58 217.17"><defs><style>.cls-1{fill:#535168;}.cls-2{fill:#403e56;}.cls-3,.cls-4{fill:#fff;}.cls-4,.cls-5{opacity:.4;}.cls-5{fill:#cdcccc;}.cls-6{fill:#3069b2;}.cls-7{fill:#f6b6b9;}.cls-8{fill:#2b3041;}</style></defs><g id="Ebene_1-2"><path class="cls-8" d="m412.7,158.3c-2.17,13.77-8.88,27.14-19.96,35.59-10.9,8.33-24.87,11.29-38.35,13.83-16.17,3.06-32.39,5.85-48.64,8.38-2.3.37-4.61.72-6.92,1.06h-94.7c-.1-.13-.2-.26-.29-.39-.15-.22-.31-.45-.46-.67-.08-.13-.17-.26-.26-.39h59.4c3.51,0,6.35-2.85,6.36-6.36v-79.29c.38-1.2.74-2.41,1.06-3.64,1.51-5.7,2.5-11.53,2.94-17.41.32-4.1.42-8.2.35-12.3-.2-11.28-1.67-22.56-3.27-33.76-.12-.83-.24-1.66-.36-2.48-1.13-7.78-2.16-16.25,1.77-23.07,4.49-7.8,14.45-11.06,23.42-10.26,16.13,1.44,29.72,13.8,36.79,28.38,7.06,14.57,8.64,31.15,9.28,47.33.34,8.58.3,17.54-.89,26.15,4.05-9.25,8.09-18.5,12.15-27.75,2.16-4.93,4.43-10.03,8.44-13.64,8.37-7.55,22.21-6.03,31.14.85,8.93,6.88,13.83,17.76,17.09,28.55,4.03,13.34,6.09,27.51,3.92,41.28Z"/><path class="cls-1" d="m377.01,83.51c5.85,10.36,8.54,22.24,8.47,34.1-.09,11.76-2.69,23.36-7.63,34.03-4.47,9.63-10.69,18.35-18.35,25.71-7.56,7.34-16.53,13.07-26.36,16.84-11.41,4.28-23.76,5.45-35.77,3.4-1.67-.29-3.33-.63-4.97-1.04-1-.25-1.42,1.29-.42,1.54,12.5,3.1,25.62,2.72,37.92-1.09,10.25-3.3,19.7-8.68,27.78-15.8,8.17-7.14,14.93-15.76,19.92-25.4,5.46-10.55,8.65-22.13,9.35-33.99.7-12.04-1.32-24.29-6.53-35.2-.63-1.32-1.31-2.62-2.03-3.9-.24-.37-.73-.48-1.1-.25-.35.22-.48.69-.28,1.05h0Z"/><path class="cls-1" d="m292.27,26.94c6.49,11.96,11.54,24.64,15.06,37.78,7.04,26.32,8.11,53.89,3.1,80.67-2.5,13.38-6.57,26.42-12.13,38.85-5.55,12.32-13.53,25.3-27.17,29.62-1.54.48-3.12.84-4.72,1.05-1.01.14-.58,1.68.42,1.54,14.11-1.94,23.91-13.66,30.06-25.6,6.36-12.36,10.89-25.79,13.9-39.34,5.97-27.04,5.76-55.09-.63-82.04-3.17-13.43-7.91-26.43-14.12-38.75-.78-1.54-1.58-3.07-2.41-4.59-.49-.9-1.87-.1-1.38.81Z"/><path class="cls-5" d="m225.49,24.62h-95.6c-4.04,0-7.31,3.28-7.32,7.32v47.9h14.71c2.19,0,4.22,1.12,5.38,2.98l5.1,8.12,4.88,7.76.92,1.46,5.58,8.87.06.1h73.61V31.94c0-4.04-3.28-7.31-7.32-7.32Z"/><path class="cls-4" d="m187.6,39.27h-47.37c-2.61,0-4.73,2.12-4.73,4.73s2.12,4.73,4.73,4.73h47.37c2.61,0,4.73-2.12,4.73-4.73s-2.12-4.73-4.73-4.73Z"/><path class="cls-4" d="m213.87,62.52h-73.2c-2.85,0-5.17,2.31-5.17,5.17s2.31,5.17,5.17,5.17h73.2c2.85,0,5.17-2.31,5.17-5.17s-2.31-5.17-5.17-5.17Z"/><path class="cls-4" d="m218.54,83.58c-.85-1.81-2.67-2.97-4.67-2.98h-73.2c-.11,0-.22,0-.33.01.96.52,1.76,1.28,2.34,2.2l5.1,8.12h66.1c2.85,0,5.16-2.31,5.16-5.16,0-.76-.17-1.51-.49-2.2Z"/><path class="cls-3" d="m218.98,103.16c-.35-2.56-2.53-4.47-5.12-4.47h-61.22l.92,1.46,5.58,8.87h54.73c1.08,0,2.12-.33,3-.96,1.36-.97,2.17-2.54,2.17-4.2,0-.23-.02-.46-.05-.69Z"/><path class="cls-6" d="m277.42,65.87l-7.45-2.91-37.15-14.5-44.45-17.35c-3.77-1.46-8.01.4-9.48,4.16l-1.55,3.99-3.7,9.47-5.38,13.78-4.03,10.34-3.02,7.75-4.03,10.33-3.03,7.76-.08.22-.48,1.23,5.58,8.87.06.1h103.32c1.92,0,3.74.87,4.94,2.36l.44-1.11,5.33-13.66,8.34-21.36c1.47-3.77-.39-8.01-4.16-9.49Z"/><path class="cls-4" d="m236.79,65.74l-3.98-1.55-40.14-15.66c-2.44-.94-5.18.26-6.14,2.69-.94,2.44.26,5.18,2.69,6.14l13.26,5.17,16.4,6.4,13.93,5.44.54.21c2.44.95,5.18-.26,6.13-2.7.94-2.43-.26-5.17-2.69-6.12Z"/><path class="cls-4" d="m252.81,96.95l-19.99-7.8-14.27-5.57-7.62-2.98-19.85-7.75-6.45-2.52c-2.49-.97-5.32.12-6.51,2.52-.06.13-.13.27-.18.42-1.04,2.66.27,5.65,2.93,6.69,0,0,0,0,0,0l1.65.64,26.46,10.33,23.84,9.3,16.23,6.34c.6.23,1.23.35,1.87.35,2.85,0,5.17-2.3,5.18-5.16,0-2.13-1.3-4.05-3.29-4.82h0Z"/><path class="cls-4" d="m232.81,108.56l-1.28-.5-12.55-4.9-11.46-4.47-19.88-7.76-9.61-3.75c-2.66-1.04-5.65.27-6.69,2.93-1.04,2.66.27,5.65,2.93,6.69,0,0,0,0,.01,0l4.81,1.88,24.01,9.37,2.47.96.26.1h28.43l-1.44-.56Z"/><path class="cls-4" d="m184.25,109.02l-2.47-.96-10.32-4.03c-2.65-1.04-5.65.27-6.69,2.92-.14.36-.24.73-.3,1.11-.05.32-.07.64-.06.96,0,.03,0,.07,0,.1h20.09l-.26-.1Z"/><path class="cls-2" d="m205.57,109.02l-2.47-.96h-38.62c-.05.32-.07.64-.06.96h-5.28l.06.1h46.62l-.26-.1Zm0,0h-46.43l.06.1h46.62l-.26-.1Zm0,0h-46.43l.06.1h46.62l-.26-.1Zm.26.1l-.26-.1h-46.43l.06.1h46.62Zm-93.15,106.59c-3.51,0-6.35-2.85-6.36-6.36v-123.15c0-3.51,2.85-6.35,6.36-6.36h9.91v-1.06h-9.91c-4.1,0-7.42,3.33-7.42,7.43v123.15c0,2.91,1.7,5.54,4.35,6.75h93.78c-.08-.13-.17-.26-.26-.39h-90.45Zm155.23-105.33c-1.4-1.48-3.34-2.32-5.38-2.32h-102.73l-5.75-9.14-.14-.22-4.88-7.76-5.46-8.69c-1.36-2.16-3.73-3.47-6.28-3.47h-24.62c-4.1,0-7.42,3.33-7.42,7.43v123.15c0,2.91,1.7,5.54,4.35,6.75.96.44,2.01.67,3.07.67h149.85c1.06,0,2.11-.23,3.08-.67,2.65-1.2,4.35-3.84,4.35-6.75v-93.87c0-1.9-.73-3.73-2.04-5.1h0Zm.98,98.98c0,3.51-2.85,6.35-6.36,6.36H112.67c-3.51,0-6.35-2.85-6.36-6.36v-123.15c0-3.51,2.85-6.35,6.36-6.36h24.62c2.19,0,4.22,1.12,5.38,2.98l5.1,8.12,4.88,7.76.92,1.46,5.58,8.87.06.1h103.32c3.51,0,6.36,2.85,6.36,6.36v93.87Zm-63.31-100.33h-46.43l.06.1h46.62l-.26-.1Zm0,0h-46.43l.06.1h46.62l-.26-.1Zm0,0h-46.43l.06.1h46.62l-.26-.1Zm0,0l-2.47-.96h-43.31l-5.75-9.14-.48,1.23,5.58,8.87.06.1h46.62l-.26-.1Z"/><polygon class="cls-7" points="83.53 153.17 80.48 159.55 54.44 150.82 58.94 141.41 83.53 153.17"/><path d="m76.2,163.82l6.16-12.89h0l7.74,3.7h0l-9.58,20.03h0l-.59-.28c-3.95-1.89-5.62-6.62-3.73-10.57Z"/><polygon class="cls-7" points="89.67 210.1 82.61 209.86 82.31 182.37 90.59 182.86 89.67 210.1"/><path d="m76.97,207.65l14.28.48h0l-.29,8.58h0l-22.19-.75h0l.02-.66c.15-4.37,3.81-7.8,8.19-7.65Z"/><path d="m101.04,95.05s-21.61-5.48-31.41,2.59l-5.48,15.85-21.9,31.12,31.7,19.02,5.76-14.41-13.83-6.92,16.71-14.41-2.88,76.08,10.95,1.73s24.21-93.95,10.37-110.66Z"/><path class="cls-6" d="m68.25,99.99l.26-.47c2.78-4.94,2.33-12.98,1.46-18.85-.73-4.92-.7-13.59-.56-20,.07-4.46,3.23-8.26,7.59-9.17,6.57-1.37,14.65-1.66,18.87-1.71v.29s0-.29,0-.29c2.39,0,4.35,1.89,4.4,4.28.13,6.9.09,19.48-1.62,26.24-2.54,10.02,1.43,16.83,1.47,16.9l.24.4-32.12,2.38Z"/><path class="cls-7" d="m57.13,127.63c2.66-1.27,3.78-4.46,2.51-7.12-.14-.28-.3-.55-.48-.81l12.2-52.6h-9.22l-10.76,51.56c-2.29,1.88-2.61,5.27-.73,7.55,1.58,1.91,4.26,2.5,6.49,1.41Z"/><path class="cls-7" d="m131.3,75.85l-20.36-19.26-5.5,7.7,13.75,12.1-18.04,14.32c-.13,0-.26-.02-.39-.02-3.19,0-5.78,2.58-5.78,5.77,0,3.19,2.58,5.78,5.77,5.78,2.9,0,5.35-2.14,5.73-5.01l.06.06,24.76-21.46Z"/><path class="cls-6" d="m75.71,52.18s-12.71-2.08-13.86,7.71c-1.15,9.8-1.73,9.8-1.73,9.8,0,0,9.22-1.73,11.53.58,2.31,2.31,4.07-18.09,4.07-18.09Z"/><path class="cls-6" d="m94.7,50.67s10.37-1.73,14.99,2.88c4.61,4.61,6.92,5.76,6.92,5.76,0,0-10.37,5.76-6.34,10.95,0,0-10.95-5.19-12.68-3.46s-2.88-16.14-2.88-16.14Z"/><path d="m85.6,17.21c-3.27-2.61-4.13-7.66-2.23-11.39S89.56-.16,93.74,0c4.18.17,8.13,2.57,10.55,5.99,3.41,4.8,4.12,11.46,8.65,15.22,4.09,3.39,9.95,3.29,15.26,3.03,1.79-.09,3.64-.2,5.24-.99s2.92-2.47,2.71-4.25c1.33,2.11.56,5.07-1.23,6.81s-4.34,2.47-6.81,2.76c-8.9.94-17.63-2.9-22.97-10.08-1.85-2.55-3.27-5.51-5.81-7.38-2.53-1.86-6.76-1.99-8.31.74-.77,1.35-.69,3.05-1.4,4.43-.71,1.39-3,2.13-3.69.73"/><circle cx="85.1" cy="29.04" r="15.97"/><circle class="cls-7" cx="85" cy="33.18" r="13.07"/><path d="m73.08,23.58c1.78.39,1.2,3.37,2.6,4.53,1.27,1.04,3.09-.03,4.68-.42,2.01-.49,4.12.23,5.98,1.14s3.65,2.05,5.68,2.48,4.43-.05,5.57-1.79c1.09-1.66.69-3.89-.16-5.68-3.13-6.58-10.99-9.38-17.57-6.25-2.63,1.25-4.77,3.33-6.09,5.92"/><path class="cls-2" d="m381.11,216.64c0,.29-.24.53-.53.53H.53c-.29,0-.53-.24-.53-.53s.24-.53.53-.53h380.05c.29,0,.53.24.53.53Z"/></g></svg>