<?xml version="1.0" encoding="UTF-8"?><svg id="Ebene_2" xmlns="http://www.w3.org/2000/svg" xmlns:xlink="http://www.w3.org/1999/xlink" viewBox="0 0 418.75 222.19"><defs><style>.cls-1{fill:#f0b7b9;}.cls-2{opacity:.05;}.cls-2,.cls-3,.cls-4{isolation:isolate;}.cls-2,.cls-4{fill:#010101;}.cls-5{fill:url(#Unbenannter_Verlauf_2);}.cls-3,.cls-4{opacity:.1;}.cls-3,.cls-6{fill:#3069b2;}.cls-7{fill:#c3705a;}.cls-8{fill:#edb5b7;}.cls-9{fill:#463a3e;}.cls-10{fill:#c17175;}.cls-11{fill:#f7d6c9;}</style><linearGradient id="Unbenannter_Verlauf_2" x1="253.69" y1="367.43" x2="253.69" y2="541.19" gradientTransform="translate(-44.49 566.75) scale(1 -1)" gradientUnits="userSpaceOnUse"><stop offset="0" stop-color="#808181" stop-opacity=".25"/><stop offset=".54" stop-color="#808181" stop-opacity=".12"/><stop offset="1" stop-color="#808181" stop-opacity=".1"/></linearGradient></defs><g id="Ebene_1-2"><path class="cls-3" d="m17.76,30.37c.68,4.3,2.41,8.46,2.43,12.82.06,14.22-17.2,22.96-19.84,36.94-1.57,8.29,2.5,16.77,8.22,22.95,5.73,6.19,13.03,10.64,19.76,15.73,18.61,14.1,32.96,33.09,41.46,54.84,1.7,4.37,3.16,8.88,3.64,13.55.35,3.39.18,6.86.98,10.18,3.15,13.15,19.11,18.25,32.6,19.11,21.73,1.35,43.49-2.28,63.6-10.62,4.52-1.88,9.19-4.03,14.05-3.49,3.88.43,7.35,2.53,10.75,4.44,10.03,5.63,20.71,10.03,31.8,13.09,6.14,1.7,12.59,2.99,18.87,1.88,18.85-3.32,28.86-26.18,47.35-31.18,12.79-3.46,26.1,2.58,37.58,9.21s23.32,14.27,36.56,14.28c17.67.02,32.2-13.35,44.18-26.33,2.51-2.73,5.07-5.57,6.27-9.08,2.43-7.12-1.51-15.13-7.33-19.91s-13.17-7.16-20.18-9.9c-11.89-4.64-23.23-10.56-33.84-17.67-6.86-4.6-13.5-9.8-18.2-16.58-4.04-5.85-6.46-12.63-9.17-19.2-5.93-14.39-14.32-29.02-28.33-35.78-11.44-5.52-24.73-4.9-37.42-5.05-18.71-.21-37.89-2.46-54.48-11.11-14.01-7.31-25.52-18.85-39.73-25.75-22.61-10.98-48.47-8.83-72.83-8.41-11.71.2-25.63,1.37-36.88-2.47-8.32-2.84-12.6-8.64-22.15-6.3-13.07,3.18-21.8,16.55-19.71,29.83Z"/><path class="cls-5" d="m364.22,133.98c-.59-1.96-.53-4.06.18-5.98,1.13-2.92,3.89-5.04,4.85-8.02,1.8-5.55-3.05-10.75-6.03-15.78-2.73-4.67-3.97-10.06-3.55-15.45.46-5.79,2.83-11.33,3.02-17.13.16-5.41-1.59-10.67-3.32-15.8-1.43-4.24-2.88-8.52-5.3-12.28-4.57-7.11-12.68-11.58-21.03-12.32-3.94-.35-7.79.93-11.66.43-5.37-.69-10.46-2.09-15.94-2.26-5.21-.15-10.96.51-14.51,4.32-2.71,2.92-3.58,7.14-6.06,10.26-3.52,4.43-9.68,5.95-13.57,10.05-3.42,3.69-4.64,8.91-3.22,13.73.54,1.75,1.42,3.37,1.99,5.11,2.41,7.26-.75,15.02-2.66,22.43-.22.6-.25,1.26-.11,1.88.3.9,1.25,1.38,2.04,1.91,2.58,1.76,3.89,4.94,4.15,8.05.25,3.11-.47,6.21-1.18,9.25-1.81,7.72-4.06,16-10.01,21.13-1.08-2.58-2.36-5.07-3.82-7.45-3.64-5.9-6.34-13.19-6.38-20.17,0-.02,0-.04,0-.06,0-.38.02-.75.04-1.13.47-8.23,4.03-16.17,3.95-24.37,0-.66-.02-1.33-.06-1.99-.46-7.01-3.83-13.5-7.7-19.37-2.88-4.38-6.13-8.62-10.29-11.81-6.43-4.9-14.61-7.02-22.64-8.15-8.03-1.12-15.34-2.18-23.44-2.72-8.71-.58-18.29-.91-25.17,4.45-8.97,6.99-9.47,20.49-16.31,29.57-4.07,5.4-10.55,9.58-12.7,15.72-.58-1.51-1.06-3.05-1.45-4.62-.02-.11-.05-.21-.07-.31,2.59-7.41,3.19-15.37,1.75-23.08.17-1.25.26-2.51.26-3.77.04-1.37-.11-2.74-.44-4.07-.97-3.67-3.64-6.61-6.22-9.39-.94-1.06-1.96-2.05-3.05-2.96-15.73-19.06-43.93-21.76-62.99-6.03-14.82,12.23-20.17,32.56-13.31,50.5-.33,2.57-1.33,5.07-3.15,6.88-.83.83-1.91,1.86-1.73,2.91-.06.3-.01.61.12.89.19.33.44.61.75.83,2.64,2.02,5.92,2.99,9.23,2.75,2.79,8.21,8.27,15.24,15.54,19.95,0,.25,0,.5-.03.73,0,.42-.03.83-.05,1.26v.28-.11s-13.12,17.11-25.25,17.75c-6.48.34-12.13,4.71-16.41,9.7-5.14,5.99-8.31,12.88-8.59,14.79-.5,3.5-4,20.5-4,20.5h100.76c-1.19,6.12-2.8,13.92-2.8,13.92h163.12c-.38-5.24-.8-10.09-1.18-14.19h20.51l-.02.12h94.6l6-9c-1.49-26.24-16.96-40.66-35.48-42.26Zm-235.53-29.31c2.13,1.15,4.41,1.97,6.78,2.44,1.03.21,2.18.34,3.06-.23.58-.44,1.01-1.05,1.23-1.75l.05.11c2.54,6.41,4.9,13.02,5.36,19.9.04.65.07,1.3.07,1.95.01,3.93-.8,7.81-2.38,11.41-8.52-4.48-16.74-9.52-24.6-15.08l-.53-.23s.18.51.4,1.31c.05.19.11.4.17.63-.54-1.74-1.03-3.52-1.46-5.33-.05-.21-.1-.43-.15-.64,5.13-3.77,9.26-8.74,12-14.49Z"/><path class="cls-11" d="m303.93,30.72c-5.12-.15-10.79.5-14.28,4.25-2.67,2.87-3.52,7.03-5.96,10.1-3.46,4.36-9.52,5.85-13.36,9.89-3.37,3.63-4.57,8.77-3.17,13.52.53,1.72,1.4,3.32,1.96,5.03,2.37,7.16-.72,14.79-2.64,22.07-.21.6-.25,1.24-.11,1.86.29.89,1.23,1.36,2.01,1.88,2.54,1.73,3.83,4.86,4.06,7.92s-.46,6.11-1.16,9.1c-1.85,7.92-4.19,16.44-10.61,21.42-2.71,2.13-6.34,3.86-7.05,7.25-.83,3.97,2.96,7.35,6.6,9.15,10.68,5.28,23.07,5.35,34.76,7.7,10.29,2.07,20.55,6,30.96,4.66,4.64-.6,9.08-2.23,13.47-3.84l27.34-10.07c.77-.24,1.5-.6,2.15-1.08,1.65-1.37,1.7-3.98.81-5.93-.9-1.95-2.53-3.44-3.96-5.04-3.12-3.49-5.5-8.43-3.79-12.79,1.13-2.88,3.83-4.96,4.78-7.92,1.77-5.47-3.02-10.58-5.92-15.54-2.68-4.59-3.9-9.89-3.49-15.19.46-5.7,2.79-11.15,2.96-16.86.16-5.32-1.56-10.5-3.27-15.55-1.41-4.17-2.84-8.39-5.22-12.09-4.5-7-12.48-11.4-20.7-12.13-3.88-.34-7.67.92-11.48.43-5.3-.65-10.3-2.02-15.69-2.19Z"/><path class="cls-1" d="m311.58,180.28s-31-19.43-18.94-41.84c2.79-5.18,4.02-10.08,4.27-14.55.07-1.18.07-2.36,0-3.54v-.17c-.04-.61-.09-1.21-.16-1.79-1.44-11.83-9.03-19.54-9.03-19.54,0,0,51.41-15,42.81-1.48-4,6.28-2.8,12.44-.12,18.81.28.67.58,1.35.9,2.02,3.09,6.72,7.38,13.68,8.58,21.23,2.46,15.5-28.29,40.84-28.29,40.84Z"/><path class="cls-4" d="m330.52,97.37c-4,6.28-2.8,12.44-.12,18.81-10.08,6.5-22.81,7.34-33.66,2.22-1.42-11.84-9.02-19.55-9.02-19.55,0,0,51.42-15.01,42.81-1.48Z"/><circle class="cls-1" cx="311.58" cy="86.3" r="34.69"/><path class="cls-4" d="m296.91,120.37v-.17l.04-.07c-.02.08-.04.16-.04.24Z"/><path class="cls-4" d="m311.58,180.28s-31-19.43-18.94-41.84c2.79-5.18,4.02-10.08,4.27-14.55.7,5.53,4.52,12.41,11.47,21.93,3.02,4.15,4.31,9.94,4.72,15.74l.69.5,3.39-2.05c.38-6.41,1.67-12.88,4.74-17.47,8.06-12.06,9.98-18.09,9.38-24.34,3.09,6.72,7.38,13.68,8.58,21.23,2.44,15.51-28.31,40.85-28.31,40.85Z"/><path class="cls-6" d="m361.27,133.6c-18.47-1.34-30.15-15.68-30.15-15.68.98,6.72-.61,12.73-9.23,25.63-3.05,4.58-4.34,11.04-4.72,17.46l-3.39,2.05-.69-.5c-.41-5.79-1.7-11.59-4.72-15.74-8.61-11.81-12.44-19.56-11.44-25.71,0,0-9.47,15.37-27.92,16.61-18.45,1.23-33.95,14.27-35.43,38.13l5.9,8.12h58.22l-.02.12h93.1l5.93-8.87c-1.48-26.05-16.96-40.29-35.43-41.63Z"/><path class="cls-2" d="m361.27,133.6c-18.47-1.34-30.15-15.68-30.15-15.68.98,6.72-.61,12.73-9.23,25.63-3.05,4.58-4.34,11.04-4.72,17.46l-3.39,2.05-.69-.5c-.41-5.79-1.7-11.59-4.72-15.74-8.61-11.81-12.44-19.56-11.44-25.71,0,0-9.47,15.37-27.92,16.61-18.45,1.23-33.95,14.27-35.43,38.13l5.9,8.12h58.22l-.02.12h93.1l5.93-8.87c-1.48-26.05-16.96-40.29-35.43-41.63Z"/><path class="cls-4" d="m335.03,69.54c-1.51,3.73-4.18,6.88-7.11,9.65-4.04,3.83-9.12,7.2-14.68,6.94,3.03-2.82,5.22-6.42,6.34-10.41-3.51,2.04-6.15,5.28-9.5,7.58-3.35,2.3-8.08,3.49-11.35,1.09,5.94-2.99,10.88-7.65,14.2-13.41-7.95,2.06-12.02,11.01-19.18,15.03-3.35,1.88-7.28,2.59-11.12,2.51-2.73-.06-5.78-.69-7.3-2.96-.89-1.32-1.1-2.98-1.13-4.57-.17-7.23,2.78-14.32,7.31-19.95,4.53-5.63,10.55-9.91,16.99-13.23,2.29-1.18,4.68-2.26,7.23-2.64,3.17-.46,6.41.21,9.52.93,4.05.93,8.12,1.94,11.85,3.77,7.96,3.94,11.43,11.08,7.93,19.69Z"/><path class="cls-11" d="m335.03,69.05c-1.51,3.73-4.18,6.88-7.11,9.65-4.04,3.83-9.12,7.2-14.68,6.94,3.03-2.82,5.22-6.42,6.34-10.41-3.51,2.04-6.15,5.28-9.5,7.58-3.35,2.3-8.08,3.49-11.35,1.09,5.94-2.99,10.88-7.65,14.2-13.41-7.95,2.06-12.02,11.01-19.18,15.03-3.35,1.88-7.28,2.59-11.12,2.51-2.73-.06-5.78-.69-7.3-2.96-.89-1.32-1.1-2.98-1.13-4.57-.17-7.23,2.78-14.32,7.31-19.95,4.53-5.63,10.55-9.91,16.99-13.23,2.29-1.18,4.68-2.26,7.23-2.64,3.17-.46,6.41.21,9.52.93,4.05.93,8.12,1.94,11.85,3.77,7.96,3.93,11.43,11.08,7.93,19.69Z"/><circle class="cls-7" cx="95.86" cy="70.96" r="44.03"/><path class="cls-8" d="m135.34,155.71s-40.33,10.33-41.33,11.31-33.95,2.71-24.36-17.47c3.52-7.41,4.99-17.47,5.44-27.23.02-.41.04-.83.05-1.24.61-16.37-1.55-31.56-1.55-31.56,0,0,46.74-18.47,43.3,9.6-.86,6.98-.15,13.99,1.41,20.59.52,2.2,1.13,4.35,1.81,6.44,5.46,16.83,15.23,29.56,15.23,29.56Z"/><path class="cls-4" d="m118.3,119.71c-12.69,9.41-29.89,9.96-43.16,1.37.61-16.37-1.55-31.56-1.55-31.56,0,0,46.74-18.47,43.3,9.6-.86,6.98-.14,14,1.41,20.59Z"/><circle class="cls-8" cx="95.73" cy="88.54" r="37.88"/><path class="cls-4" d="m135.34,155.71s-40.33,10.33-41.33,11.31-33.95,2.71-24.36-17.47c3.52-7.41,4.99-17.47,5.44-27.23.38,5.1,3.29,17.46,3.67,21.57.02.24.07.48.14.71.55,1.83,2.5,3.93,4.84,5.93l.14.12c5.99,5.03,14.55,5.6,21.16,1.41,3.35-2.11,6.57-4.43,9.63-6.94,4.39-3.62,5.76-8.5,5.93-12.82.07-2.07-.09-4.14-.49-6.17,5.46,16.84,15.23,29.58,15.23,29.58Z"/><path class="cls-6" d="m186.27,184.25H21.68s3.44-16.73,3.93-20.17c.27-1.88,3.39-8.67,8.45-14.56,4.21-4.9,9.77-9.22,16.15-9.55,11.93-.63,24.85-17.47,24.85-17.47h0c.29,4.9,3.31,17.7,3.69,21.89.02.24.07.48.14.71.55,1.83,2.5,3.93,4.84,5.93l.14.12c5.99,5.03,14.55,5.6,21.16,1.42,3.35-2.11,6.57-4.43,9.63-6.94,4.39-3.62,5.76-8.5,5.93-12.82.09-2.86-.26-5.72-1.03-8.48-.21-.78-.38-1.24-.4-1.29l.52.22s22.29,16.21,42.7,22.83c2.39.78,4.65,1.92,6.69,3.39,1.65,1.2,3.18,2.56,4.55,4.08,2.76,3.13,5.05,6.64,6.78,10.44,4.73,10.03,5.85,20.23,5.85,20.23Z"/><path class="cls-2" d="m186.27,184.25H21.68s3.44-16.73,3.93-20.17c.27-1.88,3.39-8.67,8.45-14.56,4.21-4.9,9.77-9.22,16.15-9.55,11.93-.63,24.85-17.47,24.85-17.47h0c.29,4.9,3.31,17.7,3.69,21.89.02.24.07.48.14.71.55,1.83,2.5,3.93,4.84,5.93l.14.12c5.99,5.03,14.55,5.6,21.16,1.42,3.35-2.11,6.57-4.43,9.63-6.94,4.39-3.62,5.76-8.5,5.93-12.82.09-2.86-.26-5.72-1.03-8.48-.21-.78-.38-1.24-.4-1.29l.52.22s22.29,16.21,42.7,22.83c2.39.78,4.65,1.92,6.69,3.39,1.65,1.2,3.18,2.56,4.55,4.08,2.76,3.13,5.05,6.64,6.78,10.44,4.73,10.03,5.85,20.23,5.85,20.23Z"/><path class="cls-4" d="m113.94,75.82c.98,3.77,2.26,7.96,5.63,9.92.45.22.87.5,1.23.84.83.9.58,2.31.45,3.53-.43,4.19,1.37,8.44,4.33,11.44s6.95,4.84,11.08,5.68c1.01.21,2.14.34,3.02-.23.59-.45,1.02-1.07,1.24-1.78,1.15-3.06.66-6.49-.3-9.61-.96-3.12-2.38-6.1-3.11-9.28-1.73-7.56.56-15.37,1.59-23.05.34-2.56.54-5.19-.12-7.68-.95-3.61-3.58-6.51-6.12-9.25-1.37-1.47-2.77-2.97-4.52-3.94-5.18-2.83-11.85-.32-17.38-2.38-2.21-.83-4.09-2.33-6.2-3.39-4.47-2.26-9.78-2.39-14.68-1.36s-9.5,3.14-14.05,5.24l-3.48,1.58c-4.9,2.26-10.15,4.82-12.79,9.55-2.81,5.04-2.03,11.48-4.84,16.52-.85,1.51-2.04,2.95-2.26,4.69-.15,1.25.23,2.5.59,3.71.87,2.94,1.64,5.97,1.57,9.05s-1.05,6.23-3.23,8.39c-.92.91-2.15,2.08-1.58,3.25.19.33.44.6.75.81,3.64,2.76,8.43,3.47,12.71,1.88,1.65-.63,3.21-1.64,4.15-3.13.62-1.09,1.07-2.27,1.33-3.5,1.19-4.44,2.39-8.95,2.3-13.54-.05-2.64-.54-5.3-.15-7.92s1.91-5.31,4.46-6.03c1.88-.54,3.9.11,5.87.09,2.83-.02,6.31-3.17,8.94-2.24,2.26.8,4.05,5.13,5.92,6.78,4.74,4.23,11.36,6.45,17.65,5.35Z"/><path class="cls-7" d="m113.94,75.33c.98,3.77,2.26,7.96,5.63,9.92.44.21.85.49,1.22.82.83.9.58,2.31.45,3.53-.43,4.19,1.37,8.44,4.33,11.44,2.95,3,6.95,4.84,11.08,5.68,1.01.21,2.14.34,3.02-.23.59-.45,1.02-1.07,1.24-1.78,1.15-3.06.66-6.49-.3-9.61-.96-3.12-2.38-6.1-3.11-9.28-1.73-7.56.56-15.37,1.59-23.05.34-2.56.54-5.19-.12-7.68-.95-3.61-3.58-6.51-6.12-9.25-1.37-1.47-2.77-2.97-4.52-3.94-5.18-2.83-11.85-.32-17.38-2.38-2.21-.83-4.09-2.33-6.2-3.39-4.47-2.26-9.78-2.39-14.68-1.36s-9.5,3.14-14.05,5.24l-3.43,1.58c-4.9,2.26-10.15,4.82-12.79,9.55-2.81,5.04-2.03,11.48-4.84,16.52-.85,1.51-2.04,2.95-2.26,4.69-.15,1.25.23,2.5.59,3.71.87,2.94,1.64,5.97,1.57,9.05s-1.05,6.23-3.23,8.39c-.92.91-2.15,2.08-1.58,3.25.19.33.44.6.75.81,3.64,2.76,8.43,3.47,12.71,1.88,1.65-.63,3.21-1.64,4.15-3.13.62-1.09,1.07-2.27,1.33-3.5,1.19-4.44,2.39-8.95,2.3-13.54-.05-2.64-.54-5.3-.15-7.92.38-2.62,1.91-5.31,4.46-6.03,1.88-.54,3.9.11,5.87.09,2.83-.02,6.31-3.17,8.94-2.24,2.26.8,4.05,5.13,5.92,6.78,4.71,4.25,11.33,6.46,17.62,5.36Z"/><rect class="cls-9" x="153.79" y="91.42" width="86.35" height="74.05"/><rect class="cls-2" x="153.79" y="91.42" width="86.35" height="74.05"/><path class="cls-10" d="m227.76,197.94h-73.87c.95-5.38,3.74-11.27,9.18-17.63,4.29-5,7.8-10.61,10.41-16.66.7-1.62,1.33-3.24,1.88-4.86,1.63-4.82,2.74-9.8,3.31-14.86,0-.14.03-.29.05-.43.38-3.49.53-7.01.46-10.52v-.75c-.26-8.62-1.69-17.17-4.24-25.41l-.09-.29c-.8-2.53-1.39-3.95-1.39-3.95,0,0,1.47-.8,3.89-1.97l.2-.1c8.9-4.27,29.96-13.19,39.25-6.84l.15.1c3.25,2.31,5,6.56,4.18,13.64v.08c0,.13-.03.26-.04.38-.5,4.88-.73,9.78-.7,14.68v.75c0,1.15.01,2.31.04,3.49v.47c.08,3.81.25,7.74.48,11.73.33,5.53.8,11.16,1.33,16.69.23,2.36.48,4.71.75,7.02.03.27.06.55.09.82.32,2.82.64,5.57.98,8.25l.02.17c1.28,10.63,2.7,19.91,3.68,26Z"/><path class="cls-4" d="m221.09,107.43v.08c-.53,5.01-.78,10.04-.75,15.08v.75c-10.18,11.81-26.8,15.72-41.18,9.68v-.75c-.27-8.73-1.72-17.37-4.33-25.71-.8-2.53-1.39-3.95-1.39-3.95,0,0,1.47-.8,3.89-1.97,8.81-4.26,30.32-13.46,39.59-6.85,3.25,2.31,4.99,6.56,4.18,13.64Z"/><circle class="cls-10" cx="193.11" cy="99.13" r="35.93"/><path class="cls-4" d="m195.01,197.7h-76.65s3.44-16.73,3.93-20.17c.27-1.88,3.39-8.67,8.45-14.56,6.5-5.19,14.55-8.04,22.87-8.11,14.66-.22,18.92,4.83,20.08,8.56.4,1.25.51,2.58.3,3.88l2.77,4.02,18.23,26.39Z"/><path class="cls-6" d="m194.77,197.94h-76.65s3.44-16.73,3.93-20.17c.27-1.88,3.39-8.67,8.45-14.56,6.5-5.19,14.55-8.04,22.87-8.11,14.66-.22,18.92,4.83,20.08,8.56.4,1.25.51,2.58.3,3.88l2.77,4.02,18.23,26.39Z"/><path class="cls-4" d="m278.44,197.7h-80.3c3.83-8.15,13.87-29.87,14.42-34.9.21-1.94,2.29-3.77,5.03-5.32.87-.5,1.76-.95,2.67-1.35l.17-.08c.5-.22,1.01-.43,1.53-.61,6.95-2.54,14.58-2.48,21.48.17,6.59,2.51,15.08,5.88,21.68,9.05l.05.03c1.7.81,3.28,1.61,4.67,2.37,2.78,1.53,4.81,2.92,5.59,4.04.36.51.75,2.82,1.19,6.41.58,4.85,1.21,12.04,1.82,20.19Z"/><path class="cls-6" d="m278.68,197.94h-80.3c3.83-8.15,13.87-29.87,14.42-34.9.21-1.94,2.29-3.77,5.03-5.32.87-.5,1.76-.95,2.67-1.35l.17-.08c.5-.22,1.01-.43,1.53-.61,6.95-2.54,14.58-2.48,21.48.17,6.59,2.51,15.08,5.88,21.68,9.05l.05.03c1.7.81,3.28,1.61,4.67,2.37,2.78,1.53,4.81,2.92,5.59,4.04.36.51.75,2.82,1.19,6.41.58,4.85,1.21,12.04,1.82,20.19Z"/><path class="cls-4" d="m265.76,158.54c0,1.16-.03,2.32-.09,3.48-.04.57-.08,1.13-.13,1.7-.03.41-.08.81-.12,1.21l-.05.47c-.61,5.48-1.75,10.93-1.88,16.44v.78c-.03,5.17.81,10.26,1.94,15.33h-46.25c-.08-.94-.11-1.88-.1-2.82,0-.84.05-1.68.14-2.53.71-6.94,4.26-13.43,4.79-20.33l.02-.32c.03-.52.05-1.04.05-1.56v-.14c-.06-2.28-.41-4.54-1.04-6.73-.03-.11-.06-.22-.09-.33-.65-2.17-1.4-4.31-2.26-6.41l-.17-.42c-1.26-3.14-2.57-6.25-3.47-9.36-.71-2.32-1.08-4.73-1.09-7.16,0-.43.03-.87.06-1.3.03-.35.07-.71.12-1.07.08-.56.19-1.11.33-1.66.75-2.97,2.36-5.76,3.9-8.51h0c1.71-3.07,3.35-6.11,3.64-9.34.04-.41.05-.82.04-1.23h0c-.01-.53-.06-1.05-.15-1.58-.4-2.29-1.58-4.35-2.54-6.47-.1-.21-.2-.43-.29-.65,0-.03-.03-.07-.04-.1-1.88-4.35-2.98-9-4.13-13.62-.05-.2-.1-.4-.15-.6-.28-1.13-.57-2.26-.88-3.39-1.69-6.17-4.09-12.4-8.67-16.85-4.58-4.45-11.87-6.71-17.6-3.87-4.96,2.47-7.64,7.99-8.85,13.39s-1.31,11.03-2.88,16.34c-.11.39-.24.77-.38,1.16-.07.2-.14.38-.2.59-.67,1.92-1.51,3.83-2.4,5.72l-.09.2c-2.86,6.09-6.19,12.08-6.3,18.21v.57c.02,1.46.24,2.9.66,4.3.75,2.51,2.12,4.7,3.71,6.78.31.41.64.82.96,1.22,1.58,1.94,3.3,3.83,4.81,5.83l.05.06c1.14,1.48,2.11,3.09,2.88,4.8,1.84,4.32,1.86,9.19.08,13.53-.43.99-.92,1.96-1.47,2.89-.97,1.67-2.04,3.3-2.88,5.04-.28.58-.54,1.18-.75,1.78-1.88,4.85-2.29,10.23-3.83,15.23-1.19,3.85-3.04,7.45-5.48,10.66h-49c.57-2.79,3.39-16.58,3.84-19.68.27-1.88,3.39-8.67,8.45-14.56-.43.34-.84.67-1.23,1.01-3.19,2.72-5.96,5.9-8.21,9.45.11-.34.22-.68.34-1.02.69-2.06,1.44-4.1,2.19-6.11,2.19-5.8,4.64-11.71,9.01-16.11,2.47-2.48,5.47-4.39,7.82-6.98,4.15-4.56,5.86-10.87,5.81-17.06,0-.64-.03-1.28-.07-1.91-.45-6.78-2.77-13.28-5.28-19.6-1.35-3.39-2.78-6.96-2.72-10.55,0-.5.04-1.01.11-1.51,1.04-7.45,8.57-11.91,13.1-17.93,6.73-8.94,7.22-22.24,16.05-29.11,6.78-5.28,16.21-4.95,24.77-4.38,7.97.54,15.16,1.57,23.07,2.68,7.91,1.11,15.93,3.19,22.28,8.06,4.1,3.14,7.29,7.31,10.13,11.62,3.8,5.78,7.12,12.17,7.58,19.07.03.49.05.98.05,1.47.08,8.07-3.42,15.88-3.89,23.98-.02.38-.03.75-.04,1.13,0,.02,0,.04,0,.06-.08,7.02,2.61,14.39,6.28,20.35,5.21,8.49,8,18.25,8.06,28.21Z"/><path class="cls-9" d="m265.76,158.54c0,1-.04,1.99-.09,2.99-.04.57-.08,1.13-.13,1.7s-.11,1.13-.17,1.68c-.61,5.48-1.75,10.93-1.88,16.44v1.27c.03,5.17.9,10.26,2.05,15.33h-46.31c-.09-.94-.14-1.88-.15-2.82,0-1.01.04-2.01.14-3.02.71-6.94,4.26-13.43,4.79-20.33.04-.51.06-1.01.07-1.51v-.35c-.05-2.44-.43-4.86-1.13-7.2-.65-2.17-1.4-4.31-2.26-6.41-1.3-3.28-2.7-6.53-3.64-9.8-.66-2.17-1.03-4.42-1.09-6.68-.01-.6,0-1.2.06-1.79.03-.35.07-.71.12-1.07.08-.56.19-1.11.33-1.66.75-2.97,2.36-5.76,3.9-8.51,1.72-3.08,3.36-6.12,3.65-9.35.02-.24.03-.49.04-.75h0c.02-.69-.03-1.39-.15-2.07-.4-2.29-1.58-4.35-2.54-6.47-.1-.21-.2-.43-.29-.65-1.91-4.38-3.02-9.05-4.17-13.72-.33-1.33-.67-2.67-1.03-3.99-1.69-6.17-4.09-12.4-8.67-16.85s-11.86-6.66-17.59-3.81c-4.96,2.47-7.64,7.99-8.85,13.39s-1.31,11.03-2.88,16.34c-.17.58-.38,1.17-.57,1.75-.7,1.99-1.58,3.96-2.5,5.92-2.94,6.25-6.37,12.4-6.3,18.7v.08c.02,1.46.24,2.9.66,4.3.75,2.51,2.12,4.7,3.71,6.78.31.41.64.82.96,1.22,1.6,1.97,3.34,3.87,4.85,5.9,1.14,1.48,2.11,3.09,2.88,4.8,1.84,4.32,1.86,9.19.08,13.53-.43.99-.92,1.96-1.47,2.89-.97,1.67-2.04,3.3-2.88,5.04-.28.58-.54,1.18-.75,1.78-1.88,4.85-2.29,10.23-3.83,15.23-1.25,4.04-3.24,7.82-5.85,11.15h-48.78s3.44-16.73,3.93-20.17c.24-1.72,2.89-7.54,7.22-13.05.38-.51.81-1.01,1.23-1.51-3.54,2.8-6.62,6.15-9.1,9.93l-.34.53c.78-2.41,1.65-4.79,2.53-7.13,2.19-5.8,4.64-11.71,9.01-16.11,2.47-2.48,5.47-4.39,7.82-6.98,4.03-4.44,5.77-10.55,5.81-16.58,0-.81,0-1.61-.07-2.41-.45-6.78-2.77-13.28-5.28-19.6-1.29-3.25-2.64-6.63-2.72-10.08-.02-.66.02-1.33.11-1.99,1.04-7.41,8.58-11.85,13.11-17.88,6.73-8.94,7.22-22.24,16.05-29.11,6.78-5.28,16.21-4.95,24.77-4.38,7.97.54,15.16,1.57,23.07,2.68s15.94,3.18,22.28,8.04c4.1,3.16,7.29,7.31,10.13,11.63,3.8,5.78,7.12,12.17,7.58,19.07.05.66.06,1.31.05,1.96-.06,7.89-3.43,15.56-3.89,23.49-.03.54-.05,1.07-.04,1.61,0,.02,0,.04,0,.06.05,6.87,2.7,14.04,6.28,19.85,5.3,8.64,8.09,18.59,8.06,28.73Z"/></g></svg>