<?xml version="1.0" encoding="utf-8"?>
<!-- Generator: Adobe Illustrator 27.5.0, SVG Export Plug-In . SVG Version: 6.00 Build 0)  -->
<svg version="1.1" id="Layer_2" xmlns="http://www.w3.org/2000/svg" xmlns:xlink="http://www.w3.org/1999/xlink" x="0px" y="0px"
	 viewBox="0 0 406 306" style="enable-background:new 0 0 406 306;" xml:space="preserve">
<style type="text/css">
	.st0{fill:#3FC1C9;}
	.st1{opacity:0.32;fill:url(#SVGID_1_);enable-background:new    ;}
	.st2{fill:#7F1D18;}
	.st3{fill:#AA3529;}
	.st4{fill:#206BC4;}
	.st5{fill:#E98669;}
	.st6{fill:#CD725F;}
	.st7{fill:#FFD7CB;}
	.st8{fill:#E0E4EF;}
	.st9{fill:#FDC54C;}
	.st10{fill:#ACC9E2;}
	.st11{fill:#C5C9D3;}
	.st12{fill:#E4ACC9;}
	.st13{fill:#A0D179;}
</style>
<path class="st0" d="M194.4,290.3L26.1,190.8c-5.4-3-9.9-7.9-4.7-11.2l168.9-97.3c2.5-1.6,6.4-2.6,9-1.1l176.6,102.5
	c5.4,3.1,6.3,11.8,1,14.9l-160.2,91.5C209.7,294.1,201.3,294.2,194.4,290.3z"/>
<linearGradient id="SVGID_1_" gradientUnits="userSpaceOnUse" x1="125.2118" y1="60.7407" x2="185.2318" y2="117.2007" gradientTransform="matrix(1.015 0 0 -1.015 1.41 315.2482)">
	<stop  offset="0" style="stop-color:#000000;stop-opacity:0"/>
	<stop  offset="0.99" style="stop-color:#552800"/>
</linearGradient>
<path class="st1" d="M146.6,261.2l8.5-5.7l61.4-50.8l-14.5-6.2c-8.7,2.3-24.4,9.1-32.5,12.8c-12,5.5-24.1,10.5-36.4,15.4
	c-6.8,2.7-13.6,5.4-20.4,8C124.8,242.4,135.8,251.7,146.6,261.2z"/>
<polyline class="st2" points="208.8,211.5 196.5,206.1 196.5,112.4 212.6,106.6 "/>
<polyline class="st3" points="216.4,94.5 216.4,204.8 208.8,211.5 208.8,105.3 "/>
<path class="st4" d="M143.6,117.4V76.6c0,0-1.1-7.2,11.8-13.7c12.9-6.4,55.6-31.4,55.6-31.4s20.9-3.8,32.2,26.8
	c2,5.1,3.2,10.5,3.8,16v32l-62,34.4L143.6,117.4z"/>
<path class="st5" d="M146,114.4V76.1c0,0,1.3-10.7,12.4-7c11,3.8,22.6,18.5,25,32.2v34.6l-36-20.9"/>
<path class="st4" d="M145.4,118.1l-24.2,29.3c0,0-11,16.9,7,26.6c18,9.7,34.9-10.5,34.9-10.5l20.7-23.7L145.4,118.1z"/>
<path class="st3" d="M143.3,117.4l-24.2,29.3c0,0-11,16.9,7,26.6c18,9.7,34.9-10.5,34.9-10.5l20.6-23.6L143.3,117.4z"/>
<path class="st6" d="M178.6,88.4c-4.9-9.1-12.8-16.8-20.3-19.4c-11-3.8-12.3,6.9-12.3,6.9v38.6C158.2,104.7,164,100.5,178.6,88.4z"
	/>
<ellipse transform="matrix(0.4424 -0.8968 0.8968 0.4424 44.4549 254.1064)" class="st7" cx="226.6" cy="91.3" rx="17.3" ry="13.8"/>
<path class="st3" d="M231.9,81.8c1.5,1.2,2.4,3,2.3,5c0,1.8-0.4,3.6-1.2,5.1c-0.6,1.4-1.7,2.5-3,3.2c-0.6,0.4-1.4,0.2-1.8-0.4
	c-0.4,0.9-1.1,1.6-1.9,2c-0.8,0.4-1.7,0.2-2.2-0.4c-0.7-0.9-1.1-2-1-3.2c-0.1-1.4,0.3-2.9,0.9-4.1c0.5-1.1,1.4-2,2.5-2.5
	c0.5-0.3,1.2-0.2,1.7,0.1l0.1-0.6l2-0.8l-0.4,6.2c0,0.4,0,0.8,0,1.1c0,0.3,0.2,0.5,0.4,0.4c0.7-0.4,1.2-1.1,1.4-1.8
	c0.5-1,0.7-2.2,0.6-3.3c0.1-1.4-0.5-2.8-1.7-3.7c-1.2-0.7-2.6-0.8-3.9-0.2c-1.7,0.8-3.2,2.1-4.1,3.8c-1.1,1.8-1.6,3.9-1.6,6
	c-0.1,1.6,0.5,3.2,1.7,4.4c1.1,1,2.6,1.1,4.5,0.3c1.7-0.8,3.3-2,4.5-3.4l0.8,1.9c-1.5,1.6-3.2,2.9-5.2,3.8c-2.5,1-4.5,0.9-6-0.4
	s-2.3-3.2-2.4-5.8c-0.1-2.7,0.7-5.4,2.2-7.8c1.3-2.2,3.2-4,5.5-5.1C228.7,80.7,230.5,80.8,231.9,81.8z M227.5,92.7
	c0.3-0.7,0.5-1.5,0.5-2.3c0-0.5-0.1-0.9-0.5-1.3c-0.3-0.3-0.7-0.3-1-0.2c-0.5,0.3-0.8,0.7-1,1.2c-0.3,0.7-0.4,1.4-0.4,2.1
	c0,0.5,0.1,1,0.4,1.5c0.1,0.3,0.5,0.5,0.8,0.3c0,0,0,0,0,0C226.9,93.9,227.3,93.4,227.5,92.7"/>
<path class="st3" d="M198.2,41.1L198.2,41.1c1,0,1.7,0.8,1.7,1.7v69c0,1-0.8,1.7-1.7,1.7l0,0c-1,0-1.7-0.8-1.7-1.7v-69
	C196.5,41.9,197.3,41.1,198.2,41.1z"/>
<path class="st3" d="M200,41.1c0,0,23.9-2.4,25.5-2.2c1.6,0.3-25.5,26.1-25.5,26.1"/>
<path class="st8" d="M58.9,189.9c0.7-0.2,12.7,7.6,12.7,7.6l23.2-13.2l-12.5-8l-24.5,14"/>
<path class="st8" d="M76.4,150.1c0.9,0.2,19.4,15.6,19.4,15.6l14.7-6.5l-19.6-15.6L76.4,150.1z"/>
<polygon class="st8" points="102.3,195.6 120.6,195.6 119,214.5 100.5,214.5 "/>
<path class="st8" d="M149.2,196c1.3,0,30.3,8.3,30.3,8.3l8.5-9.4l-30.5-8L149.2,196z"/>
<polygon class="st8" points="125.8,228 118.5,238 149.9,245.2 155.7,235.1 "/>
<polygon class="st8" points="183.8,227.3 176.9,237.2 207,245.8 213.7,235.6 "/>
<polygon class="st8" points="181.6,266.8 205.7,279.9 218.4,273.4 194.5,259.9 "/>
<polygon class="st8" points="284.3,187.9 277,197.9 308.4,205 314.2,195 "/>
<polygon class="st8" points="234.4,165.7 233.3,186 251.5,186 251.5,165.7 "/>
<polygon class="st8" points="299.1,171.3 319.2,187.4 335,180.9 313.5,164.4 "/>
<path class="st8" d="M231,138.3l27.6,5.6c0,0,8.3-9.6,7.6-9.6c-0.7,0-27.4-6.2-27.4-6.2L231,138.3z"/>
<path class="st8" d="M258.8,219.6c0.4-0.7,23.6,12.9,23.6,12.9l12.7-6.5l-24.3-14.5L258.8,219.6z"/>
<polygon class="st8" points="222.7,225.1 219.2,236.6 252.8,239.8 254.9,228 "/>
<polygon class="st8" points="127,93.5 134.3,128.2 184.4,100.4 175.9,68.3 "/>
<polygon class="st9" points="127,93.5 155.7,98.2 175,68.7 "/>
<polygon class="st8" points="138.5,99.7 138.5,129.9 177.2,108.3 177.2,77.4 "/>
<polygon class="st10" points="138.5,99.7 160.9,103.7 177.2,77.4 "/>
<polygon class="st11" points="148.8,107.1 148.8,137.3 187.4,115.7 187.4,84.8 "/>
<polygon class="st12" points="148.8,107.1 171.1,111 187.4,84.8 "/>
<path class="st8" d="M195,120.5c-1.2-7.1-1.4-14.3-0.8-21.5c0-1-0.1-1.9-0.1-2.9L157.8,117v30.2l38.6-21.6v-2.6
	C195.6,122.5,195.1,121.5,195,120.5z"/>
<path class="st12" d="M194.1,96.2l-36.3,20.9l22.3,4l14-22.6C194.2,97.7,194.1,96.9,194.1,96.2z"/>
<path class="st4" d="M164.7,72.4c0,0,18,10.9,18.7,28.9v34.6l13.2-10.2c0,0,0.2-34-3.9-44.4s-17.5-19-17.5-19L164.7,72.4z"/>
<polygon class="st9" points="90.9,143.7 93.5,154.7 110.5,159.3 "/>
<polygon class="st9" points="71.5,197.4 78,186 94.7,184.3 "/>
<polygon class="st13" points="120.6,195.6 112.6,204.3 119,214.5 "/>
<polygon class="st9" points="157.4,186.9 168.1,195.6 188,194.9 "/>
<polygon class="st9" points="118.5,238 136.4,236.6 149.9,245.2 "/>
<polygon class="st9" points="183.8,227.3 194.4,235.7 213.7,235.6 "/>
<polygon class="st13" points="181.6,266.8 200,269.9 205.7,279.9 "/>
<polygon class="st9" points="222.7,225.1 237.7,233.9 254.9,228 "/>
<polygon class="st13" points="270.8,211.5 277,222.8 295.1,226 "/>
<polygon class="st9" points="284.3,187.9 295.1,195.6 314.2,195 "/>
<polygon class="st13" points="313.5,164.4 314.2,176.6 335,180.9 "/>
<polygon class="st9" points="234.4,165.7 243.5,175.1 233.3,186 "/>
<polygon class="st13" points="238.8,128 247.6,135.9 266.2,134.3 "/>
</svg>
