<?xml version="1.0" encoding="utf-8"?>
<!-- Generator: Adobe Illustrator 27.5.0, SVG Export Plug-In . SVG Version: 6.00 Build 0)  -->
<svg version="1.1" id="Layer_2" xmlns="http://www.w3.org/2000/svg" xmlns:xlink="http://www.w3.org/1999/xlink" x="0px" y="0px"
	 viewBox="0 0 406 306" style="enable-background:new 0 0 406 306;" xml:space="preserve">
<style type="text/css">
	.st0{fill:#3FC1C9;}
	.st1{opacity:0.32;fill:url(#SVGID_1_);enable-background:new    ;}
	.st2{fill:#7F1D18;}
	.st3{fill:#AA3529;}
	.st4{fill:#206BC4;}
	.st5{fill:#E98669;}
	.st6{fill:#CD725F;}
	.st7{fill:#FFD7CB;}
	.st8{fill:#FFFFFF;}
</style>
<path class="st0" d="M21.6,169.4l158.6-90.2c7.9-4.5,17.5-4.4,25.4,0.1L369,174.4c6.7,3.9,9,12.6,5.1,19.3c-1.2,2.1-3,3.9-5.2,5.2
	l-152.5,87.6c-10.5,6-23.4,6-34,0L21.6,193.9c-6.8-3.9-9.1-12.5-5.2-19.3C17.6,172.4,19.5,170.6,21.6,169.4z"/>
<linearGradient id="SVGID_1_" gradientUnits="userSpaceOnUse" x1="125.3545" y1="60.7378" x2="185.3645" y2="117.1978" gradientTransform="matrix(1.015 0 0 -1.015 1.41 315.2482)">
	<stop  offset="0" style="stop-color:#000000;stop-opacity:0"/>
	<stop  offset="0.99" style="stop-color:#552800"/>
</linearGradient>
<path class="st1" d="M146.7,261.2l8.5-5.7l61.4-50.8l-14.5-6.2c-8.7,2.3-24.4,9.1-32.5,12.8c-12,5.5-24.1,10.5-36.4,15.4
	c-6.8,2.7-13.6,5.4-20.4,8C124.9,242.4,135.9,251.7,146.7,261.2z"/>
<polyline class="st2" points="208.8,211.5 196.5,206.1 196.5,112.4 212.6,106.6 "/>
<polyline class="st3" points="216.4,94.5 216.4,204.8 208.8,211.5 208.8,105.3 "/>
<path class="st4" d="M143.6,117.4V76.6c0,0-1.1-7.2,11.8-13.7c12.9-6.4,55.6-31.4,55.6-31.4s20.9-3.8,32.2,26.8
	c2,5.1,3.2,10.5,3.8,16v32l-62,34.4L143.6,117.4z"/>
<path class="st5" d="M146,114.4V76.1c0,0,1.3-10.7,12.4-7c11,3.8,22.6,18.5,25,32.2v34.6l-36-20.9"/>
<path class="st4" d="M145.4,118.1l-24.2,29.3c0,0-11,16.9,7,26.6c18,9.7,34.9-10.5,34.9-10.5l20.7-23.7L145.4,118.1z"/>
<path class="st3" d="M143.3,117.4l-24.2,29.3c0,0-11,16.9,7,26.6c18,9.7,34.9-10.5,34.9-10.5l20.6-23.6L143.3,117.4z"/>
<path class="st6" d="M180.1,91.3c-4.9-9.1-14.2-19.8-21.7-22.3c-11-3.8-12.4,6.9-12.4,6.9v38.6C163.5,102.4,161.4,104.5,180.1,91.3z
	"/>
<ellipse transform="matrix(0.4424 -0.8968 0.8968 0.4424 34.2988 251.9742)" class="st7" cx="219.8" cy="98.4" rx="17.3" ry="13.8"/>
<path class="st3" d="M225.1,89c1.5,1.2,2.3,3,2.2,5c0,1.8-0.4,3.6-1.2,5.1c-0.6,1.4-1.7,2.5-3,3.2c-0.6,0.4-1.4,0.2-1.8-0.4
	c-0.4,0.9-1.1,1.6-1.9,2c-0.8,0.4-1.7,0.2-2.2-0.4c-0.7-0.9-1-2.1-0.9-3.2c-0.1-1.4,0.3-2.9,0.9-4.1c0.5-1.1,1.4-2,2.5-2.5
	c0.5-0.3,1.2-0.2,1.7,0.1l0.1-0.6l2-0.8l-0.4,6.2c0,0.4,0,0.8,0,1.1s0.2,0.5,0.4,0.4c0.7-0.4,1.2-1.1,1.5-1.8c0.5-1,0.7-2.2,0.6-3.3
	c0.1-1.4-0.5-2.8-1.7-3.7c-1.2-0.7-2.6-0.8-3.9-0.2c-1.7,0.8-3.2,2.1-4.1,3.8c-1.1,1.8-1.6,3.9-1.6,6c-0.1,1.6,0.5,3.2,1.7,4.4
	c1.1,1,2.6,1.1,4.5,0.3c1.7-0.8,3.3-2,4.5-3.4l0.8,1.9c-1.4,1.6-3.2,2.9-5.2,3.8c-2.5,1-4.5,0.9-6-0.4c-1.5-1.3-2.3-3.2-2.5-5.8
	c-0.1-2.7,0.7-5.4,2.2-7.8c1.3-2.2,3.2-4,5.5-5.1C221.9,87.9,223.7,87.9,225.1,89z M220.7,99.8c0.3-0.7,0.5-1.5,0.5-2.3
	c0-0.5-0.1-0.9-0.5-1.3c-0.3-0.3-0.7-0.3-1-0.2c-0.5,0.3-0.8,0.7-1,1.2c-0.3,0.7-0.4,1.4-0.4,2.1c0,0.5,0.1,1,0.4,1.5
	c0.1,0.3,0.5,0.5,0.8,0.3c0,0,0,0,0,0C220.1,101,220.5,100.5,220.7,99.8"/>
<path class="st3" d="M237.4,66.2L237.4,66.2c0.3,0.6,0.1,1.3-0.5,1.6l-42,20.8c-0.6,0.3-1.3,0.1-1.6-0.5l0,0
	c-0.3-0.6-0.1-1.3,0.5-1.6l42-20.8C236.4,65.4,237.1,65.6,237.4,66.2z"/>
<path class="st3" d="M238,67.3c0,0,8.7,13.8,9,14.9c0.3,1.1-23.5-7.7-23.5-7.7"/>
<path class="st8" d="M173.6,80.3c-4.1,3-9.5,1.7-14.1,1c-1.9-0.2-3.8-0.6-5.7-1.1c1.8-0.5,3.5-1.3,4.9-2.5c2.5,1.3,5.4,2,8.2,1.8
	c1.9,0.5,3.9,0.5,5.8,0c0.3-0.1,0.4-0.4,0.4-0.6s-0.4-0.4-0.6-0.4c-1.1,0.3-2.2,0.4-3.4,0.3c0-0.3-0.3-0.5-0.6-0.5
	c-0.1-0.1-0.2-0.1-0.3-0.1c-2.3,0.1-4.6-0.4-6.6-1.5c1.6-0.3,3.1-1.1,4.3-2.2c0.5-0.4-0.2-1.2-0.7-0.7c-1.2,1.1-2.8,1.8-4.4,2
	c1.2-1.3,2.1-2.7,2.8-4.3c0.3-0.6-0.6-1.1-0.9-0.5c-0.7,1.6-1.7,3.1-3,4.4c-2.1-1.7-3.6-3.9-4.3-6.4c-0.2-0.6-1.2-0.4-1,0.3
	c0.8,2.6,2.3,4.9,4.4,6.6h-0.9c-2.9-1.8-5.5-4-7.8-6.5c-0.5-0.5-1.2,0.3-0.7,0.7c2,2.1,4.2,4,6.6,5.8c-3.2-0.2-6.4-1.3-7.8-4.5
	c-0.3-0.6-1.1-0.1-0.9,0.5c1.5,3.4,5,4.7,8.5,5c0.6,0,1.3,0.1,1.9,0.1l0.2,0.1c-1.6,1.2-3.5,2-5.4,2.3c-2-1.1-4-2.4-5.9-3.6
	c-0.6-0.3-1.1,0.5-0.5,0.9c1.5,0.9,3,2,4.7,3c-1.4,0.1-2.9,0-4.3-0.3c-0.6-0.1-0.9,0.8-0.3,1c2,0.4,4,0.5,6,0.1
	c0.4,0.2,0.9,0.4,1.4,0.6c2.3,0.9,5.1,1,7.5,1.3c4.4,0.6,9.2,1.4,13.1-1.4C174.6,80.8,174.1,79.9,173.6,80.3z"/>
<path class="st8" d="M184.6,123.5c-2.7,0.6-5.5,1.1-8.3,1.4c0.9-1.4,1.8-2.8,2.7-4.3c1.8-0.9,3.5-2.1,5.1-3.3
	c0.5-0.4-0.2-1.1-0.7-0.7c-1.1,0.9-2.2,1.7-3.4,2.4c1.6-2.8,3.1-5.6,4.5-8.6c0.3-0.6-0.6-1.1-0.9-0.5c-1.6,3.4-3.4,6.8-5.3,10
	c-5.3,2.6-11.2,3.5-17,2.5c-0.6-0.1-0.9,0.9-0.3,1c5.5,1,11.2,0.3,16.3-1.9c-0.8,1.2-1.6,2.4-2.4,3.6c-3,0.4-5.9,0.7-8.9,1.1
	c-0.6,0.1-0.4,1.1,0.3,1c2.6-0.4,5.2-0.6,7.8-0.9c-0.8,1.1-1.5,2.1-2.3,3.2c-0.4,0.5,0.5,1,0.9,0.5c1-1.3,1.9-2.6,2.8-3.9
	c3.1-0.3,6.3-0.9,9.4-1.6C185.5,124.3,185.2,123.3,184.6,123.5z"/>
</svg>
