<svg id="Layer_2" data-name="Layer 2" xmlns="http://www.w3.org/2000/svg" xmlns:xlink="http://www.w3.org/1999/xlink" viewBox="0 0 400 300" width="406" height="306" class="illustration styles_illustrationTablet__1DWOa"><defs><linearGradient id="linear-gradient" x1="126.76" y1="249.13" x2="186.77" y2="192.67" gradientUnits="userSpaceOnUse"><stop offset="0" stop-opacity="0"></stop><stop offset="0.99" stop-color="#552800"></stop></linearGradient></defs><title>PP</title><path d="M21.33,166.12,177.55,77.21a25.05,25.05,0,0,1,25,.13l161,93.75a13.92,13.92,0,0,1-.07,24.11L213.23,281.47a33.57,33.57,0,0,1-33.46,0L21.28,190.29A13.92,13.92,0,0,1,21.33,166.12Z" fill="#3fc1c9"></path><path d="M144.53,256.63l8.35-5.65,60.5-50-14.32-6.15c-8.59,2.3-24,9-32,12.65-11.81,5.44-23.77,10.37-35.87,15.13q-10.05,4-20.13,7.88C123.1,238.06,133.9,247.23,144.53,256.63Z" opacity="0.32" fill="url(#linear-gradient)"></path><polyline points="205.67 207.67 193.58 202.33 193.58 110 209.46 104.33" fill="#7f1d18"></polyline><polyline points="213.24 92.33 213.24 201 205.67 207.67 205.67 103" fill="#aa3529"></polyline><path d="M141.49,114.93V74.72s-1.06-7.14,11.64-13.49,54.76-30.95,54.76-30.95,20.63-3.7,31.74,26.45a59.73,59.73,0,0,1,3.7,15.8v31.55l-61.11,33.86Z" fill="#206bc4"></path><path d="M143.85,112V74.19s1.32-10.58,12.17-6.88,22.22,18.25,24.6,31.74v34.12l-35.45-20.63" fill="#e98669"></path><rect x="211.03" y="51" width="2.34" height="48.53" rx="1.17" ry="1.17" transform="translate(185.37 -148.28) rotate(63.63)" fill="#aa3529"></rect><path d="M234.46,65.53s8.55,13.61,8.87,14.66-23.2-7.55-23.2-7.55" fill="#aa3529"></path><path d="M143.28,115.61l-23.81,28.83s-10.85,16.67,6.88,26.19,34.39-10.32,34.39-10.32L181.11,137Z" fill="#206bc4"></path><path d="M141.2,114.93l-23.81,28.83s-10.85,16.67,6.88,26.19,34.39-10.32,34.39-10.32L179,136.36Z" fill="#ffd7cb"></path><path d="M176,86.31c-4.86-8.93-12.57-16.6-20-19.15C145.17,63.46,143.85,74,143.85,74v38C155.85,102.38,161.62,98.28,176,86.31Z" fill="#cd725f"></path><ellipse cx="213.24" cy="96.9" rx="17" ry="13.57" transform="translate(32.01 245.28) rotate(-63.74)" fill="#ffd7cb"></ellipse><path d="M218.52,87.6a5.73,5.73,0,0,1,2.22,4.88,10.5,10.5,0,0,1-1.16,5.06,6.21,6.21,0,0,1-3,3.13,1.37,1.37,0,0,1-1.82-.39,4,4,0,0,1-1.92,2,1.85,1.85,0,0,1-2.21-.42,4.53,4.53,0,0,1-1-3.13,8,8,0,0,1,.93-4.06A5,5,0,0,1,213,92.23a1.8,1.8,0,0,1,1.68.08l.11-.63,2-.82-.44,6.08c0,.41,0,.76,0,1.06s.15.49.42.38a3.3,3.3,0,0,0,1.43-1.79,7.32,7.32,0,0,0,.63-3.26,4.28,4.28,0,0,0-1.64-3.68,3.79,3.79,0,0,0-3.8-.16,8.46,8.46,0,0,0-4,3.78,11.05,11.05,0,0,0-1.53,5.9,5.9,5.9,0,0,0,1.67,4.37q1.6,1.48,4.43.31a13.25,13.25,0,0,0,4.45-3.36l.75,1.84A15.13,15.13,0,0,1,214,106.1q-3.68,1.53-5.92-.34T205.72,100a13.86,13.86,0,0,1,2.12-7.67,11.74,11.74,0,0,1,5.46-5Q216.39,86.09,218.52,87.6Zm-4.36,10.73a5,5,0,0,0,.48-2.23,1.65,1.65,0,0,0-.46-1.28.9.9,0,0,0-1-.14,2.11,2.11,0,0,0-1,1.16,4.71,4.71,0,0,0-.38,2.09,3,3,0,0,0,.34,1.48.62.62,0,0,0,.82.31,2.55,2.55,0,0,0,1.23-1.4" fill="#aa3529"></path><path d="M156.53,76.48s-.18,11.64-8.6,11.82c0,0,8.6,1.61,8.6,8.6,0,0,.9-8.78,8.24-8.78C164.76,88.12,156.53,88.12,156.53,76.48Z" fill="#fff"></path><path d="M173.74,101.93s-.24,15.59-11.51,15.83c0,0,11.51,2.16,11.51,11.51,0,0,1.2-11.75,11-11.75C184.78,117.53,173.74,117.53,173.74,101.93Z" fill="#fff"></path><path d="M286,172.28s-.19,12.29-9.07,12.48c0,0,9.07,1.7,9.07,9.07,0,0,.95-9.26,8.7-9.26C294.73,184.57,286,184.57,286,172.28Z" fill="#fff"></path><path d="M82.25,145.33s-.19,12.29-9.07,12.48c0,0,9.07,1.7,9.07,9.07,0,0,.95-9.26,8.7-9.26C90.95,157.61,82.25,157.61,82.25,145.33Z" fill="#fff"></path><path d="M205.93,231.19s-.26,17.12-12.65,17.39c0,0,12.65,2.37,12.65,12.65,0,0,1.32-12.91,12.12-12.91C218.05,248.32,205.93,248.32,205.93,231.19Z" fill="#fff"></path></svg>