<?xml version="1.0" encoding="utf-8"?>
<svg version="1.1" id="Layer_1" x="0px" y="0px" style="" data-imageid="data-storage-2-82" imagename="Data Storage 2" class="illustrations_image" viewBox="0 0 400 300" width="400px" height="300px" xmlns="http://www.w3.org/2000/svg" xmlns:bx="https://boxy-svg.com"><defs><bx:export><bx:file format="svg" path="project-group.svg"/></bx:export></defs><style type="text/css">
	.st0_data-storage-2-82{fill:#16A79E;}
	.st1_data-storage-2-82{opacity:0.5;fill:url(#SVGID_1_);enable-background:new    ;}
	.st2_data-storage-2-82{opacity:0.5;fill:url(#SVGID_00000120536524764886350550000001884914585085225364_);enable-background:new    ;}
	.st3_data-storage-2-82{opacity:0.5;fill:url(#SVGID_00000064348935573176458080000008153272555107772825_);enable-background:new    ;}
	.st4_data-storage-2-82{fill:#68E1FD;}
	.st5_data-storage-2-82{fill:#3129A3;}
	.st6_data-storage-2-82{fill:#F8997C;}
	.st7_data-storage-2-82{fill:#FCB749;}
	.st8_data-storage-2-82{fill:#467EC1;}
	.st9_data-storage-2-82{fill:#FFFFFF;}
	.st10_data-storage-2-82{opacity:0.5;fill:#FFFFFF;enable-background:new    ;}
	.st11_data-storage-2-82{fill:#FFECB3;}
	.st12_data-storage-2-82{opacity:0.2;enable-background:new    ;}
</style><g id="background_data-storage-2-82" transform="matrix(0.729724, 0, 0, 0.729724, 16.749065, -28.7152)" style=""><path class="st0_data-storage-2-82" d="M244.4,415.6L32.6,290.4c-6.8-3.8-12.5-10-6-14.1l212.6-122.5c3.2-2,8-3.3,11.3-1.4l222.3,129&#10;&#9;&#9;c6.7,3.9,8,14.9,1.2,18.8L272.3,415.4C263.7,420.4,253.1,420.4,244.4,415.6z"/><polygon class="st1_data-storage-2-82" points="278.1,282.9 185.7,342.9 250,398.3 352.2,340.2 &#9;"/><polygon style="opacity:0.5;fill:url(#SVGID_00000023246969800634915850000002123449208904907662_);enable-background:new    ;" points="&#10;&#9;&#9;176.9,215.4 136.1,242.1 158.2,259.7 215.8,227.3 &#9;"/><polygon style="opacity:0.5;fill:url(#SVGID_00000003100483718527015370000015244318300076831913_);enable-background:new    ;" points="&#10;&#9;&#9;92.3,269 51.5,295.7 73.6,313.2 131.1,280.8 &#9;"/></g><g id="stationary_data-storage-2-82" transform="matrix(0.729724, 0, 0, 0.729724, 16.749065, -28.7152)" style=""><path class="st4_data-storage-2-82 targetColor" d="M92.4,235.1v42.2c0,0,40.6,2.3,40.6,0v-42.2" style="fill: rgb(32, 107, 196);"/><ellipse class="st4_data-storage-2-82 targetColor" cx="112.7" cy="277" rx="20.3" ry="9.3" style="fill: rgb(32, 107, 196);"/><ellipse class="st5_data-storage-2-82" cx="112.7" cy="235.1" rx="20.3" ry="9.3"/><path class="st6_data-storage-2-82" d="M100.1,242.3l0.1,0.1c0.8,0.3,1.6,0.5,2.4,0.7L97,196.8c-1-0.4-2.1-0.2-2.8,0.5l5.7,44.9L100.1,242.3z"/><path class="st6_data-storage-2-82" d="M106.4,243.7l1.7-43.4c-0.9-0.5-2-0.5-2.9,0.1l-1.4,43C104.6,243.5,105.5,243.7,106.4,243.7z"/><path class="st7_data-storage-2-82" d="M112.7,244.4l5.6-45.3l11.3,6l-4.6,38C121,244.2,116.9,244.7,112.7,244.4z"/></g><g id="folder_data-storage-2-82" transform="matrix(0.729724, 0, 0, 0.729724, 16.749065, -28.7152)" style=""><polygon class="st8_data-storage-2-82" points="241.1,304.1 247.3,307.1 250.9,303.7 256.1,297.8 246.1,295.9 &#9;"/><path class="st5_data-storage-2-82" d="M322.9,168l-34.1,16.1l-4.9,14.8l-50.2,27.3c-1.5,0.8-2.4,2.5-2.1,4.2l9.6,73.6l93.1-54.4l-5.6-62.8&#10;&#9;&#9;c-0.1-2.6-1.4-11.9-2.1-17c-0.2-1.4-1.5-2.3-2.9-2.1C323.4,167.8,323.1,167.9,322.9,168z"/><path class="st4_data-storage-2-82 targetColor" d="M337.1,174.1l-37,19.1l-4.9,12.2l-45.5,26.2c-1.4,0.8-2.3,2.3-2.3,3.9v71.6l93.1-54.4v-74.3l-0.1-2.4&#10;&#9;&#9;c-0.1-1.2-1.1-2.2-2.3-2.1C337.6,173.9,337.3,174,337.1,174.1z" style="fill: rgb(32, 107, 196);"/><polygon class="st8_data-storage-2-82" points="270.9,317.8 277.1,320.8 280.8,317.4 285.9,311.5 275.9,309.5 &#9;"/><path class="st5_data-storage-2-82" d="M352.7,181.6l-34.1,16.1l-4.9,14.8l-50.2,27.3c-1.5,0.8-2.4,2.5-2.1,4.2l9.6,73.6l93.1-54.4l-5.6-62.8&#10;&#9;&#9;c-0.1-2.6-1.4-11.9-2.1-17c-0.2-1.4-1.5-2.3-2.9-2.1C353.2,181.5,352.9,181.5,352.7,181.6z"/><path class="st4_data-storage-2-82 targetColor" d="M366.9,187.8l-37,19.1l-4.9,12.2l-45.5,26.2c-1.4,0.8-2.3,2.3-2.3,3.9v71.6l93.1-54.4v-74.3l-0.1-2.4&#10;&#9;&#9;c-0.1-1.2-1.1-2.2-2.3-2.1C367.4,187.6,367.1,187.7,366.9,187.8z" style="fill: rgb(32, 107, 196);"/><polygon class="st8_data-storage-2-82" points="292.1,337.5 298.3,340.6 301.9,337.1 307.1,331.2 297,329.3 &#9;"/><path class="st5_data-storage-2-82" d="M373.9,201.4l-34.1,16.1l-4.9,14.8l-50.2,27.3c-1.5,0.8-2.4,2.5-2.1,4.2l9.6,73.6l93.1-54.4l-5.6-62.8&#10;&#9;&#9;c-0.1-2.6-1.4-11.9-2.1-17c-0.2-1.4-1.5-2.3-2.9-2.1C374.3,201.2,374.1,201.3,373.9,201.4z"/><path class="st4_data-storage-2-82 targetColor" d="M388,207.6l-37,19.1l-4.9,12.2L300.5,265c-1.4,0.8-2.3,2.3-2.3,3.9v71.6l93.1-54.4v-74.3l-0.1-2.4&#10;&#9;&#9;c-0.1-1.2-1.1-2.2-2.3-2.1C388.6,207.3,388.3,207.4,388,207.6z" style="fill: rgb(32, 107, 196);"/><polygon class="st8_data-storage-2-82" points="321.9,351.2 328.1,354.2 331.7,350.8 336.9,344.9 326.8,343 &#9;"/><path class="st5_data-storage-2-82" d="M403.7,215.1l-34.1,16.1l-4.9,14.8l-50.2,27.3c-1.5,0.8-2.4,2.5-2.1,4.2l9.6,73.6l93.1-54.4l-5.6-62.8&#10;&#9;&#9;c-0.1-2.6-1.4-11.9-2.1-17c-0.2-1.4-1.5-2.3-2.8-2.2C404.2,214.9,403.9,215,403.7,215.1z"/><path class="st4_data-storage-2-82 targetColor" d="M417.8,221.2l-37,19.1l-4.9,12.2l-45.5,26.2c-1.4,0.8-2.3,2.3-2.3,3.9v71.6l93.1-54.4v-74.3l-0.1-2.4&#10;&#9;&#9;c-0.1-1.2-1.1-2.1-2.3-2.1C418.4,221,418.1,221.1,417.8,221.2z" style="fill: rgb(32, 107, 196);"/><path class="st9_data-storage-2-82" d="M372.1,302.9l0.3-1.1l3.4-1.9v-5.8c0-0.1-3.3,2-3.3,2l-0.2-0.3c-0.2-0.9-0.5-1.7-1-2.5l2.4-4.5l-3.1-2.3&#10;&#9;&#9;l-2.3,4.6l0,0c-0.8-0.2-1.7-0.2-2.5,0v-4.4l-4.4,2.4v4.6c-0.9,0.8-1.6,1.7-2.3,2.7l-2.6-1.7l-3,5.7l2.4,1.9l-0.2,1&#10;&#9;&#9;c-0.3,1-0.6,2-0.7,3.1l-3.5,1.9v5.8l3.4-2c0.1,1.1,0.5,2.1,1.1,3l-2.5,4.3l3.2,2.4l2.2-4.4h2.8v4.4l4.2-2.5v-4.3&#10;&#9;&#9;c1-0.9,1.8-2,2.5-3.1l2.5,1.7l3-5.8l-2.5-1.9l0.2-0.9C371.8,304.3,372,303.6,372.1,302.9z"/><ellipse transform="matrix(0.4313 -0.9022 0.9022 0.4313 -68.0436 501.3055)" class="st4_data-storage-2-82 targetColor" cx="363.6" cy="304.6" rx="7.7" ry="5.1" style="fill: rgb(32, 107, 196);"/><path class="st9_data-storage-2-82" d="M403.7,272.1l0.4-1.3l4.1-2.2v-6.9c0-0.1-3.9,2.3-3.9,2.3l-0.2-0.4c-0.2-1.1-0.6-2.1-1.2-3l2.9-5.3l-3.6-2.7&#10;&#9;&#9;l-2.7,5.4l0,0c-1-0.2-2-0.2-3,0.1v-5.2l-5.2,2.9v5.5c-1,1-2,2-2.8,3.2l-3.1-2l-3.5,6.7l2.8,2.2l-0.2,1.1c-0.4,1.2-0.7,2.4-0.9,3.6&#10;&#9;&#9;l-4.2,2.3v6.9l4-2.4c0.2,1.3,0.6,2.5,1.3,3.5l-3,5l3.8,2.9l2.6-5.2h3.3v5.2l5-3v-5.1c1.1-1.1,2.1-2.4,3-3.7l3,2l3.6-6.9l-3-2.2&#10;&#9;&#9;l0.3-1C403.2,273.7,403.5,272.9,403.7,272.1z"/><ellipse transform="matrix(0.4313 -0.9022 0.9022 0.4313 -23.4858 511.0166)" class="st4_data-storage-2-82 targetColor" cx="393.6" cy="274.1" rx="9.1" ry="6" style="fill: rgb(32, 107, 196);"/></g><g id="folder-2_data-storage-2-82" transform="matrix(0.729724, 0, 0, 0.729724, 16.749065, -28.7152)" style=""><polyline class="st4_data-storage-2-82 targetColor" points="170.4,147.3 235.9,110.1 259.6,125 229.9,154.9 191.9,172.1 &#9;" style="fill: rgb(32, 107, 196);"/><polyline class="st10_data-storage-2-82" points="170.4,147.3 235.9,110.1 259.6,125 229.9,154.9 191.9,172.1 &#9;"/><polygon class="st4_data-storage-2-82 targetColor" points="196.3,162.1 259.6,125 259.6,134.4 259.6,139.1 259.6,202.7 196.3,237.9 196.3,237.6 195.8,237.9 &#10;&#9;&#9;170.4,222.4 170.4,160.6 170.4,147.3 &#9;" style="fill: rgb(32, 107, 196);"/><polygon class="st11_data-storage-2-82" points="191.8,167.8 191.8,200.3 173.4,189.5 173.4,157.4 &#9;"/><polygon class="st12_data-storage-2-82" points="196.3,162.1 196.3,237.9 259.6,202.7 259.6,125 &#9;"/><ellipse transform="matrix(0.9739 -0.2272 0.2272 0.9739 -42.7146 46.6281)" class="st11_data-storage-2-82" cx="181.2" cy="208.9" rx="4.2" ry="6.1"/></g><g id="character_data-storage-2-82" transform="matrix(0.729724, 0, 0, 0.729724, 16.749065, -28.7152)" style=""><path class="st7_data-storage-2-82" d="M274,212c3.7-1.9,7.4-3.9,11-6c0.6-1.4,1.4-2.7,2.1-4.1c1.3-2.1,3.3-3.5,5.8-3.1c2.3,0.4,2,3.8-0.1,3.8&#10;&#9;&#9;l-0.3,0.4c4.5,0.2,12.6,0.9,10.8,5.3c0.2,0.1,0.3,0.3,0.5,0.4c1,1.2,0.8,2.9-0.3,3.9c-0.8,0.8-2,1.1-3.1,0.8&#10;&#9;&#9;c-0.6,1.6-2.4,1.9-4,1.5l-1.1-0.3c0.1,1-0.5,1.8-1.5,2c-0.2,0-0.4,0-0.6,0c-1.2-0.2-2.5-0.5-3.7-0.7c-8.4,2.7-12.6,3.6-15.8,5.8&#10;&#9;&#9;c-1.3,0.9,0,1.2,0,0c-0.6-0.8-0.5-1.9,0.3-2.5c0,0,0.1-0.1,0.1-0.1l0.4-0.3c-0.8-0.6-1-1.7-0.4-2.5c0,0,0.1-0.1,0.1-0.1&#10;&#9;&#9;c0.1-0.2,0.3-0.4,0.5-0.5C272.9,215.9,272.1,213,274,212z"/><path class="st6_data-storage-2-82" d="M230.9,341.3l-2,28.9l3.6,3.1l4-1c0,0-0.5-7.7,0.9-9.3s3.8,6.6,5.2,6.6s17.8-4.4,18-6.4&#10;&#9;&#9;c0.3-2.7-3.4-5.7-10.3-4c-7.5,1.8-8.9-6.7-10-14.8"/><path class="st8_data-storage-2-82" d="M242.7,347.1c0,0-7.1,3-19.4-4.8c0,0,4.2-38.4,3.9-45s-7.7-54.3,1.4-64.9s25.5,90.7,24.7,91.2"/><path d="M236.7,364.1l0.7-1.1c0,0,2-1.9,4-1s1.7,7.8,1.7,7.8l-6.8-2.5C236.1,366.2,236.3,365.1,236.7,364.1z"/><path class="st6_data-storage-2-82" d="M253.2,355.5l0.7,29l3.9,2.8l3.9-1.4c0,0-1.2-7.6,0-9.4s4.4,6.2,5.8,6.1s17.3-6.1,17.3-8.1&#10;&#9;&#9;c0.1-2.7-3.9-5.4-10.7-3c-7.3,2.5-9.4-5.8-11.4-13.8"/><path d="M261.1,377.6l0.6-1.2c0,0,1.8-2,3.9-1.3s2.4,7.6,2.4,7.6l-7-1.9C260.8,379.8,260.8,378.7,261.1,377.6z"/><path class="st8_data-storage-2-82" d="M255.6,243.7c0,0,12.1,32.7,14.9,46.9s2.9,67.4,1.9,68.8s-12.8,3.9-20.7,3.8s-6.9-62.9-6.9-62.9&#10;&#9;&#9;s-21.7-54.9-15.9-61S255.6,243.7,255.6,243.7z"/><path class="st6_data-storage-2-82" d="M256,244.4c-11,3.5-25-0.7-31.8-10.1c1.3-15.5,3.9-41.1,7.9-44.9c5.8-5.6,18.2,2.3,22.7,10.1&#10;&#9;&#9;c2.3,4,6.7,18.2,6.7,18.2l17-9.7l5.2,12.1c0,0-11.6,21.9-27.3,16.9L256,244.4z"/><path class="st9_data-storage-2-82" d="M245.4,215.9c0-0.4,0.3-0.6,0.6-0.6c0.4,0,0.7,0.3,0.7,0.6c0,4.9,0.1,10.2,2.5,14.6c2,3.6,5.5,6.7,9.7,6.9&#10;&#9;&#9;c0.8,0,0.8,1.3,0,1.3c-4.5-0.2-8.4-3.2-10.6-7.1C245.7,227,245.4,221.3,245.4,215.9z"/><path d="M251.4,161.1c0.9,0.2,2.3,1.6,4.5,6.7s-3,11.5-5.2,12.9s-5.5,6.6-5.5,6.6s-8.2,2-13.8-8.1S238,158.2,251.4,161.1z"/><path class="st7_data-storage-2-82" d="M253.7,166.7c0,0,4.1,16.8-2,20.7s-14.3-6.4-15.1-10.4S240.3,164.1,253.7,166.7z"/><path d="M253.7,166.7c0,0,1,11-4.7,13.4s-5.8,5.9-5.8,5.9s-10.4-5.6-11.5-10.5S245.7,162.3,253.7,166.7z"/><path d="M234.6,179.9c2.1,16.5-2.1,37.6,4.8,53.1c0.4,0.9,1.3,5.2,2,5.2l-16.6-9.1c-6.7-4.1-11.5-6.8-9.1-17.3s15.8-32.8,15.8-32.8&#10;&#9;&#9;L234.6,179.9z"/><path class="st9_data-storage-2-82" d="M259.9,209.3c1.1,4.4,1.9,8.8,2.5,13.3c0.1,0.8-1.2,0.8-1.3,0c-0.6-4.3-1.4-8.7-2.4-12.9&#10;&#9;&#9;C258.5,208.9,259.7,208.5,259.9,209.3z"/><path class="st8_data-storage-2-82" d="M236.5,187.4l1.6-3.3c3.1,1.6,6.3,2.9,9.5,4.1c3.9,1.2,2.8,5.7,2.8,5.7S241.3,193.9,236.5,187.4z"/></g></svg>