<?xml version="1.0" encoding="UTF-8"?><svg id="Ebene_2" xmlns="http://www.w3.org/2000/svg" viewBox="0 0 424.02 261"><defs><style>.cls-1{fill:#403e56;}.cls-2{fill:#fff;}.cls-3{fill:#010101;isolation:isolate;opacity:.2;}.cls-4{fill:#326ab2;}.cls-5{fill:#cdcccc;}.cls-6{fill:#a0626b;}.cls-7{fill:#e5e5e4;}.cls-8{fill:#302f42;}.cls-9{fill:#cccccb;}.cls-10{fill:#f1f1f1;}.cls-11{fill:#f2f2f2;}</style></defs><g id="Ebene_1-2"><path id="a163713d-a7fc-4807-a77b-111ad75719e9-1157" class="cls-10" d="m20.77,240.62c.18,6.62,1.29,13.19,3.3,19.5.04.15.09.29.14.44h12.3c-.01-.13-.03-.28-.04-.44-.82-9.43,3.86-66.12,9.52-75.93-.5.8-26.17,26.48-25.22,56.43Z"/><path id="a1d5a274-7181-45f3-aae5-db776f20014a-1158" class="cls-10" d="m21.69,260.12c.1.15.21.29.32.44h9.23c-.07-.12-.15-.27-.24-.44-1.52-2.75-6.04-10.98-10.22-19.5-4.5-9.16-8.63-18.67-8.28-22.11-.11.78-3.22,24.44,9.2,41.62Z"/><path class="cls-6" d="m290.08,53.7c1.33,3.29,5.07,4.88,8.36,3.55.35-.14.69-.31,1.01-.52l17.81,14.28,1.1-11.81-17.08-11.75c-2.09-2.89-6.13-3.53-9.02-1.44-2.42,1.75-3.32,4.93-2.18,7.69Z"/><polygon class="cls-4" points="317.66 58.1 311.01 53.4 303.47 62.11 312.24 67.31 317.66 58.1"/><path class="cls-1" d="m316.2,54.92l22.4,8.62,21.56-14.12c5.07-3.32,11.86-1.9,15.18,3.17,2.73,4.16,2.31,9.64-1.02,13.34l-.19.21-33.16,17.78-36.22-16.55,11.46-12.45Z"/><polygon class="cls-7" points="309.89 259.67 76.5 259.67 84.96 94.42 121.49 94.42 155.16 118.03 318.35 118.03 309.89 259.67"/><path class="cls-2" d="m252.76,209.27l-134.89-55.55c-.98-.41-1.45-1.53-1.05-2.51L177.94,2.79c.41-.98,1.53-1.45,2.51-1.05l134.89,55.55c.98.41,1.45,1.53,1.05,2.51l-61.12,148.42c-.41.98-1.53,1.45-2.51,1.05Z"/><path class="cls-1" d="m252.76,209.27l-134.89-55.55c-.98-.41-1.45-1.53-1.05-2.51L177.94,2.79c.41-.98,1.53-1.45,2.51-1.05l134.89,55.55c.98.41,1.45,1.53,1.05,2.51l-61.12,148.42c-.41.98-1.53,1.45-2.51,1.05ZM180.16,2.45c-.59-.24-1.26.04-1.51.63l-61.12,148.42c-.24.59.04,1.26.63,1.51l134.89,55.55c.59.24,1.26-.04,1.51-.63l61.12-148.42c.24-.59-.04-1.26-.63-1.51L180.16,2.45Z"/><path class="cls-11" d="m218.26,75.21l-33.46-13.78c-.98-.41-1.45-1.53-1.05-2.51l13.78-33.46c.41-.98,1.53-1.45,2.51-1.05l33.46,13.78c.98.41,1.45,1.53,1.05,2.51l-13.78,33.46c-.41.98-1.53,1.45-2.51,1.05Zm-18.51-50.08c-.59-.24-1.26.04-1.51.63l-13.78,33.46c-.24.59.04,1.26.63,1.51l33.46,13.78c.59.24,1.26-.04,1.51-.63l13.78-33.46c.24-.59-.04-1.26-.63-1.51l-33.46-13.78Z"/><path class="cls-4" d="m206.96,75.35l-33.46-13.78c-.88-.37-1.31-1.38-.94-2.26l13.78-33.46c.37-.88,1.38-1.31,2.26-.94l33.46,13.78c.88.37,1.31,1.38.94,2.26l-13.78,33.46c-.37.88-1.38,1.31-2.26.94Z"/><path class="cls-5" d="m271.4,121.04l-104.64-43.09c-.88-.36-1.31-1.38-.94-2.26s1.38-1.31,2.26-.94h0l104.64,43.09c.88.37,1.31,1.38.94,2.26-.36.88-1.38,1.3-2.26.94h0Z"/><path class="cls-5" d="m241.59,121.66l-79.37-32.69c-.88-.36-1.31-1.38-.94-2.26s1.38-1.31,2.26-.94h0l79.37,32.69c.88.36,1.31,1.38.94,2.26-.36.88-1.38,1.31-2.26.94Z"/><path class="cls-5" d="m287.76,80.31l-46.27-19.06c-.88-.36-1.31-1.38-.94-2.26.36-.88,1.38-1.31,2.26-.94h0l46.27,19.06c.88.37,1.31,1.38.94,2.26-.36.88-1.38,1.3-2.26.94h0Z"/><path class="cls-5" d="m271.67,86.59l-34.72-14.3c-.88-.36-1.31-1.38-.94-2.26.36-.88,1.38-1.31,2.26-.94l34.72,14.3c.88.36,1.31,1.38.94,2.26-.36.88-1.38,1.31-2.26.94h0Z"/><path class="cls-5" d="m262.32,143.1l-104.64-43.09c-.88-.36-1.31-1.38-.94-2.26s1.38-1.31,2.26-.94h0l104.64,43.09c.88.37,1.31,1.38.94,2.26-.36.88-1.38,1.3-2.26.94h0Z"/><path class="cls-5" d="m232.5,143.73l-79.37-32.69c-.88-.36-1.31-1.38-.94-2.26s1.38-1.31,2.26-.94h0l79.37,32.69c.88.36,1.31,1.38.94,2.26-.36.88-1.38,1.31-2.26.94h0Z"/><path class="cls-5" d="m253.23,165.17l-104.64-43.09c-.88-.36-1.31-1.38-.94-2.26s1.38-1.31,2.26-.94l104.64,43.09c.88.36,1.31,1.38.94,2.26-.36.88-1.38,1.31-2.26.94Z"/><path class="cls-5" d="m248.68,176.2l-104.64-43.09c-.88-.36-1.31-1.38-.94-2.26s1.38-1.31,2.26-.94l104.64,43.09c.88.36,1.31,1.38.94,2.26-.36.88-1.38,1.31-2.26.94h0Z"/><path class="cls-4" d="m197.64,175.38c2.09.11,4.19.05,6.28-.19,1.88-.22,3.83-.52,5.48-1.51,1.44-.82,2.41-2.28,2.59-3.94.15-1.59-.75-3.09-2.22-3.71-1.48-.62-3.18-.38-4.43.62-1.33,1.15-2.06,2.85-1.98,4.61.09,3.57,2.91,7.09,6.04,8.57,3.53,1.67,8.35.25,9.25-3.86.19-.86-.98-1.15-1.46-.6-1.44,1.59-1.32,4.05.27,5.49,1.46,1.32,3.67,1.35,5.15.06l-1.31-.54c.78,3.25,3.23,5.84,6.43,6.79.78.23,1.58.36,2.39.36.99,0,2,.5,2.94.8l6.79,2.21c1,.33,1.63-1.19.63-1.52l-6.15-2c-1.02-.33-2.05-.68-3.07-1-.73-.23-1.54-.11-2.31-.24-2.93-.55-5.27-2.75-6.02-5.63-.07-.45-.5-.76-.95-.69-.13.02-.25.07-.36.15-.9.86-2.32.82-3.18-.08-.85-.89-.82-2.29.05-3.15l-1.46-.6c-.58,2.65-3.82,3.65-6.15,2.88-2.61-.86-4.85-3.36-5.63-5.97-.42-1.27-.29-2.66.35-3.83.58-1.09,1.79-1.68,3.01-1.47,1.1.16,1.88,1.15,1.76,2.26-.18,1.21-.95,2.26-2.05,2.79-1.47.79-3.23.98-4.86,1.16-1.86.2-3.73.26-5.6.16-1.05-.05-1.26,1.58-.2,1.63h0Z"/><polygon class="cls-2" points="309.89 129.16 309.89 259.67 76.5 259.67 76.5 105.56 113.02 105.56 146.7 129.16 309.89 129.16"/><rect class="cls-4" x="90.75" y="235.17" width="95.31" height="7.57"/><rect class="cls-4" x="90.75" y="220.47" width="47.66" height="7.57"/><path class="cls-1" d="m310.33,260.11H76.06V105.11h37.11l33.68,23.61h163.49v131.39Zm-233.39-.89h232.5v-129.61h-162.88l-33.68-23.61h-35.94v153.22Z"/><polygon class="cls-6" points="404.93 244.36 397.03 247.18 382.39 218.06 394.04 213.9 404.93 244.36"/><path class="cls-8" d="m384.22,260.39l-.12-.32c-1.95-5.47.9-11.49,6.37-13.45l15.55-5.56,3.66,10.23-25.46,9.1Z"/><polygon class="cls-6" points="353.58 252.17 345.19 252.17 341.2 219.82 353.58 219.82 353.58 252.17"/><path class="cls-8" d="m355.71,260.3h-27.04v-.34c0-5.81,4.71-10.52,10.53-10.52h16.52s0,10.87,0,10.87Z"/><path class="cls-4" d="m372.69,45.51l-3.65-7.21s-13.59,3.4-14.82,11.28l18.47-4.07Z"/><polygon class="cls-8" points="387.74 127.92 377.82 183.27 404.15 229.84 388.42 236 361.74 190.85 358.32 178.54 356.27 242.84 342.08 242.41 335.58 182.36 346.01 126.55 387.74 127.92"/><path class="cls-1" d="m385.68,102.91l-.34-32.46c0-13.76-9.05-23.89-10.31-24.83-.59-1.88-1.65-3.19-3.15-3.87-3.02-1.37-6.71.27-6.86.35l-11.07,4.15-.05.15c-.12.35-11.29,37.01-14.09,46.21-.4,1.32-.63,2.08-.63,2.08,0,0,.04,2.13.12,5.44.25,11.38.83,36.72,1.07,37.78,0,0,20.45,3.1,28.55,3.1,14.57,0,23.82-2.79,24.03-2.84l.33-.07-7.59-35.19Z"/><circle class="cls-6" cx="357.71" cy="21.07" r="14.97"/><path class="cls-3" d="m359.37,96.04l-20.08,4.08c-.08-3.31-.12-5.44-.12-5.44,0,0,.23-.76.63-2.08l19.57,3.43Z"/><path class="cls-6" d="m299.92,91.76c2.69,2.31,6.75,2,9.06-.7.25-.29.47-.6.66-.92l22.38,4.5-4.45-11-20.57-2.58c-3.19-1.6-7.07-.32-8.67,2.87-1.34,2.67-.68,5.9,1.6,7.83Z"/><polygon class="cls-4" points="326.42 82.99 318.36 81.87 315.67 93.07 325.85 93.66 326.42 82.99"/><path class="cls-1" d="m323.67,80.83l23.85-2.65,12.65-22.45c2.97-5.28,9.66-7.14,14.94-4.17,4.34,2.44,6.48,7.5,5.23,12.32l-.07.28-21.27,31.04-39.77,1.96,4.45-16.33Z"/><path class="cls-8" d="m370.46,34.07l-12.42.45c-.76.03-2.81-8.15-3.08-9.84-.44-2.28-2.51-3.89-4.83-3.74-.93.09-3.28-1.65-5.7-3.71-4.59-3.91-4.36-11.24.69-14.54.14-.09.27-.17.41-.25,3.18-1.78,6.91-2.38,10.56-2.43,3.31-.04,6.71.37,9.62,1.94,5.22,2.81,8,8.94,8.25,14.86.24,5.92-1.66,11.72-3.81,17.24"/><path class="cls-9" d="m423.57,261H.45c-.25,0-.45-.2-.45-.45s.2-.45.45-.45h423.13c.25,0,.45.2.45.45s-.2.45-.45.45Z"/></g></svg>