<?xml version="1.0" encoding="UTF-8"?><svg id="Ebene_2" xmlns="http://www.w3.org/2000/svg" xmlns:xlink="http://www.w3.org/1999/xlink" viewBox="0 0 407.23 254.11"><defs><style>.cls-1{fill:#f7c4a7;}.cls-2{fill:url(#Unbenannter_Verlauf_2-2);}.cls-3{fill:url(#Unbenannter_Verlauf_2);}.cls-4{fill:#2e3443;}.cls-5{stroke-width:2px;}.cls-5,.cls-6{fill:none;stroke:#555562;stroke-miterlimit:10;}.cls-7{fill:#fff;opacity:.5;}.cls-7,.cls-8,.cls-9,.cls-10{isolation:isolate;}.cls-11{fill:#585a88;}.cls-12{fill:#213244;}.cls-8{opacity:.1;}.cls-8,.cls-9{fill:#010101;}.cls-13{fill:#642652;}.cls-14{fill:#555562;}.cls-9,.cls-10{opacity:.2;}.cls-15{fill:#3069b2;}.cls-10{fill:#f5f5f5;}.cls-16{fill:#e14c5b;}</style><linearGradient id="Unbenannter_Verlauf_2" x1="282.94" y1="-297.75" x2="282.94" y2="-280.45" gradientTransform="translate(0 -269.66) scale(1 -1)" gradientUnits="userSpaceOnUse"><stop offset="0" stop-color="#808181" stop-opacity=".25"/><stop offset=".54" stop-color="#808181" stop-opacity=".12"/><stop offset="1" stop-color="#808181" stop-opacity=".1"/></linearGradient><linearGradient id="Unbenannter_Verlauf_2-2" x1="395.26" y1="-631.09" x2="395.26" y2="-395.08" gradientTransform="translate(-79.84 -395.08) scale(1 -1)" xlink:href="#Unbenannter_Verlauf_2"/></defs><g id="Ebene_1-2"><rect class="cls-15" x="62.76" y="159.78" width="40.32" height="16.05" rx="3.46" ry="3.46"/><rect class="cls-15" x="103.07" y="159.78" width="40.32" height="16.05" rx="3.46" ry="3.46"/><rect class="cls-8" x="103.07" y="159.78" width="40.32" height="16.05" rx="3.46" ry="3.46"/><rect class="cls-15" x="143.39" y="159.78" width="40.32" height="16.05" rx="3.46" ry="3.46"/><rect class="cls-15" x="183.71" y="159.78" width="40.32" height="16.05" rx="3.46" ry="3.46"/><rect class="cls-8" x="183.71" y="159.78" width="40.32" height="16.05" rx="3.46" ry="3.46"/><rect class="cls-15" x="224.03" y="159.78" width="40.32" height="16.05" rx="3.46" ry="3.46"/><rect class="cls-15" x="264.35" y="159.78" width="40.32" height="16.05" rx="3.46" ry="3.46"/><rect class="cls-8" x="264.35" y="159.78" width="40.32" height="16.05" rx="3.46" ry="3.46"/><rect class="cls-15" x="264.35" y="143.73" width="40.32" height="16.05" rx="3.46" ry="3.46"/><rect class="cls-15" x="224.03" y="143.73" width="40.32" height="16.05" rx="3.46" ry="3.46"/><rect class="cls-8" x="224.03" y="143.73" width="40.32" height="16.05" rx="3.46" ry="3.46"/><rect class="cls-15" x="183.71" y="143.73" width="40.32" height="16.05" rx="3.46" ry="3.46"/><rect class="cls-15" x="143.39" y="143.73" width="40.32" height="16.05" rx="3.46" ry="3.46"/><rect class="cls-8" x="143.39" y="143.73" width="40.32" height="16.05" rx="3.46" ry="3.46"/><rect class="cls-15" x="103.07" y="143.73" width="40.32" height="16.05" rx="3.46" ry="3.46"/><rect class="cls-15" x="62.76" y="143.73" width="40.32" height="16.05" rx="3.46" ry="3.46"/><rect class="cls-8" x="62.76" y="143.73" width="40.32" height="16.05" rx="3.46" ry="3.46"/><rect class="cls-15" x="62.76" y="127.68" width="40.32" height="16.05" rx="3.46" ry="3.46"/><rect class="cls-15" x="103.07" y="127.68" width="40.32" height="16.05" rx="3.46" ry="3.46"/><rect class="cls-8" x="103.07" y="127.68" width="40.32" height="16.05" rx="3.46" ry="3.46"/><rect class="cls-15" x="143.39" y="127.68" width="40.32" height="16.05" rx="3.46" ry="3.46"/><rect class="cls-15" x="183.71" y="127.68" width="40.32" height="16.05" rx="3.46" ry="3.46"/><rect class="cls-8" x="183.71" y="127.68" width="40.32" height="16.05" rx="3.46" ry="3.46"/><rect class="cls-15" x="224.03" y="127.68" width="40.32" height="16.05" rx="3.46" ry="3.46"/><rect class="cls-15" x="264.35" y="127.68" width="40.32" height="16.05" rx="3.46" ry="3.46"/><rect class="cls-8" x="264.35" y="127.68" width="40.32" height="16.05" rx="3.46" ry="3.46"/><rect class="cls-15" x="264.35" y="111.63" width="40.32" height="16.05" rx="3.46" ry="3.46"/><rect class="cls-15" x="224.03" y="111.63" width="40.32" height="16.05" rx="3.46" ry="3.46"/><rect class="cls-8" x="224.03" y="111.63" width="40.32" height="16.05" rx="3.46" ry="3.46"/><rect class="cls-15" x="183.71" y="111.63" width="40.32" height="16.05" rx="3.46" ry="3.46"/><rect class="cls-15" x="143.39" y="111.63" width="40.32" height="16.05" rx="3.46" ry="3.46"/><rect class="cls-8" x="143.39" y="111.63" width="40.32" height="16.05" rx="3.46" ry="3.46"/><rect class="cls-15" x="103.07" y="111.63" width="40.32" height="16.05" rx="3.46" ry="3.46"/><rect class="cls-15" x="62.76" y="111.63" width="40.32" height="16.05" rx="3.46" ry="3.46"/><rect class="cls-8" x="62.76" y="111.63" width="40.32" height="16.05" rx="3.46" ry="3.46"/><rect class="cls-15" x="62.76" y="96.36" width="40.32" height="16.05" rx="3.46" ry="3.46"/><rect class="cls-15" x="103.07" y="96.36" width="40.32" height="16.05" rx="3.46" ry="3.46"/><rect class="cls-8" x="103.07" y="96.36" width="40.32" height="16.05" rx="3.46" ry="3.46"/><rect class="cls-15" x="143.39" y="96.36" width="40.32" height="16.05" rx="3.46" ry="3.46"/><rect class="cls-15" x="183.71" y="96.36" width="40.32" height="16.05" rx="3.46" ry="3.46"/><rect class="cls-8" x="183.71" y="96.36" width="40.32" height="16.05" rx="3.46" ry="3.46"/><rect class="cls-15" x="224.03" y="96.36" width="40.32" height="16.05" rx="3.46" ry="3.46"/><rect class="cls-15" x="264.35" y="96.36" width="40.32" height="16.05" rx="3.46" ry="3.46"/><rect class="cls-8" x="264.35" y="96.36" width="40.32" height="16.05" rx="3.46" ry="3.46"/><rect class="cls-15" x="264.35" y="80.31" width="40.32" height="16.05" rx="3.46" ry="3.46"/><rect class="cls-15" x="224.03" y="80.31" width="40.32" height="16.05" rx="3.46" ry="3.46"/><rect class="cls-8" x="224.03" y="80.31" width="40.32" height="16.05" rx="3.46" ry="3.46"/><rect class="cls-15" x="183.71" y="80.31" width="40.32" height="16.05" rx="3.46" ry="3.46"/><rect class="cls-15" x="143.39" y="80.31" width="40.32" height="16.05" rx="3.46" ry="3.46"/><rect class="cls-8" x="143.39" y="80.31" width="40.32" height="16.05" rx="3.46" ry="3.46"/><rect class="cls-15" x="103.07" y="80.31" width="40.32" height="16.05" rx="3.46" ry="3.46"/><rect class="cls-15" x="62.76" y="80.31" width="40.32" height="16.05" rx="3.46" ry="3.46"/><rect class="cls-8" x="62.76" y="80.31" width="40.32" height="16.05" rx="3.46" ry="3.46"/><rect class="cls-15" x="62.76" y="64.26" width="40.32" height="16.05" rx="3.46" ry="3.46"/><rect class="cls-15" x="103.07" y="64.26" width="40.32" height="16.05" rx="3.46" ry="3.46"/><rect class="cls-8" x="103.07" y="64.26" width="40.32" height="16.05" rx="3.46" ry="3.46"/><rect class="cls-15" x="143.39" y="64.26" width="40.32" height="16.05" rx="3.46" ry="3.46"/><rect class="cls-15" x="183.71" y="64.26" width="40.32" height="16.05" rx="3.46" ry="3.46"/><rect class="cls-8" x="183.71" y="64.26" width="40.32" height="16.05" rx="3.46" ry="3.46"/><rect class="cls-15" x="224.03" y="64.26" width="40.32" height="16.05" rx="3.46" ry="3.46"/><rect class="cls-15" x="264.35" y="64.26" width="40.32" height="16.05" rx="3.46" ry="3.46"/><rect class="cls-8" x="264.35" y="64.26" width="40.32" height="16.05" rx="3.46" ry="3.46"/><rect class="cls-3" x="261.22" y="10.8" width="43.45" height="17.29" rx="3.46" ry="3.46"/><rect class="cls-15" x="262.78" y="11.42" width="40.32" height="16.05" rx="3.46" ry="3.46"/><rect class="cls-15" x="224.03" y="48.22" width="40.32" height="16.05" rx="3.46" ry="3.46"/><rect class="cls-8" x="224.03" y="48.22" width="40.32" height="16.05" rx="3.46" ry="3.46"/><rect class="cls-15" x="183.71" y="48.22" width="40.32" height="16.05" rx="3.46" ry="3.46"/><rect class="cls-15" x="143.39" y="48.22" width="40.32" height="16.05" rx="3.46" ry="3.46"/><rect class="cls-8" x="143.39" y="48.22" width="40.32" height="16.05" rx="3.46" ry="3.46"/><rect class="cls-15" x="103.07" y="48.22" width="40.32" height="16.05" rx="3.46" ry="3.46"/><rect class="cls-15" x="62.76" y="48.22" width="40.32" height="16.05" rx="3.46" ry="3.46"/><rect class="cls-8" x="62.76" y="48.22" width="40.32" height="16.05" rx="3.46" ry="3.46"/><ellipse class="cls-4" cx="195.33" cy="209.69" rx="195.33" ry="44.43"/><path class="cls-5" d="m44.6,189.75s3.52-11.9-.66-20.67c-1.77-3.66-2.31-7.8-1.52-11.8.39-1.89.95-3.75,1.67-5.54"/><path class="cls-15" d="m41.5,146.21c0,1.46,2.64,5.69,2.64,5.69,0,0,2.64-4.23,2.64-5.69s-1.18-2.64-2.64-2.64-2.64,1.18-2.64,2.64Z"/><path class="cls-15" d="m37.14,154.29c.78,1.23,5.31,3.34,5.31,3.34,0,0-.08-4.99-.88-6.21-.8-1.22-2.44-1.56-3.66-.76-1.21.79-1.56,2.42-.78,3.63h0Z"/><path class="cls-15" d="m37.33,168.1c1.3.66,6.26.2,6.26.2,0,0-2.59-4.26-3.89-4.92-1.32-.63-2.89-.07-3.52,1.24-.61,1.28-.11,2.81,1.14,3.47h0Z"/><path class="cls-15" d="m39.83,178.52c1.17.87,6.15,1.26,6.15,1.26,0,0-1.83-4.64-3-5.51-1.22-.8-2.86-.46-3.66.76-.74,1.13-.51,2.63.53,3.49h-.01Z"/><path class="cls-15" d="m47.99,157.91c-1.05,1.02-5.92,2.07-5.92,2.07,0,0,1.19-4.84,2.24-5.87,1.05-1.02,2.72-.99,3.74.05,1.02,1.05.99,2.72-.05,3.74h0Z"/><path class="cls-15" d="m50.76,170.12c-1.3.66-6.26.2-6.26.2,0,0,2.59-4.26,3.89-4.92,1.33-.6,2.89,0,3.5,1.32.56,1.25.08,2.73-1.12,3.39Z"/><path class="cls-15" d="m51.82,182.38c-1.17.87-6.15,1.26-6.15,1.26,0,0,1.83-4.64,3-5.51,1.22-.8,2.86-.46,3.66.76.74,1.13.51,2.63-.53,3.49h.01Z"/><path class="cls-15" d="m233.68,122.28s12.87,12.87,5.61,31.98c-7.27,19.1,12.46,50.89,12.46,50.89,0,0-.21-.03-.6-.1-26.44-4.69-39.58-34.93-24.88-57.39,5.46-8.35,9.95-18.15,7.41-25.37Z"/><path class="cls-9" d="m233.68,122.28s12.87,12.87,5.61,31.98c-7.27,19.1,12.46,50.89,12.46,50.89,0,0-.21-.03-.6-.1-26.44-4.69-39.58-34.93-24.88-57.39,5.46-8.35,9.95-18.15,7.41-25.37Z"/><path class="cls-6" d="m233.68,122.28s7.27,15.78,0,28.65c-7.27,12.87-1.24,49,18.08,54.19"/><path class="cls-15" d="m210.76,174.35s14.69-2.35,16.03,10.83c1.34,13.18,28.25,14.99,28.25,14.99l-.5.34c-22.22,14.59-43.45,9.29-40.26-10.08,1.19-7.2,1.08-14.44-3.52-16.08Z"/><path class="cls-10" d="m210.76,174.35s14.69-2.35,16.03,10.83c1.34,13.18,28.25,14.99,28.25,14.99l-.5.34c-22.22,14.59-43.45,9.29-40.26-10.08,1.19-7.2,1.08-14.44-3.52-16.08Z"/><path class="cls-6" d="m210.76,174.35s11.4,2.5,10.47,12.87c-.94,10.37,16.93,22.8,33.81,12.95"/><path class="cls-12" d="m322.52,204.66s-21.8-4.36-27.62-10.18c-5.82-5.82-31.98-15.99-34.89-8.72-2.91,7.27-39.25,31.98-14.51,36.35s58.14,5.81,65.41,2.91c7.27-2.9,11.61-20.36,11.61-20.36Z"/><path class="cls-9" d="m245.5,219.4c24.71,4.36,58.14,5.81,65.41,2.91,5.54-2.22,9.39-12.85,10.9-17.8l.73.15s-4.36,17.44-11.63,20.36c-7.27,2.91-40.71,1.45-65.41-2.91-7.13-1.26-9.17-4.22-8.4-7.96.58,2.44,3.08,4.31,8.4,5.25Z"/><path class="cls-2" d="m366.64,11.03c-.39-.97-1.01-1.83-1.8-2.5-5.85-5.33-15.31-3.71-22.58-6.98-1.68-.75-3.39-1.79-5.21-1.51-2.54.39-4.9,3.29-7.11,2l.16.48-.16-.08,1.63,4.96c.63,1.9,1.28,3.86,2.5,5.44-5.93,5.17-6.55,14.18-1.38,20.11,1.33,1.53,2.98,2.76,4.82,3.6.08.16.15.33.23.5l.21.09c.48,1.11.84,2.27,1.07,3.45-1.88.26-5.17,2.35-8.39,5.42l-6.45-.22c-4.17-.14-8.21-1.51-11.6-3.95l-19.32-13.88c-1.38.14-2.67.71-3.7,1.64-2.4-2.5-4.43-5.09-4.26-6.65,0,0-8.98-16.8-12.24-8.4-3.26,8.4,6.12,17.22,6.12,17.22l5.95,7.72c-.24,1.35-.38,2.72-.45,4.09,7.35,8.4,33.06,16.01,33.06,16.01l4.01.2.02.2c-.25,1.05-.37,2.13-.36,3.21v.8c.2,13.4,2.04,54.41,2.04,54.41.36-.16.73-.31,1.1-.44l-.29,3.64s-17.14,2.4-29.79,7.2-13.06,10.4-13.06,10.4v49.42c-3.61,1.86-9.32,4.31-12.24,2.99-3.18-1.42-4.92-.23-5.24,1.01h0c-.06.25-.06.5,0,.75h0c.03.11.07.22.12.32v.02c.06.1.13.2.22.28,1.23,1.2,27.75,11.6,33.88,10,.19-.05.38-.11.56-.19.06-.02.11-.05.17-.08s.23-.11.33-.17.12-.08.18-.12.18-.12.27-.19.11-.1.17-.15.16-.14.23-.22.1-.12.15-.18.14-.16.2-.24.09-.13.13-.19.13-.18.18-.27.07-.13.11-.2.11-.2.16-.31.06-.14.09-.21.1-.22.14-.34.05-.14.07-.21.09-.25.12-.39c0-.07.04-.13.05-.2.04-.14.07-.27.11-.39,0-.06.03-.13.04-.19.03-.15.06-.3.09-.45,0-.05,0-.11.03-.17.03-.16.05-.32.07-.49v-.14c.02-.18.04-.35.05-.53v-.11c.02-.19.03-.38.04-.57v-.73c0-2.39-.27-4.77-.78-7.1h0l1.54-42.09c8.02.12,16.03-.17,24.02-.88l.88,20.09s0,13.2,4.49,19.2c3.84,5.14,8.28,27.85,9.48,34.3-1.65,3.13-4.8,7.05-10.3,6.91,0,0-10.34-.89-9.75,1.96h0c.02.07.04.15.07.22h0c.03.08.07.16.11.24h0c.04.07.09.15.14.23l.03.05c.06.08.13.17.2.26v.02c.07.08.14.16.23.25l.07.07c.09.09.19.19.3.29,5.3,4.8,36.32,5.6,36.32,5.6v-.22h0c0-1.39-.2-8.68-2.06-14.17h.43s-4.49-40.41-8.16-45.21c0,0-.97-21.31,1.23-34.66l.39-.15c10.29-3.84,11.02-13.31,9.96-20.26,1.96.63,3.1,1.05,3.1,1.05,0,0-.04-.3-.1-.84l.1.04s-.2-1.27-.52-3.25c-.74-5.45-2.16-14.98-3.68-19.48-.25-.99-.48-1.84-.7-2.47-.88-2.7-1.48-5.49-1.8-8.31-.42-3.66-.63-7.34-.63-11.02.03-4.92.41-9.83,1.13-14.7.62-4.25,1.17-9.09,1.14-12.47.04-1.18-.04-2.36-.25-3.52-.54-2.49-2.95-4.11-5.45-5.15-.16-.07-.32-.12-.49-.18.06-.94.14-2.02.24-3.13.61.42,1.36.57,2.08.42,1.08-.23,1.85-1.13,2.53-1.96,3.62-4.44,7.33-9.07,8.72-14.59.56-2.46.82-4.99.78-7.52,0-.14,0-.28,0-.41.07-.95-.03-1.89-.29-2.81Z"/><path class="cls-1" d="m333.71,32.69s5.48,8.22,4.31,12.13,12.92,1.57,12.92,1.57c0,0,.39-15.27,3.13-18.79s-20.36,5.09-20.36,5.09Z"/><path class="cls-1" d="m297.5,37.98s-11.35-9.39-10.96-12.92c0,0-8.61-16.44-11.74-8.22s5.87,16.83,5.87,16.83l10.96,14.48,5.87-10.18Z"/><path class="cls-14" d="m285.95,185.35s-10.57,6.65-14.87,4.7c-4.31-1.96-5.87,1.17-4.7,2.35s26.62,11.35,32.49,9.79c5.87-1.57,2.88-14.39,2.88-14.39l-15.8-2.44Z"/><path class="cls-14" d="m341.93,213.93s-2.54,10.76-11.35,10.57c0,0-13.31-1.17-8.22,3.52s34.84,5.48,34.84,5.48c0,0,0-16.05-5.48-19.57-5.48-3.52-9.79,0-9.79,0Z"/><path class="cls-11" d="m325.88,137.99l1.17,27.4s0,12.92,4.31,18.79c4.31,5.87,9.39,35.23,9.39,35.23h14.87s-4.31-39.54-7.83-44.23c0,0-1.57-34.84,3.91-42.67l-25.84,5.48Z"/><path class="cls-8" d="m325.88,137.99l1.17,27.4s0,12.92,4.31,18.79c4.31,5.87,9.39,35.23,9.39,35.23h14.87s-4.31-39.54-7.83-44.23c0,0-1.57-34.84,3.91-42.67l-25.84,5.48Z"/><path class="cls-11" d="m356.8,113.33s9,21.53-7.44,27.79-46.19,5.48-46.19,5.48l-1.57,45.41s-18.4,2.35-18.79-3.52v-49.71s.39-5.48,12.53-10.18c12.13-4.7,28.58-7.05,28.58-7.05l.78-10.18,32.1,1.96Z"/><path class="cls-8" d="m342.38,42.4c3.13-.35,6.29.1,9.2,1.3,2.4,1.01,4.7,2.6,5.23,5.03.62,2.89-.07,9.37-.85,14.85-1.26,8.59-1.42,17.31-.48,25.95.39,3.6.96,6.73,1.72,8.13,2.35,4.31,4.7,24.66,4.7,24.66,0,0-25.84-9.79-38.75-3.91,0,0-1.76-40.12-1.96-53.24-.15-10.15,12.72-21.73,17.03-22.12,2.52-.23,1.66-.4,4.16-.66Z"/><path class="cls-16" d="m342.38,41.62c3.13-.35,6.29.1,9.2,1.3,2.4,1.01,4.7,2.6,5.23,5.03.62,2.89-.07,9.37-.85,14.85-1.26,8.59-1.42,17.31-.48,25.95.3,2.76.88,5.48,1.72,8.13,1.76,5.28,4.7,24.66,4.7,24.66,0,0-25.84-9.79-38.75-3.91,0,0-1.76-40.12-1.96-53.24-.15-10.15,12.72-21.73,17.03-22.12,2.52-.23,1.66-.4,4.16-.66Z"/><path class="cls-8" d="m349.36,63.22l-27.79-1.57s-1.77-13.63,2.24-13.49l27.51.96s5.87,7.05-1.96,14.09Z"/><path class="cls-16" d="m349.36,62.44l-31.71-1.57s-24.66-7.44-31.71-15.66c0,0,.39-14.48,8.22-15.27l18.52,13.58c3.24,2.37,7.11,3.72,11.12,3.86l27.51.96s5.87,7.05-1.96,14.09Z"/><path class="cls-8" d="m350.73,34.45c.47-3.71,2.15-4.94,3.33-6.46,2.74-3.52-20.36,5.09-20.36,5.09,1.19,1.83,2.24,3.76,3.13,5.76,1.84.85,3.84,1.29,5.87,1.29,3.39,0,5.59-3.67,8.02-5.68Z"/><circle class="cls-1" cx="342.71" cy="25.64" r="14.09"/><path class="cls-8" d="m333.81,15.77c-1.5-1.64-2.22-3.82-2.9-5.94l-1.57-4.85c2.12,1.25,4.38-1.57,6.82-1.96,1.74-.28,3.39.74,4.99,1.47,6.97,3.19,16.05,1.6,21.65,6.82.77.66,1.36,1.5,1.73,2.45.26.89.36,1.82.31,2.74.05,2.47-.2,4.94-.73,7.35-1.33,5.4-4.89,9.93-8.37,14.28-.66.83-1.4,1.7-2.43,1.93-2.02.45-3.57-1.73-4.35-3.64-1.03-2.53-1.79-5.16-2.27-7.86-.2-1.14-.36-2.31-.93-3.32-1.21-2.15-4.2-4.18-6.02-5.85s-4.27-1.81-5.94-3.63Z"/><path class="cls-13" d="m333.81,15.38c-1.5-1.64-2.22-3.82-2.9-5.94l-1.57-4.85c2.12,1.25,4.38-1.57,6.82-1.96,1.74-.28,3.39.74,4.99,1.47,6.97,3.19,16.05,1.6,21.65,6.82.77.66,1.36,1.5,1.73,2.45.26.89.36,1.82.31,2.74.05,2.47-.2,4.94-.73,7.35-1.33,5.4-4.89,9.93-8.37,14.28-.66.83-1.4,1.7-2.43,1.93-2.02.45-3.57-1.73-4.35-3.64-1.03-2.53-1.79-5.16-2.27-7.86-.2-1.14-.36-2.31-.93-3.32-1.21-2.15-4.2-4.18-6.02-5.85s-4.27-1.81-5.94-3.63Z"/><ellipse class="cls-1" cx="346.43" cy="27.21" rx="1.17" ry="2.54"/><path class="cls-8" d="m353.47,95.13s-.78,2.35-4.7,1.96c-3.91-.39-15.27-1.17-15.27,0"/><path class="cls-7" d="m322.35,227.63c-.7-.65-1.06-1.17-1.14-1.63-.1.51.21,1.17,1.14,2.02,5.09,4.7,34.84,5.48,34.84,5.48v-.39c-.19,0-29.77-.8-34.84-5.48Z"/><path class="cls-7" d="m298.87,201.4c-5.87,1.57-31.32-8.61-32.49-9.79-.16-.16-.27-.36-.32-.57-.14.48-.01.99.32,1.35,1.17,1.17,26.62,11.35,32.49,9.79,3.02-.81,3.7-4.59,3.64-8.08-.06,3.25-.85,6.54-3.64,7.3Z"/><path class="cls-12" d="m35.81,186.81s14.61-.45,19.01-3.59c4.4-3.14,22.47-6.88,23.56-1.85,1.09,5.03,21.96,25.01,5.45,25.15s-38.32-2.57-42.71-5.25c-4.4-2.68-5.3-14.47-5.3-14.47Z"/><path class="cls-9" d="m84.14,204.76c-16.49.13-38.32-2.57-42.71-5.25-3.35-2.04-4.7-9.35-5.12-12.73h-.49s.92,11.78,5.32,14.46,26.22,5.4,42.7,5.28c4.76-.04,6.4-1.73,6.31-4.24-.65,1.5-2.46,2.45-6,2.47Z"/><rect class="cls-15" x="366.91" y="208.32" width="40.32" height="16.05" rx="3.46" ry="3.46"/><rect class="cls-8" x="366.91" y="208.32" width="40.32" height="16.05" rx="3.46" ry="3.46"/><rect class="cls-15" x="366.91" y="193.05" width="40.32" height="16.05" rx="3.46" ry="3.46"/><rect class="cls-15" x="366.91" y="177" width="40.32" height="16.05" rx="3.46" ry="3.46"/><rect class="cls-8" x="366.91" y="177" width="40.32" height="16.05" rx="3.46" ry="3.46"/><rect class="cls-15" x="366.91" y="160.95" width="40.32" height="16.05" rx="3.46" ry="3.46"/></g></svg>