<svg xmlns="http://www.w3.org/2000/svg" xmlns:xlink="http://www.w3.org/1999/xlink" viewBox="0 0 400 300" width="406" height="306" class="illustration styles_illustrationTablet__1DWOa"><defs><linearGradient id="linear-gradient" x1="143.62" y1="246.1" x2="163.09" y2="217.3" gradientUnits="userSpaceOnUse"><stop offset="0" stop-color="#fff" stop-opacity="0"></stop><stop offset="0.99" stop-color="#754c24"></stop></linearGradient><linearGradient id="linear-gradient-2" x1="333.55" y1="200.41" x2="344.81" y2="182.22" xlink:href="#linear-gradient"></linearGradient><linearGradient id="linear-gradient-3" x1="87.28" y1="186.1" x2="107.73" y2="163.65" xlink:href="#linear-gradient"></linearGradient></defs><title>PP</title><g style="isolation: isolate;"><g id="Layer_2" data-name="Layer 2"><path d="M131.79,67.12s1.38,11.81,2.49,14.52,4.83,14.51,4.83,14.51,2.68,3.78,1.65,4.28-2.65-2.91-2.65-2.91l-5-1.35s-4.46-11.83-5.5-14.42-2.57-13.23-2.57-13.23" fill="#ffc8a9"></path><path d="M194.28,287.7,14.56,181.48C8.84,178.27,3.93,173,9.51,169.53l180.37-104c2.71-1.68,6.82-2.78,9.57-1.18L388.11,173.89c5.72,3.32,6.75,12.6,1,15.93L218,287.53A23.9,23.9,0,0,1,194.28,287.7Z" fill="#8383ea"></path><path d="M114.73,185.92,78,210l107.92,69.12,43.92-27.16C223.4,247.78,121.19,190,114.73,185.92Z" opacity="0.63" fill="url(#linear-gradient)" style="mix-blend-mode: multiply;"></path><path d="M342,176.54l-22.26,13L339,200.78l22.19-11.91C354.84,184.74,348.45,180.58,342,176.54Z" opacity="0.63" fill="url(#linear-gradient-2)" style="mix-blend-mode: multiply;"></path><path d="M242.7,103.16c.33-.7-5.51,7.83-6.91,8.35-2.52.93-11.57,6.19-15.91,6.16.32,1.49,3.68,3,4,4.49,2.51,1,12.59-3.24,16.59-4.92,3.46-1.46,8.88-8.82,8.88-8.82Z" fill="#f2c3bd"></path><path d="M351,165.69c-5.11-.44-10.49-2-14.26-5.48v15.14a15.72,15.72,0,0,0,15.72,15.72h0a15.72,15.72,0,0,0,15.72-15.72V160C362.78,162.14,356.69,166.19,351,165.69Z" fill="#206bc4"></path><ellipse cx="352.42" cy="160.11" rx="15.72" ry="8.33" fill="#5ed18d"></ellipse><path d="M352.42,161.53s-10.69-1.57-13.52-18.86C338.91,142.67,348,147.7,352.42,161.53Z" fill="#5ed18d"></path><path d="M354,159.33s-12.26-22,0-36.77A61.64,61.64,0,0,1,354,159.33Z" fill="#5ed18d"></path><path d="M352.42,145.5s-10.69-1.57-13.52-18.86C338.91,126.64,348,131.67,352.42,145.5Z" fill="#5ed18d"></path><path d="M353.72,152.54S351,142.08,365.9,132.79C365.9,132.79,364.78,143.14,353.72,152.54Z" fill="#5ed18d"></path><ellipse cx="352.42" cy="160.11" rx="15.72" ry="8.33" fill="#146666"></ellipse><path d="M352.42,161.53s-10.69-1.57-13.52-18.86C338.91,142.67,348,147.7,352.42,161.53Z" fill="#5ed18d"></path><path d="M354,159.33s-12.26-22,0-36.77A61.64,61.64,0,0,1,354,159.33Z" fill="#5ed18d"></path><path d="M352.42,145.5s-10.69-1.57-13.52-18.86C338.91,126.64,348,131.67,352.42,145.5Z" fill="#5ed18d"></path><path d="M353.72,152.54S351,142.08,365.9,132.79C365.9,132.79,364.78,143.14,353.72,152.54Z" fill="#5ed18d"></path><path d="M256.06,201.56a32.23,32.23,0,0,1-2.87,3.33,55.81,55.81,0,0,1-6.72,3.82c-.89.36-2.13.8-2.13,2.22s1.87,2.75,4.53,2.58,7.46-1.6,8.62-2.84,1.69-1.33,1.69-1.33,4.62,1,6-.09c1-.82.26-5.3-.15-7.29A11.59,11.59,0,0,1,256.06,201.56Z" fill="#f3a05e"></path><path d="M286.1,214.11a18.45,18.45,0,0,1-.5,4.9c-.58,1.66-4.07,8.39-3.49,9.3a4.3,4.3,0,0,0,4.73,1.49c2.16-.75,5.48-3.07,6.06-4.9s.83-6.06,1.25-7.39a12,12,0,0,0,0-4Z" fill="#f3a05e"></path><path d="M261.87,141c0,.65,3,15.76,5.11,20.59S276,182,276,182s8,28.15,8,31.72c0,0,5.46,3.78,10.92,0,0,0-1.26-10.71-1.26-14.07s-5-15.76-5.88-19.33-6.6-40.17-8.34-43.51S261.59,133.22,261.87,141Z" fill="#335a6b"></path><path d="M251.85,133.22v18.07c0,8.82,3.36,18.91,3.15,22.48s0,28.36,0,28.36a10.17,10.17,0,0,0,10.31,0s1.65-17.44,1.86-20.59,0-22.69,0-26.26-1.61-17.67-5.32-20.7S251.85,133.22,251.85,133.22Z" fill="#335a6b"></path><path d="M258.45,89.73s-4.89-.09-6.49,1.07-10.76,11.82-10.76,11.82,2.49,5.6,6.13,7.56h1.24s1,22.85,1.24,24c0,0-.73-.07-.19,1.35s3.91,2,3.91,2,16.82,3.27,23.94.07l2-.89s1.16-2.67.89-3.47a31.94,31.94,0,0,0-2.67-3.91s5.47-16,5.47-22.41a15.9,15.9,0,0,0-4.41-10.84c-2.67-2.49-11.29-6.4-11.29-6.4Z" fill="#206bc4"></path><path d="M259.38,89.7l.14,3.31s.51,3.28,5.45,2.61c0,0,3.82-1.12,3.64-3.47,0-.63-.5-6.85-.5-6.85" fill="#f2c3bd"></path><path d="M257.8,79.47a2.84,2.84,0,0,1-2.73-3c.06-2.73,1.71-4.09,3.13-4.09s1.14-2.79,5.63-2.33,5.17,2,5.17,2,3.81.51,4.44,4-1.42,7-2.1,7.28-.17,2.22-1.59,3.58a5.09,5.09,0,0,1-3.35,1.31" fill="#4d4030"></path><path d="M256.94,78.46a16.43,16.43,0,0,1,0,3.4c-.22,1.13-1.66,6.91,3.2,10.42,0,0,4.86.72,7.29-5,0,0,.84-7.3-.3-8.24s-1.39,1.41-3.46.94S258.83,77.72,256.94,78.46Z" fill="#f2c3bd"></path><path d="M267.82,81.9a3.62,3.62,0,0,0-1.43,2.21.6.6,0,0,0-.31,1.09c.67.46,1.71,0,2.31-.4a2.28,2.28,0,0,0,1.13-2.08A1.13,1.13,0,0,0,267.82,81.9Z" fill="#f2c3bd"></path><path d="M267.74,81.86s-.71,3.54-1.25,3.92-1.65,1.76-2.6,1.52a1.57,1.57,0,0,1-.46-.24,7.32,7.32,0,0,0-3.23-1.61c-1.43-.12-2.73.35-3.09-.06a4,4,0,0,1-.53-1.47s-.08,4,.39,5.34a4.71,4.71,0,0,0,3.77,3.54,5.57,5.57,0,0,0,5.59-2.29C268,88,268,82.74,268,82.74Z" fill="#4d4030"></path><path d="M107.56,161.42,69.72,180.29l18.62,12.6,32.74-18.81C114.68,169.95,114,165.46,107.56,161.42Z" opacity="0.63" fill="url(#linear-gradient-3)" style="mix-blend-mode: multiply;"></path><path d="M118.22,117.61s.64,15.58,1,20.36.17,26.95.17,26.95a8.64,8.64,0,0,1-4.45.58c-2.7-.29-5.31-22.38-5.28-25.38s-4.13-19.29-4.15-25.93,3.26-14.51,8.32-13.64S118.22,117.61,118.22,117.61Z" fill="#efb497"></path><path d="M106.41,124.16s-.72,15.58-.79,20.37-1.8,25.64-1.8,25.64a14.11,14.11,0,0,1-5.9.49s-2.1-21.13-1.9-25.3c.14-3-2.54-19.1-2-25.71s4.52-14.17,9.48-12.86S106.41,124.16,106.41,124.16Z" fill="#ffc8a9"></path><path d="M123.32,172.6c-2.23-2.73-3.56-9-3.56-9s.09-.12-.17-.43A2.66,2.66,0,0,1,117,164.7c-2.34-.18-2.33-3.12-4.16-3.73-.1.19-.19.4-.3.64-.89,2-.19,13.44-.19,13.44l3.14,1.54-.3-3.66s.83,1.94,1.67,4,3.71,3.05,6.73,4.38,4.61.3,5.32-2S125.55,175.32,123.32,172.6Z" fill="#473e39"></path><path d="M119.28,134.1c.75-21.88,1.25-43.3,1.25-43.3S102,81.63,96.89,86.14a67.94,67.94,0,0,0-3.4,18.61c-.31,5.42-.54,18.45-.57,32.5C101.78,141.76,112.08,141.17,119.28,134.1Z" fill="#847066"></path><path d="M121.87,80.09a63.68,63.68,0,0,1,3.21-9.84c2.22-5.75,3.8-11.44,3.43-17.51a3.5,3.5,0,0,0-.74-1.73c-3.18-3.37-10.14-2.59-10.14-2.59a19.43,19.43,0,0,0-2.88,0,.54.54,0,0,1-.48.55c-8,.9-10.53,9.52-11.59,16.32-.72,4.62-.87,9.39-2.54,13.81a50.48,50.48,0,0,1-3.27,6.72c2.3,1.7,12.7,8.62,23.32,3.8C120.78,86.48,121.2,83.26,121.87,80.09Z" fill="#a2c609"></path><path d="M127.24,50.53s6.39,4.87,5.33,18.29c0,0-6.08,1.51-8.2,1.5" fill="#a2c609"></path><path d="M106.08,73.73l-2.81-12.28-.75,3a.55.55,0,0,1,0,.16c-.42,3.31-1.81,9.54-1.94,10.51l-.65,5.47,5.8-4.3Z" fill="#89a000"></path><path d="M127.12,44.3l0,.06a1.44,1.44,0,0,0-.61.59c-1.09,1.92-2.12,3.88-3.12,5.84a6.27,6.27,0,0,1-2.27-.89,8.33,8.33,0,0,1-2.89-2.9l1.28-6.23Z" fill="#f9b495"></path><path d="M133.67,36c.17.4-5.37,13.57-8.31,12.41s-7.11-6.37-5.59-11.69S131.32,30.35,133.67,36Z" fill="#ffc8a9"></path><path d="M128.85,29.48c-17.41-4.62-24.64,30-24.64,30,1.41-7.37,8.55-10.21,8.55-10.21l.12,11.09c2.62-1.65,6.56-1.43,8.41-3.66l.18-13.07s-2.08-3.74-.15-4,2.27,2,2.27,2l1.7-4.27,8.46,3.41S139.49,32.3,128.85,29.48Z" fill="#8e4228"></path><path d="M107.67,177.19c-2.23-2.73-3.56-9-3.56-9s.09-.12-.17-.43a2.66,2.66,0,0,1-2.59,1.58c-2.34-.18-2.33-3.12-4.16-3.73-.1.19-.19.4-.3.64-.89,2-.19,13.44-.19,13.44l3.14,1.54-.3-3.66s.83,1.94,1.67,4,3.71,3.05,6.73,4.38,4.61.3,5.32-2S109.9,179.92,107.67,177.19Z" fill="#473e39"></path><polygon points="218.03 231.68 242.31 219.06 242.31 189.47 218.03 203.6 218.03 231.68" fill="#206bc4"></polygon><polygon points="189.59 185.93 217.78 202.24 217.48 202.76 241.81 188.61 213.32 172.13 189.59 185.93" fill="#206bc4"></polygon><polygon points="213.32 170.97 237.48 156.92 212.21 142.32 188.08 156.36 213.32 170.97" fill="#206bc4"></polygon><path d="M242.8,188,267,174c-.14-.1-.28-.2-.43-.29l-28.05-16.2-24.16,14.06Z" fill="#206bc4"></path><path d="M184.12,126.11l-17.88-10.32a9.86,9.86,0,0,0-9.86,0l-19.24,11.11L160,140.13Z" fill="#206bc4"></path><polygon points="162.36 171.33 161.28 171.95 161.28 199.38 188.15 214.92 188.15 186.25 162.36 171.33" fill="#206bc4"></polygon><polygon points="186.09 156.37 160.03 141.29 136.29 155.09 162.35 170.17 186.09 156.37" fill="#206bc4"></polygon><polygon points="217.08 202.99 189.15 186.83 189.15 215.5 217.03 231.63 217.03 203.02 217.08 202.99" fill="#206bc4"></polygon><polygon points="188.6 185.36 212.33 171.55 187.08 156.94 163.35 170.75 188.6 185.36" fill="#206bc4"></polygon><polygon points="161.36 170.75 135.59 155.84 135.59 184.51 160.28 198.8 160.28 171.38 161.36 170.75" fill="#206bc4"></polygon><path d="M134.6,155.26l-21.83-12.63.5-.87,22,12.75L159,140.71l-22.88-13.24L114.1,140.2a6.49,6.49,0,0,0-2.75,8.13v4.36a6.63,6.63,0,0,0,0,.68v17.12l23.25,13.45Z" fill="#206bc4"></path><polygon points="187.08 155.79 211.21 141.75 185.12 126.69 161.02 140.71 187.08 155.79" fill="#206bc4"></polygon><path d="M189.15,216.66v21.9h-1V216.08l-26.87-15.55v22.79l51.53,30.89a12.73,12.73,0,0,0,4.22,1.57v-23Z" fill="#206bc4"></path><path d="M242.3,220.19,218,232.8v23.13a12.76,12.76,0,0,0,7.83-1.67L243.22,244h-.92Z" fill="#206bc4"></path><path d="M243.3,244l20.23-11.91a10.5,10.5,0,0,0,5.16-8.59l.76-17.41L243.3,219.67Z" fill="#206bc4"></path><path d="M270.08,187.85l-.26-8.38h0a6.54,6.54,0,0,0-2-4.82L243.3,188.89v29.65l26.2-13.61.57-17.08" fill="#206bc4"></path><polygon points="135.59 185.67 135.59 207.87 135.5 207.87 160.28 222.72 160.28 199.95 135.59 185.67" fill="#206bc4"></polygon><path d="M111.35,171.64v17a8.4,8.4,0,0,0,4.08,7.2l19.17,11.49V185.09Z" fill="#206bc4"></path><polygon points="218.03 231.68 242.31 219.06 242.31 189.47 218.03 203.6 218.03 231.68" fill="#206bc4" style="mix-blend-mode: multiply;"></polygon><polygon points="189.59 185.93 217.78 202.24 217.48 202.76 241.81 188.61 213.32 172.13 189.59 185.93" fill="#206bc4"></polygon><polygon points="213.32 170.97 237.48 156.92 212.21 142.32 188.08 156.36 213.32 170.97" fill="#206bc4"></polygon><path d="M242.8,188,267,174c-.14-.1-.28-.2-.43-.29l-28.05-16.2-24.16,14.06Z" fill="#206bc4" style="mix-blend-mode: multiply;"></path><path d="M184.12,126.11l-17.88-10.32a9.86,9.86,0,0,0-9.86,0l-19.24,11.11L160,140.13Z" fill="#206bc4"></path><polygon points="162.36 171.33 161.28 171.95 161.28 199.38 188.15 214.92 188.15 186.25 162.36 171.33" fill="#206bc4"></polygon><polygon points="186.09 156.37 160.03 141.29 136.29 155.09 162.35 170.17 186.09 156.37" fill="#206bc4"></polygon><polygon points="217.08 202.99 189.15 186.83 189.15 215.5 217.03 231.63 217.03 203.02 217.08 202.99" fill="#206bc4" style="mix-blend-mode: multiply;"></polygon><polygon points="188.6 185.36 212.33 171.55 187.08 156.94 163.35 170.75 188.6 185.36" fill="#206bc4" style="mix-blend-mode: multiply;"></polygon><polygon points="161.36 170.75 135.59 155.84 135.59 184.51 160.28 198.8 160.28 171.38 161.36 170.75" fill="#206bc4" style="mix-blend-mode: multiply;"></polygon><path d="M136.15,127.47,114.1,140.2a6.48,6.48,0,0,0-1.46,1.18,5.93,5.93,0,0,0,.61.4v0l22,12.75L159,140.71Z" fill="#206bc4" style="mix-blend-mode: multiply;"></path><polygon points="187.08 155.79 211.21 141.75 185.12 126.69 161.02 140.71 187.08 155.79" fill="#206bc4" style="mix-blend-mode: multiply;"></polygon><path d="M189.15,216.66v21.9H189v1.39l23.79,14.26a12.73,12.73,0,0,0,4.22,1.57v-23Z" fill="#206bc4"></path><path d="M188,236.71a.46.46,0,0,1,.13-.33v-20.3l-26.87-15.55v22.79l26.74,16Z" fill="#206bc4" style="mix-blend-mode: multiply;"></path><path d="M242.3,220.19,218,232.8v23.13a12.76,12.76,0,0,0,7.83-1.67L243.22,244h-.92Z" fill="#206bc4"></path><path d="M243.3,244l20.23-11.91a10.5,10.5,0,0,0,5.16-8.59l.76-17.41L243.3,219.67Z" fill="#206bc4" style="mix-blend-mode: multiply;"></path><path d="M270.08,187.85l-.26-8.38h0a6.54,6.54,0,0,0-2-4.82L243.3,188.89v29.65l26.2-13.61.57-17.08" fill="#206bc4"></path><polygon points="135.59 185.67 135.59 207.87 135.5 207.87 160.28 222.72 160.28 199.95 135.59 185.67" fill="#206bc4"></polygon><path d="M111.35,171.64v17a8.4,8.4,0,0,0,4.08,7.2l19.17,11.49V185.09Z" fill="#206bc4" style="mix-blend-mode: multiply;"></path><polygon points="188.15 238.56 189.15 238.56 189.15 216.66 188.15 216.08 188.15 238.56" fill="#ffeed9"></polygon><polygon points="189.59 185.93 213.32 172.13 212.33 171.55 188.6 185.36 189.59 185.93" fill="#ffeed9"></polygon><polygon points="188.15 186.25 188.15 214.92 189.15 215.5 189.15 186.83 188.15 186.25" fill="#ffeed9"></polygon><polygon points="214.32 171.55 238.48 157.49 237.48 156.92 213.32 170.97 214.32 171.55" fill="#ffeed9"></polygon><polygon points="188.08 156.36 212.21 142.32 211.21 141.75 187.08 155.79 188.08 156.36" fill="#ffeed9"></polygon><polygon points="160.28 199.95 160.28 222.72 161.28 223.32 161.28 200.53 160.28 199.95" fill="#ffeed9"></polygon><polygon points="162.36 171.33 161.36 170.75 160.28 171.38 160.28 198.8 161.28 199.38 161.28 171.95 162.36 171.33" fill="#ffeed9"></polygon><polygon points="163.35 170.75 187.08 156.94 186.09 156.37 162.35 170.17 163.35 170.75" fill="#ffeed9"></polygon><polygon points="134.59 207.87 135.5 207.87 134.59 207.32 134.59 207.87" fill="#ffeed9"></polygon><polygon points="160.03 141.29 159.03 140.71 135.3 154.52 136.29 155.09 160.03 141.29" fill="#ffeed9"></polygon><polygon points="161.02 140.71 185.12 126.69 184.12 126.11 160.02 140.13 161.02 140.71" fill="#ffeed9"></polygon><polygon points="135.59 185.67 134.59 185.09 134.59 207.32 135.5 207.87 135.59 207.87 135.59 185.67" fill="#ffeed9"></polygon><polygon points="135.59 155.84 134.59 155.26 134.59 183.93 135.59 184.51 135.59 155.84" fill="#ffeed9"></polygon><polygon points="162.35 170.17 136.29 155.09 135.59 155.5 135.59 155.84 161.36 170.75 162.35 170.17" fill="#ffeed9"></polygon><polygon points="189.15 186.83 217.08 202.99 217.28 202.88 217.48 202.76 217.78 202.24 189.59 185.93 189.15 186.19 189.15 186.83" fill="#ffeed9"></polygon><polygon points="188.6 185.36 163.35 170.75 162.36 171.33 188.15 186.25 188.15 185.61 188.6 185.36" fill="#ffeed9"></polygon><polygon points="135.3 154.52 113.26 141.77 112.76 142.63 134.59 155.26 134.59 154.92 135.3 154.52" fill="#ffeed9"></polygon><polygon points="188.15 185.61 188.15 186.25 189.15 186.83 189.15 186.19 189.59 185.93 188.6 185.36 188.15 185.61" fill="#ffeed9"></polygon><polygon points="162.35 170.17 161.36 170.75 162.36 171.33 163.35 170.75 162.35 170.17" fill="#ffeed9"></polygon><polygon points="135.59 155.5 136.29 155.09 135.3 154.52 134.59 154.92 134.59 155.26 135.59 155.84 135.59 155.5" fill="#ffeed9"></polygon><path d="M217,256h1v0c-.34,0-.67-.09-1-.15Z" fill="#ffeed9"></path><path d="M217.52,233.07l-.24-.14-.25-.14v23c.33.06.66.12,1,.15V232.8Z" fill="#ffeed9"></path><polygon points="217.28 203.11 217.08 202.99 217.03 203.02 217.03 231.63 217.54 231.93 218.03 231.68 218.03 203.6 242.31 189.47 242.31 188.9 241.81 188.61 217.48 202.76 217.28 203.11" fill="#ffeed9"></polygon><path d="M243.3,188.32v.58l24.49-14.25A6.64,6.64,0,0,0,267,174L242.8,188Z" fill="#ffeed9"></path><polygon points="217.08 202.99 217.28 203.11 217.48 202.76 217.28 202.88 217.08 202.99" fill="#ffeed9"></polygon><polygon points="243.31 244.04 243.31 243.99 243.22 244.04 243.31 244.04" fill="#ffeed9"></polygon><polygon points="160.02 140.13 137.15 126.89 136.15 127.47 159.03 140.71 160.02 140.13" fill="#ffeed9"></polygon><polygon points="242.31 220.19 242.31 244.04 243.22 244.04 243.31 243.99 243.31 219.67 242.31 220.19" fill="#ffeed9"></polygon><polygon points="212.33 171.55 213.32 170.97 188.08 156.36 187.08 156.94 212.33 171.55" fill="#ffeed9"></polygon><polygon points="242.31 219.06 243.31 218.54 243.31 188.89 242.31 189.47 242.31 219.06" fill="#ffeed9"></polygon><polygon points="186.09 156.37 187.08 155.79 161.02 140.71 160.03 141.29 186.09 156.37" fill="#ffeed9"></polygon><polygon points="241.81 188.61 242.8 188.03 214.32 171.55 213.32 172.13 241.81 188.61" fill="#ffeed9"></polygon><polygon points="213.32 172.13 214.32 171.55 213.32 170.97 212.33 171.55 213.32 172.13" fill="#ffeed9"></polygon><polygon points="187.08 156.94 188.08 156.36 187.08 155.79 186.09 156.37 187.08 156.94" fill="#ffeed9"></polygon><polygon points="161.02 140.71 160.02 140.13 159.03 140.71 160.03 141.29 161.02 140.71" fill="#ffeed9"></polygon><polygon points="242.8 188.03 241.81 188.61 242.31 188.9 242.31 189.47 243.31 188.89 243.31 188.32 242.8 188.03" fill="#ffeed9"></polygon><polygon points="134.59 183.93 111.35 170.48 111.35 171.64 134.59 185.09 134.59 183.93" fill="#ffeed9"></polygon><polygon points="218.03 231.68 218.03 232.8 242.31 220.19 242.31 219.06 218.03 231.68" fill="#ffeed9"></polygon><polygon points="243.31 219.67 269.45 206.08 269.5 204.93 243.31 218.54 243.31 219.67" fill="#ffeed9"></polygon><polygon points="135.59 184.51 135.59 185.67 160.28 199.95 160.28 198.8 135.59 184.51" fill="#ffeed9"></polygon><polygon points="189.15 215.5 189.15 216.66 217.03 232.79 217.03 231.63 189.15 215.5" fill="#ffeed9"></polygon><polygon points="161.28 199.38 161.28 200.53 188.15 216.08 188.15 214.92 161.28 199.38" fill="#ffeed9"></polygon><polygon points="188.15 214.92 188.15 216.08 189.15 216.66 189.15 215.5 188.15 214.92" fill="#ffeed9"></polygon><polygon points="160.28 198.8 160.28 199.95 161.28 200.53 161.28 199.38 160.28 198.8" fill="#ffeed9"></polygon><polygon points="134.59 183.93 134.59 185.09 135.59 185.67 135.59 184.51 134.59 183.93" fill="#ffeed9"></polygon><polygon points="217.54 231.93 217.03 231.63 217.03 232.79 217.28 232.93 217.52 233.07 218.03 232.8 218.03 231.68 217.54 231.93" fill="#ffeed9"></polygon><polygon points="242.31 220.19 243.31 219.67 243.31 218.54 242.31 219.06 242.31 220.19" fill="#ffeed9"></polygon><polyline points="201.65 128.09 201.65 151.47 219.89 161.9 240.47 149.74 240.47 126.36" fill="#206bc4"></polyline><polygon points="201.65 128.09 222.81 116.05 240.47 126.36 219.89 138.52 201.65 128.09" fill="#206bc4"></polygon><polygon points="201.65 128.09 222.81 116.05 240.47 126.36 219.89 138.52 201.65 128.09" fill="#fff" opacity="0.21"></polygon><polygon points="219.89 138.52 219.89 161.9 240.47 149.74 240.47 126.36 219.89 138.52" fill="#206bc4" style="mix-blend-mode: multiply;"></polygon><path d="M269.32,113.32s-2.37,4.65-3.75,5.92-16.19,7.93-17.56,8.46-1.59,1-2.33.85-7.19-.11-7.51.53a1.82,1.82,0,0,0,0,1.38s-2,1.16-1.59,2.33,1.48,4.13,3.28,4.13,5.82-3.39,6.14-4.23c0,0,16.49-1.38,23.32-5.18s7.89-9,7.89-9A8.46,8.46,0,0,0,269.32,113.32Z" fill="#f2c3bd"></path><polyline points="117.74 84.83 117.74 108.21 135.97 118.64 156.56 106.48 156.56 83.1" fill="#206bc4"></polyline><polygon points="117.74 84.83 138.9 72.79 156.56 83.1 135.97 95.27 117.74 84.83" fill="#206bc4"></polygon><polygon points="117.74 84.83 138.9 72.79 156.56 83.1 135.97 95.27 117.74 84.83" fill="#fff" opacity="0.21"></polygon><polygon points="135.97 95.27 135.97 118.64 156.56 106.48 156.56 83.1 135.97 95.27" fill="#206bc4" style="mix-blend-mode: multiply;"></polygon><path d="M111.19,67.64s.1,7.83,1.39,10.43,7.58,15.8,7.88,16,5.84,3.11,5.11,4.14-4-.7-4-.7,4,6.2,2.39,7.31-8.51-5-8.55-6.82-.21-4.51-.21-4.51S105.12,79.9,104.34,77.6,103,66.43,103,66.43,107.53,64,111.19,67.64Z" fill="#ffc8a9"></path><path d="M111.72,60.39l.72,11c-1-.18-9.49.67-9.66.42s.49-10.36.49-10.36" fill="#a2c609"></path></g></g></svg>