<svg xmlns="http://www.w3.org/2000/svg" xmlns:xlink="http://www.w3.org/1999/xlink" viewBox="0 0 400 300" width="406" height="306" class="illustration styles_illustrationTablet__1DWOa"><defs><linearGradient id="linear-gradient" x1="183.98" y1="260.7" x2="168.58" y2="234.89" gradientUnits="userSpaceOnUse"><stop offset="0" stop-color="#fff" stop-opacity="0"></stop><stop offset="0.99" stop-color="#ffa86a"></stop></linearGradient><linearGradient id="linear-gradient-2" x1="264.75" y1="243.44" x2="249.61" y2="218.08" xlink:href="#linear-gradient"></linearGradient><linearGradient id="linear-gradient-3" x1="345.64" y1="218.7" x2="330.9" y2="194.02" xlink:href="#linear-gradient"></linearGradient></defs><title>151-160</title><g style="isolation: isolate;"><g id="Layer_2" data-name="Layer 2"><path d="M382.51,156.55,246.91,77.68a6.41,6.41,0,0,0-6.41,0L37.71,193.73a6.41,6.41,0,0,0,0,11.12l129.68,74.87a20.93,20.93,0,0,0,20.93,0L382.5,167.64A6.41,6.41,0,0,0,382.51,156.55Z" fill="#ed7c31"></path><polyline points="128.43 205.62 96.05 186.91 231.37 108.92 298.75 147.75" fill="none" stroke="#42210b" stroke-miterlimit="10"></polyline><polyline points="233.96 181.35 170.44 144.12 170.44 108.92" fill="none" stroke="#42210b" stroke-miterlimit="10"></polyline><path d="M231,59.59C229.87,58.18,214.31,49,214.31,49l0,.08c-3.19-3.53-9.11-2.29-16.8,4.4,0,0-.27-7.35-9.07-8.53s-11.32,2.82-11.32,2.82-3-13.93-20.62-8.7c-16,4.75-13.77,20.87-13.77,20.87s-10-2.5-17.93,8.47-7.36,23.8-7.36,23.8-16.76,6.07-18.89,21.3a37.36,37.36,0,0,0-.33,4l0,.39a45.58,45.58,0,0,0,.88,9.78,6.37,6.37,0,0,0,3.12,4.44l17.77,10.14a25.37,25.37,0,0,0-1.81-13l88-51.08s6.73-5.92,9.56-13.76l6.77-1.75S232.09,61,231,59.59Z" fill="#206bc4"></path><path d="M231,59.59C229.87,58.18,214.31,49,214.31,49l0,.08c-3.19-3.53-9.11-2.29-16.8,4.4,0,0-.27-7.35-9.07-8.53s-11.32,2.82-11.32,2.82-3-13.93-20.62-8.7c-16,4.75-13.77,20.87-13.77,20.87s-10-2.5-17.93,8.47-7.36,23.8-7.36,23.8-16.76,6.07-18.89,21.3a37.36,37.36,0,0,0-.33,4l0,.39a45.58,45.58,0,0,0,.88,9.78,6.37,6.37,0,0,0,3.12,4.44l17.77,10.14a25.37,25.37,0,0,0-1.81-13l88-51.08s6.73-5.92,9.56-13.76l6.77-1.75S232.09,61,231,59.59Z" opacity="0.15"></path><path d="M129.61,143.38l93.56-54.32S234.64,79,233.93,67.73s-8.17-13.1-19.37-3.35c0,0-.23-9.45-9.07-8.53s-12.19,6.7-12.19,6.7,1.76-16.8-15.9-11.57a24.56,24.56,0,0,0-17.63,19.86s-10-2.5-17.93,8.47-7.36,23.8-7.36,23.8-16.76,6.07-18.89,21.3S120.77,146.5,129.61,143.38Z" fill="#206bc4"></path><circle cx="170.45" cy="143.27" r="3.5" fill="#56403d"></circle><path d="M143.07,247.72c15.11,8.64,29.93,17.76,44.68,27a236.06,236.06,0,0,0,39.09-23.19c-21.15-11-57.08-32.47-70.13-40.63l-37.65,22C127.43,237.29,135.29,243.27,143.07,247.72Z" opacity="0.32" fill="url(#linear-gradient)" style="mix-blend-mode: multiply;"></path><path d="M287.53,216.86c-17.18-10-35.2-20.92-43.55-26.21l-36.5,21.58c8.12,4.31,15.74,10.18,23.28,14.55s14.89,8.79,22.25,13.32C268.78,231.4,275.6,227.41,287.53,216.86Z" opacity="0.32" fill="url(#linear-gradient-2)" style="mix-blend-mode: multiply;"></path><path d="M336.28,194.32c5.76-3.43,15.3-8.46,21.1-11.84-11.79-6.92-22.48-13.39-28.34-17.06l-36,21c8,4.2,15.52,9.92,23,14.18,1.28.73,3.6,1.84,4.88,2.58C327.18,199.16,329.85,198.15,336.28,194.32Z" opacity="0.32" fill="url(#linear-gradient-3)" style="mix-blend-mode: multiply;"></path><polyline points="252.68 133.69 239.37 126.62 207.47 145.04 207.47 214.06 220.62 221.66" fill="#584a57"></polyline><path d="M220.62,221.66c1-.08,0-69.46,0-69.46l32.06-18.51v70Z" fill="#892a54"></path><polyline points="252.68 146.74 220.77 164.7 207.47 157.92" fill="none" stroke="#f2f2f2" stroke-miterlimit="10" stroke-width="0.25"></polyline><polyline points="252.68 164.7 220.77 182.65 207.47 175.88" fill="none" stroke="#f2f2f2" stroke-miterlimit="10" stroke-width="0.25"></polyline><polyline points="252.68 180.86 220.77 198.81 207.47 192.03" fill="none" stroke="#f2f2f2" stroke-miterlimit="10" stroke-width="0.25"></polyline><polyline points="252.68 197.16 220.77 215.12 207.47 208.34" fill="none" stroke="#f2f2f2" stroke-miterlimit="10" stroke-width="0.25"></polyline><polygon points="220.62 152.2 207.47 145.04 239.37 126.62 252.68 133.69 220.62 152.2" fill="#ab7493"></polygon><ellipse cx="226.66" cy="154.48" rx="2.34" ry="1.94" transform="translate(-2.23 305.64) rotate(-67.72)" fill="#fff"></ellipse><path d="M248.43,142.5l-17,9.37c-.42.23,0,.88.38.65l17-9.37c.42-.23,0-.88-.38-.65Z" fill="#f2f2f2"></path><ellipse cx="226.66" cy="170.18" rx="2.34" ry="1.94" transform="translate(-16.76 315.39) rotate(-67.72)" fill="#fff"></ellipse><path d="M248.43,158.2l-17,9.37c-.42.23,0,.88.38.65l17-9.37c.42-.23,0-.88-.38-.65Z" fill="#f2f2f2"></path><ellipse cx="226.66" cy="187.34" rx="2.34" ry="1.94" transform="translate(-32.63 326.04) rotate(-67.72)" fill="#fff"></ellipse><path d="M248.43,175.35l-17,9.37c-.42.23,0,.88.38.65l17-9.37c.42-.23,0-.88-.38-.65Z" fill="#f2f2f2"></path><ellipse cx="226.66" cy="202.91" rx="2.34" ry="1.94" transform="translate(-47.04 335.71) rotate(-67.72)" fill="#fff"></ellipse><path d="M248.43,190.93l-17,9.37c-.42.23,0,.88.38.65l17-9.37c.42-.23,0-.88-.38-.65Z" fill="#f2f2f2"></path><polyline points="164.24 153.34 150.94 146.27 119.04 164.69 119.04 233.71 132.19 241.31" fill="#594b5a"></polyline><path d="M132.19,241.31c1-.08,0-69.46,0-69.46l32.06-18.51v70Z" fill="#ef827b"></path><polyline points="164.24 166.4 132.34 184.35 119.04 177.57" fill="none" stroke="#f2f2f2" stroke-miterlimit="10" stroke-width="0.25"></polyline><polyline points="164.24 184.35 132.34 202.3 119.04 195.53" fill="none" stroke="#f2f2f2" stroke-miterlimit="10" stroke-width="0.25"></polyline><polyline points="164.24 200.51 132.34 218.46 119.04 211.69" fill="none" stroke="#f2f2f2" stroke-miterlimit="10" stroke-width="0.25"></polyline><polyline points="164.24 216.82 132.34 234.77 119.04 228" fill="none" stroke="#f2f2f2" stroke-miterlimit="10" stroke-width="0.25"></polyline><polygon points="132.19 171.85 119.04 164.69 150.94 146.27 164.24 153.34 132.19 171.85" fill="#ffeddd"></polygon><ellipse cx="138.23" cy="174.14" rx="2.34" ry="1.94" transform="translate(-75.32 236.02) rotate(-67.72)" fill="#fff"></ellipse><path d="M160,162.16l-17,9.37c-.42.23,0,.88.38.65l17-9.37c.42-.23,0-.88-.38-.65Z" fill="#f2f2f2"></path><ellipse cx="138.23" cy="189.84" rx="2.34" ry="1.94" transform="translate(-89.84 245.76) rotate(-67.72)" fill="#fff"></ellipse><path d="M160,177.85l-17,9.37c-.42.23,0,.88.38.65l17-9.37c.42-.23,0-.88-.38-.65Z" fill="#f2f2f2"></path><ellipse cx="138.23" cy="206.99" rx="2.34" ry="1.94" transform="translate(-105.72 256.41) rotate(-67.72)" fill="#fff"></ellipse><path d="M160,195l-17,9.37c-.42.23,0,.88.38.65l17-9.37c.42-.23,0-.88-.38-.65Z" fill="#f2f2f2"></path><ellipse cx="138.23" cy="222.56" rx="2.34" ry="1.94" transform="translate(-120.13 266.08) rotate(-67.72)" fill="#fff"></ellipse><path d="M160,210.58l-17,9.37c-.42.23,0,.88.38.65l17-9.37c.42-.23,0-.88-.38-.65Z" fill="#f2f2f2"></path><polyline points="332.73 102.98 319.43 95.91 287.53 114.33 287.53 183.35 300.68 190.95" fill="#594b5a"></polyline><path d="M300.68,190.95c1-.08,0-69.46,0-69.46L332.73,103v70Z" fill="#ef827b"></path><polyline points="332.73 116.03 300.83 133.99 287.53 127.21" fill="none" stroke="#f2f2f2" stroke-miterlimit="10" stroke-width="0.25"></polyline><polyline points="332.73 133.99 300.83 151.94 287.53 145.17" fill="none" stroke="#f2f2f2" stroke-miterlimit="10" stroke-width="0.25"></polyline><polyline points="332.73 150.15 300.83 168.1 287.53 161.33" fill="none" stroke="#f2f2f2" stroke-miterlimit="10" stroke-width="0.25"></polyline><polyline points="332.73 166.45 300.83 184.41 287.53 177.63" fill="none" stroke="#f2f2f2" stroke-miterlimit="10" stroke-width="0.25"></polyline><polygon points="300.68 121.49 287.53 114.33 319.43 95.91 332.73 102.98 300.68 121.49" fill="#ffeddd"></polygon><ellipse cx="306.72" cy="123.78" rx="2.34" ry="1.94" transform="translate(75.88 360.66) rotate(-67.72)" fill="#fff"></ellipse><path d="M328.48,111.79l-17,9.37c-.42.23,0,.88.38.65l17-9.37c.42-.23,0-.88-.38-.65Z" fill="#f2f2f2"></path><ellipse cx="306.72" cy="139.47" rx="2.34" ry="1.94" transform="translate(61.36 370.4) rotate(-67.72)" fill="#fff"></ellipse><path d="M328.48,127.49l-17,9.37c-.42.23,0,.88.38.65l17-9.37c.42-.23,0-.88-.38-.65Z" fill="#f2f2f2"></path><ellipse cx="306.72" cy="156.63" rx="2.34" ry="1.94" transform="translate(45.49 381.05) rotate(-67.72)" fill="#fff"></ellipse><path d="M328.48,144.65l-17,9.37c-.42.23,0,.88.38.65l17-9.37c.42-.23,0-.88-.38-.65Z" fill="#f2f2f2"></path><ellipse cx="306.72" cy="172.2" rx="2.34" ry="1.94" transform="translate(31.08 390.72) rotate(-67.72)" fill="#fff"></ellipse><path d="M328.48,160.22l-17,9.37c-.42.23,0,.88.38.65l17-9.37c.42-.23,0-.88-.38-.65Z" fill="#f2f2f2"></path></g></g></svg>