<?xml version="1.0" encoding="UTF-8"?><svg id="Ebene_2" xmlns="http://www.w3.org/2000/svg" viewBox="0 0 244.21 364.54"><defs><style>.cls-1{fill:#cbcaca;}.cls-2{fill:#fff;}.cls-3{fill:#cdcccc;}.cls-4{fill:#f6b6b8;}.cls-5{fill:#a0626b;}.cls-6{fill:#3069b2;}.cls-7{fill:#302f42;}.cls-8{fill:#e7e6e6;}.cls-9{fill:#f6b6b9;}.cls-10{fill:#cccccb;}.cls-11{fill:#f2f2f2;}</style></defs><g id="Ebene_1-2"><rect class="cls-1" x="106.31" y="202.19" width="1.06" height="228.93" transform="translate(-226.99 301.22) rotate(-68.71)"/><path id="a59f2875-b7c9-49fa-9edb-013b668487d1-9119" class="cls-11" d="m152.8.16L34.24,31.42c-.47.13-.91.37-1.28.7-.41.36-.76.79-1.04,1.26-.3.51-.54,1.06-.7,1.63-.17.6-.26,1.22-.26,1.85v175.88c0,.61.09,1.23.26,1.82.16.55.39,1.07.7,1.55.28.44.63.82,1.04,1.14.38.29.82.48,1.28.55l118.56,17.46c.69.11,1.39.05,2.05-.16.63-.2,1.21-.55,1.69-1.01.5-.48.89-1.06,1.14-1.7.28-.71.43-1.46.42-2.22V4.63c0-.75-.14-1.48-.42-2.17-.25-.6-.64-1.14-1.14-1.56-.49-.41-1.07-.69-1.69-.81-.68-.13-1.38-.1-2.05.08Z"/><path id="ff4771f9-1135-4fb3-96b8-ed4410566af1-9120" class="cls-2" d="m37.16,36.35c-.33.1-.64.27-.9.5-.29.25-.54.55-.73.89-.21.36-.38.75-.49,1.16-.12.42-.17.86-.17,1.3v168.74c0,.43.05.86.17,1.28.11.39.27.76.48,1.1.19.31.44.58.73.8.26.2.57.34.9.4l111.06,14.96c.47.06.95,0,1.4-.15.43-.16.82-.41,1.14-.73.33-.34.59-.75.76-1.2.19-.49.28-1.02.27-1.54V11.68c.01-.52-.08-1.03-.27-1.51-.17-.42-.43-.8-.76-1.11-.32-.29-.72-.5-1.14-.6-.46-.11-.94-.1-1.4,0l-111.06,27.89Z"/><path id="f1f9644a-fa88-428c-8322-79261417ccc5-9121" class="cls-11" d="m41.86,43.1c-.23.06-.44.17-.61.34-.2.18-.37.4-.5.64-.15.27-.26.55-.34.85-.08.32-.12.65-.13.97v23.5c0,.31.04.62.12.92.07.26.18.5.34.71.13.18.3.33.5.44.19.09.4.12.61.09l99.26-17.09c.33-.06.64-.19.91-.39.29-.21.54-.47.74-.77.22-.32.39-.67.5-1.03.12-.39.18-.79.18-1.19v-28.78c0-.38-.06-.76-.18-1.12-.11-.31-.28-.59-.5-.83-.42-.45-1.05-.64-1.65-.49l-99.26,23.22Z"/><path id="ff7d054f-0c1b-4433-9ca3-8172c7ca7ae0-9122" class="cls-11" d="m41.86,83c-.23.04-.44.14-.62.28-.2.15-.37.34-.5.55-.15.23-.26.48-.34.75-.08.28-.12.58-.11.87v50.23c0,.29.04.57.12.85.07.25.19.48.34.69.13.19.3.35.5.46.19.11.4.17.62.17l99.26-2.83c.32-.02.63-.1.92-.25.29-.15.54-.36.75-.61.22-.26.39-.55.5-.87.12-.34.18-.69.17-1.05v-61.51c0-.35-.05-.69-.17-1.02-.11-.29-.28-.56-.5-.78-.21-.21-.46-.38-.75-.48-.3-.1-.61-.13-.92-.09l-99.26,14.63Z"/><path id="a7eb0bab-ebfd-4dd9-b622-759c7763ba58-9123" class="cls-2" d="m50.55,44.46l78.24-17.74v5.99l-78.24,16.88v-5.14Z"/><path id="f23a1c9f-c8e9-45be-b21c-431aeafeca9c-9124" class="cls-2" d="m50.69,55.26l78.29-15.94v2.78l-78.29,15.55v-2.39Z"/><path id="a3ff34d5-a9ab-425b-b799-bea92feb2951-9125" class="cls-2" d="m50.69,59.48l78.29-15.24v2.78l-78.29,14.84v-2.39Z"/><path id="be05c005-2968-403e-b18e-d8c6e4e7ee45-9126" class="cls-2" d="m50.69,63.71l78.29-14.54v2.78l-78.29,14.14v-2.39Z"/><path id="a1b64b68-1df2-49ff-8571-8f25058de55b-9127" class="cls-2" d="m94.1,136.46l39.7-1.12c.14,0,.27-.03.4-.08.13-.05.25-.12.36-.21.11-.09.21-.2.3-.32.09-.13.16-.26.21-.41.1-.29.13-.61.08-.91-.03-.15-.07-.29-.13-.43-.06-.13-.14-.26-.24-.37l-26.17-29.01c-.11-.13-.26-.23-.41-.29-.15-.06-.31-.08-.47-.07-.17.02-.33.07-.47.15-.16.09-.3.22-.41.37l-6.09,7.87c-.23.3-.52.55-.84.74-.29.17-.62.27-.96.3-.33.02-.65-.03-.95-.16-.32-.14-.61-.35-.83-.62h0l-17.94-20.62c-.1-.12-.23-.21-.37-.27-.13-.05-.28-.07-.42-.05-.15.02-.29.07-.42.15-.14.09-.27.21-.37.35l-31.53,43.91c-.07.1-.13.21-.17.32-.05.12-.08.24-.09.37-.02.13-.02.26-.01.38,0,.13.03.25.07.38.04.12.09.23.15.33.06.09.13.18.21.25.08.07.16.12.26.16.09.04.19.05.29.05l47.34-1.36-.05.2Z"/><path id="f3c84d7c-5146-4d23-9ceb-c01f372468d7-9128" class="cls-2" d="m53.71,88.27c.51-.07,1.03,0,1.51.21.48.21.91.54,1.24.95.37.46.66.98.84,1.55.21.64.31,1.32.31,1.99,0,.7-.1,1.4-.31,2.07-.19.62-.47,1.21-.84,1.75-.33.49-.75.92-1.24,1.25-.45.31-.97.51-1.51.58-.51.06-1.03-.02-1.5-.24-.48-.22-.89-.55-1.22-.97-.37-.46-.64-.98-.82-1.54-.2-.63-.3-1.3-.3-1.96,0-.69.1-1.38.3-2.04.18-.62.46-1.2.82-1.74.33-.49.74-.92,1.22-1.26.44-.32.96-.53,1.5-.6Z"/><path id="b0182b23-dc59-4ff3-b3b4-a3d940efaefe-9129" class="cls-11" d="m41.86,149.65c-.22,0-.43.07-.62.19-.2.12-.37.29-.5.48-.15.21-.26.45-.34.7-.08.28-.12.56-.11.85v50.23c0,.29.04.58.12.87.07.26.19.51.34.74.13.21.3.39.5.54.18.14.39.22.62.26l99.26,11.51c.31.03.62,0,.92-.12.28-.11.54-.28.75-.5.22-.23.39-.5.5-.8.12-.33.18-.67.17-1.02v-61.51c0-.36-.05-.71-.17-1.04-.11-.31-.28-.6-.5-.86-.21-.24-.46-.44-.75-.58-.29-.14-.6-.22-.92-.22l-99.26.29Z"/><path id="a989dc09-34cc-41d2-9960-aebf8ec98c6b-9130" class="cls-2" d="m94.1,210.66l39.7,4.61c.13.02.27,0,.4-.02.13-.03.25-.08.36-.15.11-.07.21-.17.3-.27.09-.11.16-.24.21-.38.05-.14.09-.29.1-.44.01-.15,0-.31-.02-.46-.03-.15-.07-.3-.13-.45-.06-.14-.15-.28-.24-.4l-26.17-32.79c-.11-.14-.25-.26-.41-.35-.14-.08-.31-.13-.47-.13-.16,0-.32.02-.47.08-.16.07-.3.17-.41.31l-6.09,6.99c-.23.27-.52.48-.84.62-.3.13-.63.18-.96.16-.34-.03-.66-.13-.95-.29-.32-.19-.61-.44-.83-.74h0l-17.95-23.21c-.1-.13-.23-.24-.37-.32-.13-.07-.27-.11-.42-.11-.15,0-.29.03-.42.09-.14.07-.27.17-.37.3l-31.52,39.35c-.07.09-.13.19-.17.3-.05.11-.08.23-.09.35-.02.13-.02.25-.01.38,0,.13.03.26.07.39.04.12.09.24.15.35.06.1.13.2.21.28.07.08.16.14.26.19.09.05.19.08.29.09l47.34,5.48-.05.19Z"/><path id="a8bd342c-5bae-4e5f-bf88-a468257dce96-9131" class="cls-2" d="m53.71,156.64c.53,0,1.05.16,1.51.43.49.29.91.67,1.24,1.13.37.51.65,1.07.84,1.67.21.66.31,1.35.31,2.04,0,.69-.1,1.37-.31,2.02-.18.59-.47,1.14-.84,1.63-.33.44-.76.81-1.24,1.07-.46.25-.98.37-1.51.36-.53-.02-1.05-.18-1.5-.46-.48-.3-.89-.68-1.22-1.14-.36-.5-.64-1.06-.82-1.66-.2-.65-.3-1.33-.3-2.01,0-.68.1-1.35.3-1.99.18-.58.46-1.13.82-1.62.33-.44.74-.81,1.22-1.09.46-.26.98-.39,1.5-.39Z"/><path id="e9ee41aa-d78e-4dad-8172-13013ca5924f-9132" class="cls-8" d="m69.86,65.97c-.37.07-.73.22-1.03.45-.33.24-.61.54-.84.88-.25.36-.44.76-.56,1.19-.14.44-.21.9-.21,1.37v190.04c0,.92.27,1.82.77,2.59.23.35.51.67.84.93.3.24.66.42,1.03.51l140.8,32.5c.56.14,1.15.15,1.72.05.51-.1,1-.31,1.41-.63.41-.32.74-.73.96-1.2.24-.52.36-1.08.35-1.66V45.19c0-.58-.12-1.15-.35-1.68-.22-.48-.55-.91-.96-1.25-.41-.34-.89-.58-1.41-.71-.56-.14-1.15-.15-1.72-.05l-140.8,24.47Z"/><path id="ad8bd23c-a107-4e3a-ac50-43d14955a740-9133" class="cls-2" d="m73.11,70.8c-.38.07-.74.23-1.05.47-.33.25-.62.55-.85.9-.25.37-.44.78-.56,1.2-.13.45-.2.92-.2,1.39v181.96c0,.93.26,1.85.76,2.64.23.36.52.68.85.95.31.25.67.43,1.05.53l131.76,29.38c.56.12,1.14.12,1.7,0,1.03-.22,1.89-.93,2.31-1.89.23-.53.34-1.1.32-1.67V53.16c.01-.58-.1-1.15-.32-1.69-.42-.99-1.27-1.74-2.31-2.03-.55-.15-1.13-.19-1.7-.1l-131.76,21.46Z"/><path id="fe01f6ec-bc29-4a35-b65e-2953f7e4593e-9134" class="cls-6" d="m89.93,95.58c-.18.02-.35.08-.5.18-.16.1-.3.23-.41.38-.12.16-.21.34-.27.53-.07.2-.1.42-.1.63v7.28c0,.21.03.41.1.61.06.18.15.34.27.48.11.13.25.23.41.3.16.07.33.1.5.08l88.75-7.83c.24-.02.48-.09.69-.21.21-.12.4-.27.56-.45.16-.19.29-.4.38-.63.09-.24.14-.49.14-.74v-8.6c0-.24-.05-.49-.14-.71-.09-.21-.22-.4-.38-.55-.16-.15-.35-.27-.56-.34-.22-.07-.46-.1-.69-.07l-88.75,9.66Z"/><path id="a33e5ebf-72bd-4c05-92f5-6fdaeb6a0cf5-9135" class="cls-3" d="m89.45,119.78s-.09.02-.13.04c-.04.02-.07.05-.1.09-.03.04-.05.08-.07.13-.02.05-.03.1-.03.16v2.85c0,.05,0,.1.03.15.02.04.04.09.07.12.03.03.06.06.1.08.04.02.08.03.13.02l90.33-4.9c.06,0,.12-.02.17-.05.05-.03.1-.06.14-.11.08-.09.13-.21.13-.34v-3.36c0-.06-.01-.12-.03-.18-.02-.05-.05-.1-.1-.14-.08-.08-.2-.13-.31-.12l-90.33,5.54Z"/><path id="eadd9508-da65-422a-9b99-851349c5ee47-9136" class="cls-3" d="m89.45,129.04s-.09.01-.13.04c-.04.02-.07.05-.1.09-.03.04-.05.08-.07.13-.02.05-.03.1-.03.16v2.85c0,.05,0,.1.03.15.01.05.04.09.07.13.03.03.06.06.1.08.04.02.08.03.13.03l90.33-3.25c.06,0,.12-.02.17-.04.05-.03.1-.06.14-.11.08-.09.13-.21.13-.34v-3.36c0-.06-.01-.12-.03-.18-.02-.05-.05-.1-.1-.14-.04-.04-.09-.07-.14-.09-.05-.02-.11-.03-.17-.03l-90.33,3.9Z"/><path id="bc09ff08-382d-4367-9371-da9c20848a93-9137" class="cls-3" d="m89.45,138.3s-.09.01-.13.03c-.04.02-.07.05-.1.09-.03.04-.05.08-.07.13-.02.05-.03.1-.03.16v2.85c0,.05,0,.1.03.15.02.05.04.09.07.13.03.03.06.06.1.08.04.02.08.03.13.03l90.33-1.61c.06,0,.12-.02.17-.04.05-.02.1-.06.14-.1.04-.04.07-.09.1-.15.02-.06.03-.12.03-.18v-3.35c0-.06-.01-.12-.03-.18-.02-.05-.05-.1-.1-.15-.04-.04-.09-.08-.14-.1-.05-.02-.11-.03-.17-.03l-90.33,2.26Z"/><path id="ad3c0260-65a9-4a32-af85-b637d7424861-9138" class="cls-3" d="m89.29,156.79s-.09,0-.13.03c-.04.02-.07.05-.1.08-.03.04-.05.08-.07.13-.02.05-.03.1-.03.15v2.85c0,.05,0,.11.03.16.02.05.04.09.07.13.03.04.06.07.1.09.04.02.08.03.13.03l90.27,1.67c.06,0,.12-.01.17-.03.05-.02.1-.06.14-.1.04-.04.07-.09.1-.15.02-.06.03-.12.03-.18v-3.35c0-.06-.01-.12-.03-.18-.02-.06-.05-.11-.1-.15-.04-.04-.09-.08-.14-.1-.05-.02-.11-.04-.17-.04l-90.27-1.03Z"/><path id="a7ce4661-d9dd-4e3c-943a-15eecdd16d68-9139" class="cls-3" d="m89.29,166.04s-.09,0-.13.03c-.04.02-.07.05-.1.08-.03.04-.05.08-.07.13-.02.05-.02.1-.02.15v2.85c0,.05,0,.11.03.16.02.05.04.09.07.13.03.04.06.07.1.09.04.02.08.03.13.04l90.27,3.32c.06,0,.12,0,.17-.03.05-.02.1-.05.14-.1.04-.04.07-.09.1-.15.02-.06.03-.12.03-.18v-3.35c0-.06-.01-.12-.03-.18-.02-.06-.05-.11-.1-.15-.04-.04-.09-.08-.14-.1-.05-.03-.11-.04-.17-.04l-90.27-2.67Z"/><path id="bf855cdb-17eb-4d24-b1bf-95bb84ebbe5f-9140" class="cls-3" d="m89.29,175.3s-.09,0-.12.03c-.04.02-.07.05-.1.08-.03.04-.05.08-.07.12-.02.05-.03.1-.03.15v2.85c0,.05,0,.11.03.16.02.05.04.09.07.13.03.04.06.07.1.09.04.02.08.04.13.04l90.27,4.96c.12,0,.23-.04.31-.12.04-.04.07-.09.1-.14.02-.06.04-.12.03-.18v-3.35c0-.12-.05-.24-.13-.34-.04-.04-.09-.08-.14-.11-.05-.03-.11-.04-.17-.05l-90.27-4.31Z"/><path id="e51942a0-1f8f-4627-b592-b6d8af379f3b-9141" class="cls-3" d="m89.29,184.6s-.09,0-.13.02c-.04.02-.07.05-.1.08-.03.04-.05.08-.07.12-.02.05-.03.1-.03.15v2.85c0,.05,0,.11.03.16.02.05.04.09.07.13.03.04.06.07.1.09.04.02.08.04.13.04l90.27,6.61c.06,0,.12,0,.17-.02.05-.02.1-.05.14-.09.04-.04.07-.09.1-.14.02-.06.04-.12.03-.18v-3.36c0-.06-.01-.13-.03-.18-.02-.06-.05-.11-.1-.16-.04-.04-.09-.08-.14-.11-.05-.03-.11-.04-.17-.05l-90.27-5.96Z"/><path id="b42b5129-059d-45a1-85e1-48e92c6af303-9142" class="cls-3" d="m89.29,193.86s-.09,0-.13.02c-.04.02-.07.04-.1.08-.03.04-.05.08-.07.12-.02.05-.03.1-.03.15v2.85c0,.05,0,.11.03.16.02.05.04.09.07.13.03.04.06.07.1.09.04.02.08.04.13.04l90.27,8.25c.06,0,.12,0,.17-.02.05-.02.1-.05.14-.09.04-.04.07-.09.1-.14.02-.06.04-.12.03-.18v-3.36c0-.06-.01-.13-.03-.19-.02-.06-.05-.11-.1-.16-.04-.05-.09-.08-.14-.11-.05-.03-.11-.05-.17-.05l-90.27-7.6Z"/><path id="a62b36ea-5ff6-4d9e-9431-581d8c5a76b9-9143" class="cls-3" d="m89.29,203.11s-.09,0-.13.02c-.04.02-.07.04-.1.07-.03.04-.05.08-.07.12-.02.05-.03.1-.03.15v2.85c0,.05,0,.11.03.16.02.05.04.09.07.13.03.04.06.07.1.1.04.02.08.04.13.04l90.27,9.89c.06,0,.12,0,.17-.02.05-.02.1-.05.14-.08.04-.04.07-.09.1-.14.02-.06.04-.12.03-.18v-3.36c0-.06-.01-.13-.03-.19-.02-.06-.05-.11-.1-.16-.04-.05-.09-.09-.14-.11-.05-.03-.11-.05-.17-.05l-90.27-9.25Z"/><path id="b5b5e049-9a07-4625-b229-28348b3ffad1-9144" class="cls-3" d="m89.29,212.41s-.09,0-.13.02c-.04.02-.07.04-.1.07-.03.04-.05.08-.07.12-.02.05-.03.1-.03.15v2.85c0,.05,0,.11.03.16.02.05.04.09.07.13.03.04.06.07.1.1.04.03.08.04.13.05l90.27,11.54c.06,0,.12,0,.17-.01.05-.02.1-.05.14-.08.04-.04.07-.08.1-.14.02-.06.04-.12.03-.18v-3.35c0-.06-.01-.13-.03-.19-.02-.06-.05-.11-.1-.16-.04-.05-.09-.09-.14-.12-.05-.03-.11-.05-.17-.06l-90.27-10.9Z"/><path id="f6f9b566-9275-4af8-af1b-7e049f94fc7f-9145" class="cls-3" d="m89.29,221.67s-.09,0-.13.01c-.04.02-.07.04-.1.07-.03.03-.05.07-.07.12-.02.05-.03.1-.03.15v2.85c0,.05,0,.11.03.16.02.05.04.09.07.14.03.04.06.07.1.1.04.03.08.04.13.05l90.27,13.19c.06,0,.12,0,.17-.01.05-.02.1-.04.14-.08.04-.04.07-.08.1-.13.02-.06.04-.12.03-.18v-3.36c0-.06-.01-.13-.03-.19-.02-.06-.05-.11-.1-.16-.04-.05-.09-.09-.14-.12-.05-.03-.11-.05-.17-.06l-90.27-12.54Z"/><path id="e06574a6-0006-4f8e-a738-8224ce6b4da4-9146" class="cls-3" d="m89.29,230.92s-.09,0-.13.01c-.04.01-.07.04-.1.07-.03.03-.05.07-.07.12-.02.05-.03.1-.03.15v2.85c0,.05,0,.11.03.16.02.05.04.1.07.14.03.04.06.07.1.1.04.03.08.04.13.05l90.27,14.83c.06,0,.12,0,.17,0,.05-.01.1-.04.14-.08.04-.04.07-.08.1-.13.02-.06.04-.12.03-.18v-3.36c0-.06-.01-.13-.03-.19-.02-.06-.05-.11-.1-.16-.04-.05-.09-.09-.14-.12-.05-.03-.11-.05-.17-.06l-90.27-14.18Z"/><path id="e3953bee-b9b0-4931-b9d5-5ac270d957ab-9147" class="cls-6" d="m206.76,244.66c4.96.77,9.72,2.46,14.06,4.97,9.12,5.28,16.25,13.43,20.28,23.17,2.02,4.85,3.07,10.05,3.1,15.3.05,4.85-1.01,9.65-3.1,14.02-1.92,3.94-4.77,7.34-8.32,9.92-3.55,2.54-7.65,4.21-11.96,4.87-4.69.7-9.48.42-14.06-.84-4.82-1.29-9.37-3.42-13.46-6.29-4.02-2.81-7.58-6.21-10.57-10.1-2.93-3.79-5.27-8-6.92-12.5-1.63-4.39-2.47-9.04-2.5-13.73-.04-4.36.81-8.68,2.5-12.69,3.17-7.53,9.62-13.19,17.49-15.37,4.38-1.2,8.97-1.45,13.46-.73Z"/><path id="e335b25d-cb3d-4c1d-842d-b9df0290eb25-9148" class="cls-2" d="m203.41,294.66l-10.29-15.81,5.94-3.53,4.92,7.47,17.23-14.82,5.98,6.68-23.78,20.02Z"/><path class="cls-5" d="m128.28,276.24l-1.86-25.77,3.34-24.15-9.49-.64-1.87,26.68,5.29,25.09c-1.21,1.67-.83,4,.84,5.21,1.67,1.21,4,.83,5.21-.84,1.21-1.67.83-4-.84-5.21-.2-.14-.41-.26-.62-.37h0Z"/><path class="cls-10" d="m119.07,229.14l2.23-9.64c.92-3.99,4.91-6.48,8.9-5.56,3.67.85,6.13,4.32,5.7,8.06l-1.23,10.89-15.61-3.75Z"/><polygon class="cls-5" points="136.63 360.2 141.1 360.2 143.23 342.95 136.63 342.95 136.63 360.2"/><path class="cls-7" d="m135.49,358.74h8.81s0,0,0,0c3.1,0,5.61,2.51,5.61,5.61v.18h-14.42s0-5.79,0-5.79Z"/><polygon class="cls-5" points="158.91 360.06 163.21 358.83 160.5 341.66 154.16 343.47 158.91 360.06"/><path class="cls-7" d="m157.41,358.97l8.47-2.43h0c2.98-.85,6.09.87,6.94,3.85l.05.18-13.86,3.97-1.6-5.57Z"/><path class="cls-7" d="m134.21,353.94l2.08-52.25-5.4-23.65c-7.27-12.19.57-31.63.65-31.83l.03-.07h.08s19.02-2.59,19.02-2.59l.27.61c7.44,17.01,9.5,35.88,5.92,54.09l-1.98,10.12,9.78,39.5-9.26,4.63-7.1-18.42-4.8,18.85-9.28,1Z"/><path class="cls-10" d="m129.04,251.06l-6.2-18.18c-3.86-6.79-1.41-12.82,1.32-16.69,2.95-4.17,3.13-6.51,3.17-6.54l.03-.02,8.15-.25,7.54,7.67c.47-.19,4.48,9.69,4.14,10.19l5.27,17.03-23.42,6.78Z"/><path class="cls-5" d="m179.28,254.2l-20.44-15.81-15.76-18.6-6.81,6.64,18.62,19.19,22.22,12.8c.44,2.01,2.43,3.29,4.44,2.85,2.01-.44,3.29-2.43,2.85-4.44-.44-2.01-2.43-3.29-4.44-2.85-.24.05-.47.13-.69.22h0Z"/><path class="cls-10" d="m134.33,233.16l-5.7-8.09c-2.36-3.35-1.55-7.98,1.8-10.34,3.08-2.17,7.3-1.68,9.81,1.13l7.3,8.18-13.21,9.12Z"/><circle class="cls-5" cx="130.47" cy="197.48" r="9.68"/><path class="cls-7" d="m140.31,192.57h-15.37v-6.7c3.37-1.34,6.68-2.48,8.67,0,3.7,0,6.7,3,6.7,6.7h0Z"/><path class="cls-7" d="m127.06,184.26c-14.08-.38-11.42,22.82-11.42,22.82,0,0,2.66.35,3.87.56l1.46-.82,1.58,1.03c.72,0,1.48-.01,2.27-.03l.72-1.49,1.61,1.46c2.93,0,10.89.09,10.89.09,0,0,4.79-23.19-10.98-23.62Z"/><path class="cls-4" d="m70.32,224.01c.21-1.71-1.01-3.27-2.72-3.48-.18-.02-.37-.03-.55-.02l-3.09-6.44-4.37.93,4.5,9.03c.21,1.72,1.78,2.95,3.5,2.74,1.44-.18,2.58-1.32,2.74-2.76h0Z"/><polygon class="cls-4" points="3.15 298.79 6.79 300.66 15.7 287.5 10.33 284.76 3.15 298.79"/><path class="cls-7" d="m2.83,297.13l7.17,3.67h0c2.52,1.29,3.52,4.38,2.23,6.9l-.08.15-11.73-6.01,2.41-4.72Z"/><polygon class="cls-4" points="45.18 303.89 49.27 303.89 51.21 288.12 45.18 288.12 45.18 303.89"/><path class="cls-7" d="m44.13,302.55h8.05s0,0,0,0c2.83,0,5.13,2.3,5.13,5.13v.17h-13.18s0-5.3,0-5.3Z"/><path class="cls-6" d="m26.05,175.27s-2.74-2.1-2.74,3.03l-.43,16.93,4.83,15.99,2.81-5.19-1.15-11.24-3.31-19.52Z"/><path class="cls-7" d="m55.34,221.58s3.17,15.46-.85,28.15l-2.22,48.78-8.15-.63-2.86-36.19-2.75-17.99-5.71,16.4-18.84,34.71-8.68-6.77s9.62-26.24,16.72-31.74l3.56-40.58,29.77,5.87Z"/><circle class="cls-9" cx="45.68" cy="145.31" r="9.29"/><path class="cls-7" d="m45.02,147.28c1.11.14,1.95-.99,2.34-2.05s.69-2.28,1.65-2.85c1.32-.78,3.02.16,4.53-.1,1.71-.29,2.82-2.1,2.91-3.83.09-1.73-.6-3.39-1.28-4.99l-.24,1.98c.06-1.37-.59-2.67-1.72-3.44l.3,2.91c-.27-1.68-1.86-2.83-3.54-2.56,0,0,0,0-.01,0l.05,1.73c-1.97-.3-3.96-.4-5.94-.29-2,.12-3.91.85-5.47,2.11-2.24,1.95-3.06,5.16-2.79,8.12s1.5,5.74,2.77,8.43c.32.68.76,1.44,1.51,1.52.69,0,1.3-.45,1.49-1.12.16-.66.15-1.34-.02-1.99-.26-.98-.35-2-.25-3.02.18-1,.9-1.99,1.9-2.11s2.04,1.03,1.55,1.92l.25-.39Z"/><path class="cls-6" d="m36.79,157.98l1.95-2.7s2.17.74,8,3.64l.41,2.53,10.11,62.16-18.37-.79-5-.11-3.66-.08-4.89-.1-.07-17.87,1.58-13.69-2.45-12.9s-3.08-11.84,8.79-18.23l3.6-1.87Z"/><polygon class="cls-10" points="62.25 220.71 62.92 223.04 67.58 220 65.82 217.99 62.25 220.71"/><path class="cls-6" d="m40.26,165.49s7.24-9.24,11.61,1.06l1.38,10.79s5.3,13.41,5.46,18.84c0,0,3.59,7.08,3.56,10.8l5.31,12.03-5.45,3.38-15.08-23.13-6.79-33.78Z"/></g></svg>