<svg xmlns="http://www.w3.org/2000/svg" xmlns:xlink="http://www.w3.org/1999/xlink" viewBox="0 0 400 300" data-imageid="innovation-isometric-c25b0" imageName="Innovation" class="illustrations_image" style="width: 188px;"><defs><linearGradient id="linear-gradient" x1="72.62" y1="205.58" x2="90.25" y2="191.65" gradientUnits="userSpaceOnUse"><stop offset="0" stop-opacity="0"/><stop offset="0.99" stop-color="#1a1a1a"/></linearGradient><linearGradient id="linear-gradient-2" x1="272.02" y1="212.69" x2="337.9" y2="170.29" xlink:href="#linear-gradient"/><linearGradient id="linear-gradient-3" x1="152.93" y1="233.86" x2="187.82" y2="184.25" xlink:href="#linear-gradient"/><linearGradient id="linear-gradient-4" x1="202.32" y1="48.03" x2="201.23" y2="175.01" gradientUnits="userSpaceOnUse"><stop offset="0" stop-color="#fff"/><stop offset="1" stop-color="#009486"/></linearGradient><linearGradient id="linear-gradient-5" x1="186.42" y1="155.28" x2="217.21" y2="155.28" gradientUnits="userSpaceOnUse"><stop offset="0" stop-color="#fff"/><stop offset="0.97" stop-color="#ed1c24"/><stop offset="1" stop-color="#f7931e"/></linearGradient><linearGradient id="linear-gradient-6" x1="130.8" y1="104.66" x2="132.49" y2="107.67" gradientTransform="matrix(-0.77, 0.63, -0.63, -0.77, 350.76, 77.64)" xlink:href="#linear-gradient-5"/><linearGradient id="linear-gradient-7" x1="185.21" y1="53.05" x2="188.2" y2="58.39" gradientTransform="translate(408.74 60.75) rotate(140.73)" xlink:href="#linear-gradient-5"/><linearGradient id="linear-gradient-8" x1="196.43" y1="107.17" x2="199.66" y2="112.94" gradientTransform="matrix(-0.77, 0.63, -0.63, -0.77, 397.02, 103.81)" xlink:href="#linear-gradient-5"/><linearGradient id="linear-gradient-9" x1="141.4" y1="59.11" x2="143.76" y2="63.33" gradientTransform="matrix(-0.77, 0.63, -0.63, -0.77, 375.04, 48.94)" xlink:href="#linear-gradient-5"/><linearGradient id="linear-gradient-10" x1="164.81" y1="83.43" x2="169.4" y2="91.62" gradientTransform="matrix(-0.77, 0.63, -0.63, -0.77, 382.99, 75.52)" xlink:href="#linear-gradient-5"/></defs><title>-</title><g style="isolation:isolate"><g id="Layer_1" data-name="Layer 1"><path d="M50.36,172.94,187.58,94.85a22,22,0,0,1,22,.11l141.38,82.35a12.23,12.23,0,0,1-.06,21.17L218.91,274.26a29.48,29.48,0,0,1-29.39,0L50.31,194.17A12.23,12.23,0,0,1,50.36,172.94Z" fill="#f4f4f4"/><path d="M80.46,210.93,103.92,197,87.48,185.64,60.23,199.23C66.72,203.24,74.17,206.65,80.46,210.93Z" opacity="0.32" fill="url(#linear-gradient)"/><path d="M88.65,173.85,192,115a16.58,16.58,0,0,1,16.54.08l106.51,62a9.21,9.21,0,0,1,0,16l-99.4,57.08a22.21,22.21,0,0,1-22.14,0L88.61,189.84A9.21,9.21,0,0,1,88.65,173.85Z" fill="none" stroke="#e6e6e6" stroke-miterlimit="10"/><polyline points="347.17 186.06 268.99 232.53 240.19 211.45 326.74 159.33" opacity="0.32" fill="url(#linear-gradient-2)"/><polyline points="270.47 187.66 156.61 253.88 83.99 210.96 197.95 140.12" opacity="0.32" fill="url(#linear-gradient-3)"/><polyline points="130.24 154.43 130.24 181.53 273.27 181.53 273.27 155.63" fill="#e6e6e6"/><path d="M273.27,155.83c0-.07,0-.13,0-.2V73.32a5.54,5.54,0,0,0-2.77-4.95L205.85,30.72a10.06,10.06,0,0,0-10-.05L133.07,66.37a5.52,5.52,0,0,0-2.8,4.39h0v83.67h0a5.52,5.52,0,0,0,2.76,4.16l63.65,36.61a13.48,13.48,0,0,0,13.44,0l60.33-34.65a5.53,5.53,0,0,0,2.8-4.74h0Z" opacity="0.42" fill="url(#linear-gradient-4)"/><path d="M133.07,176l62.74-35.71a10.06,10.06,0,0,1,10,.05L270.5,178a5.59,5.59,0,0,1,0,9.68L210.14,222.3a13.48,13.48,0,0,1-13.44,0L133,185.69A5.59,5.59,0,0,1,133.07,176Z" fill="#e6e6e6"/><path d="M133.07,148.88l62.74-35.71a10.06,10.06,0,0,1,10,.05l64.65,37.65a5.59,5.59,0,0,1,0,9.68l-60.33,34.65a13.48,13.48,0,0,1-13.44,0L133,158.59A5.59,5.59,0,0,1,133.07,148.88Z" fill="#68e1fd" class="target-color"/><ellipse cx="201.82" cy="155.28" rx="15.39" ry="4.31" opacity="0.7" fill="url(#linear-gradient-5)" style="mix-blend-mode:multiply"/><path d="M181.76,78.66,190.61,97l6.24,13c.8,1.67,1.45,4,2.61,5.41,1,1.25,2.85,2.2,4.12,3.16l11.33,8.5,16.78,12.59c.77.58,1.52-.72.76-1.3l-16-12-11-8.24c-1.18-.88-4.53-3.25-4.76-3.55-1.33-1.75-2.11-4.39-3.06-6.36l-6-12.39L183.06,77.9c-.42-.87-1.71-.11-1.3.76Z" fill="#fff"/><circle cx="182.78" cy="79.21" r="3.34" transform="translate(0.96 160.61) rotate(-47.55)" fill="#f15a24"/><circle cx="182.78" cy="79.21" r="3.34" transform="translate(0.96 160.61) rotate(-47.55)" opacity="0.7" fill="url(#linear-gradient-6)" style="mix-blend-mode:multiply"/><circle cx="230.94" cy="136.58" r="5.94" transform="translate(-25.71 214.79) rotate(-47.55)" fill="#f15a24"/><circle cx="230.94" cy="136.58" r="5.94" transform="translate(-25.71 214.79) rotate(-47.55)" opacity="0.7" fill="url(#linear-gradient-7)" style="mix-blend-mode:multiply"/><path d="M225.46,92.51l-14.84,12.61c-3.78,3.21-8.09,6.23-11.45,9.89-8.79,9.57-16.4,20.51-24.51,30.66-.6.75.46,1.81,1.06,1.06,8.11-10.15,15.73-21.09,24.51-30.66,3.36-3.66,7.67-6.68,11.45-9.89l14.84-12.61c.74-.63-.33-1.68-1.06-1.06Z" fill="#fff"/><circle cx="176.21" cy="144.8" r="6.42" transform="translate(-49.57 177.08) rotate(-47.55)" fill="#f15a24"/><circle cx="176.21" cy="144.8" r="6.42" transform="translate(-49.57 177.08) rotate(-47.55)" opacity="0.7" fill="url(#linear-gradient-8)" style="mix-blend-mode:multiply"/><circle cx="227.49" cy="92.42" r="4.69" transform="translate(5.75 197.89) rotate(-47.55)" fill="#f15a24"/><circle cx="227.49" cy="92.42" r="4.69" transform="translate(5.75 197.89) rotate(-47.55)" opacity="0.7" fill="url(#linear-gradient-9)" style="mix-blend-mode:multiply"/><circle cx="201.31" cy="114.73" r="9.11" transform="translate(-19.22 185.83) rotate(-47.55)" fill="#f15a24"/><circle cx="201.31" cy="114.73" r="9.11" transform="translate(-19.22 185.83) rotate(-47.55)" opacity="0.7" fill="url(#linear-gradient-10)" style="mix-blend-mode:multiply"/><ellipse cx="265.86" cy="178.06" rx="2.46" ry="1.85" transform="translate(9.19 369.12) rotate(-70.48)" fill="#ff7f5c"/><ellipse cx="259.7" cy="181.75" rx="2.46" ry="1.85" transform="translate(1.61 365.78) rotate(-70.48)" fill="#ff7f5c"/><line x1="216.4" y1="206" x2="252.73" y2="185.68" fill="#ff7f5c"/><path d="M217.16,207.3,253.49,187c1.69-.94.17-3.53-1.51-2.59l-36.33,20.32c-1.69.94-.17,3.53,1.51,2.59Z" fill="#ccc"/><line x1="98.21" y1="131.05" x2="98.21" y2="130.92" fill="none" stroke="#61587d"/><line x1="94.51" y1="131.05" x2="94.51" y2="130.92" fill="none" stroke="#61587d"/><line x1="87.1" y1="130.92" x2="87.1" y2="131.05" fill="none" stroke="#61587d"/><line x1="90.8" y1="131.05" x2="90.8" y2="130.92" fill="none" stroke="#61587d"/><line x1="83.39" y1="130.92" x2="83.39" y2="131.05" fill="none" stroke="#61587d"/><path d="M96.48,92.43a87.3,87.3,0,0,1,7.44,17.5s-1.54,6.24-3.27,12.26" fill="#003c4f"/><path d="M96.2,181.36c-.1.44-1.23,5.54,0,7.2s3.44,2.74,5.13,4.18c.88.75,4.19,5.21,1.64,5.69-1.77.33-7.09-1.33-10.42-3.77s-5.64-2.91-5.77-4.19,2-11.61,2-11.61" fill="#363942"/><path d="M95.47,185.47c.16-2.29.28-4.85.29-6.18A19.92,19.92,0,0,0,95.47,185.47Z" fill="#363942"/><path d="M85,188s.3,4.79,1,6.08,3.57,6.66,2.07,8.45-8.05-2-9-5.36-1.79-3.69-2.09-5.08,1.1-8.67,1.1-8.67" fill="#363942"/><path d="M100.94,125.92S98,183.1,96.3,184.35s-6.36,1.71-9.39-.54l3.38-24.39-4.3,31s-8.5,1.38-11.13-1.85c-.74-.91,6.69-62.13,6.69-62.13" fill="#ff7f5c"/><path d="M100.65,122.19q-.31-5.36-.67-10.71c-.37-5.36.27-16.79-4.75-20.18-2.74-1.85-7.21-.94-9.85.45-6,3.18-11.25,16.32-11.86,21.55a5.29,5.29,0,0,0,.1,1.66c2.65,1,5.68,1,7.13,3.88,1.15,2.31.88,5,.8,7.64l.62.59c11.57,5.72,18.75,0,18.76,0C101.35,126.73,100.68,122.71,100.65,122.19Z" fill="#68e1fd" class="target-color"/><path d="M87.29,86.34l-.41,5.36s3.66,3.75,7.28,3.23l-1.73-7.52" fill="#fcbb5b"/><path d="M87.29,86.34l-.13,2.93s3.81,2.81,5.95.64S87.29,86.34,87.29,86.34Z" fill="#db9231"/><path d="M85.46,84.88c0-.14-1.88-1.93-1.84-3.17a2.2,2.2,0,0,1,.92-1.78s-1.13-2.77,1.35-3.55,8-2.15,9.09-.83.91,4-1,4.83-6.24,1.16-6.24,1.16,1.25,3.39-2.33,3.33" fill="#363942"/><path d="M93.91,79.16s4.23,8.73.79,10.41-7.41-3.23-7.41-3.23S84.47,85,85.7,84.1s1.68-.18,1.68-.18-2.29-2.65-.88-3.09S92.67,81.45,93.91,79.16Z" fill="#fbc76f"/><circle cx="94.7" cy="82.07" r="1.59" fill="none" stroke="#42210b" stroke-miterlimit="10" stroke-width="0.25"/><circle cx="90.35" cy="83.12" r="1.76" fill="none" stroke="#42210b" stroke-miterlimit="10" stroke-width="0.25"/><line x1="87.16" y1="83.65" x2="88.59" y2="83.47" fill="none" stroke="#42210b" stroke-miterlimit="10" stroke-width="0.25"/><line x1="92.07" y1="82.75" x2="93.16" y2="82.45" fill="none" stroke="#42210b" stroke-miterlimit="10" stroke-width="0.25"/><path d="M92.76,83.35s1.57,1.1.31,1.76" fill="none" stroke="#42210b" stroke-miterlimit="10" stroke-width="0.25"/><path d="M73.52,113.3s-.73,6.18,4.84,6.83,19.49-7.71,19.49-7.71-.72-4.11-2.22-5.57-12.9,1.46-12.9,1.46" fill="#68e1fd" class="target-color"/><path d="M91.5,133.62A485.5,485.5,0,0,1,86,185.1c-.09.54.73.77.82.23a487.65,487.65,0,0,0,5.54-51.71C92.38,133.08,91.53,133.08,91.5,133.62Z" fill="#363942"/><path d="M95,105.66a.43.43,0,0,0-.52-.3l-13.12,3.92a.43.43,0,0,0,.23.82l12.68-3.79q.84,3.84,1.43,7.73c.08.54.9.31.82-.23Q95.86,109.71,95,105.66Z" fill="#003c4f"/><polygon points="96.48 113.82 80.75 118.83 81.62 124.02 96.48 113.82" fill="#003c4f"/><polygon points="97.42 113.3 101.92 98.25 114.61 91.46 109.59 107.77 97.42 113.3" fill="#ff7f5c"/><path d="M106.47,103.19c-.37-.81-6.09,1.35-6.09,1.35s1.38-3,.57-3.57-2.32,2.4-2.32,2.4l-3.18,4.57-.55.35a28.51,28.51,0,0,0,.75,3.75c1.77-.13,5-2,5.43-2.11a22.48,22.48,0,0,0,4.33-2.66C106.13,106.53,106.84,104,106.47,103.19Z" fill="#fbc76f"/><path d="M86.88,90.2S88.79,92,90,92.1L92,93.15l1.6,1.66V92.5s-.47-2.08-.4-2.06,1.73,2.67,1.73,2.67l1.59,2.66-2.32-.23-1,1.7s-5.76-2.57-7.78-5.49Z" fill="#fff"/><polyline points="301.96 105.69 315.27 98.62 347.17 117.03 347.17 186.06 334.02 193.65" fill="#ea6a4b"/><path d="M334,193.65c-1-.08,0-69.46,0-69.46L302,105.69v70Z" fill="#ff7f5c"/><polyline points="301.96 118.74 333.87 136.69 347.17 129.92" fill="none" stroke="#f2f2f2" stroke-miterlimit="10" stroke-width="0.25"/><polyline points="301.96 136.69 333.87 154.65 347.17 147.87" fill="none" stroke="#f2f2f2" stroke-miterlimit="10" stroke-width="0.25"/><polyline points="301.96 152.85 333.87 170.81 347.17 164.03" fill="none" stroke="#f2f2f2" stroke-miterlimit="10" stroke-width="0.25"/><polyline points="301.96 169.16 333.87 187.11 347.17 180.34" fill="none" stroke="#f2f2f2" stroke-miterlimit="10" stroke-width="0.25"/><polygon points="334.02 124.19 347.17 117.03 315.27 98.62 301.96 105.69 334.02 124.19" fill="#ff886c"/><ellipse cx="327.98" cy="126.48" rx="1.94" ry="2.34" transform="translate(-23.47 133.81) rotate(-22.28)" fill="#fff"/><path d="M305.84,115.15l17,9.37c.42.23.8-.41.38-.65l-17-9.37c-.42-.23-.8.41-.38.65Z" fill="#f2f2f2"/><ellipse cx="327.98" cy="142.18" rx="1.94" ry="2.34" transform="translate(-29.42 134.98) rotate(-22.28)" fill="#fff"/><path d="M305.84,130.84l17,9.37c.42.23.8-.41.38-.65l-17-9.37c-.42-.23-.8.41-.38.65Z" fill="#f2f2f2"/><ellipse cx="327.98" cy="159.33" rx="1.94" ry="2.34" transform="translate(-35.92 136.26) rotate(-22.28)" fill="#fff"/><path d="M305.84,148l17,9.37c.42.23.8-.41.38-.65l-17-9.37c-.42-.23-.8.41-.38.65Z" fill="#f2f2f2"/><ellipse cx="327.98" cy="174.91" rx="1.94" ry="2.34" transform="translate(-41.83 137.43) rotate(-22.28)" fill="#fff"/><path d="M305.84,163.57l17,9.37c.42.23.8-.41.38-.65l-17-9.37c-.42-.23-.8.41-.38.65Z" fill="#f2f2f2"/></g></g></svg>