<svg xmlns="http://www.w3.org/2000/svg" xmlns:xlink="http://www.w3.org/1999/xlink" viewBox="0 0 400 300" width="406" height="306" class="illustration styles_illustrationTablet__1DWOa"><defs><linearGradient id="linear-gradient" x1="322.58" y1="199.19" x2="305.19" y2="170.05" gradientUnits="userSpaceOnUse"><stop offset="0" stop-color="#fff" stop-opacity="0"></stop><stop offset="0.99" stop-color="#ffa86a"></stop></linearGradient><linearGradient id="linear-gradient-2" x1="132.11" y1="234.81" x2="114.72" y2="205.67" xlink:href="#linear-gradient"></linearGradient></defs><title>151-160</title><g style="isolation: isolate;"><g id="Layer_2" data-name="Layer 2"><path d="M364.1,148.73,228.49,69.86a6.41,6.41,0,0,0-6.41,0L19.29,185.91a6.41,6.41,0,0,0,0,11.12L149,271.91a20.93,20.93,0,0,0,20.93,0l194.2-112.08A6.41,6.41,0,0,0,364.1,148.73Z" fill="#92add8"></path><path d="M348.58,168c-19.62-11.26-39.93-23.47-49.45-29.43l-42.5,24.82c9.46,5,18.32,11.71,27.1,16.74q12,6.84,23.73,14C322.06,186.89,335.12,177.15,348.58,168Z" opacity="0.63" fill="url(#linear-gradient)" style="mix-blend-mode: multiply;"></path><polyline points="335.65 106.32 335.65 161.1 293.22 185.6 258.66 165.05 258.66 114.15" fill="#4a42a4"></polyline><polygon points="293.22 185.6 293.22 131.54 258.66 111.3 258.66 165.05 293.22 185.6" fill="#312f89"></polygon><polygon points="300.71 85.62 335.65 106.32 293.22 131.54 258.66 111.3 300.71 85.62" fill="#5d5bc4"></polygon><polygon points="330.11 115.33 330.11 126.67 298.32 144.8 298.32 133.68 330.11 115.33" fill="#7374b7"></polygon><ellipse cx="301.93" cy="137.36" rx="1.35" ry="0.85" transform="translate(82.02 385.7) rotate(-72.94)" fill="#f7931e"></ellipse><ellipse cx="304.64" cy="135.77" rx="1.35" ry="0.85" transform="translate(85.46 387.16) rotate(-72.94)" fill="#d9e021"></ellipse><line x1="307.64" y1="134.52" x2="327.29" y2="123.24" fill="none" stroke="#f2f2f2" stroke-miterlimit="10" stroke-width="0.25"></line><polygon points="330.86 131.22 330.86 142.56 299.07 160.69 299.07 149.57 330.86 131.22" fill="#7374b7"></polygon><ellipse cx="302.68" cy="153.26" rx="1.35" ry="0.85" transform="translate(67.36 397.64) rotate(-72.94)" fill="#f7931e"></ellipse><ellipse cx="305.39" cy="151.67" rx="1.35" ry="0.85" transform="matrix(0.29, -0.96, 0.96, 0.29, 70.79, 399.11)" fill="#d9e021"></ellipse><line x1="308.39" y1="150.41" x2="328.04" y2="139.13" fill="none" stroke="#f2f2f2" stroke-miterlimit="10" stroke-width="0.25"></line><polygon points="330.86 147.09 330.86 158.43 299.07 176.57 299.07 165.45 330.86 147.09" fill="#7374b7"></polygon><ellipse cx="302.68" cy="169.13" rx="1.35" ry="0.85" transform="translate(52.18 408.86) rotate(-72.94)" fill="#f7931e"></ellipse><ellipse cx="305.39" cy="167.54" rx="1.35" ry="0.85" transform="translate(55.62 410.32) rotate(-72.94)" fill="#d9e021"></ellipse><line x1="308.39" y1="166.28" x2="328.04" y2="155" fill="none" stroke="#f2f2f2" stroke-miterlimit="10" stroke-width="0.25"></line><polyline points="258.66 130.12 293.06 150.41 335.65 125.68" fill="none" stroke="#1b1464" stroke-miterlimit="10" stroke-width="0.25"></polyline><polyline points="258.66 145.99 293.06 166.28 335.65 141.55" fill="none" stroke="#1b1464" stroke-miterlimit="10" stroke-width="0.25"></polyline><path d="M215.4,79c.1.19.58,2,1,1.62s2.38.48,2.38.48l5.6-7.12-.74-2.32h-5" fill="#206bc4"></path><path d="M242.43,48.34l.53-1.85,5.88-3.21v-10c0-.2-5.69,3.34-5.69,3.34l-.27-.56a13.45,13.45,0,0,0-1.73-4.33l4.14-7.65-5.26-4-3.94,7.89,0,0a9,9,0,0,0-4.34.08V20.47l-7.53,4.18v7.92a33.31,33.31,0,0,0-4,4.63l-4.54-2.9L210.52,44l4.06,3.23-.35,1.64A44.71,44.71,0,0,0,213,54.19l-6,3.32v10l5.75-3.43a12.94,12.94,0,0,0,1.86,5.12l-4.31,7.31,5.46,4.13,3.84-7.53h4.77v7.53l7.18-4.38v-7.4a29.68,29.68,0,0,0,4.34-5.37l4.32,3,5.21-10L241,53.28l.43-1.5C241.84,50.63,242.16,49.47,242.43,48.34Z" fill="#206bc4"></path><polyline points="256.08 37.43 249.42 33.41 247.76 35.87 250.34 41.26" fill="#206bc4"></polyline><polyline points="247.37 70.61 242.45 68.56 242.45 65.58" fill="#206bc4"></polyline><polygon points="231.53 84.8 224.3 80.63 226.14 75.16 232.65 77.07 231.53 84.8" fill="#206bc4"></polygon><polygon points="240.04 20.06 247.28 24.23 243.3 32.14 238.96 32.22 237.96 24.23 240.04 20.06" fill="#206bc4"></polygon><ellipse cx="235.61" cy="54.59" rx="5.61" ry="3.26" transform="translate(98.63 253.9) rotate(-68.55)" fill="#206bc4"></ellipse><polygon points="224.2 24.65 231.44 28.82 238.96 24.64 231.73 20.47 224.2 24.65" fill="#206bc4"></polygon><polygon points="222.88 38.47 215.64 34.3 210.52 44.05 217.75 48.22 222.88 38.47" fill="#206bc4"></polygon><polygon points="210.23 76.5 217.47 80.67 222.93 84.8 215.69 80.63 210.23 76.5" fill="#206bc4"></polygon><path d="M215.4,79c.1.19.58,2,1,1.62s2.38.48,2.38.48l5.6-7.12-.74-2.32h-5" fill="#053855" opacity="0.44"></path><path d="M242.43,48.34l.53-1.85,5.88-3.21v-10c0-.2-5.69,3.34-5.69,3.34l-.27-.56a13.45,13.45,0,0,0-1.73-4.33l4.14-7.65-5.26-4-3.94,7.89,0,0a9,9,0,0,0-4.34.08V20.47l-7.53,4.18v7.92a33.31,33.31,0,0,0-4,4.63l-4.54-2.9L210.52,44l4.06,3.23-.35,1.64A44.71,44.71,0,0,0,213,54.19l-6,3.32v10l5.75-3.43a12.94,12.94,0,0,0,1.86,5.12l-4.31,7.31,5.46,4.13,3.84-7.53h4.77v7.53l7.18-4.38v-7.4a29.68,29.68,0,0,0,4.34-5.37l4.32,3,5.21-10L241,53.28l.43-1.5C241.84,50.63,242.16,49.47,242.43,48.34Z" fill="#206bc4"></path><polyline points="256.08 37.43 249.42 33.41 247.76 35.87 250.34 41.26" fill="#053855" opacity="0.44"></polyline><polyline points="247.37 70.61 242.45 68.56 242.45 65.58" fill="#206bc4"></polyline><polygon points="231.53 84.8 224.3 80.63 226.14 75.16 232.65 77.07 231.53 84.8" fill="#206bc4"></polygon><polygon points="240.04 20.06 247.28 24.23 243.3 32.14 238.96 32.22 237.96 24.23 240.04 20.06" fill="#206bc4"></polygon><ellipse cx="235.61" cy="54.59" rx="5.61" ry="3.26" transform="translate(98.63 253.9) rotate(-68.55)" fill="#206bc4"></ellipse><polygon points="222.88 38.47 215.64 34.3 210.52 44.05 217.75 48.22 222.88 38.47" fill="#206bc4"></polygon><polygon points="210.23 76.5 217.47 80.67 222.93 84.8 215.69 80.63 210.23 76.5" fill="#206bc4"></polygon><path d="M242.43,48.34l.53-1.85,5.88-3.21v-10c0-.2-5.69,3.34-5.69,3.34l-.27-.56a13.45,13.45,0,0,0-1.73-4.33l4.14-7.65-5.26-4-3.94,7.89,0,0a9,9,0,0,0-4.34.08V20.47l-7.53,4.18v7.92a33.31,33.31,0,0,0-4,4.63l-4.54-2.9L210.52,44l4.06,3.23-.35,1.64A44.71,44.71,0,0,0,213,54.19l-6,3.32v10l5.75-3.43a12.94,12.94,0,0,0,1.86,5.12l-4.31,7.31,5.46,4.13,3.84-7.53h4.77v7.53l7.18-4.38v-7.4a29.68,29.68,0,0,0,4.34-5.37l4.32,3,5.21-10L241,53.28l.43-1.5C241.84,50.63,242.16,49.47,242.43,48.34Z" fill="#053855" opacity="0.44"></path><polyline points="247.37 70.61 242.45 68.56 242.45 65.58" fill="#053855" opacity="0.1"></polyline><polygon points="231.53 84.8 224.3 80.63 226.14 75.16 232.65 77.07 231.53 84.8" fill="#053855" opacity="0.1"></polygon><ellipse cx="235.61" cy="54.59" rx="5.61" ry="3.26" transform="translate(98.63 253.9) rotate(-68.55)" fill="#053855" opacity="0.1"></ellipse><polygon points="222.88 38.47 215.64 34.3 210.52 44.05 217.75 48.22 222.88 38.47" fill="#053855" opacity="0.1"></polygon><polygon points="210.23 76.5 217.47 80.67 222.93 84.8 215.69 80.63 210.23 76.5" fill="#053855" opacity="0.1"></polygon><polyline points="247.37 70.61 242.45 68.56 242.45 65.58" fill="#053855" opacity="0.1"></polyline><polygon points="231.53 84.8 224.3 80.63 226.14 75.16 232.65 77.07 231.53 84.8" fill="#053855" opacity="0.44"></polygon><path d="M249.67,52.51l.53-1.85,5.88-3.21v-10c0-.2-5.69,3.34-5.69,3.34l-.27-.56a13.45,13.45,0,0,0-1.73-4.33l4.14-7.65-5.26-4-3.94,7.89,0,0a9,9,0,0,0-4.34.08V24.64l-7.53,4.18v7.92a33.31,33.31,0,0,0-4,4.63l-4.54-2.9-5.13,9.75,4.06,3.23-.35,1.64a44.71,44.71,0,0,0-1.26,5.27l-6,3.32v10l5.75-3.43a12.94,12.94,0,0,0,1.86,5.12l-4.31,7.31,5.46,4.13,3.84-7.53h4.77V84.8l7.18-4.38V73a29.68,29.68,0,0,0,4.34-5.37l4.32,3,5.21-10-4.33-3.2.43-1.5C249.07,54.8,249.4,53.65,249.67,52.51Z" fill="#206bc4"></path><ellipse cx="235.61" cy="54.59" rx="5.61" ry="3.26" transform="translate(98.63 253.9) rotate(-68.55)" fill="#053855" opacity="0.44"></ellipse><polygon points="210.23 76.5 217.47 80.67 222.93 84.8 215.69 80.63 210.23 76.5" fill="#053855" opacity="0.44"></polygon><polygon points="224.2 24.65 231.44 28.82 238.96 24.64 231.73 20.47 224.2 24.65" fill="#206bc4"></polygon><polygon points="224.2 24.62 231.42 28.82 238.96 24.67 231.74 20.47 224.2 24.62" fill="#053855" opacity="0.44"></polygon><polygon points="206.94 57.51 214.17 61.68 214.17 71.67 206.94 67.5 206.94 57.51" fill="#206bc4"></polygon><polygon points="206.94 57.51 214.17 61.68 214.17 71.67 206.94 67.5 206.94 57.51" fill="#053855" opacity="0.44"></polygon><polyline points="325.95 102.62 325.96 103.71 325.41 104.38" fill="#adcee1"></polyline><path d="M304.05,89.47l21.28,13.07a1.32,1.32,0,0,1,0,2.26l-32.13,18.35a3,3,0,0,1-2.95,0L269,110.81c-1.54-1.26-1.44-3.63,0-3.74L301,89.44A3,3,0,0,1,304.05,89.47Z" fill="#88d3d8"></path><path d="M304.05,88.57l21.28,13.07a1.32,1.32,0,0,1,0,2.26l-32.13,18.35a3,3,0,0,1-2.95,0L269,109.9a1.64,1.64,0,0,1,0-2.83L301,88.53A3,3,0,0,1,304.05,88.57Z" fill="#fff"></path><path d="M303.18,86.78s-8.93-28.41-8.87-28.41-.28-1.26-1.85-.54l-33.74,20s-1.64.67-1.31,2.2,8.73,27.8,8.73,27.8a1.43,1.43,0,0,0,1.6.54c1-.32,34.66-20,34.66-20A1.29,1.29,0,0,0,303.18,86.78Z" fill="#053855"></path><polygon points="293.75 60.44 259.2 80.77 266.48 104.86 301.48 85.12 293.75 60.44" fill="#206bc4"></polygon><path d="M305.37,91.58l7.78,4.8a.94.94,0,0,1,0,1.61l-27.79,16a2.74,2.74,0,0,1-2.74,0c-1.8-1-4.88-2.9-6.78-4.05a1.14,1.14,0,0,1,0-2l28-16.41A1.52,1.52,0,0,1,305.37,91.58Z" fill="#206bc4"></path><path d="M305,104.7l-9.71,5.51a1,1,0,0,0,0,1.69l5.74,3.33a1.29,1.29,0,0,0,1.29,0l9.93-5.72a.81.81,0,0,0,0-1.41l-6-3.4A1.29,1.29,0,0,0,305,104.7Z" fill="#206bc4"></path><path d="M305.37,91.58l7.78,4.8a.94.94,0,0,1,0,1.61l-27.79,16a2.74,2.74,0,0,1-2.74,0c-1.8-1-4.88-2.9-6.78-4.05a1.14,1.14,0,0,1,0-2l28-16.41A1.52,1.52,0,0,1,305.37,91.58Z" fill="#053855" opacity="0.1"></path><path d="M305,104.7l-9.71,5.51a1,1,0,0,0,0,1.69l5.74,3.33a1.29,1.29,0,0,0,1.29,0l9.93-5.72a.81.81,0,0,0,0-1.41l-6-3.4A1.29,1.29,0,0,0,305,104.7Z" fill="#053855" opacity="0.1"></path><polyline points="90.57 195.98 168.55 240.93 279.85 176.57" fill="none" stroke="#42210b" stroke-miterlimit="10"></polyline><line x1="188.41" y1="180.73" x2="188.41" y2="229.45" fill="none" stroke="#42210b" stroke-miterlimit="10"></line><path d="M148.75,197c.19.39,1.17,4.08,1.95,3.3s4.85,1,4.85,1l11.4-14.49L165.44,182H155.18" fill="#206bc4"></path><path d="M203.79,134.51l1.07-3.76,12-6.53V103.8c0-.4-11.59,6.81-11.59,6.81l-.54-1.14a27.39,27.39,0,0,0-3.52-8.82l8.44-15.58-10.72-8.15-8,16.06-.07,0a18.24,18.24,0,0,0-8.84.16V77.76l-15.32,8.5v16.12a67.82,67.82,0,0,0-8.18,9.42l-9.24-5.9L138.8,125.77l8.27,6.58-.71,3.33a91.05,91.05,0,0,0-2.56,10.73l-12.3,6.77v20.33l11.7-7A26.34,26.34,0,0,0,147,176.95l-8.78,14.89,11.12,8.41,7.81-15.32h9.72v15.32l14.62-8.91V176.28a60.44,60.44,0,0,0,8.83-10.93l8.8,6,10.62-20.29-8.81-6.51.87-3C202.58,139.16,203.25,136.82,203.79,134.51Z" fill="#206bc4"></path><polyline points="231.58 112.3 218.03 104.1 214.65 109.11 219.89 120.08" fill="#206bc4"></polyline><polyline points="213.85 179.86 203.82 175.69 203.82 169.62" fill="#206bc4"></polyline><polygon points="181.6 208.75 166.87 200.25 170.61 189.11 183.86 193.01 181.6 208.75" fill="#206bc4"></polygon><polygon points="198.92 76.92 213.65 85.42 205.57 101.52 196.73 101.68 194.68 85.42 198.92 76.92" fill="#206bc4"></polygon><ellipse cx="189.89" cy="147.22" rx="11.43" ry="6.64" transform="translate(-16.58 270.11) rotate(-68.55)" fill="#206bc4"></ellipse><polygon points="166.67 86.26 181.4 94.76 196.73 86.25 181.99 77.76 166.67 86.26" fill="#206bc4"></polygon><polygon points="163.97 114.4 149.24 105.9 138.81 125.77 153.54 134.26 163.97 114.4" fill="#206bc4"></polygon><polygon points="138.22 191.84 152.96 200.34 164.07 208.75 149.34 200.25 138.22 191.84" fill="#206bc4"></polygon><path d="M148.75,197c.19.39,1.17,4.08,1.95,3.3s4.85,1,4.85,1l11.4-14.49L165.44,182H155.18" fill="#053855" opacity="0.44"></path><path d="M203.79,134.51l1.07-3.76,12-6.53V103.8c0-.4-11.59,6.81-11.59,6.81l-.54-1.14a27.39,27.39,0,0,0-3.52-8.82l8.44-15.58-10.72-8.15-8,16.06-.07,0a18.24,18.24,0,0,0-8.84.16V77.76l-15.32,8.5v16.12a67.82,67.82,0,0,0-8.18,9.42l-9.24-5.9L138.8,125.77l8.27,6.58-.71,3.33a91.05,91.05,0,0,0-2.56,10.73l-12.3,6.77v20.33l11.7-7A26.34,26.34,0,0,0,147,176.95l-8.78,14.89,11.12,8.41,7.81-15.32h9.72v15.32l14.62-8.91V176.28a60.44,60.44,0,0,0,8.83-10.93l8.8,6,10.62-20.29-8.81-6.51.87-3C202.58,139.16,203.25,136.82,203.79,134.51Z" fill="#206bc4"></path><polyline points="231.58 112.3 218.03 104.1 214.65 109.11 219.89 120.08" fill="#053855" opacity="0.44"></polyline><polyline points="213.85 179.86 203.82 175.69 203.82 169.62" fill="#206bc4"></polyline><polygon points="181.6 208.75 166.87 200.25 170.61 189.11 183.86 193.01 181.6 208.75" fill="#206bc4"></polygon><polygon points="198.92 76.92 213.65 85.42 205.57 101.52 196.73 101.68 194.68 85.42 198.92 76.92" fill="#206bc4"></polygon><ellipse cx="189.89" cy="147.22" rx="11.43" ry="6.64" transform="translate(-16.58 270.11) rotate(-68.55)" fill="#206bc4"></ellipse><polygon points="163.97 114.4 149.24 105.9 138.81 125.77 153.54 134.26 163.97 114.4" fill="#206bc4"></polygon><polygon points="138.22 191.84 152.96 200.34 164.07 208.75 149.34 200.25 138.22 191.84" fill="#206bc4"></polygon><path d="M203.79,134.51l1.07-3.76,12-6.53V103.8c0-.4-11.59,6.81-11.59,6.81l-.54-1.14a27.39,27.39,0,0,0-3.52-8.82l8.44-15.58-10.72-8.15-8,16.06-.07,0a18.24,18.24,0,0,0-8.84.16V77.76l-15.32,8.5v16.12a67.82,67.82,0,0,0-8.18,9.42l-9.24-5.9L138.8,125.77l8.27,6.58-.71,3.33a91.05,91.05,0,0,0-2.56,10.73l-12.3,6.77v20.33l11.7-7A26.34,26.34,0,0,0,147,176.95l-8.78,14.89,11.12,8.41,7.81-15.32h9.72v15.32l14.62-8.91V176.28a60.44,60.44,0,0,0,8.83-10.93l8.8,6,10.62-20.29-8.81-6.51.87-3C202.58,139.16,203.25,136.82,203.79,134.51Z" fill="#053855" opacity="0.44"></path><polyline points="213.85 179.86 203.82 175.69 203.82 169.62" fill="#053855" opacity="0.1"></polyline><polygon points="181.6 208.75 166.87 200.25 170.61 189.11 183.86 193.01 181.6 208.75" fill="#053855" opacity="0.1"></polygon><ellipse cx="189.89" cy="147.22" rx="11.43" ry="6.64" transform="translate(-16.58 270.11) rotate(-68.55)" fill="#053855" opacity="0.1"></ellipse><polygon points="163.97 114.4 149.24 105.9 138.81 125.77 153.54 134.26 163.97 114.4" fill="#053855" opacity="0.1"></polygon><polygon points="138.22 191.84 152.96 200.34 164.07 208.75 149.34 200.25 138.22 191.84" fill="#053855" opacity="0.1"></polygon><polyline points="213.85 179.86 203.82 175.69 203.82 169.62" fill="#053855" opacity="0.1"></polyline><polygon points="181.6 208.75 166.87 200.25 170.61 189.11 183.86 193.01 181.6 208.75" fill="#053855" opacity="0.44"></polygon><path d="M218.53,143l1.07-3.76,12-6.53V112.3c0-.4-11.59,6.81-11.59,6.81l-.54-1.14a27.39,27.39,0,0,0-3.52-8.82l8.44-15.58-10.72-8.15-8,16.06-.07,0a18.24,18.24,0,0,0-8.84.16V86.25l-15.32,8.5v16.12a67.82,67.82,0,0,0-8.18,9.42L164,114.4l-10.44,19.86,8.27,6.58-.71,3.33a91.05,91.05,0,0,0-2.56,10.73l-12.3,6.77V182l11.7-7a26.34,26.34,0,0,0,3.78,10.42L153,200.34l11.12,8.41,7.81-15.32h9.72v15.32l14.62-8.91V184.77a60.44,60.44,0,0,0,8.83-10.93l8.8,6,10.62-20.29-8.81-6.51.87-3C217.31,147.65,218,145.31,218.53,143Z" fill="#206bc4"></path><ellipse cx="189.89" cy="147.22" rx="11.43" ry="6.64" transform="translate(-16.58 270.11) rotate(-68.55)" fill="#053855" opacity="0.44"></ellipse><polygon points="138.22 191.84 152.96 200.34 164.07 208.75 149.34 200.25 138.22 191.84" fill="#053855" opacity="0.44"></polygon><polygon points="166.67 86.26 181.4 94.76 196.73 86.25 181.99 77.76 166.67 86.26" fill="#206bc4"></polygon><polygon points="166.67 86.2 181.37 94.75 196.73 86.31 182.03 77.76 166.67 86.2" fill="#053855" opacity="0.44"></polygon><polygon points="131.51 153.18 146.25 161.68 146.25 182.01 131.51 173.51 131.51 153.18" fill="#206bc4"></polygon><polygon points="131.51 153.18 146.25 161.68 146.25 182.01 131.51 173.51 131.51 153.18" fill="#053855" opacity="0.44"></polygon><path d="M85.93,220.16c17.05,9.76,33.79,20,50.44,30.48,13.73-6.67,27.55-14,44.13-26.17-23.87-12.44-64.43-36.65-79.17-45.87l-42.5,24.82C68.28,208.38,77.15,215.13,85.93,220.16Z" opacity="0.63" fill="url(#linear-gradient-2)" style="mix-blend-mode: multiply;"></path><polyline points="113.34 83.74 94.43 73.68 49.08 99.87 49.08 198 67.76 208.8" fill="#c65b46"></polyline><path d="M67.76,208.8c1.42-.12,0-98.75,0-98.75l45.58-26.31v99.45Z" fill="#ea6647"></path><polyline points="113.34 102.29 67.98 127.82 49.08 118.18" fill="none" stroke="#f2f2f2" stroke-miterlimit="10" stroke-width="0.25"></polyline><polyline points="113.34 127.82 67.98 153.34 49.08 143.71" fill="none" stroke="#f2f2f2" stroke-miterlimit="10" stroke-width="0.25"></polyline><polyline points="113.34 150.79 67.98 176.32 49.08 166.68" fill="none" stroke="#f2f2f2" stroke-miterlimit="10" stroke-width="0.25"></polyline><polyline points="113.34 173.97 67.98 199.5 49.08 189.87" fill="none" stroke="#f2f2f2" stroke-miterlimit="10" stroke-width="0.25"></polyline><polygon points="67.76 110.05 49.08 99.87 94.43 73.68 113.34 83.74 67.76 110.05" fill="#f99d8c"></polygon><ellipse cx="76.36" cy="113.3" rx="3.32" ry="2.75" transform="translate(-57.43 140.99) rotate(-67.72)" fill="#fff"></ellipse><path d="M107.38,96.4,83.14,109.73c-.42.23,0,.88.38.65L107.75,97c.42-.23,0-.88-.38-.65Z" fill="#f2f2f2"></path><ellipse cx="76.36" cy="135.62" rx="3.32" ry="2.75" transform="translate(-78.09 154.85) rotate(-67.72)" fill="#fff"></ellipse><path d="M107.38,118.72,83.14,132c-.42.23,0,.88.38.65l24.23-13.33c.42-.23,0-.88-.38-.65Z" fill="#f2f2f2"></path><ellipse cx="76.36" cy="160" rx="3.32" ry="2.75" transform="translate(-100.65 169.99) rotate(-67.72)" fill="#fff"></ellipse><path d="M107.38,143.11,83.14,156.43c-.42.23,0,.88.38.65l24.23-13.33c.42-.23,0-.88-.38-.65Z" fill="#f2f2f2"></path><ellipse cx="76.36" cy="182.14" rx="3.32" ry="2.75" transform="translate(-121.14 183.73) rotate(-67.72)" fill="#fff"></ellipse><path d="M107.38,165.24,83.14,178.57c-.42.23,0,.88.38.65l24.23-13.33c.42-.23,0-.88-.38-.65Z" fill="#f2f2f2"></path></g></g></svg>