<?xml version="1.0" encoding="UTF-8"?><svg id="Ebene_2" xmlns="http://www.w3.org/2000/svg" viewBox="0 0 399.13 243.98"><defs><style>.cls-1{fill:#403e56;}.cls-2{fill:#a1626a;}.cls-3{fill:#cdcccc;}.cls-4{fill:#3069b2;}.cls-5{fill:#302f42;}.cls-6{fill:#e7e6e6;}</style></defs><g id="Ebene_1-2"><path class="cls-2" d="m310.33,173.24c1.91-1.44,2.29-4.14.85-6.05-.15-.2-.32-.39-.51-.57l6.19-14.05-7.87,1.33-4.68,13.14c-1.51,1.86-1.23,4.6.63,6.11,1.56,1.27,3.78,1.3,5.38.08Z"/><path class="cls-3" d="m322.18,110.98l-2.25-.45s-3.16,1.35-2.71,5.41c.45,4.06-6.31,25.7-6.31,25.7l-6.09,18.04,8.57,1.8,5.64-20.74,3.16-29.76Z"/><path class="cls-4" d="m332.41,179.95h-48.99c-2.02,0-3.65-1.64-3.65-3.65v-4.73c0-2.02,1.64-3.65,3.65-3.65h48.99c2.02,0,3.65,1.64,3.65,3.65v4.73c0,2.02-1.64,3.65-3.65,3.65Z"/><polygon class="cls-2" points="329.51 231.85 324.56 233.67 315.17 215.48 322.47 212.78 329.51 231.85"/><path class="cls-5" d="m320.51,233.56l9.53-3.52h0l2.22,6h0l-15.53,5.73h0c-1.22-3.31.47-6.99,3.79-8.22Z"/><polygon class="cls-2" points="338.95 239.42 333.69 239.18 332.11 218.76 339.87 219.12 338.95 239.42"/><path class="cls-5" d="m329.85,237.58h10.16v6.4h-16.56c0-3.53,2.86-6.4,6.4-6.4Z"/><path class="cls-5" d="m315.42,156.07h0c-4.09,4.67-6.49,10.58-6.83,16.79l-1.74,32.36,15.33,27.05,8.57-4.51-10.37-20.29,6.31-19.39,17.13-13.53-1.35-19.39-27.05.9Z"/><polygon class="cls-5" points="339.32 172.75 343.82 174.55 340.22 236.77 329.85 235.42 326.69 188.08 339.32 172.75"/><path class="cls-2" d="m329.72,166.64c.42-2.35,2.67-3.91,5.01-3.49.25.04.5.11.74.2l9.75-11.87,2.36,7.62-9.62,10.1c-.98,2.19-3.55,3.17-5.74,2.2-1.83-.82-2.87-2.79-2.5-4.76Z"/><circle class="cls-2" cx="333.32" cy="92.99" r="10.55"/><path class="cls-3" d="m349.01,113.01s-12.17-11.5-28.86-2.71c0,0-4.28,43.51-6.99,48.02,0,0,23.45-3.16,29.76-1.35,0,0,0-18.94,4.06-26.15,4.06-7.21,2.03-17.81,2.03-17.81Z"/><path class="cls-3" d="m344.28,114.14l4.95-.91c2.47,1.44,4.38,3.66,5.42,6.32,1.8,4.51,6.76,26.6,6.76,26.6l-19.39,19.39-4.06-5.86,12.17-16.23-6.31-13.53.45-15.78Z"/><path class="cls-5" d="m342.35,98.64c.16-.48-.09-1-.57-1.16-.07-.03-.15-.04-.23-.05-.58.03-1.12.3-1.49.74-.38.44-.83.82-1.32,1.13-.51.26-1.2.22-1.49-.27-.27-.46-.09-1.08.08-1.61.42-1.36.66-2.77.7-4.2.05-1.59-.18-3.25-1.06-4.49-1.14-1.6-3.17-2.21-5.09-2.16s-3.81.64-5.72,1.01c-.66.13-1.43.2-1.87-.31-.47-.54-.3-1.42-.1-2.15.52-1.9,1.06-3.86,2.26-5.39,1.3-1.59,3.15-2.64,5.18-2.92,1.95-.24,3.94-.02,5.79.66,3.01.95,5.66,2.8,7.6,5.29,1.99,2.66,2.86,5.99,2.4,9.28-.45,2.86-1.97,5.45-4.25,7.24"/><path class="cls-6" d="m232.92,181.35H3.87c-2.14,0-3.87-1.73-3.87-3.87V3.87C0,1.73,1.73,0,3.87,0h229.05c2.14,0,3.87,1.73,3.87,3.87v173.62c0,2.14-1.73,3.87-3.87,3.87ZM3.87.86c-1.66,0-3.01,1.35-3.01,3.01v173.62c0,1.66,1.35,3.01,3.01,3.01h229.05c1.66,0,3.01-1.35,3.01-3.01V3.87c0-1.66-1.35-3.01-3.01-3.01H3.87Z"/><path class="cls-1" d="m210.58,41.26H26.21c-2.14,0-3.87-1.73-3.87-3.87v-13.32c0-2.14,1.73-3.87,3.87-3.87h184.36c2.14,0,3.87,1.73,3.87,3.87v13.32c0,2.14-1.73,3.87-3.87,3.87ZM26.21,21.06c-1.66,0-3.01,1.35-3.01,3.01v13.32c0,1.66,1.35,3.01,3.01,3.01h184.36c1.66,0,3.01-1.35,3.01-3.01v-13.32c0-1.66-1.35-3.01-3.01-3.01H26.21Z"/><path class="cls-1" d="m99.27,76.92H26.21c-2.14,0-3.87-1.73-3.87-3.87v-13.32c0-2.14,1.73-3.87,3.87-3.87h73.06c2.14,0,3.87,1.73,3.87,3.87v13.32c0,2.14-1.73,3.87-3.87,3.87ZM26.21,56.73c-1.66,0-3.01,1.35-3.01,3.01v13.32c0,1.66,1.35,3.01,3.01,3.01h73.06c1.66,0,3.01-1.35,3.01-3.01v-13.32c0-1.66-1.35-3.01-3.01-3.01H26.21Z"/><path class="cls-1" d="m210.58,76.92h-73.06c-2.14,0-3.87-1.73-3.87-3.87v-13.32c0-2.14,1.73-3.87,3.87-3.87h73.06c2.14,0,3.87,1.73,3.87,3.87v13.32c0,2.14-1.73,3.87-3.87,3.87Zm-73.06-20.2c-1.66,0-3.01,1.35-3.01,3.01v13.32c0,1.66,1.35,3.01,3.01,3.01h73.06c1.66,0,3.01-1.35,3.01-3.01v-13.32c0-1.66-1.35-3.01-3.01-3.01h-73.06Z"/><path class="cls-6" d="m210.79,161.15h-48.99c-2.02,0-3.65-1.64-3.65-3.65v-4.73c0-2.02,1.64-3.65,3.65-3.65h48.99c2.02,0,3.65,1.64,3.65,3.65v4.73c0,2.02-1.64,3.65-3.65,3.65Z"/><path class="cls-6" d="m34.38,99.27c-1.9,0-3.44-1.54-3.44-3.44s1.54-3.44,3.44-3.44,3.44,1.54,3.44,3.44c0,1.9-1.54,3.44-3.44,3.44Zm0-6.02c-1.42,0-2.58,1.15-2.58,2.58s1.15,2.58,2.58,2.58,2.58-1.15,2.58-2.58c0-1.42-1.16-2.58-2.58-2.58Z"/><path class="cls-6" d="m34.38,110.44c-1.9,0-3.44-1.54-3.44-3.44s1.54-3.44,3.44-3.44,3.44,1.54,3.44,3.44c0,1.9-1.54,3.44-3.44,3.44Zm0-6.02c-1.42,0-2.58,1.15-2.58,2.58s1.15,2.58,2.58,2.58,2.58-1.15,2.58-2.58c0-1.42-1.16-2.58-2.58-2.58Z"/><path class="cls-1" d="m34.38,121.62c-1.9,0-3.44-1.54-3.44-3.44s1.54-3.44,3.44-3.44,3.44,1.54,3.44,3.44c0,1.9-1.54,3.44-3.44,3.44Zm0-6.02c-1.42,0-2.58,1.15-2.58,2.58s1.15,2.58,2.58,2.58,2.58-1.15,2.58-2.58c0-1.42-1.16-2.58-2.58-2.58Z"/><path class="cls-6" d="m51.14,93.04c-1.54,0-2.79,1.25-2.79,2.79s1.25,2.79,2.79,2.79h39.97c1.54,0,2.79-1.25,2.79-2.79s-1.25-2.79-2.79-2.79h-39.97Z"/><path class="cls-6" d="m51.14,104.21c-1.54,0-2.79,1.25-2.79,2.79s1.25,2.79,2.79,2.79h39.97c1.54,0,2.79-1.25,2.79-2.79s-1.25-2.79-2.79-2.79h-39.97Z"/><path class="cls-6" d="m51.14,115.39c-1.54,0-2.79,1.25-2.79,2.79s1.25,2.79,2.79,2.79h39.97c1.54,0,2.79-1.25,2.79-2.79s-1.25-2.79-2.79-2.79h-39.97Z"/><path class="cls-6" d="m145.9,99.27c-1.9,0-3.44-1.54-3.44-3.44s1.54-3.44,3.44-3.44,3.44,1.54,3.44,3.44c0,1.9-1.54,3.44-3.44,3.44Zm0-6.02c-1.42,0-2.58,1.15-2.58,2.58s1.15,2.58,2.58,2.58,2.58-1.15,2.58-2.58c0-1.42-1.16-2.58-2.58-2.58Z"/><path class="cls-1" d="m145.9,110.44c-1.9,0-3.44-1.54-3.44-3.44s1.54-3.44,3.44-3.44,3.44,1.54,3.44,3.44c0,1.9-1.54,3.44-3.44,3.44Zm0-6.02c-1.42,0-2.58,1.15-2.58,2.58s1.15,2.58,2.58,2.58,2.58-1.15,2.58-2.58c0-1.42-1.16-2.58-2.58-2.58Z"/><path class="cls-6" d="m145.9,121.62c-1.9,0-3.44-1.54-3.44-3.44s1.54-3.44,3.44-3.44,3.44,1.54,3.44,3.44c0,1.9-1.54,3.44-3.44,3.44Zm0-6.02c-1.42,0-2.58,1.15-2.58,2.58s1.15,2.58,2.58,2.58,2.58-1.15,2.58-2.58c0-1.42-1.16-2.58-2.58-2.58Z"/><path class="cls-6" d="m145.9,132.79c-1.9,0-3.44-1.54-3.44-3.44s1.54-3.44,3.44-3.44,3.44,1.54,3.44,3.44c0,1.9-1.54,3.44-3.44,3.44Zm0-6.02c-1.42,0-2.58,1.15-2.58,2.58s1.15,2.58,2.58,2.58,2.58-1.15,2.58-2.58c0-1.42-1.16-2.58-2.58-2.58Z"/><path class="cls-6" d="m162.23,93.04c-1.54,0-2.79,1.25-2.79,2.79s1.25,2.79,2.79,2.79h39.97c1.54,0,2.79-1.25,2.79-2.79s-1.25-2.79-2.79-2.79h-39.97Z"/><path class="cls-6" d="m162.23,104.21c-1.54,0-2.79,1.25-2.79,2.79s1.25,2.79,2.79,2.79h39.97c1.54,0,2.79-1.25,2.79-2.79s-1.25-2.79-2.79-2.79h-39.97Z"/><path class="cls-6" d="m162.23,115.39c-1.54,0-2.79,1.25-2.79,2.79s1.25,2.79,2.79,2.79h39.97c1.54,0,2.79-1.25,2.79-2.79s-1.25-2.79-2.79-2.79h-39.97Z"/><path class="cls-6" d="m162.23,126.56c-1.54,0-2.79,1.25-2.79,2.79s1.25,2.79,2.79,2.79h39.97c1.54,0,2.79-1.25,2.79-2.79s-1.25-2.79-2.79-2.79h-39.97Z"/><path class="cls-6" d="m34.43,63.6c-1.54,0-2.79,1.25-2.79,2.79s1.25,2.79,2.79,2.79h47.7c1.54,0,2.79-1.25,2.79-2.79s-1.25-2.79-2.79-2.79h-47.7Z"/><path class="cls-4" d="m34.43,27.93c-1.54,0-2.79,1.25-2.79,2.79s1.25,2.79,2.79,2.79h47.7c1.54,0,2.79-1.25,2.79-2.79s-1.25-2.79-2.79-2.79h-47.7Z"/><path class="cls-4" d="m89.98,64.6c-.12,0-.21.1-.21.21,0,.04,0,.07.03.11l1.82,3.16c.06.1.19.14.29.08.03-.02.06-.05.08-.08l1.82-3.16c.06-.1.02-.23-.08-.29-.03-.02-.07-.03-.11-.03h-3.65Z"/><path class="cls-6" d="m145.74,63.6c-1.54,0-2.79,1.25-2.79,2.79s1.25,2.79,2.79,2.79h47.7c1.54,0,2.79-1.25,2.79-2.79s-1.25-2.79-2.79-2.79h-47.7Z"/><path class="cls-4" d="m201.29,64.6c-.12,0-.21.1-.21.21,0,.04,0,.07.03.11l1.82,3.16c.06.1.19.14.29.08.03-.02.06-.05.08-.08l1.82-3.16c.06-.1.02-.23-.08-.29-.03-.02-.07-.03-.11-.03h-3.65Z"/><circle class="cls-4" cx="145.9" cy="107.01" r="1.72"/><circle class="cls-4" cx="34.38" cy="118.18" r="1.72"/><path class="cls-1" d="m398.62,243.98h-137.64c-.28,0-.51-.23-.51-.51,0-.28.23-.51.51-.51h137.64c.28,0,.51.23.51.51,0,.28-.23.51-.51.51Z"/></g></svg>