<svg id="Layer_1" data-name="Layer 1" xmlns="http://www.w3.org/2000/svg" xmlns:xlink="http://www.w3.org/1999/xlink" viewBox="0 0 400 300" width="406" height="306" class="illustration styles_illustrationTablet__1DWOa"><defs><linearGradient id="linear-gradient" x1="166.46" y1="181.88" x2="133" y2="236.04" gradientUnits="userSpaceOnUse"><stop offset="0" stop-color="#7a7ff1"></stop><stop offset="1" stop-color="#9fbaff"></stop></linearGradient><linearGradient id="linear-gradient-2" x1="249.01" y1="207.9" x2="237.43" y2="226.64" xlink:href="#linear-gradient"></linearGradient></defs><title>16_Files And Folder_isometric</title><path d="M24.65,189.49,185.58,283.6a18.79,18.79,0,0,0,19.32-.21l177.2-108.78a6.1,6.1,0,0,0-.37-10.6L213.22,76.24a6.1,6.1,0,0,0-5.8.09L24.74,178.91A6.1,6.1,0,0,0,24.65,189.49Z" fill="#9fbaff"></path><path d="M117.72,165.25l-67.49,39.2s103.91,60.59,123,71.92l58.23-34.15" fill="url(#linear-gradient)"></path><path d="M236.05,71.38s-4.57-30.55,5.39-33.9S265.55,42,268.57,51.34s8.1,44.83,3.74,48.06-35-1.87-37.15-10.38" fill="#f23db4"></path><polygon points="180.08 229.4 93.45 179.38 187.9 50 274.53 100.02 180.08 229.4" fill="#ffb9ad"></polygon><polygon points="93.49 105.94 93.45 125.31 93.45 179.38 187.9 124.22 187.9 50 93.49 105.94" fill="#ff8c79"></polygon><path d="M135.32,81.15l-10.77-6.22c-.41-.24-31.1,18.89-31.1,18.89v14.51" fill="#ff8c79"></path><path d="M252.67,45.41c1.12-.44,2.26-.82,3.33-1.16,2.83-.91,5.74-1.54,8.61-2.27-.53-12.7-8.28-27-21.79-25.79a9.55,9.55,0,0,0-5.4,2c-2.41,2-3.32,5.3-3,9.15a11.34,11.34,0,0,0,5.34,8.77C247.62,41.13,251,42.62,252.67,45.41Z" fill="#581b7a"></path><path d="M236.53,25.08s.56,18,6.81,19S254,35.65,254,35.65s3.39-8.25,0-10.57S241.45,18.95,236.53,25.08Z" fill="#ffb9ad"></path><path d="M251,48.15c-.8,4.51-1.12,10.19,3,13.18a32.61,32.61,0,0,0,7.82-2.28,31.42,31.42,0,0,0,7.48-5.33,17.74,17.74,0,0,0,0-2.42c-.3-5-6.56-47.2-25.64-30.78l3.09,6.4c1.49,3.1,3.24,6.3,4.11,9.71A28,28,0,0,1,251,48.15Z" fill="#581b7a"></path><path d="M236.53,19.35c-.06-.18,2.72-5.3,12.93-4.8,11.65.58,12.93,14.21,12.93,14.21" fill="#581b7a"></path><path d="M235.86,23c-.19.39-.69,6,.67,7.62,0,0,7.3,3.72,11.42,3.88,0,0,0-4.75.55-5.23s-.3-8.82-5.69-9.93" fill="#581b7a"></path><path d="M100.38,199.86c-6.89-4-13.73-8.2-20.69-12.13a20.69,20.69,0,0,0-9.37-3.12c-4.24-.13-9.71,2.91-7.11,7.73,1.29,2.39,3.91,4,6.14,5.35,4.52,2.83,9.13,5.54,13.67,8.34,5.45,3.35,12.47,9.12,19.35,8.27,4-.49,6.71-3.64,3.63-7-1.6-1.74-4.09-2.83-6.13-4l-24.12-13.7a1.25,1.25,0,0,0-1.26,2.16l20.26,11.51c2.17,1.23,4.4,2.41,6.53,3.71.67.41,1.93.89,2.35,1.54,2.34,3.62-3.1,3.44-5.07,3-3.8-.93-7.25-3.25-10.53-5.29-3.93-2.44-7.88-4.83-11.83-7.23-2.43-1.48-15.27-7.23-8.44-11.6,3.1-2,8.59,1.33,11.43,3q10,5.81,19.92,11.68a1.25,1.25,0,0,0,1.26-2.16Z" fill="#2e3192"></path><path d="M260.62,92s5.31-4.94,7.78-10.06l-1,14Z" fill="#581b7a"></path><path d="M205.28,67.48,202,65.12h0a3.47,3.47,0,0,0-3.91-.24l-86.61,51.31a5.19,5.19,0,0,0-2.55,4.46l0,16.42v50.28a2.13,2.13,0,0,0,.78,1.65h0l.29.2,0,0,3.37,2.34,1.51-2.92-1.16-.34L203.31,136V67.88h0Z" fill="#206bc4"></path><path d="M205.28,67.48,202,65.12h0a3.47,3.47,0,0,0-3.91-.24l-86.61,51.31a5.19,5.19,0,0,0-2.55,4.46l0,16.42v50.28a2.13,2.13,0,0,0,.78,1.65h0l.29.2,0,0,3.37,2.34,1.51-2.92-1.16-.34L203.31,136V67.88h0Z" opacity="0.5"></path><path d="M134.31,124.45c6.76-3.31,15.75-1.59,20.08,4.79,1.85,2.73,2.89,6.23,5.71,7.94a8.29,8.29,0,0,0,7.56.11c7.26-3.26,9.73-11.46,12.48-18.21,3.09-7.59,7.25-16.87,14.71-21a101.38,101.38,0,0,1,11.65-4.56V70.13a3.49,3.49,0,0,0-5.27-3l-86.61,51.31a5.19,5.19,0,0,0-2.55,4.46l0,16.42V165.7a113.76,113.76,0,0,1,8.14-24.08C123.24,135,127.52,127.77,134.31,124.45Z" fill="#7162d9"></path><path d="M206.51,138.23V93.49a101.38,101.38,0,0,0-11.65,4.56c-7.47,4.15-11.63,13.43-14.71,21-2.75,6.76-5.22,14.95-12.48,18.21a8.29,8.29,0,0,1-7.56-.11c-2.82-1.7-3.86-5.21-5.71-7.94-4.32-6.38-13.32-8.1-20.08-4.79S123.24,135,120.2,141.62a113.76,113.76,0,0,0-8.14,24.08v23.9a2.18,2.18,0,0,0,3.27,1.88Z" fill="#206bc4"></path><ellipse cx="165.89" cy="113.79" rx="8.88" ry="5.29" transform="translate(14.19 245.91) rotate(-75.5)" fill="#e0ff4b"></ellipse><path d="M214.88,82.41l-86.61,51.31a5.19,5.19,0,0,0-2.55,4.46l0,16.42v50.28a2.13,2.13,0,0,0,.78,1.65h0l.29.2,0,0,3.37,2.34,1.51-2.92-1.16-.34,89.63-52.35V85.41A3.49,3.49,0,0,0,214.88,82.41Z" fill="#206bc4"></path><polyline points="218.79 82.65 222.12 85.01 218.08 85.81" fill="#006da8"></polyline><path d="M214.88,82.41l-86.61,51.31a5.19,5.19,0,0,0-2.55,4.46l0,16.42v50.28a2.13,2.13,0,0,0,.78,1.65h0l.29.2,0,0,3.37,2.34,1.51-2.92-1.16-.34,89.63-52.35V85.41A3.49,3.49,0,0,0,214.88,82.41Z" opacity="0.5"></path><path d="M151.15,142c6.76-3.31,15.75-1.59,20.08,4.79,1.85,2.73,2.89,6.23,5.71,7.94a8.29,8.29,0,0,0,7.56.11c7.26-3.26,9.73-11.46,12.48-18.21,3.09-7.59,7.25-16.87,14.71-21A101.38,101.38,0,0,1,223.34,111V87.67a3.49,3.49,0,0,0-5.27-3L131.47,136a5.19,5.19,0,0,0-2.55,4.46l0,16.42v26.38A113.76,113.76,0,0,1,137,159.16C140.08,152.54,144.36,145.31,151.15,142Z" fill="#7162d9"></path><path d="M223.34,155.76V111a101.38,101.38,0,0,0-11.65,4.56c-7.47,4.15-11.63,13.43-14.71,21-2.75,6.76-5.22,14.95-12.48,18.21a8.29,8.29,0,0,1-7.56-.11c-2.82-1.7-3.86-5.21-5.71-7.94-4.32-6.38-13.32-8.1-20.08-4.79S140.08,152.54,137,159.16a113.76,113.76,0,0,0-8.14,24.08v23.9a2.18,2.18,0,0,0,3.27,1.88Z" fill="#206bc4"></path><ellipse cx="182.72" cy="131.33" rx="8.88" ry="5.29" transform="translate(9.83 275.35) rotate(-75.5)" fill="#e0ff4b"></ellipse><path d="M243.68,90.16l-86.61,51.31a5.19,5.19,0,0,0-2.55,4.46l0,16.42v50.28a2.13,2.13,0,0,0,.78,1.65h0l.29.2,0,0,3.37,2.34,1.51-2.92-1.16-.34,89.63-52.35V93.16A3.49,3.49,0,0,0,243.68,90.16Z" fill="#206bc4"></path><polyline points="247.58 90.39 250.91 92.76 246.88 93.55" fill="#006da8"></polyline><path d="M243.68,90.16l-86.61,51.31a5.19,5.19,0,0,0-2.55,4.46l0,16.42v50.28a2.13,2.13,0,0,0,.78,1.65h0l.29.2,0,0,3.37,2.34,1.51-2.92-1.16-.34,89.63-52.35V93.16A3.49,3.49,0,0,0,243.68,90.16Z" opacity="0.5"></path><path d="M179.94,149.73c6.76-3.31,15.75-1.59,20.08,4.79,1.85,2.73,2.89,6.23,5.71,7.94a8.29,8.29,0,0,0,7.56.11c7.26-3.26,9.73-11.46,12.48-18.21,3.09-7.59,7.25-16.87,14.71-21a101.38,101.38,0,0,1,11.65-4.56V95.41a3.49,3.49,0,0,0-5.27-3l-86.61,51.31a5.19,5.19,0,0,0-2.55,4.46l0,16.42V191a113.76,113.76,0,0,1,8.14-24.08C168.87,160.28,173.15,153.05,179.94,149.73Z" fill="#7162d9"></path><path d="M252.14,163.5V118.77a101.38,101.38,0,0,0-11.65,4.56c-7.47,4.15-11.63,13.43-14.71,21-2.75,6.76-5.22,14.95-12.48,18.21a8.29,8.29,0,0,1-7.56-.11c-2.82-1.7-3.86-5.21-5.71-7.94-4.32-6.38-13.32-8.1-20.08-4.79s-11.07,10.55-14.11,17.17A113.76,113.76,0,0,0,157.69,191v23.9a2.18,2.18,0,0,0,3.27,1.88Z" fill="#206bc4"></path><ellipse cx="211.52" cy="139.07" rx="8.88" ry="5.29" transform="translate(23.92 309.03) rotate(-75.5)" fill="#e0ff4b"></ellipse><polygon points="262.61 221.38 241.66 236.02 220.28 218.91 236.79 205.02 262.61 221.38" fill="url(#linear-gradient-2)"></polygon><path d="M181.78,155a3.41,3.41,0,0,0-1.67,2.93l0,17.43v54.07l94.45-55.17V100Z" fill="#ff8c79"></path><polyline points="290.53 169.2 290.53 205.26 262.61 221.38 239.86 207.86 239.86 174.36" fill="#ffaf68"></polyline><polygon points="262.61 221.38 262.61 185.81 239.86 175.73 239.86 207.86 262.61 221.38" fill="#f49e5d"></polygon><polyline points="239.86 172.48 239.86 175.73 242.02 176.39 243.46 174.19" fill="#ea8e50"></polyline><path d="M267.54,158.82l23,13.62L261.78,189c-.85.49-21.92-13.32-21.92-13.32Z" fill="#ea8e50"></path><polyline points="290.53 172.45 290.53 169.2 286.4 167.15 286.9 172.91" fill="#ea8e50"></polyline><path d="M267.54,155.58l23,13.62-28.76,16.6c-.85.49-21.92-13.32-21.92-13.32Z" fill="#ffb883"></path><polygon points="286.52 179.37 286.52 186.84 265.6 198.77 265.6 191.45 286.52 179.37" fill="#ea8e50"></polygon><polygon points="286.8 190.52 286.8 197.99 265.88 209.92 265.88 202.6 286.8 190.52" fill="#ea8e50"></polygon><ellipse cx="277" cy="188.7" rx="1.33" ry="0.94" transform="translate(62.85 446.52) rotate(-84.55)" fill="#ffb883"></ellipse><ellipse cx="277.86" cy="199.45" rx="1.33" ry="0.94" transform="translate(52.92 457.12) rotate(-84.55)" fill="#ffb883"></ellipse><polyline points="246.24 189.48 208.1 167.87 194.32 176.52 211.56 193.91 233.68 203.94" fill="#206bc4"></polyline><polyline points="246.24 189.48 208.1 167.87 194.32 176.52 211.56 193.91 233.68 203.94" fill="#fff" opacity="0.5"></polyline><polygon points="231.14 198.15 194.32 176.52 194.32 182 194.32 184.72 194.32 221.74 231.14 242.23 231.14 242.05 231.46 242.23 246.24 233.23 246.24 197.22 246.24 189.48 231.14 198.15" fill="#206bc4"></polygon><polygon points="233.78 201.43 233.78 220.35 244.45 214.08 244.45 195.37 233.78 201.43" fill="#ffecb3"></polygon><polygon points="231.14 198.15 231.14 242.23 194.32 221.74 194.32 176.52 231.14 198.15" opacity="0.2"></polygon><ellipse cx="239.92" cy="225.36" rx="3.57" ry="2.43" transform="translate(-34.05 407.81) rotate(-76.87)" fill="#ffecb3"></ellipse><path d="M261.54,152.5s-3.75,17.21-3.46,18.2c.73,2.53,11.17,4,14.25,0l-3.79-18.2Z" fill="#f23db4"></path><ellipse cx="264.96" cy="152.72" rx="3.61" ry="2.03" fill="#934600"></ellipse><path d="M272.22,117.15s-7-3.74-11.25,4,2,11.46,8.95,11.74S278.1,119.76,272.22,117.15Z" fill="#e0ff4b"></path><path d="M270.88,117.15c-5.73,10.61-6.61,22.85-7.1,34.67,0,.62.94.62,1,0,.48-11.64,1.32-23.73,7-34.18C272,117.09,271.17,116.6,270.88,117.15Z" fill="#1a892d"></path><path d="M275,136.93s-9.68-.39-8.56,6.06,9.37,5.15,10.59,1.67S275,136.93,275,136.93Z" fill="#e0ff4b"></path><path d="M274.84,137.26a56.34,56.34,0,0,0-8.62,16.41.36.36,0,0,0,.69.21,55.72,55.72,0,0,1,8.54-16.24C275.73,137.28,275.12,136.89,274.84,137.26Z" fill="#1a892d"></path><path d="M253.9,131.93s-5.2,8.17.94,10.44,9.16-5.52,6.77-8.32S253.9,131.93,253.9,131.93Z" fill="#e0ff4b"></path><path d="M264.26,152.93a132.13,132.13,0,0,0-10.08-21.64.36.36,0,0,0-.63.36,131.05,131.05,0,0,1,10,21.46C263.71,153.54,264.41,153.37,264.26,152.93Z" fill="#1a892d"></path><path d="M246.85,93a1.2,1.2,0,0,0-1.72.72c-.11.37-.24.74-.37,1.11a1.23,1.23,0,0,0-.63.68c-.15.38-.3.75-.46,1.12l-.1-.17c.46-1.07-.93-2.24-1.84-1.46a1.51,1.51,0,0,0-.36-.09q.87-.57,1.72-1.17c1.26-.9.05-3-1.22-2.09-3.32,2.36-7.4,3.86-10,7.21-.38.49-2.39,2.9-2.14,3.51a1.38,1.38,0,0,0,1,.83c1.75.24,2.59-1.69,3.93-2.81-.88,2.27-2.49,4.19-2.79,6.72a1.16,1.16,0,0,0,1.33,1.18l-.26.55c-.68,1.4,1.41,2.62,2.09,1.22l.42-.88a1.28,1.28,0,0,0,2,.48,12.86,12.86,0,0,0,1.05-1,1.16,1.16,0,0,0,1.67,0c2.26-2.19,3.2-5.19,4.67-7.88a29.93,29.93,0,0,0,3.82-6.18C249.29,93.27,247.64,92.15,246.85,93Z" fill="#ffb9ad"></path><path d="M235.61,102.86,233,108c-.21.42.42.78.63.37l2.56-5.12C236.44,102.81,235.81,102.44,235.61,102.86Z" fill="#0d0d0d"></path><path d="M237.55,104.74q-1,2.33-2.12,4.61c-.2.42.42.79.63.37q1.11-2.28,2.12-4.61C238.35,104.69,237.73,104.32,237.55,104.74Z" fill="#0d0d0d"></path><path d="M240,104l-2,4.64c-.18.42.44.79.63.37l2-4.64C240.83,104,240.21,103.61,240,104Z" fill="#0d0d0d"></path><path d="M251.85,64.59S243.21,83.13,235.16,89c0,0,6.88,16.34,15.11,12.21,3-1.48,17.14-14.32,20.6-24.43" fill="#f23db4"></path><path d="M205.22,85.73a31.38,31.38,0,0,0-3.33,3.42c-.74.89-1.81,1.89-1.61,3.13.06.37.63.22.57-.16-.19-1.15,1.52-2.66,2.24-3.46a31.78,31.78,0,0,1,2.55-2.51C205.92,85.9,205.5,85.48,205.22,85.73Z" fill="#0d0d0d"></path><path d="M204.24,90.46c-.05,0,0,0,.06,0l-.05,0Z" fill="#ffb9ad"></path><path d="M222,76.33a1.23,1.23,0,0,0-1-1.14l.54-.34a1.18,1.18,0,0,0,.38-1.54c-5.68,3.37-11.68,6.21-17.37,9.56a45.29,45.29,0,0,0-4.6,3.77c-.86.81.11,2.44,1.21,1.78q1.39-.83,2.76-1.69c-.77.94-1.52,1.89-2.25,2.86-.6.8-1.9,3.08-.46,2.91.55-.28,2.15-1.47,3-2h0l.3-.19-.25.17c.21-.11,1-.6,1-.57.66-.36,1.31-.74,2-1.12a.25.25,0,0,0,.2.2l.17,0a.29.29,0,0,0,.28.37,3.17,3.17,0,0,0,1-.26,2.55,2.55,0,0,0,1-.71.31.31,0,0,0,.05-.08,3,3,0,0,0,.42-.64.29.29,0,0,0,0-.26l.18-.25c.25-.25.47-.51.71-.77l3.05-1.88.41-.17,2.31-.77a.3.3,0,0,0-.16-.57l-.19.06,0,0,.62-.39,1-.76A30.5,30.5,0,0,0,223,77.94C223.69,77.15,222.86,76.29,222,76.33Z" fill="#ffb9ad"></path><path d="M217.91,82.85a9.4,9.4,0,0,1-4.17,1.82c-.5.08-1.45-.05-1.9.26a1.65,1.65,0,0,0-.5.83,10.21,10.21,0,0,1-1,1.93c-.42.6-1.47,1.72-2.33,1.53-1.2-.27.66-3.93,1-4.51a.3.3,0,0,0-.51-.3,12.86,12.86,0,0,0-1.1,2.52,4.8,4.8,0,0,0-.39,2.23c.3,1.24,2.14.45,2.77,0a5.19,5.19,0,0,0,1.41-1.7c.21-.39.35-.81.56-1.2a1.46,1.46,0,0,1,.43-.6c.35-.32.53-.27,1-.31a9.81,9.81,0,0,0,5.05-2C218.51,83.13,218.21,82.62,217.91,82.85Z" fill="#0d0d0d"></path><path d="M236.15,45.13S230.31,60,226.45,63.37,210.3,74.93,210.3,74.93s-.11,9.76,10,11.4c0,0,20.68-11.7,25.25-15" fill="#f23db4"></path><path d="M237.66,61.43l-1.32,16.75c-.05.64.95.64,1,0l1.32-16.75C238.71,60.79,237.71,60.79,237.66,61.43Z" fill="#581b7a"></path></svg>