<?xml version="1.0" encoding="UTF-8"?><svg id="Ebene_2" xmlns="http://www.w3.org/2000/svg" viewBox="0 0 375.06 239.33"><defs><style>.cls-1{fill:#403e56;}.cls-2{fill:#fff;}.cls-3{fill:#a1626a;}.cls-4{fill:#cdcccc;}.cls-5{fill:#3069b2;}.cls-6{fill:#302f42;}.cls-7{fill:#e7e6e6;}.cls-8{fill:#f6b6b9;}.cls-9{fill:#f2f2f2;}</style></defs><g id="Ebene_1-2"><path class="cls-9" d="m66.71,237.25c3.58-3.02,5.75-7.8,5.18-12.44-.57-4.65-4.1-8.92-8.68-9.91s-9.8,1.75-11.19,6.22c-.77-8.62-1.65-17.6-6.23-24.94-4.15-6.65-11.34-11.4-19.13-12.25-7.79-.85-15.99,2.36-20.85,8.51s-6.05,15.09-2.65,22.15c2.51,5.2,7.12,9.07,11.96,12.22,15.64,10.09,34.39,14.19,52.81,11.55l-1.24-1.1Z"/><path class="cls-2" d="m13.52,186.46c6.43,5.24,12.32,11.09,17.61,17.48,5.28,6.38,9.93,13.27,13.88,20.55,2.21,4.08,4.19,8.29,5.95,12.59.36.87-1.06,1.26-1.42.39-3.1-7.58-6.94-14.84-11.46-21.68-4.5-6.81-9.64-13.17-15.37-18.98-3.24-3.29-6.65-6.4-10.23-9.31-.73-.6.31-1.63,1.04-1.04Z"/><path class="cls-1" d="m280.15,0H86.45c-1.54,0-2.78,1.25-2.78,2.78v131.25c0,1.54,1.25,2.78,2.78,2.78h193.7c1.54,0,2.78-1.25,2.78-2.78V2.78c0-1.54-1.25-2.78-2.78-2.78Zm1.99,134.04c0,1.1-.89,1.99-1.99,1.99H86.45c-1.1,0-1.99-.89-1.99-1.99V2.78c0-1.1.89-1.99,1.99-1.99h193.7c1.1,0,1.99.89,1.99,1.99v131.25Z"/><rect class="cls-1" x="84.06" y="11.15" width="198.47" height=".8"/><circle class="cls-1" cx="90.82" cy="5.97" r="2.39"/><circle class="cls-1" cx="97.69" cy="5.97" r="2.39"/><circle class="cls-1" cx="104.55" cy="5.97" r="2.39"/><path class="cls-4" d="m200,29.63h-33.41c-1.54,0-2.78-1.25-2.78-2.78s1.25-2.78,2.78-2.78h33.41c1.54,0,2.78,1.25,2.78,2.78s-1.25,2.78-2.78,2.78Z"/><path class="cls-4" d="m222.87,43.15h-79.15c-1.54,0-2.78-1.25-2.78-2.78s1.25-2.78,2.78-2.78h79.15c1.54,0,2.78,1.25,2.78,2.78s-1.25,2.78-2.78,2.78Z"/><path class="cls-1" d="m246.61,126.26c-8.38,0-15.17-6.79-15.17-15.17,0-8.38,6.79-15.17,15.17-15.17,8.38,0,15.17,6.79,15.17,15.17,0,8.37-6.8,15.16-15.17,15.17Zm0-29.29c-7.8,0-14.12,6.32-14.12,14.12s6.32,14.12,14.12,14.12c7.8,0,14.12-6.32,14.12-14.12,0-7.8-6.33-14.11-14.12-14.12Z"/><path class="cls-1" d="m119.44,85.64c-8.38,0-15.17-6.79-15.17-15.17s6.79-15.17,15.17-15.17,15.17,6.79,15.17,15.17h0c0,8.37-6.8,15.16-15.17,15.17Zm0-29.29c-7.8,0-14.12,6.32-14.12,14.12s6.32,14.12,14.12,14.12,14.12-6.32,14.12-14.12c0-7.8-6.33-14.11-14.12-14.12Z"/><path class="cls-5" d="m125.33,78.51c-.83,0-1.5-.67-1.5-1.5v-8.51c0-.83.67-1.5,1.5-1.5h0c.83,0,1.5.67,1.5,1.5v8.51c0,.83-.67,1.5-1.5,1.5Zm-3.91,0c-.83,0-1.51-.66-1.52-1.49,0,0,0,0,0,0v-4.58c0-.83.67-1.5,1.5-1.5h.02c.83,0,1.5.67,1.5,1.5v4.58c0,.83-.67,1.5-1.5,1.5Zm-3.95,0c-.83,0-1.5-.67-1.5-1.5v-13.09c0-.83.67-1.5,1.5-1.5h0c.83,0,1.5.67,1.5,1.5v13.09c0,.83-.67,1.5-1.5,1.5Zm-3.93,0c-.83,0-1.5-.67-1.5-1.49h0s0-1.97,0-1.97c0-.83.67-1.49,1.5-1.49.82,0,1.49.67,1.49,1.49v1.97c0,.83-.67,1.5-1.5,1.5Z"/><path class="cls-1" d="m349.55,238.37c-8.38,0-15.17-6.79-15.17-15.17,0-8.38,6.79-15.17,15.17-15.17,8.38,0,15.17,6.79,15.17,15.17,0,8.37-6.8,15.16-15.17,15.17Zm0-29.29c-7.8,0-14.12,6.32-14.12,14.12s6.32,14.12,14.12,14.12,14.12-6.32,14.12-14.12h0c0-7.8-6.33-14.11-14.12-14.12Z"/><path class="cls-5" d="m353.73,220.56l-2.96,4.52c.24.29.37.65.37,1.02,0,.9-.73,1.63-1.63,1.63-.9,0-1.62-.73-1.63-1.63,0-.1.01-.21.03-.31l-1.95-1.14c-.52.5-1.3.6-1.93.24l-2.08,1.95v1.94c0,.8.65,1.45,1.45,1.45h12.29c.8,0,1.45-.65,1.45-1.45v-7.19l-1.99-1.32c-.4.31-.93.42-1.43.29h0Z"/><path class="cls-5" d="m344.83,221.88c.9,0,1.63.73,1.63,1.63h0v.21l2.04,1.14c.29-.24.65-.37,1.03-.37.12,0,.24.01.35.04l2.96-4.59c-.52-.73-.35-1.74.38-2.26.73-.52,1.74-.35,2.26.38.2.28.3.61.3.94,0,.13-.01.26-.04.38l1.4.94v-2.71c0-.8-.65-1.45-1.45-1.45h-12.29c-.8,0-1.44.65-1.45,1.45v7.77l1.36-1.3c-.31-.84.12-1.78.96-2.09.18-.07.37-.1.56-.1v-.02Z"/><path class="cls-1" d="m183.9,85.64c-8.38,0-15.17-6.79-15.17-15.17,0-8.38,6.79-15.17,15.17-15.17s15.17,6.79,15.17,15.17h0c0,8.37-6.8,15.16-15.17,15.17Zm0-29.29c-7.8,0-14.12,6.32-14.12,14.12s6.32,14.12,14.12,14.12,14.12-6.32,14.12-14.12h0c0-7.8-6.33-14.11-14.12-14.12Z"/><path class="cls-5" d="m175.84,75.97c-.61,0-1.1-.49-1.1-1.1,0-.29.12-.57.32-.78l5.6-5.62c.18-.18.42-.28.67-.28h0c.25,0,.49.1.67.28l2.6,2.6c.11.11.25.17.4.17h0c.15,0,.29-.06.4-.17l3.67-3.68c.07-.07.07-.19,0-.27h0s-1.19-1.19-1.19-1.19c-.22-.22-.22-.58,0-.8.11-.11.25-.17.4-.17h4.22c.31,0,.56.25.57.57v4.21c0,.31-.25.57-.56.57-.15,0-.29-.06-.4-.17l-1.19-1.19c-.07-.07-.19-.07-.27,0,0,0,0,0,0,0l-4.97,4.97c-.18.18-.42.28-.67.28h0c-.25,0-.49-.1-.67-.28l-2.6-2.6c-.22-.21-.58-.21-.8,0l-4.32,4.32c-.21.21-.49.32-.78.32Z"/><path class="cls-7" d="m183.9,125.41c-8.38,0-15.17-6.79-15.17-15.17,0-8.38,6.79-15.17,15.17-15.17s15.17,6.79,15.17,15.17h0c0,8.37-6.8,15.16-15.17,15.17Z"/><path class="cls-7" d="m246.74,84.44c-8.38,0-15.17-6.79-15.17-15.17,0-8.38,6.79-15.17,15.17-15.17s15.17,6.79,15.17,15.17h0c0,8.37-6.8,15.16-15.17,15.17Z"/><path class="cls-7" d="m119.44,95.07c-2.6,0-5.16.67-7.43,1.95,7.77.69,13.51,7.54,12.83,15.31-.51,5.8-4.53,10.69-10.12,12.32.59.2,1.2.35,1.81.47.96.19,1.94.28,2.92.28,8.38,0,15.17-6.79,15.17-15.17s-6.79-15.17-15.17-15.17h0Z"/><path class="cls-1" d="m113.68,96.21c-.96-.19-1.94-.29-2.92-.29-8.39,0-15.19,6.78-15.2,15.17,0,8.39,6.78,15.19,15.17,15.2s15.19-6.78,15.2-15.17c0-7.26-5.13-13.51-12.25-14.91Zm1.03,28.45c-7.49,2.18-15.33-2.13-17.51-9.62-2.18-7.49,2.13-15.33,9.62-17.51,1.28-.37,2.61-.56,3.94-.56.42,0,.83.02,1.24.05,7.77.69,13.51,7.54,12.83,15.31-.51,5.8-4.53,10.69-10.12,12.32Z"/><path class="cls-5" d="m119.6,108.42c-1.04-4.58-5.6-7.44-10.17-6.41-.21.05-.44.11-.63.17l2.03,8.91,8.91-2.02c-.04-.21-.08-.43-.13-.65Z"/><path class="cls-5" d="m118.73,110.63l-8.91,2.02-2.02-8.91c-4.49,1.39-7,6.15-5.61,10.64,1.39,4.49,6.15,7,10.64,5.61,4.01-1.24,6.51-5.22,5.9-9.36h0Z"/><path class="cls-1" d="m275.33,181.94c-8.38,0-15.17-6.79-15.17-15.17,0-8.38,6.79-15.17,15.17-15.17,8.38,0,15.17,6.79,15.17,15.17,0,8.37-6.8,15.16-15.17,15.17Zm0-29.29c-7.8,0-14.12,6.32-14.12,14.12s6.32,14.12,14.12,14.12,14.12-6.32,14.12-14.12c0-7.8-6.33-14.11-14.12-14.12Z"/><path class="cls-5" d="m281.87,172.85c-1.55,0-2.81-1.25-2.81-2.81,0-1.55,1.25-2.81,2.81-2.81,1.55,0,2.81,1.25,2.81,2.81,0,1.55-1.26,2.81-2.81,2.81Zm-6.55,0c-1.55,0-2.8-1.26-2.81-2.81v-6.55c0-1.55,1.26-2.8,2.81-2.8,1.54,0,2.8,1.25,2.8,2.8v6.55c0,1.55-1.26,2.8-2.81,2.81Zm-6.54,0c-1.55,0-2.81-1.26-2.81-2.81v-2.62c0-1.55,1.26-2.81,2.81-2.81s2.81,1.26,2.81,2.81v2.62c0,1.55-1.26,2.81-2.81,2.81Z"/><polygon class="cls-3" points="82.98 234.83 87.6 234.3 87.78 216.22 80.96 217 82.98 234.83"/><path class="cls-6" d="m97.01,237.59l-14.53,1.65h0l-.64-5.61h0l8.92-1.01c3.1-.35,5.9,1.88,6.25,4.98h0Z"/><polygon class="cls-3" points="35.43 234.54 40.08 234.54 42.3 216.59 35.43 216.59 35.43 234.54"/><path class="cls-6" d="m49.06,238.86h-14.62s0-5.65,0-5.65h8.97c3.12,0,5.65,2.53,5.65,5.65h0Z"/><path class="cls-6" d="m68.82,154.28l2.66,8.64,14.42,31.21,3.8,29.6-8.73.38-5.31-27.33-18.22-19.74-15.94,51.62-7.21-.76s6.07-66.8,14.42-73.63c0,0,13.66-6.45,20.12,0Z"/><circle class="cls-3" cx="57.03" cy="107.67" r="9.32"/><path class="cls-5" d="m69.76,155.99s1.14-38.71-14.8-36.06-9.3,40.04-9.3,40.04c0,0,3.42,6.83,11.77-.76s12.34-3.23,12.34-3.23Z"/><path class="cls-3" d="m102.77,123.76c-1.13,1.78-3.49,2.3-5.27,1.17-.19-.12-.37-.26-.53-.41l-11.94,6.43.63-7.02,11.24-5.03c1.53-1.46,3.96-1.41,5.43.13,1.22,1.28,1.41,3.24.45,4.73h0Z"/><path class="cls-5" d="m56.94,124.66l19.38,3.28,17.37-8.2,2.64,5.64-19.01,12.11s-20.13,1.37-24.78-3.94c-1.75-1.99-1.94-3.8-1.51-5.29.78-2.52,3.32-4.06,5.92-3.59Z"/><path class="cls-6" d="m55.92,117.46c.16-.14.17-.39.03-.54-.02-.03-.05-.05-.08-.07-2.55-1.58-3.33-4.92-1.75-7.46.55-.88,1.34-1.59,2.28-2.04,2.74-1.31,6.45-.29,8.48-2.8.83-1.09,1.15-2.48.87-3.82-.44-2.37-2.22-4.13-4.22-5.34-7.25-4.38-16.69-2.06-21.07,5.19-1.75,2.9-2.5,6.29-2.12,9.66.26,2.28.96,4.84-.4,6.7-1.19,1.63-3.45,1.94-5.43,2.34-4.25.87-8.35,2.87-11.23,6.11s-4.42,7.78-3.55,12.03c.87,4.25,4.36,7.98,8.64,8.64,3.49.54,7.09-.95,9.65-3.37,2.56-2.43,4.18-5.71,5.2-9.09,1.21-4.01,1.69-8.33,3.88-11.9,2.14-3.5,6.76-6,10.37-4.18.14.07.31.05.44-.05Z"/><path class="cls-8" d="m326.07,186.46c1.91-.95,2.68-3.26,1.73-5.17-.1-.2-.22-.4-.36-.58l8.98-49.71-8.38-.11-6.24,49.15c-1.63,1.39-1.83,3.83-.44,5.46,1.16,1.36,3.1,1.76,4.7.95h0Z"/><polygon class="cls-8" points="300.05 184.11 296.87 199.22 297.27 233.03 303.24 233.03 306.02 200.02 310.39 186.1 300.05 184.11"/><polygon class="cls-8" points="319.77 185.24 316.59 200.36 316.99 234.16 322.95 234.16 325.74 201.15 330.11 187.23 319.77 185.24"/><path class="cls-6" d="m295.19,232.65l9.4-.02h0v5.92h.01l-15.33.04h0c0-3.27,2.64-5.93,5.91-5.94Z"/><path class="cls-6" d="m315.05,233.28l9.4-.02h0v5.92h.01l-15.33.04h0c0-3.27,2.64-5.93,5.91-5.94Z"/><circle class="cls-8" cx="314.57" cy="100.22" r="9.77"/><path class="cls-1" d="m336.16,124.38c-2.97-4.66-12.3-15.72-26.19-9.38-2.24,1.04-3.6,3.36-3.41,5.82.67,8.87,1.52,31.47-5.71,44.99,0,0,21.08,6.36,32.61.4,0,0-3.98-26.65,0-31.82,1.33-1.65,2.4-3.49,3.19-5.46.56-1.51.38-3.2-.49-4.55Z"/><path class="cls-1" d="m332.27,124.05l3.9,1.63c.53.22.88.73.91,1.3l.36,8.6-8.75-.8,3.58-10.74Z"/><path class="cls-6" d="m302.44,165.02s-8.75,16.31-7.16,31.42l12.33,1.99,8.75-21.08-1.99,21.48,12.73.4s8.35-31.02,5.57-33.81l-30.23-.4Z"/><path class="cls-8" d="m290.01,166.47c2.1-.32,3.55-2.29,3.23-4.39-.03-.22-.09-.45-.16-.66l17.75-33.46-7.95-2.66-14.97,33.77c-1.98.82-2.91,3.09-2.09,5.07.69,1.65,2.42,2.62,4.19,2.34h0Z"/><path class="cls-1" d="m313.25,118.9l-3.29-1.47s-2.79-1.73-5.26,2.07-5.14,12.14-5.14,12.14l10.73,3.02,2.96-15.76Z"/><path class="cls-6" d="m316.14,104.92c.35-1.22.25-2.87-.93-3.33-.62-.24-1.3-.05-1.96.02-1.29.13-2.57-.23-3.61-.99-1.22-.91-1.98-2.3-2.69-3.64l-1.08-2.03c-.24-.42-.45-.87-.61-1.32-.6-1.79.05-3.87,1.39-5.2,1.4-1.3,3.24-2.03,5.16-2.02,1.9.01,3.77.42,5.51,1.18,3.09,1.26,5.88,3.14,8.21,5.52,1.52,1.56,2.91,3.59,2.59,5.75-.25,1.68-1.47,3.02-2.64,4.26l-4.23,4.47c-.75.79-1.55,1.62-2.6,1.92s-2.4-.14-2.68-1.19c0,0-.17-2.16.18-3.38Z"/><path class="cls-1" d="m374.67,239.33H.4c-.22,0-.4-.18-.4-.4s.18-.4.4-.4h374.27c.22,0,.4.18.4.4s-.18.4-.4.4Z"/><path class="cls-5" d="m252.18,117.46h-11.14c-.66,0-1.19-.53-1.19-1.19s.53-1.19,1.19-1.19h11.14c.66,0,1.19.53,1.19,1.19s-.53,1.19-1.19,1.19Z"/><path class="cls-5" d="m252.18,112.29h-11.14c-.66,0-1.19-.53-1.19-1.19s.53-1.19,1.19-1.19h11.14c.66,0,1.19.53,1.19,1.19s-.53,1.19-1.19,1.19Z"/><path class="cls-5" d="m252.18,107.12h-11.14c-.66,0-1.19-.53-1.19-1.19s.53-1.19,1.19-1.19h11.14c.66,0,1.19.53,1.19,1.19s-.53,1.19-1.19,1.19Z"/></g></svg>