<?xml version="1.0" encoding="UTF-8"?><svg id="Ebene_2" xmlns="http://www.w3.org/2000/svg" viewBox="0 0 393.91 247.59"><defs><style>.cls-1{fill:#bdc0c3;}.cls-2{fill:#010101;isolation:isolate;opacity:.1;}.cls-3{fill:#324156;}.cls-4{fill:#3069b2;}</style></defs><g id="Ebene_1-2"><path d="m393.91,101.69h-.67v-18.22c0-5.83-4.72-10.55-10.55-10.55h-38.61c-5.83,0-10.55,4.72-10.55,10.55h0v99.98c0,5.83,4.72,10.55,10.55,10.55h38.61c5.83,0,10.55-4.72,10.55-10.55h0v-68.79h.67v-12.97Z"/><path class="cls-3" d="m391,84.08v99.84c0,4.35-3.53,7.88-7.88,7.88h-38.8c-4.35,0-7.88-3.53-7.87-7.88h0v-99.84c0-4.35,3.53-7.87,7.87-7.87h4.71c-.78,1.92.14,4.1,2.06,4.88.45.18.92.28,1.41.28h22.12c2.06,0,3.74-1.67,3.74-3.73,0-.49-.09-.97-.28-1.42h5.04c4.35,0,7.88,3.52,7.88,7.87Z"/><rect class="cls-4" x="338.56" y="127.32" width="45.1" height="12.17"/><path class="cls-1" d="m385.45,137.34h-43.67c-.59,0-1.07-.48-1.07-1.07v-10.74c0-.59.48-1.07,1.07-1.07h43.67c.59,0,1.07.48,1.07,1.07v10.74c0,.59-.48,1.07-1.07,1.07Zm-43.67-12.17c-.2,0-.36.16-.36.36v10.74c0,.2.16.36.36.36h43.67c.2,0,.36-.16.36-.36v-10.74c0-.2-.16-.36-.36-.36h-43.67Z"/><rect class="cls-1" x="343.57" y="134.12" width="5.73" height=".72"/><rect class="cls-1" x="351.45" y="134.12" width="5.73" height=".72"/><rect class="cls-1" x="359.32" y="134.12" width="5.73" height=".72"/><rect class="cls-1" x="367.19" y="134.12" width="5.73" height=".72"/><rect class="cls-1" x="375.07" y="134.12" width="5.73" height=".72"/><path class="cls-2" d="m391,173.77v10.15c0,4.35-3.53,7.88-7.88,7.88h-38.8c-4.35,0-7.88-3.53-7.87-7.88h0v-46.7l54.55,36.55Z"/><rect class="cls-3" x="35.74" y="164.55" width="169.31" height="83.04"/><path class="cls-2" d="m162,247.59H36.46c-.39,0-.71-.32-.72-.72v-81.61c0-.39.32-.71.72-.72h1.59l123.96,83.04Z"/><rect class="cls-1" x="114.13" y="175.64" width="262.37" height=".72"/><path d="m197.08,1.55h-74.99V0h-34v1.55H12.8c-2.8,0-5.07,2.27-5.07,5.07h0v102.68c0,2.8,2.27,5.07,5.07,5.07h184.28c2.8,0,5.07-2.27,5.07-5.07V6.62c0-2.8-2.27-5.07-5.07-5.07h0Z"/><rect class="cls-3" x="14.53" y="10.51" width="180.82" height="102.01"/><circle class="cls-4" cx="104.79" cy="5.87" r="1.85"/><path class="cls-1" d="m68.31,48.58h-4.3c-.59,0-1.07-.48-1.07-1.07v-4.3c0-.59.48-1.07,1.07-1.07h4.3c.59,0,1.07.48,1.07,1.07v4.3c0,.59-.48,1.07-1.07,1.07Zm-4.3-5.73c-.2,0-.36.16-.36.36v4.3c0,.2.16.36.36.36h4.3c.2,0,.36-.16.36-.36v-4.3c0-.2-.16-.36-.36-.36h-4.3Z"/><rect class="cls-1" x="63.3" y="47.86" width="81.61" height=".72"/><rect class="cls-4" x="123.79" y="67.55" width="18.97" height="5.73"/><path class="cls-1" d="m144.2,71.84h-17.54c-.59,0-1.07-.48-1.07-1.07v-4.3c0-.59.48-1.07,1.07-1.07h17.54c.59,0,1.07.48,1.07,1.07v4.3c0,.59-.48,1.07-1.07,1.07Zm-17.54-5.73c-.2,0-.36.16-.36.36v4.3c0,.2.16.36.36.36h17.54c.2,0,.36-.16.36-.36v-4.3c0-.2-.16-.36-.36-.36h-17.54Z"/><rect class="cls-4" x="251.94" y="73.99" width="35.79" height="25.06"/><path class="cls-1" d="m291.31,97.08h-34.36c-.79,0-1.43-.64-1.43-1.43v-23.62c0-.79.64-1.43,1.43-1.43h34.36c.79,0,1.43.64,1.43,1.43v23.62c0,.79-.64,1.43-1.43,1.43Zm-34.36-25.06v23.62h34.36v-23.62h-34.36Z"/><path class="cls-1" d="m287.37,71.13h-1.43c0-6.52-5.29-11.81-11.81-11.81s-11.81,5.29-11.81,11.81h-1.43c0-7.31,5.93-13.24,13.24-13.24s13.24,5.93,13.24,13.24Z"/><path class="cls-1" d="m277.71,80.97c0-1.98-1.6-3.58-3.58-3.58-1.98,0-3.58,1.6-3.58,3.58,0,1.24.64,2.39,1.68,3.04v3.84c0,1.05.85,1.89,1.89,1.89h0c1.05,0,1.89-.85,1.89-1.89h0v-3.84c1.05-.65,1.68-1.8,1.68-3.03Z"/><rect class="cls-1" x="101.78" y="201.42" width="5.73" height=".72"/><rect class="cls-1" x="109.66" y="201.42" width="5.73" height=".72"/><rect class="cls-1" x="117.53" y="201.42" width="5.73" height=".72"/><rect class="cls-1" x="125.41" y="201.42" width="5.73" height=".72"/><rect class="cls-1" x="133.28" y="201.42" width="5.73" height=".72"/><path d="m212.56,241.51H44.69c-.79,0-1.43-.64-1.43-1.43v-81.61c0-.79.64-1.43,1.43-1.43h167.87c.79,0,1.43.64,1.43,1.43v81.61c0,.79-.64,1.43-1.43,1.43ZM44.69,158.46v81.61h167.88v-81.61H44.69Z"/><circle cx="52.21" cy="168.49" r="2.15"/><circle cx="59.72" cy="168.49" r="2.15"/><circle cx="67.24" cy="168.49" r="2.15"/><path class="cls-1" d="m144.56,206.43h-48.32c-.59,0-1.07-.48-1.07-1.07v-12.17c0-.59.48-1.07,1.07-1.07h48.32c.59,0,1.07.48,1.07,1.07v12.17c0,.59-.48,1.07-1.07,1.07Zm-48.32-13.6c-.2,0-.36.16-.36.36v12.17c0,.2.16.36.36.36h48.32c.2,0,.36-.16.36-.36v-12.17c0-.2-.16-.36-.36-.36h-48.32Z"/><circle class="cls-4" cx="156.73" cy="200.34" r="6.44"/><path class="cls-1" d="m158.87,206.07c-3.76,0-6.8-3.04-6.8-6.8s3.04-6.8,6.8-6.8,6.8,3.04,6.8,6.8h0c0,3.75-3.05,6.8-6.8,6.8Zm0-12.89c-3.36,0-6.09,2.72-6.09,6.09s2.72,6.09,6.09,6.09,6.09-2.72,6.09-6.09c0-3.36-2.73-6.08-6.09-6.09Z"/><polygon class="cls-1" points="158.97 201.81 155.5 198.34 156.52 197.33 158.78 199.59 165.09 190.62 166.26 191.45 158.97 201.81"/><polygon class="cls-2" points="155.26 112.51 14.53 112.51 14.53 18.24 155.26 112.51"/><path d="m207.23,110.66h-17.65v-1.27c0-.14-.11-.25-.25-.25h-6.05c-.14,0-.25.11-.25.25h0v1.27h-3.78v-1.27c0-.14-.11-.25-.25-.25h-6.05c-.14,0-.25.11-.25.25h0v1.27h-3.78v-1.27c0-.14-.11-.25-.25-.25h-6.05c-.14,0-.25.11-.25.25h0v1.27h-3.78v-1.27c0-.14-.11-.25-.25-.25h-6.05c-.14,0-.25.11-.25.25h0v1.27h-3.78v-1.27c0-.14-.11-.25-.25-.25h-6.05c-.14,0-.25.11-.25.25h0v1.27h-3.78v-1.27c0-.14-.11-.25-.25-.25h-6.05c-.14,0-.25.11-.25.25h0v1.27h-3.78v-1.27c0-.14-.11-.25-.25-.25h-47.4c-.14,0-.25.11-.25.25h0v1.27h-3.78v-1.27c0-.14-.11-.25-.25-.25h-6.05c-.14,0-.25.11-.25.25h0v1.27h-3.78v-1.27c0-.14-.11-.25-.25-.25h-6.05c-.14,0-.25.11-.25.25h0v1.27h-3.78v-1.27c0-.14-.11-.25-.25-.25h-6.05c-.14,0-.25.11-.25.25h0v1.27h-3.78v-1.27c0-.14-.11-.25-.25-.25h-6.05c-.14,0-.25.11-.25.25h0v1.27h-3.78v-1.27c0-.14-.11-.25-.25-.25h-6.05c-.14,0-.25.11-.25.25h0v1.27h-3.78v-1.27c0-.14-.11-.25-.25-.25h-6.05c-.14,0-.25.11-.25.25h0v1.27H6.05C2.71,110.66,0,113.37,0,116.71v2.74c0,3.34,2.71,6.05,6.05,6.05h201.18c3.34,0,6.05-2.71,6.05-6.05v-2.74c0-3.34-2.71-6.05-6.05-6.05h0Z"/><path class="cls-1" d="m152.07,77.93H57.58c-.59,0-1.07-.48-1.07-1.07v-39.37c0-.59.48-1.07,1.07-1.07h94.5c.59,0,1.07.48,1.07,1.07v39.37c0,.59-.48,1.07-1.07,1.07ZM57.58,37.12c-.2,0-.36.16-.36.36v39.37c0,.2.16.36.36.36h94.5c.2,0,.36-.16.36-.36v-39.37c0-.2-.16-.36-.36-.36H57.58Z"/><path class="cls-1" d="m68.31,59.31h-4.3c-.59,0-1.07-.48-1.07-1.07v-4.3c0-.59.48-1.07,1.07-1.07h4.3c.59,0,1.07.48,1.07,1.07v4.3c0,.59-.48,1.07-1.07,1.07Zm-4.3-5.73c-.2,0-.36.16-.36.36v4.3c0,.2.16.36.36.36h4.3c.2,0,.36-.16.36-.36v-4.3c0-.2-.16-.36-.36-.36h-4.3Z"/><rect class="cls-1" x="63.3" y="58.6" width="81.61" height=".72"/><rect class="cls-1" x="94.8" y="96.54" width="262.37" height=".72"/><circle class="cls-1" cx="94.8" cy="96.54" r="5.01"/><circle class="cls-1" cx="357.17" cy="97.26" r="3.94"/><circle class="cls-1" cx="376.5" cy="176.36" r="3.94"/><circle class="cls-1" cx="115.2" cy="176.36" r="3.94"/></g></svg>