<svg xmlns="http://www.w3.org/2000/svg" xmlns:xlink="http://www.w3.org/1999/xlink" viewBox="0 0 400 300" width="406" height="306" class="illustration styles_illustrationTablet__1DWOa"><defs><linearGradient id="linear-gradient" x1="196.04" y1="197.1" x2="215.28" y2="170.83" gradientUnits="userSpaceOnUse"><stop offset="0.01" stop-color="#fff" stop-opacity="0"></stop><stop offset="1" stop-color="#b3b3b3" stop-opacity="0.97"></stop></linearGradient></defs><title>0</title><g style="isolation: isolate;"><g id="Layer_2" data-name="Layer 2"><path d="M37.8,186.9l4.28,2.55L224.72,84.83l138.67,83.33,6.33-1.89,0,7.49a4,4,0,0,1-2,3.9L192.84,278.07a16.49,16.49,0,0,1-16.29.07l-135.14-76a7.06,7.06,0,0,1-3.5-7.46Z" fill="#206bc4"></path><path d="M37.8,186.9l4.28,2.55L224.72,84.83l138.67,83.33,6.33-1.89,0,7.49a4,4,0,0,1-2,3.9L192.84,278.07a16.49,16.49,0,0,1-16.29.07l-135.14-76a7.06,7.06,0,0,1-3.5-7.46Z" fill="#206bc4"></path><path d="M37.8,186.9l4.28,2.55L224.72,84.83l138.67,83.33,6.33-1.89,0,7.49a4,4,0,0,1-2,3.9L192.84,278.07a16.49,16.49,0,0,1-16.29.07l-135.14-76a7.06,7.06,0,0,1-3.5-7.46Z" fill="#124577" opacity="0.39"></path><path d="M367.73,168.41,192.84,268.82a16.49,16.49,0,0,1-16.29.07l-135.14-76a7.09,7.09,0,0,1,0-12.34l183.35-105,143.08,86A4,4,0,0,1,367.73,168.41Z" fill="#206bc4"></path><polygon points="346.99 164.23 196.6 250.51 63.29 175.57 215.76 86.03 346.99 164.23" fill="#fff"></polygon><ellipse cx="113.57" cy="217.25" rx="6.65" ry="3.63" fill="#124577" opacity="0.39"></ellipse><path d="M202.45,220h0a8.22,8.22,0,0,0-.31-14.1l-67-38.18a16.14,16.14,0,0,0-16.15.09h0A8.22,8.22,0,0,0,119.1,182l66.74,38.3A16.13,16.13,0,0,0,202.45,220Z" fill="#9ee8e1"></path><ellipse cx="235.41" cy="153.86" rx="62.7" ry="28.69" fill="none" stroke="#29abe2" stroke-miterlimit="10"></ellipse><path d="M94.59,63.87l1.59,56.32a3.78,3.78,0,0,0,5.34,3.09l45.2-25.06a4.53,4.53,0,0,0,2.51-4.13l-1-54.39a3.7,3.7,0,0,0-5.38-3.23L97.07,59.75A4.53,4.53,0,0,0,94.59,63.87Z" fill="#f26122"></path><path d="M118.37,94.79Q115,88.94,112,83a3.93,3.93,0,0,0-6.75-.4l-.05.08a4,4,0,0,0-.24,4c2.11,4.08,4.28,8.14,6.55,12.14C114,103.27,120.91,99.26,118.37,94.79Z" fill="#fff"></path><path d="M111.78,94.89a416.51,416.51,0,0,0,22.4-39.43c2.29-4.59,9.16-.56,6.88,4a416.54,416.54,0,0,1-22.4,39.43C115.89,103.21,109,99.22,111.78,94.89Z" fill="#fff"></path><polyline points="201.73 152.54 151.64 179.96 201.73 206.94 275.78 165.99" opacity="0.46" fill="url(#linear-gradient)" style="mix-blend-mode: multiply;"></polyline><path d="M275.78,166s-1.11-17.68-1.52-22.06c-.37-4-1.69-21.33-12.56-26.82-13.74-6.94-29.57-15.94-44.2-11.75-11.86,3.4-15.9,44.44-15.77,47.18C202,157.46,238.75,183.45,275.78,166Z" fill="#ff8386"></path><path d="M247.69,119.22c0,.8-9.7,11.85-12,10.42s-3.41-11.31-4.85-10.42-6.73,7.28-7.49,6.78,1.14-17.44,2.7-20.28S247.69,112.94,247.69,119.22Z" fill="#2b415d"></path><path d="M223.31,78.1s.06,11.49,0,15.76c-.06,4.5,1.84,16.66,9.24,16.27s15-9,15-11c0,0,7.48-4.65,3.25-8.23s-4.55,2.48-4.55,2.48-2.29-3.33-2.45-12.27C243.79,81.13,233.23,82.8,223.31,78.1Z" fill="#ffac73"></path><path d="M247.19,111.08c-3.77,3.48-9.91,4.13-15.59,3.31a1.85,1.85,0,0,1-1.7-1.61c-.09-1.74-.2-3.48-.35-5.21L249.06,98l-1.51,12.43S247.43,110.71,247.19,111.08Z" fill="#ffac73"></path><path d="M233.81,114.62c-.76-.06-1.52-.14-2.27-.24a1.78,1.78,0,0,1-1.64-1.55c0-.91-.09-1.81-.15-2.71,4.13,0,11.48-1,15.36-8.62A16.68,16.68,0,0,1,233.81,114.62Z" fill="#e5894a"></path><path d="M223.34,84.64s-4.69-3-4.13-9.95S227.49,63.75,238,64.34s22.63,5.77,24.33,23,5.44,27.24-.67,29.76-15.87,5.37-26,4.16c0,0,9.91-19.58,8.88-32.76s-1.27-3.12-2.42-.94S223.34,84.64,223.34,84.64Z" fill="#4b1b13"></path><path d="M253.74,171.85c-.37,0-.73,0-1.1.06q.16-11.09.06-22.17a1.22,1.22,0,0,1,2.43,0q.1,11-.06,22Z" fill="#bc424b"></path><path d="M213.66,162.58h0a1.56,1.56,0,0,0-.25-.12l-.66-.36-.77-.42-.64-.35q0-13.18.78-26.33c.09-1.56,2.52-1.57,2.43,0q-.76,13.56-.79,27.13A1.22,1.22,0,0,1,213.66,162.58Z" fill="#bc424b"></path><path d="M253.14,59.86l17.4,9.65a4.14,4.14,0,0,1,2.13,3.62V99.82" fill="none" stroke="#29abe2" stroke-miterlimit="10" stroke-width="4"></path><path d="M272.67,143.15v23.62a3.1,3.1,0,0,1-4.63,2.7l-14.78-8.38" fill="none" stroke="#29abe2" stroke-miterlimit="10" stroke-width="4"></path><path d="M223.59,43.09,205.31,32.54a2,2,0,0,0-3,1.75V58.62" fill="none" stroke="#29abe2" stroke-miterlimit="10" stroke-width="4"></path><path d="M216.65,145l-12.75-6.75a6.05,6.05,0,0,1-3.22-5.35V110.79" fill="none" stroke="#29abe2" stroke-miterlimit="10" stroke-width="4"></path><path d="M129.19,180.92l-.37-1.89,4.33-.23-2-1.88,3.39-.84,1.71,2,3-1.77,2.68,1.36-3.48,1.51,4,.87-1.67,1.71-3.71-1-.44,2.19-3.74-.18.87-2.27Z"></path><path d="M144,189.84l-.37-1.89,4.33-.23-2-1.88,3.39-.84,1.71,2,3-1.77,2.68,1.36-3.48,1.51,4,.87-1.67,1.71-3.71-1-.44,2.19-3.74-.18.87-2.27Z"></path><path d="M162.34,200l-.37-1.89,4.33-.23-2-1.88,3.39-.84,1.71,2,3-1.77,2.68,1.36-3.48,1.51,4,.87-1.67,1.71-3.71-1L169.7,202l-3.74-.18.87-2.27Z"></path><path d="M179.43,209.92l-.37-1.89,4.33-.23-2-1.88,3.39-.84,1.71,2,3-1.77,2.68,1.36-3.48,1.51,4,.87-1.67,1.71-3.71-1-.44,2.19-3.74-.18.87-2.27Z"></path></g></g></svg>