<svg id="Layer_1" data-name="Layer 1" xmlns="http://www.w3.org/2000/svg" xmlns:xlink="http://www.w3.org/1999/xlink" viewBox="0 0 400 300" width="406" height="306" class="illustration styles_illustrationTablet__1DWOa"><defs><linearGradient id="linear-gradient" x1="132.13" y1="173.07" x2="167.22" y2="138.76" gradientUnits="userSpaceOnUse"><stop offset="0" stop-color="#fff" stop-opacity="0"></stop><stop offset="0.99" stop-color="#552d00"></stop></linearGradient><linearGradient id="linear-gradient-2" x1="196.89" y1="249.7" x2="220.5" y2="212.39" xlink:href="#linear-gradient"></linearGradient><linearGradient id="linear-gradient-3" x1="86.13" y1="217.49" x2="115.18" y2="200.23" xlink:href="#linear-gradient"></linearGradient></defs><title>61-70</title><path d="M40.49,193l146.56,84.62a12.28,12.28,0,0,0,12.21,0l169.09-96.09a6.85,6.85,0,0,0,0-11.88L217.81,82.55a4.75,4.75,0,0,0-4.8,0L40.44,184.77A4.75,4.75,0,0,0,40.49,193Z" fill="#decdc6"></path><polyline points="221.02 137.02 96.95 210.41 62.6 190.18 151.02 138.3" opacity="0.32" fill="url(#linear-gradient)"></polyline><polyline points="325.66 197.16 196.42 271.7 116.39 225.98 172.45 194.76" opacity="0.32" fill="url(#linear-gradient-2)"></polyline><polyline points="203.27 225.37 214.05 219.02 211.09 215.85 202.78 221.28" fill="#c65517"></polyline><polyline points="196.42 217.18 208.97 210.03 213.51 215.21 203.27 221.24" fill="#ea6c0f"></polyline><polygon points="203.27 221.24 196.42 217.18 196.42 221.24 203.27 225.37 203.27 221.24" fill="#ff7c28"></polygon><polyline points="184.11 214.5 194.89 208.15 191.94 204.98 183.63 210.41" fill="#c65517"></polyline><polyline points="177.26 206.31 189.81 199.16 194.35 204.34 184.11 210.37" fill="#ea6c0f"></polyline><polygon points="184.11 210.37 177.26 206.31 177.26 210.37 184.11 214.5 184.11 210.37" fill="#ff7c28"></polygon><polyline points="164.81 203.55 175.59 197.2 172.63 194.02 164.32 199.45" fill="#c65517"></polyline><polyline points="157.96 195.36 170.51 188.2 175.05 193.39 164.81 199.41" fill="#ea6c0f"></polyline><polygon points="164.81 199.41 157.96 195.36 157.96 199.41 164.81 203.55 164.81 199.41" fill="#ff7c28"></polygon><polyline points="225.11 238.1 235.89 231.75 232.93 228.57 224.62 234.01" fill="#c65517"></polyline><polyline points="218.26 229.91 230.81 222.75 235.35 227.94 225.11 233.97" fill="#ea6c0f"></polyline><polygon points="225.11 233.97 218.26 229.91 218.26 233.97 225.11 238.1 225.11 233.97" fill="#ff7c28"></polygon><polyline points="279.63 224.23 268.85 217.88 271.8 214.71 280.11 220.14" fill="#c65517"></polyline><polyline points="286.48 216.04 273.93 208.89 269.39 214.07 279.63 220.1" fill="#ea6c0f"></polyline><polygon points="279.63 220.1 286.48 216.04 286.48 220.1 279.63 224.23 279.63 220.1" fill="#ff7c28"></polygon><polyline points="298.01 213.57 287.23 207.22 290.18 204.05 298.49 209.48" fill="#c65517"></polyline><polyline points="304.86 205.38 292.31 198.23 287.77 203.41 298.01 209.44" fill="#ea6c0f"></polyline><polygon points="298.01 209.44 304.86 205.38 304.86 209.44 298.01 213.57 298.01 209.44" fill="#ff7c28"></polygon><polyline points="318.12 201.44 307.34 195.09 310.29 191.91 318.6 197.34" fill="#c65517"></polyline><polyline points="324.96 193.25 312.41 186.09 307.88 191.28 318.12 197.31" fill="#ea6c0f"></polyline><polygon points="318.12 197.31 324.96 193.25 324.96 197.31 318.12 201.44 318.12 197.31" fill="#ff7c28"></polygon><polyline points="258.06 237.17 247.28 230.82 250.23 227.65 258.54 233.08" fill="#c65517"></polyline><polyline points="264.91 228.98 252.35 221.83 247.82 227.01 258.06 233.04" fill="#ea6c0f"></polyline><polygon points="258.06 233.04 264.91 228.98 264.91 233.04 258.06 237.17 258.06 233.04" fill="#ff7c28"></polygon><path d="M160.91,187.59v2.35l81.31,47.23s83.9-49.69,83.85-49.95,0-2.61,0-2.61" fill="#206bc4"></path><path d="M160.91,187.59v2.35l81.31,47.23s83.9-49.69,83.85-49.95,0-2.61,0-2.61" opacity="0.25"></path><polygon points="242.45 234.22 326.08 184.61 243.59 136.98 160.91 187.59 242.45 234.22" fill="#206bc4"></polygon><path d="M242.18,194.47V171.11l20.91-11.68V182.6Z" fill="#eca016"></path><path d="M242.18,171.11l-20.35-11.68s-.57,23.55,0,23.93,20.35,11.12,20.35,11.12Z" fill="#ffb72f"></path><polygon points="221.83 159.43 242.18 146.99 263.09 159.43 242.18 171.11 221.83 159.43" fill="#ffc863"></polygon><polygon points="229.58 154.69 250.76 166.31 250.76 178.5 256.85 175.43 256.85 162.91 235.67 150.97 229.58 154.69" fill="#fdedcb"></polygon><path d="M217.62,207.7V184.34l20.91-11.68v23.17Z" fill="#eca016"></path><path d="M217.62,184.34l-20.35-11.68s-.57,23.55,0,23.93,20.35,11.12,20.35,11.12Z" fill="#ffb72f"></path><polygon points="197.27 172.66 217.62 160.22 238.53 172.66 217.62 184.34 197.27 172.66" fill="#ffc863"></polygon><polygon points="205.02 167.92 226.21 179.54 226.21 191.73 232.29 188.66 232.29 176.14 211.12 164.2 205.02 167.92" fill="#fdedcb"></polygon><path d="M266.39,208.07V184.71L287.3,173v23.17Z" fill="#eca016"></path><path d="M266.39,184.71,246,173s-.57,23.55,0,23.93,20.35,11.12,20.35,11.12Z" fill="#ffb72f"></path><polygon points="246.04 173.03 266.39 160.6 287.3 173.03 266.39 184.71 246.04 173.03" fill="#ffc863"></polygon><polygon points="253.79 168.3 274.97 179.92 274.97 192.11 281.06 189.04 281.06 176.52 259.88 164.57 253.79 168.3" fill="#fdedcb"></polygon><path d="M242.33,221.3V197.94l20.91-11.68v23.17Z" fill="#eca016"></path><path d="M242.33,197.94,222,186.25s-.57,23.55,0,23.93,20.35,11.12,20.35,11.12Z" fill="#ffb72f"></path><polygon points="221.99 186.25 242.33 173.82 263.25 186.25 242.33 197.94 221.99 186.25" fill="#ffc863"></polygon><polygon points="229.74 181.52 250.92 193.14 250.92 205.33 257.01 202.26 257.01 189.74 235.83 177.79 229.74 181.52" fill="#fdedcb"></polygon><path d="M242,187.93V164.57l20.91-11.68v23.17Z" fill="#eca016"></path><path d="M242,164.57l-20.35-11.68s-.57,23.55,0,23.93S242,187.93,242,187.93Z" fill="#ffb72f"></path><polygon points="221.67 152.89 242.02 140.46 262.93 152.89 242.02 164.57 221.67 152.89" fill="#ffc863"></polygon><polygon points="229.42 148.16 250.6 159.78 250.6 171.97 256.69 168.9 256.69 156.38 235.52 144.43 229.42 148.16" fill="#fdedcb"></polygon><path d="M185.54,157.16V117.52L221,97.7V137Z" fill="#eca016"></path><path d="M185.54,117.52,151,97.7s-1,40,0,40.6,34.52,18.86,34.52,18.86Z" fill="#ffb72f"></path><polygon points="151.02 97.7 185.54 76.61 221.02 97.7 185.54 117.52 151.02 97.7" fill="#ffc863"></polygon><polygon points="164.16 89.67 200.11 109.39 200.11 130.07 210.44 124.86 210.44 103.61 174.51 83.35 164.16 89.67" fill="#fdedcb"></polygon><polyline points="111.79 88.05 123.63 96.01 117.2 102.44 110.19 102.44" fill="#1b8c7c"></polyline><path d="M88.07,227.43l37.06-24.5L112,194.18,70.54,215.65C74.62,222.33,81.51,223,88.07,227.43Z" opacity="0.32" fill="url(#linear-gradient-3)"></path><path d="M103.45,200.09s.64,5.59,3.55,6.68,4.39,3,2.65,4.35-10.15-2.19-10.15-2.19l-3-6.62-.23,4.89-3.17-1.82.41-17.68,8.68,2.35Z" fill="#c44b08"></path><path d="M119,192s.63,5.55,3.52,6.63,4.36,2.93,2.63,4.32-10.07-2.17-10.07-2.17l-3-6.57L111.8,199l-3.15-1.81.57-16.66,8.45,1.44Z" fill="#c44b08"></path><path d="M107.27,123.74,104,196.23c-3.39,2.12-12.78.78-12.78.78s-4-58.72,2.81-74.6" fill="#ffa852"></path><path d="M105.67,117.91l1.83,70.58s9.32,1.34,12.68-.77l-2.43-72.88" fill="#ffa852"></path><path d="M94,122.4c4.35,2.91,11.83,3.82,17.39,2.13a16.23,16.23,0,0,0,3.12-2.66c-.23-5.5-.51-11-.48-16.52s.23-12.13-2.26-17.31a23.57,23.57,0,0,0-4.91-1.86c-2.58-.66-7.93,1.93-10.11,3.26A12.39,12.39,0,0,0,91.35,98a163.39,163.39,0,0,1,2.33,19.6C93.78,119.18,93.91,120.79,94,122.4Z" fill="#3ab4a7"></path><path d="M107.73,84.67s-.08,3.8-1.58,4.38-5.21-1.37-5.25-2.45,2.54-3.38,2.54-3.38" fill="#f49138"></path><path d="M100,87.79l.64-3.06,5.9,3.91v3.43S101.92,91.17,100,87.79Z" fill="#1b8c7c"></path><path d="M106.53,88.65l1.84,2.41s1-2.7.3-4.24-1.56-1.76-1.56-1.76S107.44,87.74,106.53,88.65Z" fill="#1b8c7c"></path><path d="M112.25,75.92s.58,10.53-5.06,10.9-5.12-4.1-5.12-4.1-1.45-9.57,3.67-10.3S112.25,75.92,112.25,75.92Z" fill="#ffa852"></path><path d="M108.37,79.28l-2.77.27-.87-2.19.58,8.21a16.68,16.68,0,0,1,0,2.49s-5.77.27-9.11-2.73-.63-15.52,5.7-16.26,12.15,2,12,9l-1.37.46Z" fill="#42210b"></path><path d="M128.58,131.31V110.2l18.9-10.55v20.94Z" fill="#eca016"></path><path d="M128.58,110.2,110.19,99.64s-.51,21.28,0,21.62,18.39,10,18.39,10Z" fill="#ffb72f"></path><polygon points="110.19 99.64 128.58 88.41 147.48 99.64 128.58 110.2 110.19 99.64" fill="#ffc863"></polygon><polygon points="117.2 95.37 136.34 105.86 136.34 116.88 141.84 114.11 141.84 102.79 122.7 92 117.2 95.37" fill="#fdedcb"></polygon><path d="M112.27,123.16l9.26,5.7s3.28,1.39,4.61.48c.43-.29-5.57-3.93-5.57-3.93s3.28-1.3,3.28-1.79-1.87-.84-2.32-.78-7.12-3.78-7.12-3.78Z" fill="#ffa852"></path><path d="M93,108.2l.68,9.4s12.91,6.56,18.59,6.33S93,108.2,93,108.2Z" fill="#1b8c7c"></path><path d="M114.54,114.44a6.85,6.85,0,0,1-.59-.67,28.07,28.07,0,0,1-7.76-6.07c-2.17-2.33-4.86-5.32-5.77-8.4a.67.67,0,0,1,0-.12,14.68,14.68,0,0,1-1.54-8.78,1.77,1.77,0,0,0-1.07-.55c-2.54.1-5.21,3.19-6.3,5.37s-1,5-.38,7.58A31,31,0,0,0,93,108.2a20.18,20.18,0,0,0,3.78,5.68,101.67,101.67,0,0,0,8.75,7.55,73.85,73.85,0,0,0,10.37,6,92.48,92.48,0,0,0,1.82-10.41A36.14,36.14,0,0,1,114.54,114.44Z" fill="#3ab4a7"></path><path d="M100,100.11s9.07,12.94,14.55,14.33Z" fill="#1b8c7c"></path><path d="M107.05,130.19l-3.61,66.53c0,.64,1,.64,1,0l3.61-66.53C108.09,129.55,107.09,129.55,107.05,130.19Z" fill="#b26a29"></path><path d="M316.1,77.34l-1,74.41a3.69,3.69,0,0,1-5.51,3.16L261.3,127.43a3.69,3.69,0,0,1-1.86-3.21V46a2.08,2.08,0,0,1,3.12-1.8l51.7,29.92A3.69,3.69,0,0,1,316.1,77.34Z" fill="#206bc4"></path><path d="M274,50.77c.09.05,0,9.56,0,9.56l27.52,15.9V66.7Z" fill="#723d49"></path><polygon points="265.52 55.89 309.9 81.55 309.9 143.39 265.52 119.01 265.52 55.89" fill="#fff"></polygon><line x1="271.33" y1="74.41" x2="300.3" y2="89.88" fill="#fff"></line><path d="M270.57,75.71l29,15.47c1.7.91,3.22-1.68,1.51-2.59l-29-15.47c-1.7-.91-3.22,1.68-1.51,2.59Z" fill="#ccc"></path><line x1="271.33" y1="86.2" x2="300.3" y2="101.67" fill="#fff"></line><path d="M270.57,87.5l29,15.47c1.7.91,3.22-1.68,1.51-2.59l-29-15.47c-1.7-.91-3.22,1.68-1.51,2.59Z" fill="#ccc"></path><line x1="271.33" y1="98" x2="300.3" y2="113.47" fill="#fff"></line><path d="M270.57,99.29l29,15.47c1.7.91,3.22-1.68,1.51-2.59l-29-15.47c-1.7-.91-3.22,1.68-1.51,2.59Z" fill="#ccc"></path><line x1="271.33" y1="109.79" x2="300.3" y2="125.26" fill="#fff"></line><path d="M270.57,111.08l29,15.47c1.7.91,3.22-1.68,1.51-2.59l-29-15.47c-1.7-.91-3.22,1.68-1.51,2.59Z" fill="#ccc"></path></svg>