<?xml version="1.0" encoding="UTF-8"?><svg id="Ebene_2" xmlns="http://www.w3.org/2000/svg" xmlns:xlink="http://www.w3.org/1999/xlink" viewBox="0 0 409.26 220.72"><defs><style>.cls-1{fill:#f7bebe;}.cls-2{fill:#403e56;}.cls-3{fill:url(#Unbenannter_Verlauf_2);}.cls-4,.cls-5,.cls-6,.cls-7{opacity:.1;}.cls-4,.cls-5,.cls-7{isolation:isolate;}.cls-4,.cls-8{fill:#3069b2;}.cls-9{opacity:.7;}.cls-5,.cls-10{fill:#010101;}.cls-11{fill:#66627d;}.cls-7{fill:#517cbe;}</style><linearGradient id="Unbenannter_Verlauf_2" x1="342.06" y1="423.13" x2="342.06" y2="595.94" gradientTransform="translate(-28 637.76) scale(1 -1)" gradientUnits="userSpaceOnUse"><stop offset="0" stop-color="#808181" stop-opacity=".25"/><stop offset=".54" stop-color="#808181" stop-opacity=".12"/><stop offset="1" stop-color="#808181" stop-opacity=".1"/></linearGradient></defs><g id="Ebene_1-2"><path class="cls-4" d="m409.26,141.75c.02,11.84-3.21,23.46-9.34,33.59,0,12.39-5.77,23.61-15.14,31.79-2.34,2.05-4.87,3.88-7.54,5.48-.11.07-.22.13-.33.2-.2.12-.4.24-.6.36l-.19.11h0c-8.87,4.94-18.86,7.51-29.01,7.45H77.69c-18.58,0-35.4-6.47-47.58-16.92-12.18-10.45-19.69-24.92-19.69-40.88C3.59,152.41-.02,140.15,0,127.62,0,92.16,28.35,63.4,63.32,63.4c1.24,0,2.46.04,3.68.11C88.95,26.09,138.45,0,195.95,0c35.35,0,67.67,9.86,92.42,26.14,9.38-5.3,19.97-8.08,30.74-8.07,34.97,0,63.32,28.75,63.32,64.22,0,2.24-.12,4.49-.36,6.72,17.1,12.11,27.25,31.78,27.19,52.74Z"/><ellipse class="cls-7" cx="147.75" cy="158.27" rx="140.24" ry="3.76"/><g class="cls-9"><rect class="cls-11" x="50.8" y="130.55" width="44.72" height="24.68"/><rect class="cls-5" x="66.54" y="134.84" width="13.59" height="2.86"/><rect class="cls-5" x="68.24" y="135.2" width="10.2" height="2.15"/><rect class="cls-11" x="96.23" y="130.55" width="44.72" height="24.68"/><rect class="cls-5" x="111.97" y="134.84" width="13.59" height="2.86"/><rect class="cls-5" x="113.67" y="135.2" width="10.2" height="2.15"/><rect class="cls-11" x="50.8" y="105.15" width="44.72" height="24.68"/><rect class="cls-5" x="66.54" y="109.44" width="13.59" height="2.86"/><rect class="cls-5" x="68.24" y="109.8" width="10.2" height="2.15"/><rect class="cls-11" x="96.23" y="105.15" width="44.72" height="24.68"/><rect class="cls-5" x="111.97" y="109.44" width="13.59" height="2.86"/><rect class="cls-5" x="113.67" y="109.8" width="10.2" height="2.15"/><rect class="cls-11" x="50.8" y="79.39" width="44.72" height="24.68"/><rect class="cls-5" x="66.54" y="83.68" width="13.59" height="2.86"/><rect class="cls-5" x="68.24" y="84.04" width="10.2" height="2.15"/><rect class="cls-11" x="96.23" y="79.39" width="44.72" height="24.68"/><rect class="cls-5" x="111.97" y="83.68" width="13.59" height="2.86"/><rect class="cls-5" x="113.67" y="84.04" width="10.2" height="2.15"/><rect class="cls-11" x="96.23" y="53.63" width="44.72" height="24.68"/><rect class="cls-5" x="111.97" y="57.93" width="13.59" height="2.86"/><rect class="cls-5" x="113.67" y="58.28" width="10.2" height="2.15"/></g><g class="cls-9"><rect class="cls-11" x="141.67" y="130.19" width="44.72" height="24.68"/><rect class="cls-5" x="157.41" y="134.48" width="13.59" height="2.86"/><rect class="cls-5" x="159.11" y="134.84" width="10.2" height="2.15"/><rect class="cls-11" x="187.1" y="130.19" width="44.72" height="24.68"/><rect class="cls-5" x="202.84" y="134.48" width="13.59" height="2.86"/><rect class="cls-5" x="204.54" y="134.84" width="10.2" height="2.15"/><rect class="cls-11" x="141.67" y="104.79" width="44.72" height="24.68"/><rect class="cls-5" x="157.41" y="109.08" width="13.59" height="2.86"/><rect class="cls-5" x="159.11" y="109.44" width="10.2" height="2.15"/><rect class="cls-11" x="187.1" y="104.79" width="44.72" height="24.68"/><rect class="cls-5" x="202.84" y="109.08" width="13.59" height="2.86"/><rect class="cls-5" x="204.54" y="109.44" width="10.2" height="2.15"/><rect class="cls-11" x="141.67" y="79.03" width="44.72" height="24.68"/><rect class="cls-5" x="157.41" y="83.33" width="13.59" height="2.86"/><rect class="cls-5" x="159.11" y="83.68" width="10.2" height="2.15"/><rect class="cls-11" x="187.1" y="79.03" width="44.72" height="24.68"/><rect class="cls-5" x="202.84" y="83.33" width="13.59" height="2.86"/><rect class="cls-5" x="204.54" y="83.68" width="10.2" height="2.15"/><rect class="cls-11" x="187.1" y="53.28" width="44.72" height="24.68"/><rect class="cls-5" x="202.84" y="57.57" width="13.59" height="2.86"/><rect class="cls-5" x="204.54" y="57.93" width="10.2" height="2.15"/></g><path class="cls-2" d="m256.63,110.07c-.06-.55-.4-1.03-.89-1.28-.85-.36-1.82.03-2.18.88,0,.02-.01.03-.02.05l-7.95,16.72-1.79,65.83h2.86l1.07-65.68,8.74-15.48c.16-.32.21-.68.15-1.04Z"/><path class="cls-7" d="m384.78,207.13c-2.34,2.05-4.87,3.88-7.54,5.48-.04.06-.09.11-.14.16-.28.24-.62.41-.98.49h0c-8.87,4.94-18.86,7.51-29.01,7.45h-196.7c-22.54-2.32-36.29-5.39-36.29-8.76,0-2.62,8.26-5.05,22.47-7.09,1.47-.21,3.01-.42,4.61-.62.99-.12,1.99-.24,3.02-.36l1.75-.2c1.3-.15,2.63-.29,4-.43h.11l1.43-.14c1.21-.13,2.44-.24,3.7-.36l.92-.08,2.34-.21c1.52-.14,3.07-.27,4.65-.39,1.31-.1,2.65-.21,4.01-.31,13.76-1.02,29.62-1.79,46.88-2.29l4.93-.17,1.66-.04,3.51-.08,1.41-.03,1.48-.03,1.05-.02,4.94-.08,2.54-.04h.52c6-.07,12.11-.11,18.33-.11,12.3,0,24.23.15,35.59.43h0c6.53.16,12.85.36,18.98.6h.06c17.67.69,33.48,1.72,46.56,2.99l.24.03c3.36.33,6.54.67,9.52,1.03,2.81.34,5.44.69,7.89,1.05.85.13,1.67.25,2.47.38l.2.04c3.39.55,6.37,1.11,8.89,1.71Z"/><path class="cls-3" d="m377.24,212.61c-.04.06-.09.11-.14.16-.28.24-.62.41-.98.49h0c-.72.2-1.47.32-2.22.36h-.23c-.43.01-.86,0-1.28-.04-.31-.05-.63-.07-.94-.06h-.04c-.46.06-.91.18-1.34.33-.97.27-1.97.41-2.97.42h-.36c-1.12,0-2.26-.04-3.39-.03h-.55c-1.93.05-3.85.36-5.78.39h-.62c-1.89-.05-3.83-.45-5.33-1.6-.3-.2-.55-.48-.72-.8-.13-.34-.17-.71-.13-1.07.04-.65.16-1.35.65-1.79.31-.23.66-.4,1.03-.5.65-.21,1.31-.41,1.97-.62s1.4-.42,2.11-.63l.14-.04.39-.12.25-.09c.31-.1.6-.23.88-.4.37-.23.67-.54.91-.91.04-.06.08-.13.12-.2s0-.11-.03-.17c-.06-.45-.11-.91-.19-1.34-1.01-.23-1.92-.75-2.64-1.5-.62-.61-1.14-1.32-1.54-2.09-.89-1.67-1.35-3.55-2.01-5.32-1.02-2.7-2.5-5.2-4-7.68-1.37-2.28-2.74-4.57-4.29-6.73-1.03-1.43-2.15-2.79-3.17-4.23-2.89-4-4.97-8.54-6.11-13.34-.17-.92-.42-1.83-.74-2.71-.62-1.5-1.74-2.73-2.62-4.1-.94-1.48-1.58-3.13-1.89-4.85-.18-.98-.48-2.04-1.46-2.15h0l-.1.2c-2.02,3.94-4.1,7.94-7.15,11.15-.49.47-.93.99-1.33,1.53-.32.53-.61,1.08-.86,1.65-.48,1.02-1.12,1.96-1.9,2.78-.23.23-.48.45-.75.63-.36.26-.76.46-1.18.59h0c-.17.05-.34.09-.51.11,0,.04.02.08.02.13s.02.09.03.14c.53,2.86.3,5.81-.65,8.56-.03.09-.05.17-.09.25-.15.4-.31.79-.48,1.18-.44.95-.96,1.86-1.36,2.82-.07.16-.14.33-.2.49-1.43,3.83-1.07,8.11-1.26,12.23-.02.9-.12,1.8-.32,2.68-.24.99-.63,2.01-.85,3.04-.2.77-.21,1.57-.05,2.34l-.09.03c-.38.14-.77.27-1.16.39v.05c.14.8.28,1.6.41,2.4.12.69.26,1.43.74,1.92.13.11.25.23.36.36.28.44.03,1.03.09,1.56.08.74.77,1.38.66,2.12-.1.45-.41.82-.84.99-.18.08-.36.14-.55.18l-.12.03c-.21.04-.43.06-.64.08-2.67.26-5.37.53-8.01.08-.52-.09-1.04-.21-1.57-.25-.67-.03-1.34,0-2,.08-4.9.46-9.82.56-14.74.29-1.28-.07-2.74-.28-3.42-1.37-.56-.91-.36-2.07-.08-3.11.08-.38.23-.74.43-1.07.02-.04.05-.07.08-.1.66-.82,1.9-.87,2.96-.84l3.48.1c.34.03.69,0,1.02-.08.57-.16.99-.62,1.52-.87.67-.32,1.5-.36,1.98-.9l.06-.08c.08-.12.16-.23.24-.36,0-.03.03-.05.05-.08h0s.03-.04.04-.06c.44-.58,1.21-.77,1.84-1.14.09-.06.18-.12.27-.19l.07-.06c-.67-.48-1.26-1.07-1.74-1.75-.18-.2-.32-.44-.4-.69-.04-.19-.03-.4.04-.58.02-.05.03-.09.06-.13l.02-.04c.24-.48.74-.91,1.02-1.4.01-.02.02-.03.03-.05.38-.72.45-1.82-.11-2.4.29-4.71,1.58-9.3,1.87-14.03.11-1.87.07-3.75.15-5.63.09-1.88.29-3.7.5-5.54.47-4.21,1.62-8.34,1.46-12.56-.01-.39,0-.79.05-1.18,0-.03,0-.06,0-.09.11-.87.38-1.71.8-2.48.52-.87,1.11-1.7,1.76-2.48,2.2-2.86,4.84-5.72,5.63-9.24.4-1.82,1.3-3.48,2.19-5.12.53-.97,1.07-1.97,1.91-2.69.46-.32.88-.67,1.26-1.07.59-.76.61-1.81.96-2.71.18-.47.45-.9.59-1.38,0-.05.03-.1.04-.15.08-.49.12-.98.13-1.47,0-.14.02-.28.04-.42h0c.21-1.41.62-2.79,1.22-4.09.08-.16.15-.33.22-.5-1.65-.96-3.11-2.23-4.29-3.72-.4-.48-.75-1.01-1.04-1.57-.74-1.46-.91-3.13-1.25-4.73-.83-3.82-2.73-7.42-2.99-11.33-.08-1.19,0-2.42-.41-3.55-.11-.3-.25-.6-.4-.89-.06-.12-.13-.24-.19-.36l-.07-.14-.18-.36-.29.23c-7.32,5.73-15,10.98-23,15.71l-.69.41c-.36.17-.67.43-.91.74-.03.05-.05.09-.08.14h0c-.16.34-.21.72-.36,1.07-.32.82-1.15,1.34-1.99,1.58-1.53.39-3.15.18-4.53-.58-.18-.09-.36-.18-.52-.29-.42.23-.86.42-1.32.56-1.43.41-2.93.4-4.41.39s-2.99,0-4.4.49c-.94.32-1.85.84-2.82.89-.11,0-.22,0-.34,0-.55-.06-1.09-.22-1.6-.47l-.29-.13c-.15-.07-.3-.15-.44-.24-.16-.1-.3-.21-.43-.34-.19-.19-.33-.43-.4-.68-.05-.19-.05-.38,0-.57.01-.08.06-.16.12-.21.06-.04.14-.06.21-.05.41,0,.82.03,1.22.1.24.03.48.05.72.04h.13c.43-.05.81-.27,1.07-.61.04-.05.07-.11.09-.17h0c.04-.1.07-.21.06-.32,0-.03,0-.05,0-.08-.15-.07-.3-.14-.44-.22-.08-.04-.15-.08-.22-.13l-.04-.03c-.13-.09-.25-.19-.36-.3-.07-.07-.13-.15-.18-.23-.09-.13-.17-.27-.21-.43h0c-.29-.06-.6-.05-.89.03-.39.11-.78.34-1.17.41-.2.05-.4.04-.59-.03-.56-.2-.75-.88-.87-1.46-.02-.11-.05-.23-.06-.34h0c-.04-.22-.04-.45,0-.67.17-.5.5-.93.94-1.23l1.17-.98.09-.07c0-.1-.04-.19-.05-.29-.04-.22-.04-.45,0-.67.17-.5.5-.93.94-1.22l2.6-2.19c.49-.41,1.02-.84,1.65-.88.94-.06,1.69.72,2.4,1.34.89.79,1.96,1.43,3.15,1.51.56.03,1.13-.05,1.66-.23l.3-.1c-.06-.13-.13-.26-.19-.4-.1-.22-.21-.44-.31-.66,1.52-.1,2.91-.93,4.06-1.94s2.15-2.19,3.31-3.17c1.26-1.07,2.7-1.87,3.98-2.9,2.97-2.41,4.94-5.95,8.12-8.07,1.1-.74,2.38-1.33,3.13-2.43.23-.36.41-.72.65-1.07.76-1.07,2.07-1.57,3.14-2.31s2.01-1.84,2.89-2.88c.62-.75,1.25-1.5,1.84-2.26.55-1.02,1.01-2.09,1.58-3.09.49-.85,1.05-1.65,1.69-2.39.15-.29.3-.57.46-.85s.28-.47.43-.72c.1-.16.21-.31.32-.47-.33-.58-.64-1.07-.78-1.29l-.07-.1c-.32-.34-.65-.65-1.01-.94-.37-.06-.74-.14-1.11-.24-4.54-1.24-7.68-5.37-7.68-10.08,0-.01,0-.02,0-.03,0-1.64.39-3.26,1.14-4.72.15-.29.31-.58.49-.85-.16-.05-.32-.12-.48-.19-.26-.13-.49-.32-.67-.55-.15-.21-.24-.44-.28-.69-.06-.59.03-1.19.26-1.73.1-.26.21-.52.33-.77,0-.01.02-.03.03-.05,1.6-3.22,5.01-5.2,8.41-5.34,3.67-.15,7.25,1.58,10.15,4.05.86.71,1.64,1.52,2.3,2.42,1.51,2.1,2.2,4.79,2.4,7.46.08.82.06,1.65-.04,2.48-.04.29-.1.58-.18.87-.05.17-.11.34-.17.5s-.1.24-.16.36v.02c-.05.11-.11.22-.18.33l-.03.05-.05.08c.03.07.06.14.09.21s.06.13.1.2h.04c.72.06,1.38.16,2.11.21.34.02.68.07,1.02.16.72.21,1.26.74,1.86,1.16,1.49,1.05,3.32,1.54,4.78,2.63,2.15,1.6,3.22,4.25,4.52,6.62,1.72,3.18,4.51,5.88,5.75,9.28.56,1.54,1.12,3.08,1.68,4.62,1.1,3.02,2.2,6.05,3.69,8.89,2.07,3.96,4.88,7.51,6.55,11.67.17.42.48.76.87.97,2.27,3.2,4.28,6.57,6.03,10.08.92,1.86,1.79,3.78,2.06,5.84.21,1.83.06,3.69-.45,5.46-.29,1.05-.64,2.09-1.05,3.1-.16.35-.28.72-.36,1.11v.12c-.07.69.19,1.37.26,2.05.06.55,0,1.11-.18,1.64-.03.08-.06.16-.09.25-.22.42-.41.85-.56,1.3-.01.05-.02.11-.03.16-.12.78.19,1.56.36,2.34.63,2.8.52,5.72.36,8.59-.08,1.43,1.07,2.58,2.04,3.63,1.79,1.98,3.19,4.29,4.54,6.6.74,1.17,1.36,2.41,1.85,3.7.51,1.47.72,3.03,1,4.56.91,4.72,3.89,8.89,4.7,13.63.37,2.17,1.33,4.19,2.77,5.86.43.45.83.92,1.19,1.43.25.4.45.84.59,1.29.35,1.05.52,2.16.49,3.27-.06.53-.03,1.07.09,1.59.34,1.1,1.54,1.7,2.04,2.74s.15,2.36.36,3.53c.16.95.67,1.8,1.43,2.38-.29.25-.59.48-.89.72.28.22.53.48.74.78.14.2.26.41.36.63.47,1.1.49,2.4.87,3.58.16.49.4,1,.25,1.5-.06.14-.1.29-.12.44,0,.32.34.53.47.83.1.3.02.63-.19.86Z"/><path class="cls-1" d="m301.52,73.08c2.19-.59,4.14-1.82,6.05-3.04l6.66-4.24c-1.81-.14-3.37-1.43-4.29-2.99-.93-1.56-1.31-3.37-1.62-5.16-2.86,1.12-5.34,3.01-7.65,5.01-.92.79-2.86,1.99-3.14,3.22-.28,1.23,1.52,2.24,2.22,3.06.24.28,2.5,3.94,1.79,4.14Z"/><path class="cls-5" d="m301.52,73.08c2.19-.59,4.14-1.82,6.05-3.04l6.66-4.24c-1.81-.14-3.37-1.43-4.29-2.99-.93-1.56-1.31-3.37-1.62-5.16-2.86,1.12-5.34,3.01-7.65,5.01-.92.79-2.86,1.99-3.14,3.22-.28,1.23,1.52,2.24,2.22,3.06.24.28,2.5,3.94,1.79,4.14Z"/><path class="cls-1" d="m265.14,108.1c-1.17.6-2.42,1.22-3.73,1.13-1.18-.08-2.26-.72-3.14-1.5-.72-.62-1.45-1.4-2.39-1.33-.63.04-1.16.47-1.65.87l-2.59,2.17c-.44.29-.77.72-.94,1.22-.05.34-.03.68.06,1.01.12.58.31,1.26.87,1.45s1.17-.23,1.76-.39c.73-.19,1.51.04,2.03.6.21.21.34.48.36.78,0,.65-.72,1.07-1.37,1.11s-1.29-.18-1.94-.14c-.16-.02-.31.09-.33.26,0,0,0,0,0,0-.08.46.08.93.42,1.24.34.31.74.55,1.17.72.5.25,1.04.4,1.6.47,1.1.07,2.11-.54,3.15-.89,1.4-.47,2.91-.49,4.39-.48s2.98.03,4.4-.39,2.77-1.33,3.32-2.7c.07-.13.09-.27.06-.41-.06-.15-.16-.28-.3-.36-2-1.48-2.8-3.27-5.05-4.34l-.14-.09Z"/><path class="cls-5" d="m265.14,108.1c-1.17.6-2.42,1.22-3.73,1.13-1.18-.08-2.26-.72-3.14-1.5-.72-.62-1.45-1.4-2.39-1.33-.63.04-1.16.47-1.65.87l-2.59,2.17c-.44.29-.77.72-.94,1.22-.05.34-.03.68.06,1.01.12.58.31,1.26.87,1.45s1.17-.23,1.76-.39c.73-.19,1.51.04,2.03.6.21.21.34.48.36.78,0,.65-.72,1.07-1.37,1.11s-1.29-.18-1.94-.14c-.16-.02-.31.09-.33.26,0,0,0,0,0,0-.08.46.08.93.42,1.24.34.31.74.55,1.17.72.5.25,1.04.4,1.6.47,1.1.07,2.11-.54,3.15-.89,1.4-.47,2.91-.49,4.39-.48s2.98.03,4.4-.39,2.77-1.33,3.32-2.7c.07-.13.09-.27.06-.41-.06-.15-.16-.28-.3-.36-2-1.48-2.8-3.27-5.05-4.34l-.14-.09Z"/><path class="cls-8" d="m307.04,69.95c-1.13-.73-2.52-.89-3.78-.44-1.25.45-2.36,1.19-3.26,2.17-.89.91-1.67,1.93-2.3,3.04-.61,1.07-1.07,2.2-1.68,3.27-1.07,1.91-2.48,3.6-3.89,5.28-.88,1.04-1.76,2.1-2.89,2.86s-2.38,1.23-3.14,2.3c-.24.34-.41.72-.65,1.06-.75,1.09-2.02,1.68-3.12,2.41-3.17,2.11-5.14,5.62-8.1,8.02-1.28,1.03-2.72,1.84-3.97,2.89-1.17.98-2.15,2.15-3.31,3.15s-2.54,1.83-4.06,1.92c1.02,2.26,2.23,4.49,3.97,6.25,1.74,1.76,4.35,2.89,6.73,2.2.84-.24,1.67-.76,1.99-1.57.1-.42.24-.83.42-1.22.24-.31.55-.57.91-.74,9.55-5.57,18.65-11.88,27.23-18.86,2.3-1.87,4.58-3.55,6.94-5.37.85-.6,1.63-1.29,2.34-2.05,2.01-2.4,2.39-5.78.94-8.57-.63-1.04-1.36-2.03-2.17-2.94-1.47-1.92-3.21-3.62-5.15-5.05Z"/><path class="cls-5" d="m307.04,69.95c-1.13-.73-2.52-.89-3.78-.44-1.25.45-2.36,1.19-3.26,2.17-.89.91-1.67,1.93-2.3,3.04-.61,1.07-1.07,2.2-1.68,3.27-1.07,1.91-2.48,3.6-3.89,5.28-.88,1.04-1.76,2.1-2.89,2.86s-2.38,1.23-3.14,2.3c-.24.34-.41.72-.65,1.06-.75,1.09-2.02,1.68-3.12,2.41-3.17,2.11-5.14,5.62-8.1,8.02-1.28,1.03-2.72,1.84-3.97,2.89-1.17.98-2.15,2.15-3.31,3.15s-2.54,1.83-4.06,1.92c1.02,2.26,2.23,4.49,3.97,6.25,1.74,1.76,4.35,2.89,6.73,2.2.84-.24,1.67-.76,1.99-1.57.1-.42.24-.83.42-1.22.24-.31.55-.57.91-.74,9.55-5.57,18.65-11.88,27.23-18.86,2.3-1.87,4.58-3.55,6.94-5.37.85-.6,1.63-1.29,2.34-2.05,2.01-2.4,2.39-5.78.94-8.57-.63-1.04-1.36-2.03-2.17-2.94-1.47-1.92-3.21-3.62-5.15-5.05Z"/><path class="cls-2" d="m291.66,202.66c-.63.36-1.4.56-1.84,1.14-.14.19-.24.4-.39.58-.48.56-1.32.58-1.98.9-.53.25-.96.72-1.52.86-.34.08-.68.11-1.03.08l-3.48-.1c-1.1-.03-2.39.03-3.03.92-.21.33-.36.69-.44,1.07-.27,1.03-.49,2.19.08,3.09.67,1.07,2.15,1.29,3.42,1.36,4.91.27,9.83.18,14.72-.29.66-.08,1.33-.11,2-.08.53.04,1.05.16,1.57.25,2.64.45,5.33.19,8-.08.45-.02.89-.12,1.31-.28.42-.17.74-.54.83-.99.11-.74-.58-1.36-.65-2.1-.05-.52.2-1.11-.09-1.55-.11-.13-.23-.25-.36-.36-.48-.5-.62-1.22-.74-1.9l-.63-3.67c-.02-.26-.12-.5-.3-.69-.13-.09-.28-.16-.44-.18-2.73-.62-5.52-.05-8.23.29-1.39.2-2.8.27-4.21.21-.61-.04-.84-.11-1.3.29s-.7.9-1.27,1.23Z"/><path class="cls-2" d="m357.49,207.08c-.48.27-.99.47-1.52.6-1.4.41-2.81.84-4.21,1.28-.37.09-.72.26-1.03.49-.49.43-.61,1.13-.65,1.79-.05.36,0,.73.13,1.07.17.32.41.59.72.79,1.6,1.21,3.7,1.59,5.71,1.59s4.01-.34,6.02-.39c2.43-.06,4.92.28,7.26-.4.45-.16.91-.28,1.38-.34.31,0,.63.02.94.06,1.25.12,2.52,0,3.73-.34.36-.08.7-.25.99-.49.29-.25.39-.65.26-1.01-.13-.29-.46-.5-.46-.82.02-.15.06-.3.12-.44.15-.49-.09-1-.25-1.48-.46-1.38-.39-2.97-1.21-4.17s-2.34-1.69-3.78-1.88c-1.17-.17-2.36-.13-3.52.1-1.31.28-2.53.86-3.81,1.23-1.49.43-3.04.57-4.58.43-1.02-.09-.67.08-1.02.93-.25.57-.66,1.06-1.19,1.38Z"/><circle class="cls-1" cx="300.33" cy="57.75" r="10.37"/><path class="cls-8" d="m375.54,203.37c-3.22,2.77-7.57,3.97-11.81,4.02-1.79.02-3.65-.18-5.17-1.1-.11-.59-.15-1.22-.26-1.81-1.85-.39-3.28-1.89-4.18-3.56s-1.35-3.52-2.01-5.29c-1.02-2.69-2.5-5.17-3.99-7.63-1.37-2.27-2.74-4.54-4.29-6.69-1.03-1.43-2.15-2.78-3.17-4.2-2.89-3.97-4.96-8.48-6.1-13.26-.17-.92-.42-1.82-.74-2.69-.62-1.5-1.74-2.71-2.61-4.07-.94-1.47-1.58-3.11-1.89-4.83-.18-.97-.48-2.02-1.45-2.13h0c-2.05,3.99-4.15,8.04-7.25,11.29-.49.47-.93.98-1.33,1.52-.32.53-.61,1.08-.86,1.65-.48,1.02-1.12,1.95-1.9,2.76-.65.69-1.5,1.16-2.44,1.33.69,3.44.28,7-1.17,10.2-.43.94-.95,1.85-1.36,2.8-1.67,3.94-1.28,8.37-1.46,12.64-.02.89-.12,1.78-.31,2.66-.43,1.75-1.33,3.6-.89,5.35-4.49,1.71-9.47,1.61-14.22.88-.93-.08-1.83-.36-2.65-.8-.67-.48-1.26-1.06-1.74-1.74-.18-.2-.32-.43-.4-.69-.19-.82.72-1.43,1.13-2.15s.49-1.85-.08-2.44c.29-4.68,1.58-9.25,1.87-13.95.11-1.86.07-3.73.15-5.59.09-1.86.29-3.68.49-5.51.47-4.18,1.62-8.28,1.46-12.49-.05-1.29.25-2.58.86-3.72.52-.87,1.1-1.69,1.75-2.46,2.2-2.84,4.84-5.68,5.62-9.18.4-1.81,1.3-3.46,2.19-5.08.53-.97,1.07-1.96,1.91-2.67.46-.32.88-.67,1.26-1.07.59-.75.61-1.79.96-2.69.18-.47.45-.89.59-1.37.11-.53.16-1.07.16-1.61.11-1.73.78-3.41,1.48-4.99-1.65-.95-3.11-2.21-4.29-3.7-.4-.48-.75-1.01-1.04-1.56-.74-1.45-.91-3.11-1.25-4.7-.83-3.8-2.73-7.37-2.99-11.25-.08-1.18,0-2.41-.41-3.53-.19-.47-.41-.93-.67-1.38-.25-.44-.44-.9-.57-1.39-.23-1.06.09-2.15,0-3.22-.09-.95-.49-1.84-.69-2.76-.2-1.21-.24-2.43-.1-3.65.09-1.43.4-2.91.28-4.32-.4-4.73,1.23-9.4,4.49-12.86l.08-.08c.68-.72,1.43-1.35,2.05-2.11.84-1.02,1.43-2.21,2.31-3.2.39-.44.82-.83,1.21-1.28.35-.47.74-.9,1.16-1.3.43-.4,1.04-.57,1.62-.43.07.53.24,1.05.49,1.52.74.06,1.41.16,2.15.22.34.02.68.07,1.02.16.7.21,1.26.72,1.85,1.15,1.49,1.05,3.32,1.53,4.78,2.62,2.15,1.59,3.22,4.22,4.51,6.58,1.71,3.16,4.51,5.85,5.72,9.22l1.68,4.59c1.1,3,2.2,6.01,3.68,8.83,2.07,3.94,4.88,7.48,6.54,11.6.17.41.47.75.87.96,2.27,3.18,4.28,6.53,6.02,10.02.92,1.85,1.79,3.76,2.05,5.81.39,2.89-.4,5.81-1.49,8.5-.18.39-.3.8-.36,1.22-.07.68.19,1.36.26,2.04.07.64-.03,1.28-.28,1.87-.22.42-.41.85-.56,1.3-.19.82.15,1.66.34,2.48.63,2.79.52,5.67.36,8.53-.08,1.43,1.07,2.57,2.04,3.61,1.79,1.96,3.18,4.26,4.53,6.55.73,1.16,1.35,2.39,1.85,3.68.51,1.46.72,3.01,1,4.53.91,4.69,3.89,8.84,4.69,13.54.37,2.16,1.33,4.17,2.76,5.82.43.45.83.93,1.19,1.43.25.4.44.83.59,1.28.35,1.04.52,2.14.49,3.24-.06.53-.03,1.06.09,1.58.34,1.09,1.54,1.69,2.03,2.72.49,1.03.15,2.34.36,3.51.15.94.66,1.79,1.41,2.38Z"/><path class="cls-1" d="m267.29,104.88c-1.17.6-2.42,1.22-3.73,1.13-1.18-.08-2.26-.72-3.14-1.5-.72-.62-1.45-1.4-2.39-1.33-.63.04-1.16.47-1.65.87l-2.59,2.17c-.44.29-.77.72-.94,1.22-.05.34-.03.68.06,1.01.12.58.31,1.26.87,1.45s1.17-.23,1.76-.39c.73-.19,1.51.04,2.03.6.21.21.34.48.36.78,0,.65-.72,1.07-1.37,1.11s-1.29-.18-1.94-.14c-.16-.02-.31.09-.33.26,0,0,0,0,0,0-.08.46.08.93.42,1.24.34.31.74.55,1.17.72.5.25,1.04.4,1.6.47,1.1.07,2.11-.54,3.15-.89,1.4-.47,2.91-.49,4.39-.48s2.98.03,4.4-.39,2.77-1.33,3.32-2.7c.07-.13.09-.27.06-.41-.06-.15-.16-.28-.3-.36-2-1.48-2.8-3.27-5.05-4.34l-.14-.09Z"/><path class="cls-2" d="m295.28,51.37c-.62.1-1.14.52-1.73.75-.8.31-1.69.26-2.45-.13-.26-.13-.49-.31-.67-.54-.48-.67-.31-1.63-.02-2.41,1.39-3.69,5.09-5.97,8.76-6.12s7.24,1.57,10.13,4.02c.86.71,1.63,1.52,2.3,2.41,1.51,2.09,2.19,4.77,2.39,7.41.12,1.11.05,2.23-.22,3.32-.26,1.07-.94,1.98-1.88,2.54-1.02.52-2.25.36-3.28-.14s-1.92-1.29-2.81-2.05c-.4-.39-.88-.69-1.4-.89-.53-.19-1.12-.05-1.51.36-.48.58-.36,1.52-.79,2.15s-1.35.72-2.11.72-1.54-.06-2-.67c-.42-.55-.36-1.36-.2-2.05s.43-1.38.36-2.09c-.15-1.43-1.4-2.31-1.79-3.63-.25-.86.3-1.23.25-2.01-.04-.69-.78-1.02-1.33-.93Z"/><path class="cls-5" d="m327.88,150.05v.09h0c-2.05,3.99-4.15,8.04-7.25,11.29-.49.47-.93.98-1.33,1.52-.32.53-.61,1.08-.86,1.65-.48,1.02-1.12,1.95-1.9,2.76l-2.59,1.3,8.23-42.93,5.7,24.33Z"/><path class="cls-5" d="m315.92,85.07c-.71.76-1.49,1.45-2.34,2.05-2.36,1.79-4.65,3.48-6.94,5.37-1.85,1.5-3.72,2.98-5.62,4.42-.25-.44-.44-.9-.57-1.39-.23-1.06.09-2.15,0-3.22-.09-.95-.49-1.84-.69-2.76-.2-1.21-.24-2.43-.1-3.65.09-1.43.4-2.91.28-4.32-.4-4.74,1.24-9.43,4.51-12.88l.08-.08c.39-.22.79-.41,1.22-.54,1.26-.44,2.66-.27,3.78.46,1.95,1.43,3.68,3.13,5.15,5.05.81.91,1.53,1.9,2.17,2.94,1.45,2.78,1.08,6.16-.93,8.57Z"/><path class="cls-8" d="m309.18,66.73c-1.13-.73-2.52-.89-3.78-.44-1.25.45-2.36,1.19-3.26,2.17-.89.91-1.67,1.93-2.3,3.04-.61,1.07-1.07,2.2-1.68,3.27-1.07,1.91-2.48,3.6-3.89,5.28-.88,1.04-1.76,2.1-2.89,2.86s-2.38,1.23-3.14,2.3c-.24.34-.41.72-.65,1.06-.75,1.09-2.02,1.68-3.12,2.41-3.17,2.11-5.14,5.62-8.1,8.02-1.28,1.03-2.72,1.84-3.97,2.89-1.17.98-2.15,2.15-3.31,3.15s-2.54,1.83-4.06,1.92c1.02,2.26,2.23,4.49,3.97,6.25s4.35,2.89,6.73,2.2c.84-.24,1.67-.76,1.99-1.57.1-.42.24-.83.42-1.22.24-.31.55-.57.91-.74,9.55-5.57,18.65-11.88,27.23-18.86,2.3-1.87,4.58-3.55,6.94-5.37.85-.6,1.63-1.29,2.34-2.05,2.01-2.4,2.39-5.78.94-8.57-.63-1.04-1.36-2.03-2.17-2.94-1.47-1.92-3.21-3.62-5.15-5.05Z"/><g class="cls-6"><path class="cls-10" d="m300.72,61.31c-.72,0-1.54-.06-2-.67-.41-.55-.36-1.36-.2-2.05s.43-1.38.36-2.09c-.15-1.43-1.4-2.31-1.79-3.63-.25-.86.3-1.23.25-2.01-.05-.68-.78-1.01-1.34-.92-.62.1-1.14.52-1.73.75-.8.31-1.69.26-2.45-.13-.26-.13-.49-.31-.67-.54-.48-.67-.31-1.63-.02-2.41,0-.03.03-.05.04-.08-.3.48-.55.99-.75,1.51-.29.78-.46,1.75.02,2.41.18.23.41.42.67.54.76.39,1.65.44,2.45.13.59-.23,1.11-.65,1.73-.75.55-.09,1.29.25,1.34.92.06.78-.5,1.14-.25,2.01.38,1.32,1.63,2.21,1.79,3.63.07.72-.19,1.4-.36,2.09s-.21,1.5.2,2.05c.46.61,1.28.67,2,.67s1.65-.04,2.11-.72c.2-.34.33-.71.38-1.1-.49.35-1.17.39-1.78.38Z"/><path class="cls-10" d="m312.62,61.19c-1.02.52-2.25.36-3.28-.14s-1.92-1.29-2.81-2.05c-.4-.39-.88-.69-1.4-.89-.53-.19-1.12-.05-1.51.36-.24.36-.4.77-.45,1.2.38-.22.83-.27,1.24-.13.52.2,1,.5,1.4.89.89.75,1.79,1.55,2.81,2.05s2.26.67,3.28.14c.9-.53,1.56-1.39,1.84-2.41-.29.41-.68.74-1.12.98Z"/></g><circle class="cls-2" cx="223.59" cy="204.25" r="10.73"/><circle class="cls-5" cx="223.59" cy="204.25" r="10.73"/><circle class="cls-11" cx="223.59" cy="204.25" r="6.8"/><circle class="cls-5" cx="223.59" cy="204.25" r="6.8"/><path class="cls-2" d="m215.36,187.43l7.04,15.92c.3.69,1.11,1.01,1.8.7.3-.13.54-.36.68-.65l8.37-17.04-17.89,1.07Z"/><path class="cls-5" d="m215.36,187.43l7.04,15.92c.3.69,1.11,1.01,1.8.7.3-.13.54-.36.68-.65l8.37-17.04-17.89,1.07Z"/><circle class="cls-2" cx="156.69" cy="204.25" r="10.73"/><circle class="cls-5" cx="156.69" cy="204.25" r="10.73"/><circle class="cls-11" cx="156.69" cy="204.25" r="6.8"/><circle class="cls-5" cx="156.69" cy="204.25" r="6.8"/><path class="cls-2" d="m148.47,187.43l7.04,15.92c.3.69,1.11,1.01,1.8.7.3-.13.54-.36.68-.65l8.37-17.04-17.89,1.07Z"/><path class="cls-5" d="m148.47,187.43l7.04,15.92c.3.69,1.11,1.01,1.8.7.3-.13.54-.36.68-.65l8.37-17.04-17.89,1.07Z"/><path class="cls-2" d="m258.42,110.78c-.06-.55-.4-1.03-.89-1.28-.85-.36-1.82.03-2.18.88,0,.02-.01.03-.02.05l-6.16,15.29-1.79,68.69h2.86l1.07-68.54,6.95-14.05c.16-.32.21-.68.15-1.04Z"/><polygon class="cls-8" points="131.83 189.04 141.49 182.96 245.77 182.06 248.46 189.04 131.83 189.04"/><polygon class="cls-2" points="131.83 195.48 131.83 189.04 250.34 187.9 250.23 192.26 133.98 192.26 133.98 195.48 131.83 195.48"/><circle class="cls-2" cx="146.86" cy="208" r="10.73"/><circle class="cls-11" cx="146.86" cy="208" r="6.8"/><path class="cls-2" d="m138.63,191.19l7.04,15.92c.3.69,1.11,1.01,1.8.7.3-.13.54-.36.68-.65l8.37-17.04-17.89,1.07Z"/><circle class="cls-2" cx="230.21" cy="208" r="10.73"/><circle class="cls-11" cx="230.21" cy="208" r="6.8"/><path class="cls-2" d="m221.98,191.19l7.04,15.92c.3.69,1.11,1.01,1.8.7.3-.13.54-.36.68-.65l8.37-17.04-17.89,1.07Z"/><rect class="cls-11" x="145.25" y="160.96" width="44.72" height="24.68"/><rect class="cls-5" x="160.99" y="165.25" width="13.59" height="2.86"/><rect class="cls-5" x="162.69" y="165.61" width="10.2" height="2.15"/><rect class="cls-11" x="190.68" y="160.96" width="44.72" height="24.68"/><rect class="cls-5" x="206.42" y="165.25" width="13.59" height="2.86"/><rect class="cls-5" x="208.12" y="165.61" width="10.2" height="2.15"/><rect class="cls-11" x="145.25" y="135.56" width="44.72" height="24.68"/><rect class="cls-5" x="160.99" y="139.85" width="13.59" height="2.86"/><rect class="cls-5" x="162.69" y="140.21" width="10.2" height="2.15"/><rect class="cls-11" x="190.68" y="135.56" width="44.72" height="24.68"/><rect class="cls-5" x="206.42" y="139.85" width="13.59" height="2.86"/><rect class="cls-5" x="208.12" y="140.21" width="10.2" height="2.15"/><rect class="cls-11" x="145.25" y="109.8" width="44.72" height="24.68"/><rect class="cls-5" x="160.99" y="114.09" width="13.59" height="2.86"/><rect class="cls-5" x="162.69" y="114.45" width="10.2" height="2.15"/><rect class="cls-11" x="190.68" y="109.8" width="44.72" height="24.68"/><rect class="cls-5" x="206.42" y="114.09" width="13.59" height="2.86"/><rect class="cls-5" x="208.12" y="114.45" width="10.2" height="2.15"/><rect class="cls-11" x="190.68" y="84.04" width="44.72" height="24.68"/><rect class="cls-5" x="206.42" y="88.33" width="13.59" height="2.86"/><rect class="cls-5" x="208.12" y="88.69" width="10.2" height="2.15"/></g></svg>