<?xml version="1.0" encoding="UTF-8"?><svg id="Ebene_2" xmlns="http://www.w3.org/2000/svg" xmlns:xlink="http://www.w3.org/1999/xlink" viewBox="0 0 345.82 334.76"><defs><style>.cls-1{fill:url(#Unbenannter_Verlauf_2-5);}.cls-2{fill:#343434;}.cls-3{fill:url(#Unbenannter_Verlauf_2-2);}.cls-4{fill:url(#Unbenannter_Verlauf_2);}.cls-5{fill:url(#Unbenannter_Verlauf_2-6);}.cls-6{opacity:.5;}.cls-7{fill:#be7c5e;}.cls-8{fill:#868686;}.cls-9{fill:url(#Unbenannter_Verlauf_2-8);}.cls-10{fill:#010101;isolation:isolate;opacity:.1;}.cls-11{stroke-linecap:round;stroke-linejoin:round;}.cls-11,.cls-12{fill:none;stroke:#343434;stroke-width:2px;}.cls-13{fill:url(#Unbenannter_Verlauf_2-4);}.cls-14{fill:#f7b798;}.cls-15{fill:#f5a47f;}.cls-16{fill:#3069b2;}.cls-17{fill:#72361d;}.cls-18{fill:url(#Unbenannter_Verlauf_2-3);}.cls-19{fill:#fdd836;}.cls-12{stroke-miterlimit:10;}.cls-20{fill:url(#Unbenannter_Verlauf_2-7);}.cls-21{fill:#2f69b2;opacity:.3;}.cls-22{fill:#ec6047;}</style><linearGradient id="Unbenannter_Verlauf_2" x1="51.65" y1="-289.99" x2="51.65" y2="-187.42" gradientTransform="translate(0 -184.67) scale(1 -1)" gradientUnits="userSpaceOnUse"><stop offset="0" stop-color="#808181" stop-opacity=".25"/><stop offset=".54" stop-color="#808181" stop-opacity=".12"/><stop offset="1" stop-color="#808181" stop-opacity=".1"/></linearGradient><linearGradient id="Unbenannter_Verlauf_2-2" x1="170.41" y1="-401.61" x2="170.41" y2="-299.04" xlink:href="#Unbenannter_Verlauf_2"/><linearGradient id="Unbenannter_Verlauf_2-3" x1="170.37" y1="-287.47" x2="170.37" y2="-184.9" xlink:href="#Unbenannter_Verlauf_2"/><linearGradient id="Unbenannter_Verlauf_2-4" x1="292.62" y1="-287.25" x2="292.62" y2="-184.67" xlink:href="#Unbenannter_Verlauf_2"/><linearGradient id="Unbenannter_Verlauf_2-5" x1="51.29" y1="-398.25" x2="51.29" y2="-295.68" xlink:href="#Unbenannter_Verlauf_2"/><linearGradient id="Unbenannter_Verlauf_2-6" x1="294.53" y1="-403.94" x2="294.53" y2="-301.37" xlink:href="#Unbenannter_Verlauf_2"/><linearGradient id="Unbenannter_Verlauf_2-7" y1="-513.55" y2="-410.98" xlink:href="#Unbenannter_Verlauf_2"/><linearGradient id="Unbenannter_Verlauf_2-8" x1="173.49" y1="-519.43" x2="173.49" y2="-416.86" xlink:href="#Unbenannter_Verlauf_2"/></defs><g id="Ebene_1-2"><g class="cls-6"><circle class="cls-4" cx="51.65" cy="54.03" r="51.29"/></g><circle class="cls-21" cx="51.65" cy="53.75" r="50.2"/><path class="cls-16" d="m51.8,104.1c9.81.02,19.41-2.86,27.6-8.26-1.85-10.11-8.89-10.69-8.89-10.69H31.69s-6.64.54-8.72,9.85c8.44,5.94,18.51,9.11,28.83,9.1Z"/><circle class="cls-2" cx="51.27" cy="52.64" r="22.26"/><path class="cls-10" d="m43.45,72.83h15.53v12.42c0,4.29-3.48,7.76-7.76,7.76h0c-4.29,0-7.76-3.48-7.76-7.76h0v-12.42h0Z"/><path class="cls-7" d="m44.93,72.25h12.56c.82,0,1.48.66,1.48,1.48h0v10.94c0,4.29-3.48,7.76-7.76,7.76h0c-4.29,0-7.76-3.48-7.76-7.76h0v-10.94c0-.82.66-1.48,1.48-1.48Z"/><path class="cls-10" d="m43.48,78.69c5,1.87,10.51,1.89,15.53.04v-1.91h-15.53v1.86Z"/><circle class="cls-7" cx="51.27" cy="57.48" r="22.26"/><path class="cls-2" d="m37.78,48.3c.26-.96.59-2.02,1.45-2.52.68-.4,1.53-.34,2.31-.3,6.15.34,12.25-1.07,18.23-2.53,3.42-.84,7.08-1.85,9.29-4.61s-.67-11.42-4.04-12.44c-2.21-.68-4.78.58-6.88-.41-.93-.44-1.62-1.27-2.43-1.92-1.65-1.33-3.77-1.86-5.82-2.37-2.4-.59-4.99-1.17-7.27-.22-1.77.73-3.06,2.29-4.74,3.21-3.19,1.77-7.08.95-10.74.94-1.23,0-2.71.25-3.2,1.38-.33.77-.07,1.65-.03,2.48.11,2.66-2.08,4.72-3.92,6.64-1.84,1.92-3.57,4.65-2.41,7.03.44.91,1.25,1.59,1.71,2.49.79,1.56.39,3.44.68,5.16.29,1.31.78,2.56,1.45,3.72,1.36,2.66,8.21,16.95,11.36,13.32,1.52-1.77,1.77-6.89,2.39-9.19.85-3.31,1.72-6.6,2.6-9.86Z"/><ellipse class="cls-7" cx="35.43" cy="56.67" rx="2.07" ry="3.88"/><g class="cls-6"><circle class="cls-3" cx="170.41" cy="165.65" r="51.29"/></g><circle class="cls-21" cx="170.51" cy="165.33" r="50.2"/><path class="cls-16" d="m170.56,215.73c9.8.01,19.4-2.86,27.58-8.26-1.85-10.11-8.89-10.69-8.89-10.69h-38.8s-6.64.54-8.72,9.85c8.44,5.94,18.51,9.12,28.83,9.1Z"/><circle class="cls-22" cx="170.03" cy="164.27" r="24.23"/><path class="cls-10" d="m162.21,184.45h15.53v12.42c0,4.29-3.48,7.76-7.76,7.76h0c-4.29,0-7.76-3.48-7.76-7.76h0v-12.42h0Z"/><path class="cls-15" d="m163.69,183.88h12.56c.82,0,1.48.66,1.48,1.48h0v10.94c0,4.29-3.48,7.76-7.76,7.76h0c-4.29,0-7.76-3.48-7.76-7.76h0v-10.94c0-.82.66-1.48,1.48-1.48h0Z"/><path class="cls-10" d="m162.24,190.32c5,1.87,10.51,1.89,15.53.04v-1.91h-15.53v1.86Z"/><circle class="cls-15" cx="170.03" cy="169.1" r="22.26"/><circle class="cls-22" cx="169.99" cy="139.62" r="8.96"/><circle class="cls-22" cx="169.99" cy="130.8" r="5.88"/><path class="cls-22" d="m166.11,144.53c-4.37-1.96-6.42-7-4.67-11.45-.06.12-.12.25-.18.38-2.02,4.51,0,9.82,4.51,11.84,4.51,2.02,9.82,0,11.84-4.51.06-.13.11-.26.16-.39-2.16,4.27-7.3,6.09-11.66,4.13Z"/><path class="cls-10" d="m154.18,148.86s9.38,19.03,35.85,7.97l-6.16-9.66-10.92-3.92-18.77,5.62Z"/><path class="cls-22" d="m154.18,148.58s9.38,19.03,35.85,7.97l-6.16-9.66-10.92-3.92-18.77,5.62Z"/><path class="cls-2" d="m161.4,141.64c5.77-.45,11.57-.45,17.34,0,0,0-12.81,1.19-17.34,0Z"/><path class="cls-22" d="m171.34,124.56c-.44-.02-.89.02-1.33.1h.34c3.24.1,5.79,2.82,5.69,6.06-.09,2.76-2.09,5.09-4.8,5.59,3.25.03,5.9-2.58,5.93-5.82.03-3.25-2.58-5.9-5.82-5.93h0Z"/><ellipse class="cls-15" cx="147.77" cy="169.08" rx="2.07" ry="3.88"/><ellipse class="cls-15" cx="192.28" cy="169.08" rx="2.07" ry="3.88"/><polygon class="cls-22" points="152.77 149.14 157.12 146.9 158.09 150.49 155.43 152.3 152.77 149.14"/><g class="cls-6"><circle class="cls-18" cx="170.37" cy="51.51" r="51.29"/></g><circle class="cls-21" cx="170.37" cy="51.23" r="50.2"/><path class="cls-2" d="m150.78,51.68s-5.69,28.04-8.8,26.49c0,0,29.96,25.88,56.42,0,0,0-4.66-19.76-11.39-26.49h-36.23Z"/><path class="cls-16" d="m170.51,101.59c9.81.02,19.41-2.86,27.6-8.26-1.85-10.11-8.89-10.69-8.89-10.69h-38.82s-6.64.54-8.72,9.85c8.44,5.94,18.51,9.12,28.83,9.1Z"/><circle class="cls-2" cx="169.98" cy="50.13" r="22.26"/><path class="cls-10" d="m162.16,70.31h15.53v12.42c0,4.28-3.47,7.75-7.75,7.76h0c-4.29,0-7.76-3.48-7.76-7.76v-12.42h-.02Z"/><path class="cls-7" d="m163.64,69.74h12.56c.82,0,1.48.66,1.48,1.48h0v10.94c0,4.28-3.47,7.75-7.75,7.76h0c-4.29,0-7.76-3.48-7.76-7.76h0v-10.94c0-.81.65-1.47,1.46-1.48Z"/><path class="cls-10" d="m162.19,76.17c5,1.87,10.51,1.89,15.53.04v-1.91h-15.53v1.86Z"/><circle class="cls-7" cx="169.98" cy="54.96" r="22.26"/><path class="cls-2" d="m148.7,46.5h42.44s-3.62-17.14-19.67-16.04c-16.04,1.09-22.77,16.04-22.77,16.04Z"/><ellipse class="cls-7" cx="148.18" cy="54.01" rx="2.07" ry="3.88"/><ellipse class="cls-7" cx="191.66" cy="54.01" rx="2.07" ry="3.88"/><path class="cls-10" d="m148.7,47.08h42.44s-3.62-17.14-19.67-16.04-22.77,16.04-22.77,16.04Z"/><g class="cls-6"><circle class="cls-13" cx="292.62" cy="51.29" r="51.29"/></g><circle class="cls-21" cx="292.72" cy="50.95" r="50.2"/><path class="cls-16" d="m292.76,101.36c9.81.02,19.41-2.86,27.6-8.26-1.85-10.11-8.89-10.69-8.89-10.69h-38.82s-6.64.54-8.72,9.85c8.44,5.94,18.51,9.12,28.83,9.1Z"/><circle class="cls-17" cx="292.24" cy="49.9" r="24.23"/><path class="cls-10" d="m284.41,70.08h15.53v12.42c0,4.29-3.46,7.77-7.75,7.78,0,0,0,0-.01,0h0c-4.29,0-7.76-3.48-7.76-7.76v-12.44h0Z"/><path class="cls-15" d="m285.88,69.51h12.56c.82,0,1.48.66,1.48,1.48v10.94c0,4.29-3.48,7.76-7.76,7.76h0c-4.29,0-7.76-3.48-7.76-7.76v-10.94c0-.82.66-1.48,1.48-1.48h0Z"/><path class="cls-10" d="m284.43,75.94c5,1.87,10.51,1.89,15.53.04v-1.91h-15.53v1.86Z"/><circle class="cls-15" cx="292.24" cy="54.73" r="22.26"/><path class="cls-10" d="m276.39,34.49s9.38,19.03,35.85,7.97l-6.16-9.66-10.92-3.92-18.77,5.62Z"/><path class="cls-17" d="m276.39,34.21s9.38,19.03,35.85,7.97l-6.16-9.66-10.92-3.92-18.77,5.62Z"/><path class="cls-17" d="m276.3,32.92c.63-1.96,1.72-3.73,3.19-5.18,4.38-4.33,11.55-5.24,15.24-10.18.79,1.38.31,3.14-1.07,3.93-.08.05-.17.09-.26.13,3.54-.02,7.62-.33,9.61-3.23,1.01,2.34.57,5.05-1.11,6.97,3.12.14,6.46,2.26,6.66,5.39.13,2.08-1.17,4.05-2.88,5.24-1.71,1.19-3.77,1.73-5.81,2.17-5.94,1.33-27.44,6.82-23.57-5.24Z"/><path class="cls-17" d="m314.49,54.92h-.59l-11.48,10.23c-11.06-5.18-19.18,0-19.18,0l-12.04-9.8-1.21.15c.35,12.29,10.59,21.97,22.87,21.62,12.02-.34,21.6-10.17,21.63-22.19h0Zm-22.29,14.14c-4.33,0-7.84-.89-7.84-1.96s3.51-1.96,7.84-1.96,7.84.89,7.84,1.96-3.51,1.96-7.84,1.96h0Z"/><ellipse class="cls-15" cx="269.97" cy="54.71" rx="2.07" ry="3.88"/><ellipse class="cls-15" cx="314.49" cy="54.71" rx="2.07" ry="3.88"/><g class="cls-6"><circle class="cls-1" cx="51.29" cy="162.29" r="51.29"/></g><circle class="cls-21" cx="51.38" cy="161.97" r="50.2"/><path class="cls-16" d="m51.43,212.37c9.81.02,19.4-2.86,27.59-8.26-1.85-10.11-8.89-10.69-8.89-10.69H31.3s-6.64.54-8.72,9.85c8.45,5.94,18.52,9.12,28.85,9.1Z"/><circle class="cls-2" cx="50.9" cy="160.91" r="24.23"/><path class="cls-10" d="m43.08,181.09h15.53v12.42c0,4.29-3.48,7.76-7.76,7.76h0c-4.29,0-7.76-3.48-7.76-7.76h0v-12.42h0Z"/><path class="cls-14" d="m44.56,180.52h12.56c.82,0,1.48.66,1.48,1.48h0v10.95c0,4.29-3.48,7.76-7.76,7.76h0c-4.29,0-7.76-3.47-7.77-7.76h0v-10.96c0-.82.66-1.48,1.48-1.48h0Z"/><path class="cls-10" d="m43.11,186.96c5,1.87,10.51,1.89,15.53.04v-1.92h-15.53v1.88Z"/><circle class="cls-14" cx="50.9" cy="165.74" r="22.26"/><path class="cls-10" d="m35.05,145.49s9.38,19.03,35.85,7.97l-6.16-9.66-10.92-3.92-18.77,5.62Z"/><path class="cls-2" d="m35.05,145.22s9.38,19.03,35.85,7.97l-6.16-9.66-10.92-3.92-18.77,5.62Z"/><path class="cls-2" d="m34.97,143.92c.63-1.96,1.72-3.73,3.19-5.18,4.38-4.33,11.55-5.24,15.24-10.18.79,1.38.31,3.14-1.07,3.93-.08.05-.17.09-.26.13,3.54-.02,7.62-.33,9.61-3.23,1.01,2.34.57,5.05-1.11,6.97,3.12.14,6.46,2.26,6.66,5.39.13,2.08-1.17,4.05-2.88,5.24s-3.78,1.74-5.82,2.19c-5.94,1.32-27.44,6.81-23.56-5.25Z"/><ellipse class="cls-14" cx="28.63" cy="165.72" rx="2.07" ry="3.88"/><ellipse class="cls-14" cx="73.15" cy="165.72" rx="2.07" ry="3.88"/><g class="cls-6"><circle class="cls-5" cx="294.53" cy="167.98" r="51.29"/></g><circle class="cls-21" cx="294.53" cy="167.7" r="50.2"/><path class="cls-16" d="m294.68,218.05c9.81.02,19.41-2.86,27.6-8.26-1.85-10.11-8.89-10.69-8.89-10.69h-38.82s-6.64.54-8.72,9.85c8.44,5.94,18.51,9.12,28.83,9.1Z"/><path class="cls-10" d="m286.33,186.78h15.53v12.42c0,4.29-3.48,7.76-7.76,7.76h0c-4.29,0-7.76-3.47-7.77-7.76h0v-12.43h0Z"/><path class="cls-14" d="m287.81,186.2h12.56c.82,0,1.48.66,1.48,1.48v10.94c0,4.29-3.48,7.76-7.76,7.76h0c-4.29,0-7.76-3.47-7.77-7.76h0v-10.94c0-.82.66-1.48,1.48-1.48h0Z"/><path class="cls-10" d="m286.36,192.64c5,1.87,10.51,1.89,15.53.04v-1.91h-15.53v1.86Z"/><circle class="cls-14" cx="294.15" cy="171.43" r="22.26"/><ellipse class="cls-14" cx="272.35" cy="170.48" rx="2.07" ry="3.88"/><ellipse class="cls-14" cx="315.83" cy="170.48" rx="2.07" ry="3.88"/><rect class="cls-12" x="280.59" y="171.53" width="9.52" height="4.76" rx="1.93" ry="1.93"/><rect class="cls-12" x="298.19" y="171.53" width="9.52" height="4.76" rx="1.93" ry="1.93"/><path class="cls-12" d="m289.74,171.99s3.02-1.64,8.63,0"/><path class="cls-8" d="m309.53,155.3l5.46,12.69s6.68-8.42-5.46-12.69Z"/><line class="cls-11" x1="307.71" y1="173.92" x2="315.86" y2="166.64"/><path class="cls-8" d="m278.77,155.3l-5.46,12.69s-6.68-8.42,5.46-12.69Z"/><line class="cls-11" x1="280.59" y1="173.92" x2="272.32" y2="166.64"/><g class="cls-6"><circle class="cls-20" cx="51.65" cy="277.59" r="51.29"/></g><circle class="cls-21" cx="51.65" cy="277.31" r="50.2"/><path class="cls-19" d="m79.42,281.82c0,18.49-12.06,39.07-26.95,39.07s-26.93-20.58-26.93-39.07,12.06-27.88,26.95-27.88,26.93,9.4,26.93,27.88Z"/><path class="cls-16" d="m51.8,327.67c9.81.02,19.41-2.86,27.6-8.26-1.85-10.11-8.89-10.69-8.89-10.69H31.69s-6.64.54-8.72,9.85c8.44,5.94,18.51,9.11,28.83,9.1Z"/><path class="cls-10" d="m43.45,296.39h15.53v12.42c0,4.29-3.48,7.76-7.76,7.76h0c-4.29,0-7.76-3.48-7.76-7.76v-12.42h0Z"/><path class="cls-14" d="m44.93,295.81h12.56c.82,0,1.48.66,1.48,1.48v10.94c0,4.29-3.48,7.76-7.76,7.76h0c-4.29,0-7.76-3.48-7.76-7.76v-10.94c0-.82.66-1.48,1.48-1.48Z"/><path class="cls-10" d="m43.48,302.25c5,1.87,10.51,1.89,15.53.04v-1.91h-15.53v1.86Z"/><circle class="cls-14" cx="51.27" cy="281.04" r="22.26"/><ellipse class="cls-14" cx="29.47" cy="280.09" rx="2.07" ry="3.88"/><ellipse class="cls-14" cx="72.95" cy="280.09" rx="2.07" ry="3.88"/><path class="cls-10" d="m31.55,268.96s12.58,17.22,41.44,11.34c0,0,3.22-3.92-4.62-15.96s-29.68-10.08-36.82,4.62Z"/><path class="cls-19" d="m31.55,268.69s12.58,17.22,41.44,11.34c0,0,3.22-3.92-4.62-15.96-7.84-12.04-29.68-10.08-36.82,4.62Z"/><g class="cls-6"><circle class="cls-9" cx="173.49" cy="283.47" r="51.29"/></g><circle class="cls-21" cx="173.59" cy="283.14" r="50.2"/><path class="cls-2" d="m201.21,288.09c0,16.7-12,24.92-27.58,24.92s-28.84-8.22-28.84-24.92,12.63-30.24,28.21-30.24,28.21,13.52,28.21,30.24Z"/><path class="cls-16" d="m173.63,333.54c9.81.02,19.41-2.86,27.6-8.26-1.85-10.11-8.89-10.69-8.89-10.69h-38.82s-6.64.54-8.72,9.85c8.44,5.94,18.51,9.11,28.83,9.1Z"/><path class="cls-10" d="m165.29,302.26h15.53v12.42c0,4.29-3.46,7.77-7.75,7.78-.01,0-.02,0-.03,0h0c-4.29,0-7.76-3.48-7.76-7.76v-12.44h.01Z"/><path class="cls-15" d="m166.76,301.7h12.56c.82,0,1.48.66,1.48,1.48v10.94c0,4.29-3.48,7.76-7.76,7.76h-.01c-4.29,0-7.76-3.48-7.76-7.76v-10.94c0-.82.66-1.48,1.48-1.48h0Z"/><path class="cls-10" d="m165.32,308.13c5,1.87,10.51,1.89,15.53.04v-1.91h-15.53v1.86Z"/><circle class="cls-15" cx="173.11" cy="286.91" r="22.26"/><path class="cls-10" d="m147.46,288.37s13.86-1.68,24.34-15.12c0,0,13.86,15.26,23.52,13.58,0,0,5.6-5.88,0-11.76-5.6-5.88-9.94-13.3-17.36-12.32-7.42.98-16.52,1.4-20.44,4.9-3.92,3.5-10.06,20.72-10.06,20.72Z"/><path class="cls-2" d="m147.46,288.09s13.86-1.68,24.34-15.12c0,0,13.86,15.26,23.52,13.58,0,0,5.6-5.88,0-11.76-5.6-5.88-9.94-13.3-17.36-12.32-7.42.98-16.5,1.38-20.42,4.92-3.92,3.54-10.08,20.7-10.08,20.7Z"/><ellipse class="cls-15" cx="150.84" cy="286.9" rx="2.07" ry="3.88"/><ellipse class="cls-15" cx="195.36" cy="286.9" rx="2.07" ry="3.88"/></g></svg>