<svg xmlns="http://www.w3.org/2000/svg" xmlns:xlink="http://www.w3.org/1999/xlink" viewBox="0 0 400 300" width="406" height="306" class="illustration styles_illustrationTablet__1DWOa"><defs><linearGradient id="linear-gradient" x1="64.78" y1="231.43" x2="99.26" y2="201.67" gradientTransform="matrix(-1, 0, 0, 1, 375.73, 0)" gradientUnits="userSpaceOnUse"><stop offset="0" stop-color="#fff" stop-opacity="0"></stop><stop offset="1" stop-color="#d4145a"></stop></linearGradient><linearGradient id="linear-gradient-2" x1="143.53" y1="173.4" x2="178" y2="143.64" xlink:href="#linear-gradient"></linearGradient><linearGradient id="linear-gradient-3" x1="164.47" y1="242.41" x2="198.94" y2="212.65" xlink:href="#linear-gradient"></linearGradient></defs><title>0</title><g style="isolation: isolate;"><g id="Layer_2" data-name="Layer 2"><path d="M210.58,106.27c-44.65-6-106.82-2.09-134.8,39.45-6.68,9.91-10.1,22.43-7.33,34.06,6.28,26.35,39.09,45,61.64,55.58,27,12.61,56.59,19.2,86.24,20.9,29.22,1.67,60.08,1.41,87.78-9.14,20.05-7.64,37.76-22.21,41.29-44.4,6.36-40-36.85-66.55-68.36-79.07A286.4,286.4,0,0,0,210.58,106.27Z" fill="#c26558"></path><polyline points="241.24 203.99 299.2 237.99 332.8 217.57 285.35 189.87" opacity="0.63" fill="url(#linear-gradient)" style="mix-blend-mode: multiply;"></polyline><polyline points="162.5 145.96 220.46 179.96 254.06 159.54 206.61 131.84" opacity="0.63" fill="url(#linear-gradient-2)" style="mix-blend-mode: multiply;"></polyline><path d="M217.15,141.59s-1.07-17.17-1.47-21.42c-.36-3.84-1.64-20.72-12.2-26-13.34-6.74-28.72-15.48-42.93-11.41C149,86,145.11,125.87,145.24,128.53,145.47,133.31,181.2,158.55,217.15,141.59Z" fill="#2b415d"></path><path d="M194.24,89.45s2.47,14.94-11.61,16.13c-9.85.83-7.66-7.16-7.66-7.16s-4.82,3.91-9.94.89,3.26-14.94,7.09-15.73S185.09,83,194.24,89.45Z" fill="#206bc4"></path><circle cx="197.31" cy="51.88" r="11.12" fill="#4b1b13"></circle><path d="M165.63,61.17a13.42,13.42,0,0,1-2.91-7.78,12.62,12.62,0,0,1,.19-4.09,5.71,5.71,0,0,1,2.65-3.3,13.64,13.64,0,0,0,2.59-2.21s29.09-5.65,32.42,11.29h0c.61,4.75.26,19.06-12.75,25.06-13.21,6.08-7.08-15.5-7.08-15.5" fill="#4b1b13"></path><path d="M172.67,85.27,190,76.78l-1.47,12.07s-.12.23-.35.59c-3.15,2.9-8,3.77-12.79,3.45a2.18,2.18,0,0,1-2-2C173.22,89,173,87.14,172.67,85.27Z" fill="#ffac73"></path><path d="M165.07,57.94s-1-5.67,5.36-6.65c1.71-.26,3.34-.27,4.38,1.33,1.28,2,1.46,4.29,3.31,6a6.5,6.5,0,0,0,6.78,1.08c.05,1.88-.23,3.3-2.53,3.91S166.87,61.64,165.07,57.94Z" fill="#ffac73"></path><path d="M188.05,52.57c-6.93-2.47-13.52-3.92-20.87-2.93a1.27,1.27,0,0,0-1.2,1.24c-.54-2.94-1.25-10.37,4.74-12.62,7.52-2.83,20.09.74,23.56,7.52a21.56,21.56,0,0,1,2.41,10.83C194.21,54.67,191.08,53.65,188.05,52.57Z" fill="#4b1b13"></path><path d="M173.12,88.39l.27,2.54s11.56-.33,13.16-9.72Z" fill="#e28e54"></path><path d="M165,57.42s.06,11.15,0,15.3c-.06,4.37,4.32,15.81,9,15.8,7.25,0,14.55-8.74,14.55-10.65,0,0,7.26-4.52,3.16-8s-4.42,2.41-4.42,2.41S185.05,69,184.9,60.37C184.9,60.37,174.65,62,165,57.42Z" fill="#ffac73"></path><path d="M154.71,137.2a21.5,21.5,0,0,1-1.94-1.34,129.61,129.61,0,0,1,3.47-25.81c.35-1.48,2.63-.85,2.28.63a126.78,126.78,0,0,0-3.44,26.72Z" fill="#17283a"></path><path d="M199,146.95a7,7,0,0,0-1,.09l-.87-29.78a1.18,1.18,0,0,1,2.36,0l.86,29.59A8.21,8.21,0,0,0,199,146.95Z" fill="#17283a"></path><path d="M190.39,80.52a17.6,17.6,0,0,1-5.08-9.31c-.89-5.56,6.54-3,7.74-.64S193.83,79.23,190.39,80.52Z" fill="#4b1b13"></path><polyline points="141.56 214.97 199.52 248.97 233.11 228.55 185.67 200.85" opacity="0.63" fill="url(#linear-gradient-3)" style="mix-blend-mode: multiply;"></polyline><path d="M301.14,206.83s-1.11-17.68-1.52-22.06c-.37-4-1.69-21.33-12.56-26.82C273.33,151,257.49,142,242.86,146.2c-11.86,3.4-15.9,44.44-15.77,47.18C227.33,198.3,264.12,224.3,301.14,206.83Z" fill="#2b415d"></path><path d="M273.05,160.07c0,.94-1.09,2.34-1.51,3.13-3.53,6.71-6.62,13.8-10,20.66-3.29,6.7-3.9,25.53-4.29,26.76,0,.12-13.48-4.89-13.59-4.82s-1.11-9.74-1.12-10.33c-.16-10.74-.95-16.22,1-24.49,1.4-5.87,4-9.84,5.3-15.7.64-2.8,1.09-6.15,2.49-8.7C252.94,143.72,273.05,153.78,273.05,160.07Z" fill="#206bc4"></path><path d="M279.1,212.7c-.37,0-.73,0-1.1.06q.16-11.09.06-22.17a1.22,1.22,0,0,1,2.43,0q.1,11-.06,22Z" fill="#17283a"></path><path d="M239,203.42h0a1.56,1.56,0,0,0-.25-.12l-.66-.36-.77-.42-.64-.35q0-13.18.78-26.33c.09-1.56,2.52-1.57,2.43,0q-.76,13.56-.79,27.13A1.22,1.22,0,0,1,239,203.42Z" fill="#17283a"></path><path d="M251.38,146.57s-2.64,18-1.14,19.8l6.16-4.83,3.66,7.65,15.31-13.29Z" fill="#2b415d"></path><path d="M248.68,118.95s.06,11.49,0,15.76c-.06,4.5,1.84,16.66,9.24,16.27s15-9,15-11c0,0,7.48-4.65,3.25-8.23s-4.55,2.48-4.55,2.48-2.29-3.33-2.45-12.27C269.15,122,258.59,123.64,248.68,118.95Z" fill="#ffac73"></path><path d="M272.56,151.92c-3.77,3.48-9.91,4.13-15.59,3.31a1.85,1.85,0,0,1-1.7-1.61c-.09-1.74-.2-3.48-.35-5.21l19.51-9.54-1.51,12.43S272.79,151.55,272.56,151.92Z" fill="#ffac73"></path><path d="M259.17,155.47c-.76-.06-1.52-.14-2.27-.24a1.78,1.78,0,0,1-1.64-1.55c0-.91-.09-1.81-.15-2.71,4.13,0,11.48-1,15.36-8.62A16.68,16.68,0,0,1,259.17,155.47Z" fill="#e5894a"></path><path d="M298,151c-6.91-7.63-10.23-22.79-10.23-22.79l-.08,0c-2-16.67-13.84-21.72-24.25-22.31s-18.28,3.35-18.84,10.35,4.13,9.95,4.13,9.95,17.62,5.1,18.78,2.93,1.39-12.24,2.42.94c.34,4.35.25,8.72.22,13.08A94.49,94.49,0,0,0,271.46,159c.64,3.92,1.22,8.29,5,10.43,5.79,3.24,14.1,3.25,19.8-.27a253,253,0,0,1,4.32,29.59S312.76,198,314.14,180,304.87,158.6,298,151Z" fill="#4b1b13"></path><path d="M198.76,218.37s-1.11-17.68-1.52-22.06c-.37-4-1.69-21.33-12.56-26.82-13.74-6.94-29.57-15.94-44.2-11.75-11.86,3.4-15.9,44.44-15.77,47.18C124.94,209.84,161.73,235.84,198.76,218.37Z" fill="#206bc4"></path><path d="M146.91,134.34s-2.91-2.38-4.6-7.89,1.13-13.5,7.1-14.24,7.8,2.35,7.8,2.35,22.25-3.94,25.68,13.51h0c.63,4.89,3.3,22.62-11.16,26.5s-9.26-16.65-9.26-16.65" fill="#4b1b13"></path><path d="M146.29,130.49s.06,11.49,0,15.76c-.06,4.5,1.84,16.66,9.24,16.27s15-9,15-11c0,0,7.48-4.65,3.25-8.23s-4.55,2.48-4.55,2.48-2.29-3.33-2.45-12.27C166.76,133.52,156.21,135.18,146.29,130.49Z" fill="#ffac73"></path><path d="M170.17,163.46c-3.77,3.48-9.91,4.13-15.59,3.31a1.85,1.85,0,0,1-1.7-1.61c-.09-1.74-.2-3.48-.35-5.21L172,150.42l-1.51,12.43S170.4,163.09,170.17,163.46Z" fill="#ffac73"></path><path d="M156.79,167c-.76-.06-1.52-.14-2.27-.24a1.78,1.78,0,0,1-1.64-1.55c0-.91-.09-1.81-.15-2.71,4.13,0,11.48-1,15.36-8.62A16.68,16.68,0,0,1,156.79,167Z" fill="#e5894a"></path><path d="M172,159.46c-1.58,1.05-3.2,2-4.84,3a39.81,39.81,0,0,1-7.28,3.54c-2.11.72-5.8,1.76-7-.89a4.06,4.06,0,0,1-.08-1.46,9.61,9.61,0,0,0-.06-1.77l0,0A5.69,5.69,0,0,1,150.2,160a.52.52,0,0,1-.1-.23h0s-5.13,14.67-4.32,15.37,7-2.89,7-2.89,2.64,5.41,3.68,5.94,14.54-11.33,16.34-14.7Z" fill="#d4dee8"></path><path d="M147.53,174.53c-.31.12-1,3.23,0,6.2,0,0,2.52,1.15,3,1s4.6-4.83,4.43-5.09-2.52-4.56-2.52-4.56Z" fill="#f47a63"></path><path d="M147.53,180.72s-9,35.13-8.41,35.44,8.44,4.34,11.22,4.53l.19-39" fill="#f47a63"></path><ellipse cx="147.94" cy="142.66" rx="3.87" ry="5.26" fill="none" stroke="#42210b" stroke-miterlimit="10" stroke-width="0.75"></ellipse><ellipse cx="158.83" cy="145.16" rx="4.29" ry="5.26" fill="none" stroke="#42210b" stroke-miterlimit="10" stroke-width="0.75"></ellipse><line x1="151.81" y1="143.93" x2="154.54" y2="144.32" fill="none" stroke="#42210b" stroke-miterlimit="10" stroke-width="0.75"></line><line x1="163.12" y1="145.16" x2="169.19" y2="143.64" fill="none" stroke="#42210b" stroke-miterlimit="10" stroke-width="0.75"></line></g></g></svg>