<svg width="900" height="600" viewBox="0 0 900 600" fill="none" xmlns="http://www.w3.org/2000/svg"><path fill="transparent" d="M2 2h896v596H2z"/><path d="M172.819 333.883c4.212 23.632 28.738 44.415 28.738 44.415s20.107-28.751 15.896-52.382c-4.228-23.636-17.623-41.011-29.952-38.804-12.325 2.192-18.893 23.14-14.682 46.771zm54.001 41.051c-16.44 17.484-18.466 49.561-18.466 49.561s35.058-1.013 51.502-18.513c16.444-17.5 22.376-38.618 13.242-47.191-9.118-8.568-29.838-1.341-46.278 16.143zm-19.645 121.071c-.74 4.101-1.032 6.974-1.109 7.705-.005.083-.022.147-.015.183l-.004.016s.016.004.02-.012l.116.014c.38-.017 1.516-.054 3.233-.157 9.184-.593 34.859-3.455 48.473-17.397 16.767-17.175 23.085-38.207 14.129-46.936-8.951-8.745-29.804-1.912-46.571 15.262-7.504 7.697-12.185 18.351-15.042 27.805a115.879 115.879 0 0 0-3.23 13.517zm-51.363-77.706c20.887 11.824 52.538 6.212 52.538 6.212s-9.309-33.835-30.196-45.659c-20.888-11.824-42.813-12.58-48.988-1.695-6.18 10.901 5.758 29.318 26.646 41.142z" fill="#E1E4E5"/><path d="M158.158 492.127c19.537 13.936 51.595 11.641 51.595 11.641s-5.738-34.618-25.275-48.554-41.275-16.98-48.546-6.781c-7.271 10.199 2.673 29.754 22.226 43.694z" fill="#E1E4E5"/><path d="M197.419 368.591c.114.338 9.362 32.996 6.182 116.049-.23 6.081-.537 12.447-.912 19.069l.403.023 2.959.161.005-.016.016.005.115.014c.38-.018 1.516-.055 3.233-.158.425-7.444.752-14.522.989-21.266 3.008-82.536-6.13-114.397-6.534-115.819l-6.456 1.938zm518.244-93.05c-5.68 31.871-38.757 59.901-38.757 59.901s-27.117-38.775-21.438-70.646c5.702-31.877 23.767-55.309 40.395-52.332 16.622 2.955 25.48 31.206 19.8 63.077zm-72.828 55.363c22.171 23.58 24.905 66.841 24.905 66.841s-47.282-1.366-69.459-24.968c-22.177-23.601-30.177-52.083-17.859-63.643 12.297-11.556 40.241-1.81 62.413 21.77zm26.494 163.283c.999 5.53 1.393 9.405 1.495 10.39.008.113.031.199.021.248l.006.021s-.022.006-.028-.015l-.156.018c-.512-.023-2.044-.073-4.359-.212-12.386-.8-47.014-4.66-65.374-23.462-22.612-23.163-31.133-51.528-19.055-63.3 12.071-11.794 40.196-2.58 62.808 20.583 10.121 10.38 16.433 24.749 20.286 37.499a155.923 155.923 0 0 1 4.356 18.23zM738.6 389.388c-28.17 15.946-70.855 8.378-70.855 8.378s12.554-45.631 40.724-61.578c28.17-15.946 57.739-16.967 66.067-2.286 8.334 14.701-7.766 39.539-35.936 55.486z" fill="#E1E4E5"/><path d="M735.437 488.957c-26.348 18.794-69.583 15.699-69.583 15.699s7.738-46.688 34.086-65.482c26.349-18.795 55.667-22.9 65.473-9.145 9.806 13.755-3.606 40.127-29.976 58.928z" fill="#E1E4E5"/><path d="M682.488 322.35c-.154.455-12.626 44.5-8.338 156.51.311 8.2.725 16.786 1.231 25.716l-.544.031-3.991.218-.006-.022-.022.006-.156.019c-.512-.024-2.044-.073-4.359-.212a1315.065 1315.065 0 0 1-1.334-28.68c-4.056-111.313 8.267-154.283 8.812-156.2l8.707 2.614z" fill="#E1E4E5"/><path stroke="#E1E4E5" stroke-width="4.355" d="M124.491 505.334h655.378"/><path d="M704.158 505.27H199.893c-14.865 0-26.865-11.871-26.865-26.442V167.469c0-14.572 12-26.443 26.865-26.443h504.265c14.864 0 26.864 11.871 26.864 26.443v311.359c0 14.571-12 26.442-26.864 26.442z" fill="#fff" stroke="#E1E4E5" stroke-width="4.355"/><path d="m298.432 210.155-78.585.145m130.497-23.811-130.975.241" stroke="#E1E4E5" stroke-width="4.355" stroke-linecap="round" stroke-linejoin="round"/><rect x="222.832" y="338.506" width="75.61" height="129.955" rx="10.888" fill="#206bc4"/><rect x="339.333" y="297.009" width="75.954" height="171.44" rx="10.888" fill="#206bc4"/><rect x="456.75" y="338.506" width="75.61" height="129.955" rx="10.888" fill="#206bc4"/><rect x="573.707" y="297.009" width="75.954" height="171.44" rx="10.888" fill="#206bc4"/><path d="m230.827 310.03 123.305-73.589 142.633 73.589 145.3-88.975" stroke="#E1E4E5" stroke-width="11.36" stroke-linecap="round" stroke-linejoin="round"/><path fill-rule="evenodd" clip-rule="evenodd" d="M758.009 159.778c0 36.213-27.217 70.072-63.796 78.294-36.579-8.222-63.796-42.081-63.796-78.294v-28.445a15.941 15.941 0 0 1 9.912-14.76l39.873-16.316a36.977 36.977 0 0 1 28.022 0l39.873 16.316a15.95 15.95 0 0 1 9.912 14.76v28.445z" fill="#206bc4"/><path d="m720.13 151.349-29.904 29.905-17.943-17.943" stroke="#fff" stroke-width="11.024" stroke-linecap="round" stroke-linejoin="round"/><path d="M808.781 265.101c-14.005 11.606-37.439 6.454-37.439 6.454s-.714-23.97 13.302-35.567c14.004-11.607 37.428-6.463 37.428-6.463s.713 23.969-13.291 35.576z" fill="url(#a)"/><path d="M392.677 115.238c6.942-4.754 7.628-15.831 7.628-15.831s-10.57-3.363-17.509 1.397c-6.941 4.754-7.63 15.825-7.63 15.825s10.57 3.362 17.511-1.391z" fill="url(#b)"/><path d="M96.08 204.153c17.592 17.907 50.492 14.131 50.492 14.131s4.353-32.808-13.256-50.703c-17.594-17.906-50.477-14.142-50.477-14.142s-4.353 32.808 13.24 50.714z" fill="url(#c)"/><circle cx="794.153" cy="407.865" r="8.861" transform="rotate(180 794.153 407.865)" fill="#206bc4"/><ellipse cx="304.067" cy="102.783" rx="12.478" ry="13.021" transform="rotate(180 304.067 102.783)" fill="#206bc4"/><circle r="15" transform="matrix(-1 0 0 1 133 304)" fill="#206bc4"/><circle r="16.246" transform="matrix(-1 0 0 1 574.586 178.723)" fill="#206bc4"/><circle r="8.861" transform="matrix(-1 0 0 1 700.699 297.748)" fill="#E1E4E5"/><circle r="5.968" transform="matrix(-1 0 0 1 142.387 385.442)" fill="#fff"/><circle r="5.968" transform="matrix(-1 0 0 1 147.814 458.141)" fill="#fff"/><circle r="5.968" transform="matrix(-1 0 0 1 752.196 343.124)" fill="#fff"/><circle r="5.968" transform="matrix(-1 0 0 1 746.773 444.035)" fill="#fff"/><circle r="7.572" transform="matrix(-1 0 0 1 171.322 115.705)" fill="#E1E4E5"/><circle r="11.558" transform="matrix(-1 0 0 1 797.908 162.221)" fill="#E1E4E5"/><circle r="7.56" transform="scale(1 -1) rotate(-75 -237.99 -262.658)" fill="#E1E4E5"/><circle r="10.057" transform="matrix(-1 0 0 1 428.99 191.437)" fill="#E1E4E5"/><ellipse rx="7.736" ry="6.189" transform="matrix(-1 0 0 1 666.173 393.876)" fill="#fff"/><ellipse rx="12.592" ry="9.941" transform="scale(-1 1) rotate(26.006 -1405.77 -1521.908)" fill="#E1E4E5"/><circle r="14.641" transform="scale(1 -1) rotate(-75 183.84 -386.265)" fill="#E1E4E5"/><path d="M807.261 327.874h.203c1.198 16.98 13.826 17.242 13.826 17.242s-13.925.271-13.925 19.892c0-19.621-13.925-19.892-13.925-19.892s12.623-.262 13.821-17.242zM595.479 93.955h.146c.864 12.426 9.971 12.617 9.971 12.617s-10.042.199-10.042 14.556c0-14.357-10.042-14.556-10.042-14.556s9.103-.191 9.967-12.617z" fill="#E1E4E5"/><defs><linearGradient id="a" x1="753.665" y1="304" x2="860.078" y2="169.688" gradientUnits="userSpaceOnUse"><stop stop-color="#fff"/><stop offset="1" stop-color="#EEE"/></linearGradient><linearGradient id="b" x1="416.98" y1="95.668" x2="343.725" y2="125.929" gradientUnits="userSpaceOnUse"><stop stop-color="#fff"/><stop offset="1" stop-color="#EEE"/></linearGradient><linearGradient id="c" x1="166.274" y1="265.318" x2="39.084" y2="65.936" gradientUnits="userSpaceOnUse"><stop stop-color="#fff"/><stop offset="1" stop-color="#EEE"/></linearGradient></defs></svg>