<svg width="900" height="600" viewBox="0 0 900 600" fill="none" xmlns="http://www.w3.org/2000/svg"><path fill="transparent" d="M0 0h900v600H0z"/><path d="M778.298 399.672h-63.427c-15.542 0-28.564-10.577-28.564-23.976 0-6.699 3.361-12.693 8.401-16.924 5.041-4.231 12.182-7.052 20.163-7.052h9.241c7.981 0 15.121-2.821 20.162-7.052 5.04-4.231 8.401-10.225 8.401-16.924 0-13.046-12.602-23.976-28.563-23.976H530.383c-5.061 0-8.314-6.222-8.314-11.283 0-12.693-12.182-22.919-27.303-22.919h-72.094a6.876 6.876 0 0 1 0-13.751h276.237c12.181 0 23.522-4.231 31.503-10.93 7.981-6.699 13.022-16.219 13.022-26.444 0-20.803-20.162-37.375-44.525-37.375H556.237c-22.387 0-44.546-17.277-66.932-17.277h-79.656c-11.684 0-21.155-9.471-21.155-21.155 0-11.684 9.471-21.156 21.155-21.156h178.367c8.401 0 16.382-2.82 21.843-7.404 5.46-4.584 8.821-10.93 8.821-18.335C618.68 81.635 604.818 70 588.016 70H176.79c-8.401 0-16.382 2.82-21.843 7.404-5.46 4.584-8.821 10.93-8.821 18.335 0 14.104 13.862 25.739 30.664 25.739h10.501c13.862 0 25.623 9.52 25.623 21.508 0 5.994-2.94 11.283-7.561 15.162-4.62 3.878-10.921 6.346-18.062 6.346h-50.826c-8.821 0-17.222 3.174-23.102 8.11-5.881 4.936-9.661 11.635-9.661 19.392 0 15.162 14.701 27.15 32.343 27.15h51.666c16.802 0 30.664 11.635 30.664 25.739 0 7.052-3.361 13.398-8.821 17.982-5.461 4.584-13.022 7.405-21.423 7.405h-46.205c-7.561 0-14.282 2.468-19.322 6.699-5.041 4.231-7.981 9.872-7.981 16.219 0 12.693 12.181 22.918 27.303 22.918h37.384c21.423 0 38.645 14.457 38.645 32.439 0 8.814-4.201 17.277-11.342 22.918-7.141 5.994-16.802 9.52-27.303 9.52h-52.086c-10.501 0-20.162 3.526-26.883 9.52C93.201 396.146 89 404.256 89 413.071c0 17.629 17.222 32.086 38.224 32.086h160.832c17.762 0 35.21 9.872 52.972 9.872h29.292c11.197 0 20.274 9.077 20.274 20.274 0 11.197-9.077 20.274-20.274 20.274h-71.296c-9.241 0-17.222 3.173-23.103 8.11-5.881 4.936-9.661 11.988-9.661 19.392 0 15.162 14.702 27.502 32.764 27.502h436.849c9.241 0 17.222-3.173 23.103-8.109 5.88-4.937 9.661-11.988 9.661-19.393 0-15.161-14.702-27.502-32.764-27.502h-13.022c-13.441 0-23.942-9.167-23.942-20.098 0-5.641 2.52-10.577 7.141-14.103 4.2-3.526 10.501-5.994 17.222-5.994h55.026c9.241 0 17.222-3.174 23.102-8.11 5.881-4.936 9.661-11.988 9.661-19.392 0-15.867-14.701-28.208-32.763-28.208z" fill="url(#a)"/><path d="M828.038 361.81c-10.697 5.306-24.895-1.517-24.895-1.517s3.156-15.423 13.858-20.722c10.697-5.306 24.889 1.509 24.889 1.509s-3.155 15.424-13.852 20.73z" fill="url(#b)"/><path d="M79.319 356.324c15.62 9.362 38.03.707 38.03.707s-2.931-23.829-18.56-33.18c-15.62-9.362-38.02-.718-38.02-.718s2.93 23.829 18.55 33.191z" fill="url(#c)"/><circle cx="790.355" cy="204.39" r="7.264" transform="rotate(180 790.355 204.39)" fill="#206bc4"/><circle cx="638.039" cy="456.663" r="13.662" transform="rotate(180 638.039 456.663)" fill="#206bc4"/><circle r="10.845" transform="matrix(-1 0 0 1 189.124 487.61)" fill="#206bc4"/><circle r="7.261" transform="matrix(-1 0 0 1 758.906 280.612)" fill="#206bc4"/><circle r="13.485" transform="matrix(-1 0 0 1 70.56 493.587)" fill="#E1E4E5"/><circle r="10.263" transform="matrix(-1 0 0 1 801.174 499.081)" fill="#E1E4E5"/><circle r="12.9" transform="matrix(-1 0 0 1 688.414 128.04)" fill="#E1E4E5"/><circle r="10.246" transform="scale(1 -1) rotate(-75 -77.144 -237.05)" fill="#E1E4E5"/><circle r="13.631" transform="matrix(-1 0 0 1 288.199 122.472)" fill="#E1E4E5"/><ellipse rx="10.485" ry="8.388" transform="matrix(-1 0 0 1 740.718 375.714)" fill="#E1E4E5"/><circle r="21.324" transform="scale(1 -1) rotate(-75 258.682 -421.188)" fill="#E1E4E5"/><path d="M189.669 135.362h.15c.884 12.532 10.204 12.725 10.204 12.725s-10.277.201-10.277 14.681c0-14.48-10.278-14.681-10.278-14.681s9.317-.193 10.201-12.725zm9.109 402.07h.144c.849 12.495 9.797 12.688 9.797 12.688s-9.867.2-9.867 14.637c0-14.437-9.868-14.637-9.868-14.637s8.945-.193 9.794-12.688z" fill="#E1E4E5"/><path d="M334.096 157.493c-8.874 93.556-8.494 193.803.011 283.783 1.551 16.417 15.468 28.757 31.958 28.757h167.288c16.606 0 30.579-12.511 32.014-29.056 7.938-91.515 8.03-191.703.025-283.216-1.445-16.527-15.41-29.013-32-29.013H366.054c-16.486 0-30.401 12.333-31.958 28.745z" fill="#206bc4" stroke="#206bc4" stroke-width="24.378" stroke-linejoin="round"/><path d="M449.471 335.957V177.503m60.944 36.566h-60.944m36.566 60.944h-36.566" stroke="#fff" stroke-width="22.352" stroke-linejoin="round"/><circle cx="449.471" cy="372.523" r="36.566" transform="rotate(-90 449.471 372.523)" stroke="#fff" stroke-width="22.352"/><defs><linearGradient id="a" x1="465.426" y1="820.023" x2="455.563" y2="-452.887" gradientUnits="userSpaceOnUse"><stop stop-color="#fff"/><stop offset="1" stop-color="#EEE"/></linearGradient><linearGradient id="b" x1="786.96" y1="378.362" x2="875.19" y2="308.572" gradientUnits="userSpaceOnUse"><stop stop-color="#fff"/><stop offset="1" stop-color="#EEE"/></linearGradient><linearGradient id="c" x1="139.764" y1="386.459" x2="14.079" y2="269.681" gradientUnits="userSpaceOnUse"><stop stop-color="#fff"/><stop offset="1" stop-color="#EEE"/></linearGradient></defs></svg>