<svg width="900" height="600" viewBox="0 0 900 600" fill="none" xmlns="http://www.w3.org/2000/svg"><path fill="transparent" d="M0 0h900v600H0z"/><path d="M230.815 290.644c0-15.686 3.752-31.214 11.019-45.538 37.781-74.474 121.373-122.495 213.692-122.495 92.32 0 175.912 48.021 213.693 122.495 7.267 14.324 11.019 29.852 11.019 45.538 0 15.686-3.752 31.214-11.019 45.539-37.781 74.474-121.373 122.495-213.693 122.495-92.319 0-175.911-48.021-213.692-122.495-7.267-14.325-11.019-29.853-11.019-45.539z" fill="#fff" stroke="#E1E4E5" stroke-width="4"/><path d="M230.399 290.65c0-9.586 3.624-19.165 10.795-28.098 37.617-46.864 121.218-77.357 213.91-77.357s176.294 30.493 213.911 77.357c7.171 8.933 10.794 18.512 10.794 28.098 0 9.587-3.623 19.166-10.794 28.099-37.617 46.863-121.219 77.357-213.911 77.357-92.692 0-176.293-30.494-213.91-77.357-7.171-8.933-10.795-18.512-10.795-28.099z" fill="#fff" stroke="#E1E4E5" stroke-width="4"/><mask id="a" fill="#fff"><path fill-rule="evenodd" clip-rule="evenodd" d="M531.35 214.77c41.977 41.967 41.977 110.095 0 152.133-41.977 41.967-110.122 41.967-152.171 0-41.977-41.966-41.977-110.095 0-152.133 42.049-42.038 110.158-42.038 152.171 0z"/></mask><path fill-rule="evenodd" clip-rule="evenodd" d="M531.35 214.77c41.977 41.967 41.977 110.095 0 152.133-41.977 41.967-110.122 41.967-152.171 0-41.977-41.966-41.977-110.095 0-152.133 42.049-42.038 110.158-42.038 152.171 0z" fill="#fff"/><path d="m531.35 366.903 2.828 2.829.003-.003-2.831-2.826zm-152.171 0-2.828 2.829.002.002 2.826-2.831zm0-152.133-2.828-2.829-.002.003 2.83 2.826zm149.343 2.829c40.413 40.403 40.417 106-.002 146.478l5.661 5.652c43.535-43.598 43.538-114.258-.003-157.788l-5.656 5.658zm0 146.475c-40.414 40.404-106.029 40.407-146.517-.002l-5.652 5.662c43.609 43.524 114.285 43.527 157.825-.002l-5.656-5.658zm-146.515 0c-40.413-40.403-40.416-106 .003-146.478l-5.661-5.652c-43.535 43.598-43.539 114.258.002 157.788l5.656-5.658zm0-146.475c40.487-40.477 106.064-40.476 146.514-.001l5.658-5.655c-43.575-43.603-114.218-43.601-157.828-.002l5.656 5.658z" fill="#E1E4E5" mask="url(#a)"/><path fill-rule="evenodd" clip-rule="evenodd" d="M516.954 291.503a60.993 60.993 0 0 1-60.997 60.996 61 61 0 0 1-43.132-17.864 60.996 60.996 0 0 1-17.864-43.132 60.996 60.996 0 0 1 17.864-43.132 61 61 0 0 1 104.129 43.132z" fill="#206bc4"/><circle cx="443.301" cy="269.655" r="20.496" fill="#fff"/><path d="m508.113 235.719 104.591-104.59h122.12" stroke="#E1E4E5" stroke-width="4" stroke-linecap="round" stroke-linejoin="bevel" stroke-dasharray="11.32 28.31"/><path d="M706.045 81.358a30 30 0 0 1 30 0l20.814 12.017a30 30 0 0 1 15 25.981v24.034a30 30 0 0 1-15 25.981l-20.814 12.017a30.005 30.005 0 0 1-30 0l-20.814-12.017a30 30 0 0 1-15-25.981v-24.034a30 30 0 0 1 15-25.98l20.814-12.018z" fill="#206bc4"/><path d="m739.193 120.412-21.418 21.246-12.85-12.748" stroke="#fff" stroke-width="8.45" stroke-linecap="round" stroke-linejoin="round"/><path d="m411.607 235.719-104.591-104.59h-122.12" stroke="#E1E4E5" stroke-width="4" stroke-linecap="round" stroke-linejoin="bevel" stroke-dasharray="11.32 28.31"/><path d="M183.675 81.358a30 30 0 0 1 30 0l20.814 12.017a30 30 0 0 1 15 25.981v24.034a30 30 0 0 1-15 25.981l-20.814 12.017a30.005 30.005 0 0 1-30 0l-20.814-12.017a30 30 0 0 1-15-25.981v-24.034a30 30 0 0 1 15-25.98l20.814-12.018z" fill="#206bc4"/><path d="m216.824 120.412-21.418 21.246-12.85-12.748" stroke="#fff" stroke-width="8.45" stroke-linecap="round" stroke-linejoin="round"/><path d="M411.607 351.997 307.016 456.588h-122.12" stroke="#E1E4E5" stroke-width="4" stroke-linecap="round" stroke-linejoin="bevel" stroke-dasharray="11.32 28.31"/><path d="M183.675 398.053a30 30 0 0 1 30 0l20.814 12.017a29.999 29.999 0 0 1 15 25.98v24.034a30 30 0 0 1-15 25.981l-20.814 12.017a30 30 0 0 1-30 0l-20.814-12.017a30 30 0 0 1-15-25.981V436.05a29.999 29.999 0 0 1 15-25.98l20.814-12.017z" fill="#206bc4"/><path d="m216.824 437.106-21.418 21.246-12.85-12.748" stroke="#fff" stroke-width="8.45" stroke-linecap="round" stroke-linejoin="round"/><path d="m508.113 351.996 104.591 104.591h122.12" stroke="#E1E4E5" stroke-width="4" stroke-linecap="round" stroke-linejoin="bevel" stroke-dasharray="11.32 28.31"/><path d="M706.045 398.053a30 30 0 0 1 30 0l20.814 12.017a29.999 29.999 0 0 1 15 25.98v24.034a30 30 0 0 1-15 25.981l-20.814 12.017a30 30 0 0 1-30 0l-20.814-12.017a30 30 0 0 1-15-25.981V436.05a29.999 29.999 0 0 1 15-25.98l20.814-12.017z" fill="#206bc4"/><path d="m739.193 437.106-21.418 21.246-12.85-12.748" stroke="#fff" stroke-width="8.45" stroke-linecap="round" stroke-linejoin="round"/><path fill-rule="evenodd" clip-rule="evenodd" d="M505.515 520.09h-6.166a2.694 2.694 0 0 1-2.691-2.691v-6.166a2.693 2.693 0 0 1 2.691-2.691h6.166a2.701 2.701 0 0 1 2.692 2.691v6.166c.012 1.478-1.201 2.691-2.692 2.691zm-21.452.484h-6.166a2.702 2.702 0 0 1-2.691-2.691v-6.166a2.693 2.693 0 0 1 2.691-2.691h6.166a2.702 2.702 0 0 1 2.692 2.691v6.166a2.702 2.702 0 0 1-2.692 2.691zm-21.316-.484h-6.166a2.702 2.702 0 0 1-2.691-2.691v-6.166a2.693 2.693 0 0 1 2.691-2.691h6.166a2.7 2.7 0 0 1 2.691 2.691v6.166c.013 1.478-1.2 2.691-2.691 2.691zm-21.381 0H435.2a2.702 2.702 0 0 1-2.691-2.691v-6.166a2.693 2.693 0 0 1 2.691-2.691h6.166a2.704 2.704 0 0 1 2.704 2.691v6.166c-.013 1.478-1.226 2.691-2.704 2.691zm-21.377 0h-6.166a2.704 2.704 0 0 1-2.704-2.691v-6.166a2.696 2.696 0 0 1 2.704-2.691h6.166a2.7 2.7 0 0 1 2.691 2.691v6.166a2.702 2.702 0 0 1-2.691 2.691zm63.365-23.31h-6.166a2.702 2.702 0 0 1-2.691-2.692v-6.178a2.7 2.7 0 0 1 2.691-2.691h6.166a2.693 2.693 0 0 1 2.692 2.691v6.166a2.69 2.69 0 0 1-2.692 2.704zm-21.38 0h-6.166a2.702 2.702 0 0 1-2.691-2.692v-6.178a2.7 2.7 0 0 1 2.691-2.691h6.166a2.701 2.701 0 0 1 2.692 2.691v6.166a2.69 2.69 0 0 1-2.692 2.704zm-21.378 0h-6.166a2.704 2.704 0 0 1-2.703-2.692v-6.178a2.703 2.703 0 0 1 2.703-2.691h6.166a2.701 2.701 0 0 1 2.692 2.691v6.166a2.705 2.705 0 0 1-2.692 2.704zm22.151 48.355h-6.166a2.702 2.702 0 0 1-2.691-2.692v-6.166a2.694 2.694 0 0 1 2.691-2.691h6.166a2.702 2.702 0 0 1 2.691 2.691v6.166c.013 1.479-1.2 2.692-2.691 2.692zm20.992 0h-6.166a2.702 2.702 0 0 1-2.691-2.692v-6.166a2.694 2.694 0 0 1 2.691-2.691h6.166a2.702 2.702 0 0 1 2.691 2.691v6.166c.013 1.479-1.2 2.692-2.691 2.692zm-42.373 0H435.2a2.702 2.702 0 0 1-2.691-2.692v-6.166a2.694 2.694 0 0 1 2.691-2.691h6.166a2.704 2.704 0 0 1 2.704 2.691v6.166c-.013 1.479-1.226 2.692-2.704 2.692z" fill="#E1E4E5"/><path d="M809.196 303.63c-17.542 8.702-40.824-2.487-40.824-2.487s5.174-25.292 22.726-33.982c17.542-8.702 40.815 2.475 40.815 2.475s-5.175 25.292-22.717 33.994z" fill="url(#b)"/><path d="M101.528 334.778c23.908 14.329 58.207 1.083 58.207 1.083s-4.484-36.471-28.406-50.784c-23.908-14.329-58.193-1.099-58.193-1.099s4.485 36.472 28.392 50.8z" fill="url(#c)"/><circle cx="563.308" cy="96.339" r="20.136" transform="rotate(180 563.308 96.34)" fill="#206bc4"/><circle cx="264.316" cy="87.163" r="8.622" transform="rotate(180 264.316 87.163)" fill="#206bc4"/><circle cx="718.679" cy="244.699" r="16.576" transform="rotate(180 718.679 244.699)" fill="#206bc4"/><circle r="8.809" transform="matrix(-1 0 0 1 762.331 356.131)" fill="#206bc4"/><circle r="11.326" transform="matrix(-1 0 0 1 588.388 532.772)" fill="#E1E4E5"/><circle r="11.644" transform="matrix(-1 0 0 1 297.721 534.258)" fill="#E1E4E5"/><circle r="6.129" transform="matrix(-1 0 0 1 816.378 528.743)" fill="#E1E4E5"/><circle r="13.843" transform="matrix(-1 0 0 1 202.925 351.816)" fill="#E1E4E5"/><circle r="12.431" transform="scale(1 -1) rotate(-75 -75.816 -147.835)" fill="#E1E4E5"/><circle r="16.538" transform="matrix(-1 0 0 1 348.191 72.875)" fill="#E1E4E5"/><ellipse rx="12.721" ry="10.177" transform="matrix(-1 0 0 1 815.96 189.219)" fill="#E1E4E5"/><circle r="11.272" transform="scale(1 -1) rotate(-75 187.562 -335.918)" fill="#E1E4E5"/><path d="M181.592 207.088h.182c1.073 15.205 12.38 15.439 12.38 15.439s-12.469.243-12.469 17.812c0-17.569-12.469-17.812-12.469-17.812s11.303-.234 12.376-15.439z" fill="#E1E4E5"/><defs><linearGradient id="b" x1="741.833" y1="330.773" x2="886.52" y2="216.325" gradientUnits="userSpaceOnUse"><stop stop-color="#fff"/><stop offset="1" stop-color="#EEE"/></linearGradient><linearGradient id="c" x1="194.044" y1="380.902" x2="1.676" y2="202.167" gradientUnits="userSpaceOnUse"><stop stop-color="#fff"/><stop offset="1" stop-color="#EEE"/></linearGradient></defs></svg>