<svg width="900" height="600" viewBox="0 0 900 600" fill="none" xmlns="http://www.w3.org/2000/svg"><path fill="transparent" d="M0 0h900v600H0z"/><path d="M738.921 497.007H173.123c-16.752 0-30.325-13.541-30.325-30.224V113.368c0-16.683 13.573-30.224 30.325-30.224h565.798c16.752 0 30.325 13.541 30.325 30.224v353.415c0 16.683-13.573 30.224-30.325 30.224z" fill="#fff" stroke="#E1E4E5" stroke-width="4.523"/><path d="M769.246 131.767H142.798v-11.91c0-20.669 13.942-36.713 30.325-36.713h565.798c16.383 0 30.325 16.044 30.325 36.713v11.91z" fill="#fff" stroke="#E1E4E5" stroke-width="4.523"/><path d="M179.266 117.124a8.303 8.303 0 1 0 .001-16.605 8.303 8.303 0 0 0-.001 16.605zm34.594 0a8.302 8.302 0 0 0 8.302-8.303 8.302 8.302 0 0 0-16.604 0 8.302 8.302 0 0 0 8.302 8.303zm33.21 0a8.302 8.302 0 0 0 8.302-8.303 8.302 8.302 0 0 0-16.604 0 8.302 8.302 0 0 0 8.302 8.303z" fill="#E1E4E5"/><path d="M221.999 459.071c-11.008-15.4-22.281-31.767-37.04-39.828-15.224-8.32-18.031-3.192-19.085 4.959-1.054 8.152 3.643 27.465 24.419 38.454 20.781 10.992 42.006 10.827 31.706-3.585z" fill="url(#a)"/><path d="M702.677 221.44c-24.255 5.746-49.908-14.824-49.908-14.824s13.69-29.875 37.952-35.603c24.255-5.746 49.9 14.806 49.9 14.806s-13.69 29.875-37.944 35.621z" fill="url(#b)"/><path d="M639.447 477.663c10.036 6.912 25.367 2.081 25.367 2.081s-.949-16.038-10.991-22.943c-10.036-6.913-25.361-2.087-25.361-2.087s.95 16.037 10.985 22.949z" fill="url(#c)"/><path d="M75.674 389.839c7.948 16.599 31.664 21.796 31.664 21.796s10.813-21.721 2.851-38.317c-7.949-16.599-31.651-21.8-31.651-21.8s-10.813 21.721-2.864 38.321z" fill="url(#d)"/><ellipse cx="762.283" cy="357.452" rx="17.716" ry="16.946" transform="rotate(180 762.283 357.452)" fill="#206bc4"/><ellipse cx="254.903" cy="441.487" rx="23.879" ry="23.108" transform="rotate(180 254.903 441.487)" fill="#206bc4"/><circle r="17.39" transform="matrix(-1 0 0 1 186.634 157.458)" fill="#206bc4"/><circle r="14.548" transform="matrix(-1 0 0 1 721.246 450.046)" fill="#E1E4E5"/><circle r="7.931" transform="matrix(-1 0 0 1 238.956 373.729)" fill="#E1E4E5"/><circle r="7.54" transform="matrix(-1 0 0 1 119.952 483.39)" fill="#E1E4E5"/><circle r="11.508" transform="matrix(-1 0 0 1 685.342 101.73)" fill="#E1E4E5"/><circle r="7.527" transform="scale(1 -1) rotate(-75 -14.12 -245.24)" fill="#E1E4E5"/><ellipse rx="7.703" ry="6.162" transform="matrix(-1 0 0 1 675.645 300.626)" fill="#E1E4E5"/><path d="M600.624 162.811h.202c1.193 16.907 13.767 17.167 13.767 17.167s-13.865.271-13.865 19.806c0-19.535-13.865-19.806-13.865-19.806s12.568-.26 13.761-17.167zm-302.759 29.347h.137c.812 11.695 9.372 11.875 9.372 11.875s-9.439.188-9.439 13.701c0-13.513-9.438-13.701-9.438-13.701s8.556-.18 9.368-11.875z" fill="#E1E4E5"/><path fill-rule="evenodd" clip-rule="evenodd" d="M332.706 255.058c-6.982 18.224-10.063 38.402-8.226 59.519a128.02 128.02 0 0 0 3.748 21.545l18.238-5.226a23.642 23.642 0 0 1 23.475 6.26l31.025 31.96a20.18 20.18 0 0 0 15.644 6.09l.507-.029c14.717-.852 26.616 11.827 24.833 26.461l-3.922 32.181c2.124.293 4.262.534 6.415.721 6.665.58 13.236.67 19.682.302a23.64 23.64 0 0 1-5.619-22.629l6.126-21.939c3.103-11.112 13.773-18.361 25.247-17.153l25.276 2.663c16.883 1.778 26.194 20.075 18.408 34.6a132.678 132.678 0 0 0 18.29-15.804l-15.319-44.865a20.18 20.18 0 0 0-12.075-12.398l-28.282-10.496c-16.241-6.028-20.698-26.899-8.335-39.035l70.621-69.32c-11.896-14.359-26.737-26.23-43.519-34.607l-19.285 61.973a23.643 23.643 0 0 1-18.114 16.192l-50.381 9.678a20.178 20.178 0 0 0-13.672 9.732l-2.083 3.611c-7.359 12.753-24.459 15.75-35.716 6.259l-42.987-36.246zm101.898 178.241 3.909-32.08c1.523-12.491-8.634-23.313-21.196-22.587l-.507.03a23.645 23.645 0 0 1-18.328-7.135l-31.025-31.96a20.179 20.179 0 0 0-20.037-5.343l-18.266 5.234c14.059 48.093 55.376 85.541 105.45 93.841zm153.747-142.667c3.395 39.049-10.015 74.879-33.818 101.083l-14.723-43.119a23.642 23.642 0 0 0-14.147-14.524l-28.281-10.496c-13.863-5.145-17.667-22.961-7.115-33.319l70.381-69.084c15.416 19.614 25.452 43.568 27.703 69.459zM334.058 251.67l43.866 36.987c9.609 8.102 24.205 5.544 30.486-5.342l2.084-3.611a23.638 23.638 0 0 1 16.016-11.402l50.382-9.678a20.178 20.178 0 0 0 15.461-13.821l19.439-62.466c-13.459-6.278-28.093-10.333-43.404-11.668-60.336-5.246-113.001 29.642-134.33 81.001zm134.619 182.834c21.037-1.919 40.628-8.727 57.635-19.281l3.157-4.735c8.416-12.624.413-29.672-14.676-31.261l-25.277-2.663c-9.793-1.032-18.901 5.156-21.549 14.641l-6.127 21.939a20.181 20.181 0 0 0 5.189 19.718l1.648 1.642z" fill="#E1E4E5"/><path fill-rule="evenodd" clip-rule="evenodd" d="M638.764 429.384h-98.912c-7.807 0-14.13-6.324-14.13-14.13v-98.912c0-7.807 6.323-14.131 14.13-14.131h98.912c7.807 0 14.131 6.324 14.131 14.131v98.912c0 7.806-6.324 14.13-14.131 14.13z" fill="#206bc4"/><path d="M587.966 336.124h-33.983m17.026-5.652v5.652m8.472.014c0 14.611-11.417 26.445-25.498 26.445" stroke="#fff" stroke-width="10.598" stroke-linecap="round" stroke-linejoin="round"/><path d="M587.987 362.583c-6.111 0-11.579-3.257-15.458-8.393m36.047 14.822-16.052 32.111m32.11 0-16.059-32.111m-13.219 26.445h26.445" stroke="#fff" stroke-width="10.598" stroke-linecap="round" stroke-linejoin="round"/><defs><linearGradient id="a" x1="209.708" y1="509.624" x2="173.592" y2="342.61" gradientUnits="userSpaceOnUse"><stop stop-color="#fff"/><stop offset="1" stop-color="#EEE"/></linearGradient><linearGradient id="b" x1="611.34" y1="235.726" x2="823.665" y2="135.417" gradientUnits="userSpaceOnUse"><stop stop-color="#fff"/><stop offset="1" stop-color="#EEE"/></linearGradient><linearGradient id="c" x1="678.539" y1="500.343" x2="599.543" y2="417.044" gradientUnits="userSpaceOnUse"><stop stop-color="#fff"/><stop offset="1" stop-color="#EEE"/></linearGradient><linearGradient id="d" x1="109.83" y1="448.937" x2="68.976" y2="280.432" gradientUnits="userSpaceOnUse"><stop stop-color="#fff"/><stop offset="1" stop-color="#EEE"/></linearGradient></defs></svg>